<?xml version="1.0" encoding="UTF-8"?>
<svg width="256px" height="256px" viewBox="0 0 256 256" version="1.1" xmlns="http://www.w3.org/2000/svg" xmlns:xlink="http://www.w3.org/1999/xlink">
    <!-- Generator: Sketch 56.3 (81716) - https://sketch.com -->
    <title>Icons/Illustrative/objects/2-gears-wrench-256x256</title>
    <desc>Created with Sketch.</desc>
    <g id="Icons/Illustrative/objects/2-gears-wrench-256x256" stroke="none" stroke-width="1" fill="none" fill-rule="evenodd">
        <g id="Icons/Illustrative/Oval" fill="#F2F3F2">
            <circle id="Oval" cx="128" cy="128" r="128"></circle>
        </g>
        <g id="Group" transform="translate(18.000000, 18.000000)" fill-rule="nonzero">
            <path d="M189.000009,79.69 L189.000009,69.79 C189.002704,68.2483606 188.38943,66.7695221 187.296512,65.6822371 C186.203593,64.5949522 184.721605,63.9893289 183.18,64 L174.61,64 C173.573338,59.8840905 171.939324,55.9422419 169.76,52.3 L175.82,46.24 C178.074462,43.9832456 178.074462,40.3267544 175.82,38.07 L168.82,31.07 C166.55755,28.8198774 162.902451,28.8198774 160.64,31.07 L154.64,37.12 C151.000229,34.9334286 147.057784,33.2957977 142.94,32.26 L142.94,23.73 C142.926796,22.1970306 142.305134,20.7320994 141.211785,19.6575036 C140.118435,18.5829078 138.642968,17.9866817 137.11,17.9997816 L127.22,17.9997816 C124.027794,17.9997816 121.44,20.5877942 121.44,23.78 L121.44,32.34 C117.32309,33.368835 113.380597,34.9997464 109.74,37.18 L103.68,31.18 C101.420088,28.9616363 97.7999116,28.9616363 95.54,31.18 L88.54,38.18 C87.4523907,39.2611754 86.8408343,40.7314309 86.8408343,42.265 C86.8408343,43.7985692 87.4523907,45.2688246 88.54,46.35 L94.54,52.35 C92.3651501,55.9766906 90.7312635,59.9013872 89.69,64 L81.15,64 C77.9577942,64 75.37,66.5877942 75.37,69.78 L75.37,79.68 C75.37,82.8722059 77.9577942,85.46 81.15,85.46 L89.72,85.46 C90.7482054,89.5613358 92.3721395,93.4897739 94.54,97.12 L88.54,103.22 C87.4523907,104.301175 86.8408343,105.771431 86.8408343,107.305 C86.8408343,108.838569 87.4523907,110.308825 88.54,111.39 L95.54,118.39 C97.8024505,120.640123 101.45755,120.640123 103.72,118.39 L109.78,112.32 C113.423922,114.498334 117.365122,116.135448 121.48,117.18 L121.48,125.74 C121.48,128.932206 124.067794,131.52 127.26,131.52 L137.15,131.52 C140.342206,131.52 142.93,128.932206 142.93,125.74 L142.93,117.18 C147.043674,116.131834 150.984367,114.494931 154.63,112.32 L160.69,118.39 C162.952451,120.640123 166.60755,120.640123 168.87,118.39 L175.87,111.39 C178.124462,109.133246 178.124462,105.476754 175.87,103.22 L169.76,97.12 C171.937529,93.4804158 173.571461,89.5421335 174.61,85.43 L183.18,85.43 C184.712962,85.4406455 186.187364,84.841869 187.278833,83.7654023 C188.370303,82.6889356 188.989428,81.2229629 189.000009,79.69 Z" id="Path" fill="#C41F3E"></path>
            <ellipse id="Oval" fill="#FFFFFF" cx="132.16" cy="74.74" rx="22.85" ry="22.89"></ellipse>
            <path d="M187.82,137.9 L186.3,133.71 C186.063478,133.059917 185.57764,132.530893 184.95,132.24 C184.323478,131.938609 183.60106,131.9061 182.95,132.15 L179.31,133.47 C178.239344,131.879997 176.938487,130.457816 175.45,129.25 L177.09,125.75 C177.378265,125.12024 177.410536,124.403106 177.18,123.75 C176.943478,123.099917 176.45764,122.570893 175.83,122.28 L171.83,120.39 C170.523599,119.785414 168.974114,120.348051 168.36,121.65 L166.68,125.13 C164.802585,124.767221 162.881968,124.682983 160.98,124.88 L159.65,121.24 C159.156991,119.888254 157.663009,119.190465 156.31,119.68 L152.12,121.21 C151.467319,121.44619 150.935033,121.931721 150.64,122.56 C150.346396,123.189009 150.317574,123.90955 150.56,124.56 L151.88,128.19 C150.294557,129.266438 148.873171,130.566569 147.66,132.05 L144.16,130.42 C142.856552,129.808152 141.303837,130.367488 140.69,131.67 L138.8,135.72 C138.201268,137.026645 138.762385,138.571943 140.06,139.19 L143.57,140.82 C143.20696,142.700758 143.122724,144.62471 143.32,146.53 L139.68,147.85 C138.328254,148.343009 137.630465,149.836992 138.12,151.19 L139.65,155.39 C140.143009,156.741746 141.636992,157.439535 142.99,156.95 L146.62,155.63 C147.699271,157.210265 148.99911,158.627965 150.48,159.84 L148.85,163.35 C148.557225,163.975766 148.52554,164.692325 148.761941,165.34149 C148.998342,165.990654 149.483388,166.51904 150.11,166.81 L154.11,168.7 C154.738994,168.991421 155.457374,169.023748 156.11,168.79 C156.764434,168.55672 157.297704,168.070291 157.59,167.44 L159.22,163.94 C161.10134,164.298069 163.024565,164.382273 164.93,164.19 L166.25,167.82 C166.48002,168.47429 166.963777,169.008419 167.59216,169.301915 C168.220542,169.595411 168.940627,169.623555 169.59,169.38 L173.79,167.86 C175.141747,167.366991 175.839535,165.873009 175.35,164.52 L174,160.87 C175.586919,159.799141 177.00577,158.498247 178.21,157.01 L181.72,158.65 C182.348994,158.941421 183.067374,158.973748 183.72,158.74 C184.370083,158.503478 184.899107,158.01764 185.19,157.39 L187.08,153.39 C187.368265,152.76024 187.400536,152.043106 187.17,151.39 C186.933478,150.739917 186.44764,150.210893 185.82,149.92 L182.32,148.28 C182.6778,146.402001 182.762006,144.482114 182.57,142.58 L186.2,141.25 C186.86231,141.025975 187.405914,140.543694 187.707242,139.912787 C188.008571,139.281881 188.042025,138.555947 187.8,137.9 L187.82,137.9 Z" id="Path" fill="#C41F3E"></path>
            <ellipse id="Oval" fill="#FFFFFF" transform="translate(162.975584, 144.548403) rotate(-19.970000) translate(-162.975584, -144.548403) " cx="162.975584" cy="144.548403" rx="10.31" ry="10.33"></ellipse>
            <path d="M96.1784094,130.17991 L119.02848,130.17991 L119.02848,201.50991 C119.039035,204.54572 117.842561,207.461266 115.702481,209.614475 C113.562401,211.767685 110.654227,212.981968 107.618409,212.98991 L107.618409,212.98991 C101.300272,212.98991 96.1784094,207.868048 96.1784094,201.54991 L96.1784094,130.17991 L96.1784094,130.17991 Z" id="Path" fill="#8B1D41" transform="translate(107.603445, 171.584910) rotate(-55.410000) translate(-107.603445, -171.584910) "></path>
            <circle id="Oval" fill="#FFFFFF" cx="131.36" cy="187.97" r="7.26"></circle>
            <path d="M45.15,114.51 L66.84,129.51 L67.41,138.37 L62.47,145.54 L53.75,148.48 L32.06,133.49 C29.1423375,147.410687 36.4484609,161.45713 49.5213637,167.060478 C62.5942664,172.663825 77.8049178,168.26859 85.8742555,156.556029 C93.9435933,144.843469 92.6315736,129.064983 82.7385773,118.846035 C72.845581,108.627086 57.1178984,106.804449 45.15,114.49 L45.15,114.51 Z" id="Path" fill="#8B1D41"></path>
        </g>
    </g>
</svg>