<?xml version="1.0" encoding="UTF-8"?>
<svg width="256px" height="256px" viewBox="0 0 256 256" version="1.1" xmlns="http://www.w3.org/2000/svg" xmlns:xlink="http://www.w3.org/1999/xlink">
    <!-- Generator: Sketch 56.3 (81716) - https://sketch.com -->
    <title>Icons/Illustrative/objects/3-gears-256x256</title>
    <desc>Created with Sketch.</desc>
    <g id="Icons/Illustrative/objects/3-gears-256x256" stroke="none" stroke-width="1" fill="none" fill-rule="evenodd">
        <g id="Icons/Illustrative/Oval" fill="#F2F3F2">
            <circle id="Oval" cx="128" cy="128" r="128"></circle>
        </g>
        <g id="Group" transform="translate(37.000000, 54.000000)" fill-rule="nonzero">
            <g id="Layer_1">
                <path d="M114.42,62.56 L114.42,52.66 C114.42,49.4677942 111.832206,46.88 108.64,46.88 L100.07,46.88 C99.0321086,42.7644979 97.3981668,38.8228239 95.2200001,35.18 L101.28,29.12 C102.365143,28.0375117 102.974994,26.5677481 102.974994,25.035 C102.974994,23.502252 102.365143,22.0324884 101.28,20.95 L94.2800001,13.95 C92.0175496,11.6998774 88.3624505,11.6998774 86.1,13.95 L80.05,20 C76.4097031,17.8144716 72.4674168,16.1769065 68.35,15.14 L68.35,6.60000002 C68.35,3.40779417 65.7622059,0.820000021 62.57,0.820000021 L52.68,0.820000021 C49.4877942,0.820000021 46.9,3.40779417 46.9,6.60000002 L46.9,15.16 C42.7836843,16.1906377 38.8414497,17.8214424 35.2,20 L29.14,14 C26.8822846,11.7762704 23.2577154,11.7762704 21,14 L14,21 C12.9148569,22.0824884 12.3050062,23.552252 12.3050062,25.085 C12.3050062,26.6177481 12.9148569,28.0875117 14,29.17 L20,35.18 C17.8218332,38.8228239 16.1878915,42.7644979 15.15,46.88 L6.61000002,46.88 C3.41779416,46.88 0.830000015,49.4677942 0.830000015,52.66 L0.830000015,62.56 C0.830000015,65.7522059 3.41779416,68.34 6.61000002,68.34 L15.18,68.34 C16.2094374,72.440929 17.8332991,76.369192 20,80.0000001 L14,86.1000001 C12.9148569,87.1824884 12.3050062,88.652252 12.3050062,90.1850001 C12.3050062,91.7177481 12.9148569,93.1875117 14,94.2700001 L21,101.27 C23.2624505,103.520123 26.9175496,103.520123 29.18,101.27 L35.24,95.2000001 C38.8844313,97.3773216 42.8254804,99.0143728 46.94,100.06 L46.94,108.62 C46.94,111.812206 49.5277942,114.4 52.72,114.4 L62.61,114.4 C65.8022059,114.4 68.39,111.812206 68.39,108.62 L68.39,100.06 C72.5045197,99.0143728 76.4455688,97.3773216 80.09,95.2000001 L86.15,101.27 C88.4124505,103.520123 92.0675496,103.520123 94.33,101.27 L101.33,94.2700001 C102.415143,93.1875117 103.024994,91.7177481 103.024994,90.1850001 C103.024994,88.652252 102.415143,87.1824884 101.33,86.1000001 L95.2200001,80.0000001 C97.3998463,76.3615825 99.0339239,72.4229501 100.07,68.31 L108.64,68.31 C111.820527,68.3100429 114.403492,65.7404839 114.42,62.56 Z" id="Path" fill="#C4203F"></path>
                <ellipse id="Oval" fill="#FFFFFF" cx="57.62" cy="57.61" rx="22.85" ry="22.89"></ellipse>
                <path d="M160.94,126.66 L167.4,123 C169.479858,121.827386 170.217997,119.192455 169.05,117.11 L165.9,111.54 C168.20216,109.347072 170.172824,106.830686 171.75,104.07 L177.93,105.77 C180.230965,106.399185 182.610391,105.062429 183.27,102.77 L185.27,95.6400001 C185.579822,94.5379366 185.437398,93.3578231 184.874284,92.3611108 C184.31117,91.3643984 183.373855,90.6333761 182.27,90.3300001 L176.09,88.6300001 C176.172121,85.4610511 175.788016,82.2972391 174.95,79.2400001 L180.55,76.0800001 C181.549203,75.5170447 182.283543,74.5798689 182.591174,73.4750214 C182.898806,72.3701738 182.754478,71.1883436 182.19,70.19 L178.56,63.76 C177.993646,62.7615041 177.053173,62.029478 175.94621,61.7255321 C174.839247,61.4215863 173.656829,61.5707168 172.66,62.14 L167.07,65.3 C164.875944,63.010201 162.359419,61.0529039 159.6,59.49 L161.33,53.31 C161.639822,52.2079366 161.497398,51.0278231 160.934284,50.0311108 C160.37117,49.0343984 159.433855,48.3033761 158.33,48 L151.2,46 C148.898322,45.364998 146.515012,46.7039366 145.86,49 L144.13,55.18 C140.952987,55.1075635 137.782541,55.5017635 134.72,56.35 L131.56,50.78 C130.380696,48.7063974 127.743865,47.981157 125.67,49.16 L119.21,52.81 C117.130142,53.9826143 116.392003,56.6175453 117.56,58.7 L120.72,64.27 C118.414194,66.4621427 116.440122,68.9785793 114.86,71.74 L108.68,70.04 C106.379035,69.4108147 103.999609,70.747571 103.34,73.04 L101.34,80.1700001 C101.030179,81.2720635 101.172602,82.452177 101.735716,83.4488893 C102.29883,84.4456017 103.236145,85.176624 104.34,85.4800001 L110.52,87.1800001 C110.437879,90.348949 110.821984,93.512761 111.66,96.5700001 L106.07,99.7400001 C105.067067,100.299331 104.328815,101.235777 104.019044,102.341566 C103.709273,103.447355 103.853599,104.631042 104.42,105.63 L108.06,112.05 C108.624417,113.047815 109.563098,113.77966 110.668437,114.083675 C111.773777,114.387691 112.954691,114.238824 113.95,113.67 L119.54,110.51 C121.73348,112.800438 124.250104,114.757812 127.01,116.32 L125.28,122.5 C124.972968,123.601993 125.116633,124.780841 125.679344,125.77684 C126.242055,126.772838 127.177645,127.504271 128.28,127.81 L135.42,129.81 C137.718465,130.438652 140.094904,129.101069 140.75,126.81 L142.48,120.63 C145.660273,120.70183 148.83393,120.307649 151.9,119.46 L155.05,125.03 C155.612726,126.02952 156.550663,126.763498 157.656151,127.069431 C158.761639,127.375364 159.943475,127.228012 160.94,126.66 Z" id="Path" fill="#8B1D41"></path>
                <ellipse id="Oval" fill="#FFFFFF" transform="translate(143.297092, 87.919657) rotate(-29.510000) translate(-143.297092, -87.919657) " cx="143.297092" cy="87.9196574" rx="17.16" ry="17.05"></ellipse>
                <path d="M113.28,120.77 L111.76,116.58 C111.525437,115.929106 111.041121,115.398545 110.414257,115.105759 C109.787393,114.812972 109.069685,114.782108 108.42,115.02 L104.78,116.34 C103.708647,114.750545 102.407879,113.328462 100.92,112.12 L102.56,108.62 C102.853177,107.992779 102.885128,107.27477 102.648821,106.623987 C102.412514,105.973205 101.927314,105.442979 101.3,105.15 L97.3000001,103.26 C95.9935991,102.655414 94.4441144,103.218051 93.8300001,104.52 L92.1500001,108 C90.2727392,107.635911 88.3519286,107.551665 86.45,107.75 L85.12,104.11 C84.6269911,102.758254 83.1330085,102.060465 81.78,102.55 L77.59,104.08 C76.9391063,104.314563 76.4085453,104.79888 76.1157585,105.425744 C75.8229717,106.052608 75.7921083,106.770315 76.03,107.42 L77.35,111.05 C75.7650782,112.127098 74.3437814,113.427147 73.13,114.91 L69.63,113.28 C68.3265524,112.668152 66.7738369,113.227488 66.16,114.53 L64.27,118.58 C63.6712679,119.886645 64.2323847,121.431943 65.53,122.05 L69.04,123.68 C68.6760897,125.560655 68.5918479,127.484736 68.79,129.39 L65.15,130.71 C63.7982536,131.203009 63.1004653,132.696992 63.59,134.05 L65.12,138.25 C65.613009,139.601746 67.1069916,140.299535 68.46,139.81 L72.09,138.49 C73.1673126,140.071817 74.4673944,141.489782 75.95,142.7 L74.32,146.21 C74.0272246,146.835766 73.99554,147.552325 74.231941,148.20149 C74.468342,148.850654 74.9533882,149.37904 75.58,149.67 L79.58,151.56 C80.2072211,151.853177 80.9252301,151.885128 81.5760128,151.648821 C82.2267956,151.412514 82.7570206,150.927314 83.05,150.3 L84.68,146.8 C86.5612422,147.158908 88.4845886,147.243118 90.39,147.05 L91.7100001,150.68 C91.9423091,151.332583 92.4263472,151.864914 93.0539635,152.158053 C93.6815799,152.451191 94.4004668,152.480705 95.0500001,152.24 L99.2500001,150.72 C100.601746,150.226991 101.299535,148.733009 100.81,147.38 L99.4900001,143.74 C101.076368,142.668443 102.495122,141.367638 103.7,139.88 L107.21,141.52 C107.835766,141.812776 108.552325,141.84446 109.20149,141.608059 C109.850654,141.371658 110.37904,140.886612 110.67,140.26 L112.56,136.26 C112.853177,135.632779 112.885128,134.91477 112.648821,134.263987 C112.412514,133.613205 111.927314,133.082979 111.3,132.79 L107.8,131.15 C108.159063,129.272148 108.243277,127.352077 108.05,125.45 L111.68,124.12 C112.34231,123.895975 112.885914,123.413694 113.187242,122.782787 C113.488571,122.151881 113.522025,121.425947 113.28,120.77 Z" id="Path" fill="#C4203F"></path>
                <ellipse id="Oval" fill="#FFFFFF" transform="translate(88.430929, 127.439618) rotate(-19.970000) translate(-88.430929, -127.439618) " cx="88.4309288" cy="127.439618" rx="10.31" ry="10.33"></ellipse>
            </g>
        </g>
    </g>
</svg>