<?xml version="1.0" encoding="UTF-8"?>
<svg width="256px" height="256px" viewBox="0 0 256 256" version="1.1" xmlns="http://www.w3.org/2000/svg" xmlns:xlink="http://www.w3.org/1999/xlink">
    <!-- Generator: Sketch 56.3 (81716) - https://sketch.com -->
    <title>Icons/Illustrative/documents/account-details-256x256</title>
    <desc>Created with Sketch.</desc>
    <g id="Icons/Illustrative/documents/account-details-256x256" stroke="none" stroke-width="1" fill="none" fill-rule="evenodd">
        <g id="Icons/Illustrative/Oval" fill="#F2F3F2">
            <circle id="Oval" cx="128" cy="128" r="128"></circle>
        </g>
        <g id="Group" transform="translate(74.000000, 51.000000)" fill-rule="nonzero">
            <g id="Account-Details-Overview-Op-2-256*256">
                <g id="Layer_1">
                    <path d="M57.1600001,5.36000002 L57.1600001,50.5 C57.1600001,52.4329967 58.7270034,54 60.6600001,54 L105.82,54 L57.1600001,5.36000002 Z" id="Path" fill="#8B1D41"></path>
                    <path d="M0.280000029,151.84 L110.9,151.84 L110.9,60.53 C110.9,58.5970034 109.332997,57.03 107.4,57.03 L60.5900001,57.03 C57.0024326,57.0244934 54.0955067,54.1175675 54.0900001,50.53 L54.0900001,3.72000002 C54.0900001,1.7870034 52.5229967,0.22000002 50.59,0.22000002 L0.280000029,0.22000002 L0.280000029,151.84 Z" id="Path" fill="#C4203F"></path>
                    <path d="M57.1600001,5.36000002 L57.1600001,50.5 C57.1600001,52.4329967 58.7270034,54 60.6600001,54 L105.82,54 L57.1600001,5.36000002 Z" id="Path" fill="#8B1D41"></path>
                    <path d="M0.280000029,151.84 L110.9,151.84 L110.9,60.53 C110.9,58.5970034 109.332997,57.03 107.4,57.03 L60.5900001,57.03 C57.0024326,57.0244934 54.0955067,54.1175675 54.0900001,50.53 L54.0900001,3.72000002 C54.0900001,1.7870034 52.5229967,0.22000002 50.59,0.22000002 L0.280000029,0.22000002 L0.280000029,151.84 Z" id="Path" fill="#C4203F"></path>
                </g>
                <g id="Layer_3" transform="translate(12.000000, 14.000000)">
                    <circle id="Oval" fill="#FFFFFF" cx="15.65" cy="15.86" r="15.36"></circle>
                    <path d="M23.08,24.64 C23.2412562,24.6438138 23.3963257,24.5779089 23.5054943,24.4591641 C23.6146629,24.3404193 23.6673274,24.1803679 23.65,24.02 C23.65,19.601722 20.068278,16.02 15.65,16.02 C11.231722,16.02 7.65,19.601722 7.65,24.02 C7.63267263,24.1803679 7.68533708,24.3404193 7.79450568,24.4591641 C7.90367428,24.5779089 8.05874379,24.6438138 8.22,24.64 L23.08,24.64 Z" id="Path" fill="#C4203F"></path>
                    <path d="M20.4600105,11.88 C20.4640465,13.8263683 19.2946967,15.5833356 17.497647,16.330984 C15.7005972,17.0786325 13.6300924,16.6695813 12.2523678,15.294721 C10.8746432,13.9198607 10.4612839,11.8502117 11.2051908,10.0516098 C11.9490976,8.25300803 13.7036275,7.08 15.65,7.08 C18.3025893,7.08 20.4544853,9.22741644 20.4600105,11.88" id="Path" fill="#C4203F"></path>
                    <polygon id="Path" fill="#FFFFFF" points="70.72 118.61 14.15 118.61 14.15 62.03 17.15 62.03 17.15 115.61 70.72 115.61"></polygon>
                    <polygon id="Path" fill="#F2F3F2" points="31.65 111.32 21.39 111.32 21.39 96.33 31.65 96.33 31.65 109.45"></polygon>
                    <polygon id="Path" fill="#FFFFFF" points="47.04 111.32 36.78 111.32 36.78 82.12 47.04 82.12 47.04 109.2"></polygon>
                    <polygon id="Path" fill="#F2F3F2" points="62.43 111.32 52.17 111.32 52.17 68.63 62.43 68.63 62.43 108.95"></polygon>
                </g>
            </g>
        </g>
    </g>
</svg>