<?xml version="1.0" encoding="UTF-8"?>
<svg width="256px" height="256px" viewBox="0 0 256 256" version="1.1" xmlns="http://www.w3.org/2000/svg" xmlns:xlink="http://www.w3.org/1999/xlink">
    <!-- Generator: Sketch 56.3 (81716) - https://sketch.com -->
    <title>Icons/Illustrative/currency/account-transfer-256x256</title>
    <desc>Created with Sketch.</desc>
    <g id="Icons/Illustrative/currency/account-transfer-256x256" stroke="none" stroke-width="1" fill="none" fill-rule="evenodd">
        <g id="Icons/Illustrative/Oval" fill="#F2F3F2">
            <circle id="Oval" cx="128" cy="128" r="128"></circle>
        </g>
        <g id="Group" transform="translate(62.000000, 67.000000)" fill-rule="nonzero">
            <g id="Layer_1">
                <path d="M89.4600001,100.48 C84.5699948,107.5297 76.8872391,112.139103 68.3656889,113.135898 C59.8441386,114.132694 51.304988,111.420824 44.92,105.69 L48.14,102.89 L37.85,102.19 L37.16,112.47 L40.38,109.66 C47.9955481,116.779998 58.3307381,120.236636 68.6974247,119.130856 C79.0641114,118.025077 88.4376437,112.466174 94.3800001,103.9 L89.4600001,100.48 Z" id="Path" fill="#7B143C"></path>
                <path d="M89.39,9.87000003 C81.7787396,2.74250758 71.4426474,-0.720116188 61.0737799,0.383976188 C50.7049124,1.48806856 41.3297234,7.04957876 35.39,15.62 L40.32,19.05 C45.2043924,11.9965825 52.8850483,7.38304835 61.4062109,6.38416067 C69.9273735,5.38527298 78.4667776,8.09742122 84.8500001,13.83 L81.6400001,16.64 L91.9200001,17.34 L92.6200001,7.05000003 L89.39,9.87000003 Z" id="Path" fill="#7B143C"></path>
                <rect id="Rectangle" fill="#C4203F" x="0.260000024" y="28.19" width="131.47" height="65.62" rx="5"></rect>
                <ellipse id="Oval" fill="#FFFFFF" cx="66" cy="61" rx="32.47" ry="24.63"></ellipse>
                <path d="M74.6200001,47.53 L73.9100001,51.87 C72.4352806,50.9787105 70.823651,50.3367616 69.1400001,49.97 L68.0000001,57.65 C73.2700001,59.42 75.7600001,61.5700001 75.7600001,66.1600001 C75.7600001,71.6000001 71.8800001,74.5100001 65.76,74.5100001 L65.54,74.5100001 L64.78,79.5100001 L61.88,78.8800001 C61.88,78.8800001 62.59,74.2800001 62.55,74.2800001 C60.3779856,73.9785643 58.2700517,73.323213 56.31,72.3400001 L57,68.0000001 C58.9774361,69.1574889 61.1498084,69.9437453 63.41,70.3200001 L64.72,61.5900001 C59.62,59.86 57.05,58.05 57.05,53.59 C57.05,48.53 60.72,45.74 66.5300001,45.74 L66.9500001,45.74 L67.4600001,42.58 L70.4600001,43.26 L70.0400001,46.04 C71.6273327,46.3260334 73.1682127,46.8273241 74.6200001,47.53 L74.6200001,47.53 Z M65.94,49.64 C62.94,49.64 61.55,50.9 61.55,52.97 C61.55,54.78 62.44,55.75 65.39,56.81 L66.4800001,49.64 L65.94,49.64 Z M66.0600001,70.5100001 C69.4300001,70.5100001 71.1200001,69.1200001 71.1200001,66.6300001 C71.1200001,64.7700001 70.3600001,63.5500001 67.2000001,62.4100001 L65.98,70.5100001 L66.0600001,70.5100001 Z" id="Shape" fill="#8B1D41"></path>
            </g>
        </g>
    </g>
</svg>