<svg width="256" height="256" viewBox="0 0 256 256" fill="none" xmlns="http://www.w3.org/2000/svg">
<circle cx="128" cy="128" r="128" fill="#F2F3F2"/>
<path d="M170.625 75.5862H172.656C173.03 75.5862 173.333 75.895 173.333 76.2759V96.9655C173.333 97.3464 173.03 97.6552 172.656 97.6552H170.625V75.5862Z" fill="#8B1D41"/>
<path d="M170.625 103.172H172.656C173.03 103.172 173.333 103.481 173.333 103.862V113.517C173.333 113.898 173.03 114.207 172.656 114.207H170.625V103.172Z" fill="#8B1D41"/>
<path d="M85.3331 59.0345C85.3331 52.9403 90.1822 48 96.1639 48H161.149C167.13 48 171.979 52.9403 171.979 59.0345V196.966C171.979 203.06 167.13 208 161.149 208H96.1639C90.1822 208 85.3331 203.06 85.3331 196.966V59.0345Z" fill="white"/>
<path fill-rule="evenodd" clip-rule="evenodd" d="M161.149 52.1379H96.1639C92.4254 52.1379 89.3947 55.2256 89.3947 59.0345V196.966C89.3947 200.774 92.4254 203.862 96.1639 203.862H161.149C164.887 203.862 167.918 200.774 167.918 196.966V59.0345C167.918 55.2256 164.887 52.1379 161.149 52.1379ZM96.1639 48C90.1822 48 85.3331 52.9403 85.3331 59.0345V196.966C85.3331 203.06 90.1822 208 96.1639 208H161.149C167.13 208 171.979 203.06 171.979 196.966V59.0345C171.979 52.9403 167.13 48 161.149 48H96.1639Z" fill="#C41F3E"/>
<path fill-rule="evenodd" clip-rule="evenodd" d="M128.863 100.513C128.171 101.513 122.468 108.993 106.667 108.993V119.879C106.667 134.014 113.594 146.821 124.333 152.541L127.833 154.404C128.16 154.578 128.512 154.667 128.863 154.667V100.513Z" fill="#C41F3E"/>
<path fill-rule="evenodd" clip-rule="evenodd" d="M128.863 100.513C129.526 101.513 134.982 108.993 150.095 108.993V119.879C150.095 134.014 143.47 146.821 133.197 152.541L129.85 154.404C129.536 154.578 129.2 154.667 128.863 154.667V100.513Z" fill="#8B1D41"/>
<path fill-rule="evenodd" clip-rule="evenodd" d="M146.717 118.564C152.314 118.564 156.851 113.625 156.851 107.533C156.851 101.44 152.314 96.5014 146.717 96.5014C141.121 96.5014 136.584 101.44 136.584 107.533C136.584 113.625 141.121 118.564 146.717 118.564" fill="#C41F3E"/>
<path fill-rule="evenodd" clip-rule="evenodd" d="M151.06 110.121C151.06 112.264 149.35 113.55 146.86 113.55C145.524 113.55 144.254 113.19 143.34 112.641L143.644 110.773C144.593 111.373 145.609 111.716 146.777 111.716C148.08 111.716 148.893 111.133 148.893 110.053C148.893 108.903 148.151 108.236 146.308 108.219H145.49L145.202 106.436H146.235C147.928 106.436 148.69 105.836 148.69 104.79C148.69 103.933 148.064 103.35 146.794 103.35C145.659 103.35 144.66 103.744 143.797 104.378L143.525 102.579C144.406 101.944 145.558 101.516 147.03 101.516C149.588 101.516 150.857 102.871 150.857 104.549C150.857 106.042 150.01 106.847 148.791 107.276C150.23 107.704 151.06 108.561 151.06 110.121" fill="white"/>
<path fill-rule="evenodd" clip-rule="evenodd" d="M146.718 97.0028C141.396 97.0028 137.067 101.726 137.067 107.533C137.067 113.339 141.396 118.063 146.718 118.063C152.039 118.063 156.368 113.339 156.368 107.533C156.368 101.726 152.039 97.0028 146.718 97.0028M146.717 119.066C140.864 119.066 136.102 113.892 136.102 107.533C136.102 101.174 140.864 96 146.717 96C152.571 96 157.333 101.174 157.333 107.533C157.333 113.892 152.571 119.066 146.717 119.066" fill="white"/>
</svg>
