<?xml version="1.0" encoding="UTF-8"?>
<svg width="256px" height="256px" viewBox="0 0 256 256" version="1.1" xmlns="http://www.w3.org/2000/svg" xmlns:xlink="http://www.w3.org/1999/xlink">
    <!-- Generator: Sketch 63.1 (92452) - https://sketch.com -->
    <title>Icons/Illustrative/device/apple-watch-256x256</title>
    <desc>Created with Sketch.</desc>
    <g id="Icons/Illustrative/device/apple-watch-256x256" stroke="none" stroke-width="1" fill="none" fill-rule="evenodd">
        <g id="Icons/Illustrative/Oval" transform="translate(0.000000, -1.000000)" fill="#F2F3F2">
            <circle id="Oval" cx="128" cy="128" r="128"></circle>
        </g>
        <g id="Group-38" transform="translate(77.000000, 42.000000)">
            <path d="M16.4801,147.1099 C19.1961,150.8769 20.1231,154.2779 20.1371,157.2159 L20.1371,157.2929 L20.8731,168.3049 C21.0551,171.1289 22.3321,173.3249 24.8281,173.7249 L24.7901,173.7249 C30.7781,174.7539 39.1181,175.1499 49.0911,175.1499 C58.9861,175.1499 67.5381,174.7029 73.5261,173.6989 L73.4701,173.6989 C75.8851,173.2179 77.1091,170.9189 77.2961,168.1259 L78.0451,157.3149 L78.0451,157.2379 C78.0451,154.2979 78.9821,150.8969 81.7031,147.1319 C82.1781,146.3619 82.7211,145.6449 83.3331,144.9859 C84.2081,144.0409 85.2091,143.2249 86.3061,142.5579 L49.0911,143.3299 L11.8791,142.5379 C13.7421,143.6719 15.3181,145.2369 16.4801,147.1099" id="Fill-4" fill="#C31F3F"></path>
            <path d="M24.819,1.7935 L24.873,1.7935 C22.458,2.2725 21.23,4.5745 21.048,7.3675 L20.298,18.1755 L20.298,18.2545 C20.298,21.1885 19.363,24.5965 16.64,28.3625 C16.168,29.1305 15.62,29.8465 15.008,30.5045 C14.133,31.4515 13.134,32.2675 12.04,32.9355 L49.254,32.1625 L86.466,32.9545 C85.372,32.2895 84.373,31.4735 83.496,30.5265 C82.886,29.8685 82.339,29.1505 81.866,28.3845 C79.147,24.6155 78.221,21.2105 78.209,18.2745 L78.209,18.1975 L77.468,7.1885 C77.287,4.3615 76.011,2.1685 73.517,1.7675 L73.556,1.7675 C67.567,0.7395 59.23,0.3435 49.254,0.3435 C39.359,0.3435 30.806,0.7895 24.819,1.7935" id="Fill-6" fill="#C31F3F"></path>
            <path d="M16.9284,30.5342 C7.7394,30.5342 0.2884,37.9702 0.2884,47.1442 L0.2884,126.5832 C0.2884,135.7522 7.7394,143.1902 16.9284,143.1902 L82.4104,143.1902 C91.6004,143.1902 99.0504,135.7522 99.0504,126.5832 L99.0504,47.1442 C99.0504,37.9702 91.6004,30.5342 82.4104,30.5342 L16.9284,30.5342 Z" id="Fill-8" fill="#8B1C41"></path>
            <path d="M18.2711,36.2642 C11.2241,36.2642 5.5131,42.0282 5.5131,49.1432 L5.5131,125.4162 C5.5131,132.5292 11.2241,138.2972 18.2711,138.2972 L79.0571,138.2972 C86.1041,138.2972 91.8131,132.5292 91.8131,125.4162 L91.8131,49.1432 C91.8131,42.0282 86.1041,36.2642 79.0571,36.2642 L18.2711,36.2642 Z" id="Fill-10" fill="#F1F2F1"></path>
            <path d="M99.8756,54.1436 C99.0836,54.1436 98.4416,54.8216 98.4416,55.6576 L98.4416,69.6986 C98.4416,70.5326 99.0836,71.2116 99.8756,71.2116 L101.3866,71.2116 C102.1806,71.2116 102.8216,70.5326 102.8216,69.6986 L102.8216,55.6576 C102.8216,54.8216 102.1806,54.1436 101.3866,54.1436 L99.8756,54.1436 Z" id="Fill-12" fill="#C31F3F"></path>
            <path d="M25.0485,96.4849 C17.8225,96.4849 11.9645,102.6059 11.9645,110.1609 L11.9645,118.2809 C11.9645,125.8319 17.8225,131.9549 25.0485,131.9549 L73.3055,131.9549 C80.5325,131.9549 86.3915,125.8319 86.3915,118.2809 L86.3915,110.1609 C86.3915,102.6059 80.5325,96.4849 73.3055,96.4849 L25.0485,96.4849 Z" id="Fill-14" fill="#FEFEFE"></path>
            <path d="M25.1256,59.3253 C17.8996,59.3253 12.0396,65.4483 12.0396,72.9983 L12.0396,81.1193 C12.0396,88.6753 17.8996,94.7953 25.1256,94.7953 L73.3806,94.7953 C80.6076,94.7953 86.4666,88.6753 86.4666,81.1193 L86.4666,72.9983 C86.4666,65.4483 80.6076,59.3253 73.3806,59.3253 L25.1256,59.3253 Z" id="Fill-16" fill="#FEFEFE"></path>
            <path d="M15.8121,47.3121 C14.7251,47.3121 13.8441,48.1541 13.8441,49.1941 C13.8441,50.2341 14.7251,51.0761 15.8121,51.0761 L32.0961,51.0761 C33.1851,51.0761 34.0661,50.2341 34.0661,49.1941 C34.0661,48.1541 33.1851,47.3121 32.0961,47.3121 L15.8121,47.3121 Z" id="Fill-18" fill="#C31F3F"></path>
            <path d="M75.2545,47.3121 C74.1405,47.3121 73.2375,48.1541 73.2375,49.1941 C73.2375,50.2341 74.1405,51.0761 75.2545,51.0761 L84.6295,51.0761 C85.7415,51.0761 86.6435,50.2341 86.6435,49.1941 C86.6435,48.1541 85.7415,47.3121 84.6295,47.3121 L75.2545,47.3121 Z" id="Fill-20" fill="#FEFEFE"></path>
            <path d="M21.2243,66.1378 C20.1863,66.1378 19.3423,66.9818 19.3423,68.0198 C19.3423,69.0618 20.1863,69.9038 21.2243,69.9038 L25.4213,69.9038 C26.4613,69.9038 27.3043,69.0618 27.3043,68.0198 C27.3043,66.9818 26.4613,66.1378 25.4213,66.1378 L21.2243,66.1378 Z" id="Fill-22" fill="#C31F3F"></path>
            <path d="M32.3776,66.1378 C31.2796,66.1378 30.3896,66.9818 30.3896,68.0198 C30.3896,69.0618 31.2796,69.9038 32.3776,69.9038 L45.7896,69.9038 C46.8876,69.9038 47.7756,69.0618 47.7756,68.0198 C47.7756,66.9818 46.8876,66.1378 45.7896,66.1378 L32.3776,66.1378 Z" id="Fill-24" fill="#C31F3F"></path>
            <path d="M19.0924,103.376 C17.9574,103.376 17.0394,104.218 17.0394,105.256 C17.0394,106.296 17.9574,107.14 19.0924,107.14 L61.1554,107.14 C62.2874,107.14 63.2084,106.296 63.2084,105.256 C63.2084,104.218 62.2874,103.376 61.1554,103.376 L19.0924,103.376 Z" id="Fill-26" fill="#8B1C41"></path>
            <line x1="75.9996" y1="107.0001" x2="79.9996" y2="107.0001" id="Stroke-28" stroke="#FEFEFE" stroke-width="1.882" stroke-linecap="round"></line>
            <path d="M19.1256,73.4659 C17.9736,73.4659 17.0396,74.3079 17.0396,75.3479 C17.0396,76.3859 17.9736,77.2299 19.1256,77.2299 L54.8306,77.2299 C55.9796,77.2299 56.9156,76.3859 56.9156,75.3479 C56.9156,74.3079 55.9796,73.4659 54.8306,73.4659 L19.1256,73.4659 Z" id="Fill-30" fill="#F1F2F1"></path>
            <path d="M62.8864,73.4659 C61.8484,73.4659 61.0054,74.3079 61.0054,75.3479 C61.0054,76.3859 61.8484,77.2299 62.8864,77.2299 L67.0834,77.2299 C68.1254,77.2299 68.9664,76.3859 68.9664,75.3479 C68.9664,74.3079 68.1254,73.4659 67.0834,73.4659 L62.8864,73.4659 Z" id="Fill-32" fill="#F1F2F1"></path>
            <path d="M21.0143,113.42 C19.9213,113.42 19.0373,114.264 19.0373,115.302 C19.0373,116.342 19.9213,117.184 21.0143,117.184 L37.4803,117.184 C38.5703,117.184 39.4533,116.342 39.4533,115.302 C39.4533,114.264 38.5703,113.42 37.4803,113.42 L21.0143,113.42 Z" id="Fill-34" fill="#C31F3F"></path>
            <path d="M47.1618,113.42 C46.0088,113.42 45.0708,114.264 45.0708,115.302 C45.0708,116.342 46.0088,117.184 47.1618,117.184 L80.9998,117.184 C82.1558,117.184 83.0918,116.342 83.0918,115.302 C83.0918,114.264 82.1558,113.42 80.9998,113.42 L47.1618,113.42 Z" id="Fill-36" fill="#C31F3F"></path>
        </g>
    </g>
</svg>