<?xml version="1.0" encoding="UTF-8"?>
<svg width="256px" height="256px" viewBox="0 0 256 256" version="1.1" xmlns="http://www.w3.org/2000/svg" xmlns:xlink="http://www.w3.org/1999/xlink">
    <!-- Generator: Sketch 59.1 (86144) - https://sketch.com -->
    <title>Icons/Illustrative/objects/atm-machine-256x256</title>
    <desc>Created with Sketch.</desc>
    <g id="Icons/Illustrative/objects/atm-machine-256x256" stroke="none" stroke-width="1" fill="none" fill-rule="evenodd">
        <g id="Icons/Illustrative/Oval" fill="#F2F3F2">
            <circle id="Oval" cx="128" cy="128" r="128"></circle>
        </g>
        <g id="Group-27" transform="translate(71.000000, 59.000000)">
            <g id="Group-3" transform="translate(0.000000, 0.418000)" fill="#C41F3E">
                <path d="M8.5724,137 L106.0864,137 C110.8214,137 114.6594,133.162 114.6594,128.428 L114.6594,9.154 C114.6594,4.42 110.8214,0.582 106.0864,0.582 L8.5724,0.582 C3.8384,0.582 0.0004,4.42 0.0004,9.154 L0.0004,128.428 C0.0004,133.162 3.8384,137 8.5724,137" id="Fill-1"></path>
            </g>
            <polygon id="Fill-4" fill="#FFFFFF" points="13.764 77.693 100.896 77.693 100.896 13.055 13.764 13.055"></polygon>
            <path d="M99.675,97.9102 L69.617,97.9102 C68.931,97.9102 68.376,97.3542 68.376,96.6692 L68.376,90.4302 C68.376,89.7452 68.931,89.1892 69.617,89.1892 L99.675,89.1892 C100.36,89.1892 100.916,89.7452 100.916,90.4302 L100.916,96.6692 C100.916,97.3542 100.36,97.9102 99.675,97.9102" id="Fill-6" fill="#8B1D41"></path>
            <path d="M57.9508,121.7217 L15.7258,121.7217 C14.6538,121.7217 13.7838,120.8517 13.7838,119.7787 L13.7838,91.1317 C13.7838,90.0587 14.6538,89.1887 15.7258,89.1887 L57.9508,89.1887 C59.0238,89.1887 59.8938,90.0587 59.8938,91.1317 L59.8938,119.7787 C59.8938,120.8517 59.0238,121.7217 57.9508,121.7217" id="Fill-7" fill="#8B1D41"></path>
            <path d="M94.6613,94.7803 L74.6483,94.7803 C74.0513,94.7803 73.5663,95.2643 73.5663,95.8623 L73.5663,120.2033 L75.7843,121.7203 L78.0013,120.2033 L80.2193,121.7203 L82.4363,120.2033 L84.6543,121.7203 L86.8713,120.2033 L89.0893,121.7203 L91.3073,120.2033 L93.5253,121.7203 L95.7423,120.2033 L95.7423,95.8623 C95.7423,95.2643 95.2583,94.7803 94.6613,94.7803" id="Fill-8" fill="#FFFFFF"></path>
            <polygon id="Fill-9" fill="#FFFFFF" points="19.082 98.065 25.888 98.065 25.888 94.328 19.082 94.328"></polygon>
            <polygon id="Fill-10" fill="#FFFFFF" points="28.593 98.065 35.399 98.065 35.399 94.328 28.593 94.328"></polygon>
            <polygon id="Fill-11" fill="#FFFFFF" points="38.253 98.065 45.059 98.065 45.059 94.328 38.253 94.328"></polygon>
            <polygon id="Fill-12" fill="#FFFFFF" points="47.789 98.065 54.595 98.065 54.595 94.328 47.789 94.328"></polygon>
            <polygon id="Fill-13" fill="#FFFFFF" points="19.082 103.942 25.888 103.942 25.888 100.205 19.082 100.205"></polygon>
            <polygon id="Fill-14" fill="#FFFFFF" points="28.593 103.942 35.399 103.942 35.399 100.205 28.593 100.205"></polygon>
            <polygon id="Fill-15" fill="#FFFFFF" points="38.253 103.942 45.059 103.942 45.059 100.205 38.253 100.205"></polygon>
            <polygon id="Fill-16" fill="#FFFFFF" points="47.789 103.942 54.595 103.942 54.595 100.205 47.789 100.205"></polygon>
            <polygon id="Fill-17" fill="#FFFFFF" points="19.082 110.138 25.888 110.138 25.888 106.401 19.082 106.401"></polygon>
            <polygon id="Fill-18" fill="#FFFFFF" points="28.593 110.138 35.399 110.138 35.399 106.401 28.593 106.401"></polygon>
            <polygon id="Fill-19" fill="#FFFFFF" points="38.253 110.138 45.059 110.138 45.059 106.401 38.253 106.401"></polygon>
            <polygon id="Fill-20" fill="#FFFFFF" points="47.789 110.138 54.595 110.138 54.595 106.401 47.789 106.401"></polygon>
            <polygon id="Fill-21" fill="#FFFFFF" points="19.082 116.558 25.888 116.558 25.888 112.821 19.082 112.821"></polygon>
            <polygon id="Fill-22" fill="#FFFFFF" points="28.593 116.558 35.399 116.558 35.399 112.821 28.593 112.821"></polygon>
            <polygon id="Fill-23" fill="#FFFFFF" points="38.253 116.558 45.059 116.558 45.059 112.821 38.253 112.821"></polygon>
            <polygon id="Fill-24" fill="#FFFFFF" points="47.789 116.558 54.595 116.558 54.595 112.821 47.789 112.821"></polygon>
            <path d="M91.6086,100.6738 L77.7006,100.6738 C77.4226,100.6738 77.1986,100.4488 77.1986,100.1718 C77.1986,99.8948 77.4226,99.6698 77.7006,99.6698 L91.6086,99.6698 C91.8856,99.6698 92.1106,99.8948 92.1106,100.1718 C92.1106,100.4488 91.8856,100.6738 91.6086,100.6738" id="Fill-25" fill="#C41F3E"></path>
            <path d="M86.8722,104.4434 L77.7002,104.4434 C77.4232,104.4434 77.1982,104.2194 77.1982,103.9414 C77.1982,103.6644 77.4232,103.4394 77.7002,103.4394 L86.8722,103.4394 C87.1492,103.4394 87.3742,103.6644 87.3742,103.9414 C87.3742,104.2194 87.1492,104.4434 86.8722,104.4434" id="Fill-26" fill="#C41F3E"></path>
        </g>
    </g>
</svg>