<?xml version="1.0" encoding="UTF-8"?>
<svg width="256px" height="256px" viewBox="0 0 256 256" version="1.1" xmlns="http://www.w3.org/2000/svg" xmlns:xlink="http://www.w3.org/1999/xlink">
    <!-- Generator: Sketch 56.3 (81716) - https://sketch.com -->
    <title>Icons/Illustrative/objects/bank-accounts-256x256</title>
    <desc>Created with Sketch.</desc>
    <g id="Icons/Illustrative/objects/bank-accounts-256x256" stroke="none" stroke-width="1" fill="none" fill-rule="evenodd">
        <g id="Icons/Illustrative/Oval" fill="#F2F3F2">
            <circle id="Oval" cx="128" cy="128" r="128"></circle>
        </g>
        <g id="Group" transform="translate(67.000000, 79.000000)" fill-rule="nonzero">
            <g id="Layer_1">
                <path d="M32.7296707,97.7931388 L115.519084,97.7931388 C119.010537,97.7931432 121.842476,94.9657065 121.848058,91.474258 L121.848058,23.1538748 C121.853371,21.4709244 121.189255,19.8549257 120.002058,18.6620663 C118.814861,17.4692069 117.20204,16.7974092 115.519084,16.7947463 L10.5029069,16.7947463 C4.9382821,16.7893548 0.419302304,12.2973272 0.380623296,6.73283419 L0.380623296,91.4943818 C0.386174095,94.9858303 3.21811312,97.8132627 6.70956602,97.8132627 L32.7296707,97.7931388 Z" id="Path" fill="#C4203F"></path>
                <path d="M121.848026,45.451072 L103.81708,45.451072 C100.330195,45.4620847 97.5046977,48.2830903 97.4881371,51.7699528 L97.4881371,59.3666965 C97.499184,62.857489 100.326287,65.6845923 103.81708,65.6956392 L121.848026,65.6956392" id="Path" fill="#FFFFFF"></path>
                <circle id="Oval" fill="#8B1D41" cx="106.735034" cy="55.5733556" r="4.73916061"></circle>
                <path d="M90.4447986,0.283148527 L9.79857303,0.283148527 C6.2538667,0.305298938 3.39358901,3.18806309 3.3991887,6.73283419 C3.43778307,10.6302102 6.6053435,13.7708509 10.5029069,13.7761727 L90.4447986,13.7761727 L90.4447986,0.283148527 Z" id="Path" fill="#8B1D41"></path>
                <path d="M102.126679,0.283148527 L90.4447986,0.283148527 L90.4447986,13.7761727 L105.386755,13.7761727 L105.386755,3.59351761 C105.392394,1.78249277 103.937578,0.305225471 102.126679,0.283148527 L102.126679,0.283148527 Z" id="Path" fill="#8B1D41"></path>
            </g>
        </g>
    </g>
</svg>