<?xml version="1.0" encoding="UTF-8"?>
<svg width="450px" height="250px" viewBox="0 0 450 250" version="1.1" xmlns="http://www.w3.org/2000/svg" xmlns:xlink="http://www.w3.org/1999/xlink">
    <!-- Generator: Sketch 62 (91390) - https://sketch.com -->
    <title>Illustrations/Blue/Device/bank-account-selector-450x250</title>
    <desc>Created with Sketch.</desc>
    <g id="Illustrations/Blue/Device/bank-account-selector-450x250" stroke="none" stroke-width="1" fill="none" fill-rule="evenodd">
        <path d="M307,195.49747 C307,200.744607 269.840733,205 224,205 C178.159267,205 141,200.744607 141,195.49747 C141,190.250333 178.159267,186 224,186 C269.840733,186 307,190.250333 307,195.49747" id="Shadow" fill="#CCDDF2"></path>
        <g id="Art" transform="translate(133.000000, 44.000000)" fill-rule="nonzero">
            <rect id="Rectangle" fill="#8B1D41" x="70.88" y="119.645" width="41.605" height="19.41"></rect>
            <path d="M133.225,149.62 L50.14,149.62 C50.14,149.62 53.565,139.055 60.85,139.055 L122.5,139.055 C129.805,139.055 133.21,149.62 133.21,149.62" id="Path" fill="#C41F3E"></path>
            <path d="M178.545,119.645 L4.82,119.645 C3.54696085,119.645 2.32606207,119.139287 1.42588745,118.239113 C0.525712834,117.338938 0.02,116.118039 0.02,114.845 L0.02,4.965 C0.02,3.69242015 0.525871656,2.47203479 1.42619029,1.57265399 C2.32650892,0.67327319 3.54742084,0.168673014 4.82,0.169997389 L178.545,0.169997389 C181.193205,0.169997389 183.340003,2.31679462 183.340003,4.965 L183.340003,114.845 C183.340003,116.117579 182.836727,117.338491 181.937346,118.23881 C181.037965,119.139128 179.81758,119.645 178.545,119.645" id="Path" fill="#C41F3E"></path>
            <rect id="Rectangle" fill="#FFFFFF" x="8" y="9" width="167.44" height="101.43"></rect>
            <path d="M165.93,69.28 L101.675,69.28 C99.9518716,69.28 98.555,67.8831284 98.555,66.16 C98.555,64.4368716 99.9518716,63.04 101.675,63.04 L165.93,63.04 C167.653128,63.04 169.05,64.4368716 169.05,66.16 C169.05,67.8831284 167.653128,69.28 165.93,69.28" id="Path" fill="#F2F3F2"></path>
            <path d="M165.93,81.37 L101.675,81.37 C99.9518716,81.37 98.555,79.9731284 98.555,78.25 C98.555,76.5268716 99.9518716,75.13 101.675,75.13 L165.93,75.13 C167.653128,75.13 169.05,76.5268716 169.05,78.25 C169.05,79.9731284 167.653128,81.37 165.93,81.37" id="Path" fill="#F2F3F2"></path>
            <path d="M169.05,110.62 L15.815,110.62 L15.815,103.175 C15.815,101.385597 17.2655974,99.935 19.055,99.935 L165.81,99.935 C167.599403,99.935 169.05,101.385597 169.05,103.175 L169.05,110.62 Z" id="Path" fill="#F2F3F2"></path>
            <path d="M165.93,93.74 L18.93,93.74 C17.254071,93.6729226 15.929975,92.2947708 15.929975,90.6175 C15.929975,88.9402292 17.254071,87.5620774 18.93,87.495 L165.93,87.495 C167.605929,87.5620774 168.930025,88.9402292 168.930025,90.6175 C168.930025,92.2947708 167.605929,93.6729226 165.93,93.74" id="Path" fill="#F2F3F2"></path>
            <path d="M55,50.125 L61.685,73.395 C51.956973,75.9609687 41.6592745,72.2059169 35.8664092,63.9802609 C30.0735439,55.7546049 30.0077134,44.793826 35.7013577,36.4991819 C41.395002,28.2045379 51.6468534,24.3260654 61.405,26.775 L55,50.125 Z" id="Path" fill="#8B1D41"></path>
            <path d="M56.255,49.375 L78.38,42.53 C75.8941301,35.062855 69.9222798,29.2776251 62.38,27.03 L56.255,49.375 Z" id="Path" fill="#D9D9D6"></path>
            <path d="M79.55,48.625 C79.4409352,46.8904672 79.1476173,45.1724629 78.675,43.5 L56.145,50.47 L62.645,73.13 C68.8680774,71.2185148 74.0542377,66.8726712 77.025,61.08 C78.938133,57.2194708 79.8085878,52.9258018 79.55,48.625 Z" id="Path" fill="#C41F3E"></path>
        </g>
    </g>
</svg>