<svg width="450" height="250" viewBox="0 0 450 250" fill="none" xmlns="http://www.w3.org/2000/svg">
<path fill-rule="evenodd" clip-rule="evenodd" d="M254.351 158.332C254.351 148.156 262.538 139.908 272.637 139.908C277.533 139.908 281.976 141.851 285.258 145.009C285.986 131.97 296.707 121.622 309.829 121.622C323.422 121.622 334.442 132.725 334.442 146.422C334.442 148.488 334.187 150.492 333.715 152.41C334.946 151.998 336.26 151.771 337.628 151.771C344.476 151.771 350.027 157.364 350.027 164.264C350.027 171.163 344.476 176.757 337.628 176.757H269.506C260.9 175.26 254.351 167.432 254.351 158.332Z" fill="#D9D9D6"/>
<path fill-rule="evenodd" clip-rule="evenodd" d="M192.083 159.3C191.213 159.3 190.372 159.428 189.578 159.664C189.998 158.5 190.228 157.246 190.228 155.938C190.228 149.855 185.281 144.922 179.18 144.922C177.255 144.922 175.447 145.413 173.871 146.276C171.262 140.354 165.332 136.216 158.429 136.216C149.275 136.216 141.831 143.489 141.579 152.555C139.847 151.685 137.892 151.192 135.82 151.192C128.74 151.192 123 156.915 123 163.974C123 171.034 128.74 176.757 135.82 176.757H192.083C196.918 176.757 200.838 172.849 200.838 168.028C200.838 163.207 196.918 159.3 192.083 159.3Z" fill="#D9D9D6"/>
<path fill-rule="evenodd" clip-rule="evenodd" d="M226.873 60L294.203 91.789L279.576 91.7886L279.576 160.541H174.171L174.17 91.7886L159.486 91.789L226.873 60Z" fill="#C41F3E"/>
<path fill-rule="evenodd" clip-rule="evenodd" d="M161.919 161.351H292.459L296.514 171.081H157.865L161.919 161.351Z" fill="#8B1D41"/>
<path fill-rule="evenodd" clip-rule="evenodd" d="M153.811 170.27H300.568L304.622 180H149.757L153.811 170.27Z" fill="#8B1D41"/>
<path d="M279.486 160.541H174.081V161.351H279.486V160.541Z" fill="white"/>
<path d="M227.189 85.1351C230.995 85.1351 234.081 82.0495 234.081 78.2432C234.081 74.4369 230.995 71.3513 227.189 71.3513C223.383 71.3513 220.297 74.4369 220.297 78.2432C220.297 82.0495 223.383 85.1351 227.189 85.1351Z" fill="#8B1D41"/>
<path d="M174.081 91.6216V160.541H183.811V91.6216H174.081Z" fill="#8B1D41"/>
<path d="M285.973 91.6216H169.216V101.351H285.973V91.6216Z" fill="#8B1D41"/>
<path d="M270.568 91.6216V160.541H280.297V91.6216H270.568Z" fill="#8B1D41"/>
</svg>
