<?xml version="1.0" encoding="UTF-8"?>
<svg width="450px" height="250px" viewBox="0 0 450 250" version="1.1" xmlns="http://www.w3.org/2000/svg" xmlns:xlink="http://www.w3.org/1999/xlink">
    <!-- Generator: Sketch 63.1 (92452) - https://sketch.com -->
    <title>Illustrations/Pink/Places/beach-home-450x250</title>
    <desc>Created with Sketch.</desc>
    <g id="Illustrations/Pink/Places/beach-home-450x250" stroke="none" stroke-width="1" fill="none" fill-rule="evenodd">
        <path d="M199.503344,113.871494 C198.160615,113.871494 196.865328,114.071036 195.641005,114.438065 C196.288449,112.628964 196.642869,110.680023 196.642869,108.646938 C196.642869,99.1931311 189.017462,91.5287922 179.610387,91.5287922 C176.643467,91.5287922 173.855551,92.2925014 171.426041,93.6327991 C167.404234,84.4298226 158.261081,78 147.618919,78 C133.50751,78 122.030927,89.3021752 121.641424,103.389926 C118.971914,102.038008 115.957153,101.272295 112.763787,101.272295 C101.848534,101.272295 93,110.165541 93,121.136348 C93,132.106754 101.848534,141 112.763787,141 L199.503344,141 C206.957322,141 213,134.927189 213,127.435547 C213,119.944305 206.957322,113.871494 199.503344,113.871494" id="Cloud" fill="#EFD4D8"></path>
        <g id="Group-8" transform="translate(89.000000, 167.000000) scale(-1, 1) translate(-89.000000, -167.000000) translate(46.000000, 123.000000)">
            <path d="M42.6638661,24 C41.9365374,24.1209429 39.9664344,24.74274 39.2764569,24.9087803 C37.6710369,75.2367612 4,88 4,88 L32.9634346,88 C32.9634346,88 55.0053629,55.6364879 47.406103,25.1356338 C45.5983077,24.3963102 44.7867692,24.2261701 42.6638661,24" id="Fill-4" fill="#8B1D41"></path>
            <path d="M21.4996544,0 C11.4676343,0 0,9.76490886 0,21.3328761 C0,21.3328761 9.32216168,13.5760901 19.5449519,13.5760901 C27.691389,13.5760901 35.181881,19.3940225 35.181881,19.3940225 C21.9579174,17.8337495 1.95401135,23.0227718 1.95401135,40.7275845 C1.95401135,53.8256481 7.81811898,62.0604606 7.81811898,62.0604606 C7.81811898,62.0604606 13.940734,29.2426032 41.0452975,25.2126408 C67.2029223,27.4848098 72.3177734,64 72.3177734,64 C72.3177734,64 80.1365836,54.5533183 80.1365836,40.7275845 C80.1365836,23.8258838 65.3781646,19.3940225 44.9547025,19.3940225 C44.9547025,19.3940225 54.0473871,13.5760901 64.4996544,13.5760901 C75.8760509,13.5760901 86,23.2731014 86,23.2731014 C86,23.2731014 79.7550433,0 64.4996544,0 C50.818119,0 41.0452975,11.6365507 41.0452975,11.6365507 C41.0452975,11.6365507 33.2271785,0 21.4996544,0" id="Fill-6" fill="#C41F3E"></path>
        </g>
        <polygon id="Ground" fill="#EFD4D8" points="0 250 450 250 450 211 0 211"></polygon>
        <g id="Art" transform="translate(146.000000, 71.000000)">
            <g id="Group-26" transform="translate(0.000000, 0.301200)">
                <path d="M155.47928,100.15932 C148.83608,83.68652 136.24048,72.60972 132.05888,69.25412 C131.74928,69.00572 131.36288,68.97412 131.04168,69.10372 C130.72088,69.23372 130.46448,69.52372 130.41368,69.91772 C129.72968,75.23532 128.34208,91.95092 134.98528,108.42372 C141.29688,124.07452 149.49568,136.25852 155.46808,139.67532 C156.06928,140.01892 156.79568,140.05972 157.43808,139.80052 L159.25608,139.06732 L161.07448,138.33412 C161.71688,138.07492 162.21208,137.54172 162.40648,136.87692 C164.33768,130.27292 161.79048,115.81012 155.47928,100.15932" id="Fill-16" fill="#8B1D41"></path>
                <path d="M130.41368,69.91752 C129.72968,75.23552 128.34208,91.95112 134.98528,108.42392 C141.29688,124.07472 149.49568,136.25872 155.46808,139.67512 C156.06928,140.01912 156.79568,140.05952 157.43848,139.80032 L159.25608,139.06712 L131.04168,69.10392 C130.72088,69.23352 130.46448,69.52392 130.41368,69.91752" id="Fill-17" fill="#C41F3E"></path>
                <polygon id="Fill-18" fill="#C41F3E" points="6.65292 62.00736 6.65292 120.74336 128.98252 120.74336 128.98252 62.00736 65.87372 8.82016"></polygon>
                <polygon id="Fill-19" fill="#FFFFFF" points="20.9812 94.6876 64.7232 94.6876 64.7232 62.01 20.9812 62.01"></polygon>
                <polygon id="Fill-20" fill="#FFFFFF" points="79.7868 120.7432 112.5284 120.7432 112.5284 62.0096 79.7868 62.0096"></polygon>
                <polygon id="Fill-21" fill="#F2F3F2" points="64.72324 62.00972 64.72324 94.68732 20.98124 94.68732"></polygon>
                <path d="M89.0258,93.49292 L85.4766,93.49292 C84.5286,93.49292 83.7602,92.72452 83.7602,91.77652 C83.7602,90.82892 84.5286,90.06012 85.4766,90.06012 L89.0258,90.06012 C89.9738,90.06012 90.7422,90.82892 90.7422,91.77652 C90.7422,92.72452 89.9738,93.49292 89.0258,93.49292" id="Fill-22" fill="#C41F3E"></path>
                <path d="M6.65292,62.00736 L65.87372,8.82016 L128.98252,62.00736 C129.66292,62.58096 130.52412,62.89536 131.41412,62.89536 C134.93292,62.89536 136.53652,58.50416 133.84572,56.23656 L68.52212,1.18256 C66.82972,-0.24344 64.34532,-0.20424 62.69892,1.27416 L1.32772,56.39256 C-1.24708,58.70456 0.38852,62.97336 3.84892,62.97336 L4.13172,62.97336 C5.06252,62.97336 5.96052,62.62936 6.65292,62.00736" id="Fill-23" fill="#8B1D41"></path>
                <polygon id="Fill-24" fill="#8B1D41" points="6.65292 121.54332 6.65292 139.96852 12.56252 139.96852 12.56252 127.84052 123.07252 127.84052 123.07252 139.96852 128.98252 139.96852 128.98252 121.54332"></polygon>
                <polygon id="Fill-25" fill="#FFFFFF" points="6.6528 121.5432 128.9824 121.5432 128.9824 120.7432 6.6528 120.7432"></polygon>
            </g>
        </g>
    </g>
</svg>