<?xml version="1.0" encoding="UTF-8"?>
<svg width="256px" height="256px" viewBox="0 0 256 256" version="1.1" xmlns="http://www.w3.org/2000/svg" xmlns:xlink="http://www.w3.org/1999/xlink">
    <!-- Generator: Sketch 59.1 (86144) - https://sketch.com -->
    <title>Icons/Illustrative/cheques/bill-and-cheque-256x256</title>
    <desc>Created with Sketch.</desc>
    <g id="Icons/Illustrative/cheques/bill-and-cheque-256x256" stroke="none" stroke-width="1" fill="none" fill-rule="evenodd">
        <g id="Icons/Illustrative/Oval" fill="#F2F3F2">
            <circle id="Oval" cx="128" cy="128" r="128"></circle>
        </g>
        <path d="M224,102.640123 L224,153.359877 C224,155.913323 221.94734,158 219.433511,158 L156,158 C156.81383,156.713629 157.293085,155.179173 157.293085,153.534456 L157.293085,102.42879 C157.293085,100.80245 156.822872,99.2771822 156.018085,98 L219.433511,98 C221.94734,98 224,100.07657 224,102.640123" id="Fill-4" fill="#C21F34"></path>
        <polygon id="Fill-6" fill="#FEFEFE" points="157 114 214 114 214 111 157 111"></polygon>
        <polygon id="Fill-8" fill="#FEFEFE" points="157 125 214 125 214 122 157 122"></polygon>
        <path d="M183.9902,133.38 L183.9902,134.037143 C183.902694,136.913333 181.702035,139.418095 178.9902,141.38 C179.796819,137.8 182.725255,134.028571 183.9902,133.38 L183.9902,133.38 Z M211.602243,144.591134 C210.306204,145.495093 208.669151,145.770211 207.153429,145.330571 C206.096376,144.746516 205.324267,143.759381 205.029212,142.58853 C204.929021,142.204644 204.66246,141.875599 204.294789,141.69371 C203.927119,141.519134 203.503378,141.519134 203.136627,141.69371 L197.630759,144.142353 C196.472597,144.664255 195.690377,144.901898 195.103024,144.498818 C194.505559,144.097566 194.505559,142.955049 194.505559,142.469708 C194.532215,141.839039 194.118585,141.27235 193.512848,141.098688 C192.897,140.925025 192.253576,141.200143 191.941056,141.756777 C191.766413,141.994421 188.00698,148.667635 180.681143,146.070922 C180.120445,145.878979 179.641554,145.495093 179.329034,144.992386 C183.254837,142.707352 187.068501,139.352921 187.224761,134.929095 C187.335062,132.049952 185.754998,131.501544 185.073888,131.401003 C181.986374,130.989696 177.601901,136.702282 176.489698,141.27235 C176.304943,142.021841 176.204753,142.799667 176.213945,143.567438 C174.21014,144.562799 172.131881,145.385412 169.9902,146.016081 L170.744844,148.657581 C172.849758,148.018685 174.899522,147.231719 176.894135,146.290285 C177.555943,147.415436 178.612996,148.255415 179.863076,148.657581 C184.302699,150.303719 189.312211,149.078027 192.492562,145.578269 C192.739821,146.016081 193.079916,146.390827 193.494465,146.692451 C194.799695,147.606465 196.555323,147.579044 198.751235,146.59191 L203.063093,144.699901 C203.706516,146.016081 204.781953,147.076337 206.104648,147.707006 C208.072605,148.566179 210.370547,148.255415 212.9902,146.884394 L211.602243,144.591134 Z" id="Fill-9" fill="#FEFEFE"></path>
        <path d="M153,102.571777 L153,153.428223 C153,153.904602 152.926974,154.36178 152.799178,154.790613 C152.662255,155.22036 152.470561,155.62359 152.224099,155.988418 C151.594249,156.912831 150.635783,157.598598 149.513008,157.87199 L149.50388,157.87199 C149.157006,157.954282 148.801004,158 148.435874,158 L37.5549977,158 C35.9758101,158 34.5883158,157.195367 33.7759014,155.988418 C33.5294386,155.62359 33.3286171,155.22036 33.2008215,154.790613 C33.073026,154.36178 33,153.904602 33,153.428223 L33,102.571777 C33,102.096312 33.073026,101.639134 33.2008215,101.210302 C33.3286171,100.77964 33.5294386,100.378238 33.7759014,100.011582 C34.5883158,98.8046327 35.9758101,98 37.5549977,98 L148.435874,98 C148.855774,98 149.266545,98.0557757 149.649932,98.1654983 L149.65906,98.1654983 C150.717937,98.4571777 151.621634,99.1246571 152.224099,100.011582 C152.470561,100.378238 152.671383,100.77964 152.799178,101.210302 C152.926974,101.639134 153,102.096312 153,102.571777" id="Fill-10" fill="#C21F34"></path>
        <path d="M63,128.000934 C63,140.702761 76.4318843,151 93.000462,151 C109.56904,151 123,140.702761 123,128.000934 C123,115.298173 109.56904,105 93.000462,105 C76.4318843,105 63,115.298173 63,128.000934" id="Fill-11" fill="#FEFEFE"></path>
        <path d="M93.8336604,114.284513 L93.444371,114.284513 C88.0508591,114.284513 84.6575532,116.849753 84.6575532,121.503043 C84.6575532,125.648801 87.0396336,127.312989 91.7667191,128.903622 L90.5525069,136.921145 C88.4568323,136.582791 86.4427232,135.861949 84.6112093,134.797237 L83.9902,138.78761 C85.8078107,139.687742 87.7616727,140.289976 89.7739281,140.571325 C89.8110033,140.571325 89.1436501,144.800752 89.1436501,144.800752 L91.8408694,145.38 L92.5452978,140.782796 L92.7214049,140.782796 C98.3939075,140.782796 101.9902,138.107224 101.9902,133.105466 C101.9902,128.884313 99.68227,126.908435 94.797615,125.281025 L95.8922597,118.21972 C97.4494173,118.556235 98.9407664,119.145597 100.303279,119.966657 L100.970633,115.976284 C99.6220229,115.303254 98.182579,114.826064 96.697718,114.560346 L97.0870074,111.996025 L94.3072958,111.38 L93.8336604,114.284513 Z M88.9902,120.636267 C88.9902,118.618162 90.3908085,117.38 93.4323907,117.38 L93.9902,117.38 L92.8847233,124.38 C89.8826949,123.346574 88.9902,122.401866 88.9902,120.636267 L88.9902,120.636267 Z M94.1767396,129.38 C97.2500716,130.365185 97.9902,131.419506 97.9902,133.026914 C97.9902,135.17963 96.3455783,136.38 93.0680059,136.38 L92.9902,136.38 L94.1767396,129.38 Z" id="Fill-12" fill="#8B1D41"></path>
    </g>
</svg>