<?xml version="1.0" encoding="UTF-8"?>
<svg width="450px" height="250px" viewBox="0 0 450 250" version="1.1" xmlns="http://www.w3.org/2000/svg" xmlns:xlink="http://www.w3.org/1999/xlink">
    <!-- Generator: Sketch 62 (91390) - https://sketch.com -->
    <title>Illustrations/Grey/Objects/branch-locationss-450x250</title>
    <desc>Created with Sketch.</desc>
    <g id="Illustrations/Grey/Objects/branch-locationss-450x250" stroke="none" stroke-width="1" fill="none" fill-rule="evenodd">
        <polygon id="Shadow" fill="#D9DAD5" points="113 198.131514 195.279119 212 266.70226 200.185162 329 209.961823 329 86.2688412 113 47"></polygon>
        <g id="Art" transform="translate(121.000000, 38.000000)">
            <polygon id="Fill-2" fill="#FFFFFF" points="143.34395 -5.00000001e-05 71.77495 11.56445 0.20595 -5.00000001e-05 0.20595 153.48445 71.77495 165.14795 143.34395 153.48445 143.34395 153.58295 214.91345 165.14795 214.91345 11.66295"></polygon>
            <path d="M0.20615,15.04075 L57.76115,43.42675 L84.56065,50.03925 L54.05515,91.92825 L0.25765,66.88775 L0.20615,66.99825 L0.20615,78.37925 L83.15415,116.98725 L114.64165,158.16225 L126.32815,156.25775 L116.74665,143.72975 L165.25715,143.72975 L165.25715,157.12425 L175.69665,158.81075 L175.69665,122.96425 L214.91315,126.55525 L214.91315,116.07225 L175.69665,112.48175 L175.69665,105.24375 L214.91315,105.24375 L214.91315,94.80425 L175.69665,94.80425 L175.69665,72.20775 L214.91315,69.45325 L214.91315,58.98825 L171.15515,62.06175 L151.70065,56.21125 L182.53365,6.38675 L171.38165,4.56925 L141.24265,53.27275 L61.36215,33.56325 L0.20615,3.40075 L0.20615,15.04075 Z M63.69965,96.41725 L95.50865,52.74025 L132.63415,61.90125 L82.55415,105.19325 L63.69965,96.41725 Z M91.75065,111.04275 L144.92515,65.07525 L165.25715,71.18975 L165.25715,133.28975 L108.76365,133.28975 L91.75065,111.04275 Z" id="Fill-3" fill="#8B1D41"></path>
            <g id="Group-34" transform="translate(10.500000, 2.699000)">
                <path d="M85.01545,62.3558 C78.36345,62.3558 72.97145,67.7488 72.97145,74.3998 C72.97145,81.0508 85.01045,97.3873 85.01545,97.3943 C85.02045,97.3873 97.05995,81.0508 97.05995,74.3998 C97.05995,67.7488 91.66745,62.3558 85.01545,62.3558" id="Fill-4" fill="#C41F3E"></path>
                <path d="M85.01545,61.3558 L85.01545,61.3558 C77.82295,61.3558 71.97145,67.2073 71.97145,74.3998 C71.97145,77.3388 74.03745,82.2068 78.11245,88.8683 C81.10245,93.7558 84.08445,97.8158 84.20995,97.9863 C84.39745,98.2413 84.69495,98.3928 85.01195,98.3943 L85.01545,98.3943 C85.33045,98.3943 85.62795,98.2453 85.81695,97.9923 C85.84545,97.9543 88.86595,93.8533 91.89245,88.9108 C95.98445,82.2273 98.05995,77.3453 98.05995,74.3998 C98.05995,67.2073 92.20795,61.3558 85.01545,61.3558 M85.01545,62.3558 C91.66795,62.3558 97.05995,67.7488 97.05995,74.3998 C97.05995,81.0508 85.02045,97.3873 85.01545,97.3943 C85.01045,97.3873 72.97145,81.0508 72.97145,74.3998 C72.97145,67.7488 78.36345,62.3558 85.01545,62.3558" id="Fill-6" fill="#FFFFFF"></path>
                <path d="M85.01545,78.51375 C82.13445,78.51375 79.79895,76.17825 79.79895,73.29725 C79.79895,70.41675 82.13445,68.08225 85.01545,68.08225 C87.89595,68.08225 90.23195,70.41675 90.23195,73.29725 C90.23195,76.17825 87.89595,78.51375 85.01545,78.51375" id="Fill-8" fill="#FFFFFF"></path>
                <path d="M158.8875,111.76035 C152.2355,111.76035 146.8435,117.15335 146.8435,123.80435 C146.8435,130.45535 158.8825,146.79185 158.8875,146.79835 C158.893,146.79185 170.932,130.45535 170.932,123.80435 C170.932,117.15335 165.54,111.76035 158.8875,111.76035" id="Fill-10" fill="#C41F3E"></path>
                <path d="M158.8875,110.76035 L158.8875,110.76035 C151.695,110.76035 145.8435,116.61185 145.8435,123.80435 C145.8435,126.74335 147.9095,131.61135 151.9845,138.27285 C154.9745,143.16035 157.9565,147.22085 158.082,147.39135 C158.27,147.64585 158.567,147.79735 158.884,147.79835 L158.8875,147.79835 C159.203,147.79835 159.5005,147.64985 159.689,147.39685 C159.7175,147.35835 162.738,143.25735 165.7645,138.31485 C169.8565,131.63185 171.932,126.74985 171.932,123.80435 C171.932,116.61185 166.0805,110.76035 158.8875,110.76035 M158.8875,111.76035 C165.54,111.76035 170.932,117.15335 170.932,123.80435 C170.932,130.45535 158.893,146.79185 158.8875,146.79835 C158.8825,146.79185 146.8435,130.45535 146.8435,123.80435 C146.8435,117.15335 152.2355,111.76035 158.8875,111.76035" id="Fill-12" fill="#FFFFFF"></path>
                <path d="M158.8875,127.91855 C156.0065,127.91855 153.671,125.58255 153.671,122.70205 C153.671,119.82155 156.0065,117.48655 158.8875,117.48655 C161.768,117.48655 164.104,119.82155 164.104,122.70205 C164.104,125.58255 161.768,127.91855 158.8875,127.91855" id="Fill-14" fill="#FFFFFF"></path>
                <path d="M182.9759,28.1197 C176.3239,28.1197 170.9319,33.5127 170.9319,40.1637 C170.9319,46.8147 182.9709,63.1507 182.9759,63.1582 C182.9814,63.1507 195.0204,46.8147 195.0204,40.1637 C195.0204,33.5127 189.6284,28.1197 182.9759,28.1197" id="Fill-16" fill="#C41F3E"></path>
                <path d="M182.9759,27.1197 L182.9759,27.1197 C175.7834,27.1197 169.9319,32.9712 169.9319,40.1637 C169.9319,43.1027 171.9979,47.9707 176.0734,54.6322 C179.0634,59.5197 182.0449,63.5797 182.1704,63.7502 C182.3584,64.0052 182.6554,64.1567 182.9724,64.1577 L182.9759,64.1577 C183.2914,64.1577 183.5889,64.0092 183.7774,63.7562 C183.8059,63.7177 186.8264,59.6172 189.8529,54.6742 C193.9449,47.9912 196.0204,43.1092 196.0204,40.1637 C196.0204,32.9712 190.1689,27.1197 182.9759,27.1197 M182.9759,28.1197 C189.6284,28.1197 195.0204,33.5127 195.0204,40.1637 C195.0204,46.8147 182.9814,63.1507 182.9759,63.1582 C182.9709,63.1507 170.9319,46.8147 170.9319,40.1637 C170.9319,33.5127 176.3239,28.1197 182.9759,28.1197" id="Fill-18" fill="#FFFFFF"></path>
                <path d="M182.9759,44.27765 C180.0949,44.27765 177.7594,41.94215 177.7594,39.06115 C177.7594,36.18065 180.0949,33.84615 182.9759,33.84615 C185.8569,33.84615 188.1924,36.18065 188.1924,39.06115 C188.1924,41.94215 185.8569,44.27765 182.9759,44.27765" id="Fill-20" fill="#FFFFFF"></path>
                <path d="M13.38995,45.63875 C6.73795,45.63875 1.34595,51.03175 1.34595,57.68275 C1.34595,64.33375 13.38495,80.67025 13.38995,80.67725 C13.39545,80.67025 25.43395,64.33375 25.43395,57.68275 C25.43395,51.03175 20.04245,45.63875 13.38995,45.63875" id="Fill-22" fill="#C41F3E"></path>
                <path d="M13.38995,44.63875 L13.38995,44.63875 C6.19745,44.63875 0.34595,50.49075 0.34595,57.68275 C0.34595,60.62175 2.41195,65.48975 6.48745,72.15125 C9.47695,77.03875 12.45895,81.09875 12.58445,81.26925 C12.77195,81.52425 13.06945,81.67575 13.38645,81.67675 L13.38995,81.67675 C13.70545,81.67675 14.00245,81.52825 14.19145,81.27525 C14.21995,81.23725 17.24045,77.13625 20.26695,72.19375 C24.35895,65.51025 26.43395,60.62825 26.43395,57.68275 C26.43395,50.49075 20.58245,44.63875 13.38995,44.63875 M13.38995,45.63875 C20.04245,45.63875 25.43395,51.03175 25.43395,57.68275 C25.43395,64.33375 13.39545,80.67025 13.38995,80.67725 C13.38495,80.67025 1.34595,64.33375 1.34595,57.68275 C1.34595,51.03175 6.73795,45.63875 13.38995,45.63875" id="Fill-24" fill="#FFFFFF"></path>
                <path d="M13.38995,61.7967 C10.50945,61.7967 8.17345,59.4612 8.17345,56.5802 C8.17345,53.6997 10.50945,51.3652 13.38995,51.3652 C16.27045,51.3652 18.60645,53.6997 18.60645,56.5802 C18.60645,59.4612 16.27045,61.7967 13.38995,61.7967" id="Fill-26" fill="#FFFFFF"></path>
                <path d="M59.60945,0.1966 C52.95745,0.1966 47.56545,5.5896 47.56545,12.2406 C47.56545,18.8916 59.60445,35.2281 59.60945,35.2351 C59.61495,35.2281 71.65345,18.8916 71.65345,12.2406 C71.65345,5.5896 66.26195,0.1966 59.60945,0.1966" id="Fill-28" fill="#C41F3E"></path>
                <path d="M59.60945,16.3546 C56.72895,16.3546 54.39295,14.0191 54.39295,11.1381 C54.39295,8.2576 56.72895,5.9231 59.60945,5.9231 C62.48995,5.9231 64.82595,8.2576 64.82595,11.1381 C64.82595,14.0191 62.48995,16.3546 59.60945,16.3546" id="Fill-30" fill="#FFFFFF"></path>
                <path d="M59.60945,35.23495 C59.60695,35.23145 56.80745,31.43045 53.90845,26.75145 L52.73295,26.75145 C55.71395,31.61995 58.67895,35.65745 58.80395,35.82745 C58.99145,36.08245 59.28895,36.23345 59.60595,36.23495 L59.60945,36.23495 C59.92495,36.23495 60.22195,36.08595 60.41095,35.83295 C60.43945,35.79495 63.45995,31.69395 66.48645,26.75145 L65.31045,26.75145 C62.41145,31.43045 59.61195,35.23145 59.60945,35.23495" id="Fill-32" fill="#FFFFFF"></path>
            </g>
        </g>
    </g>
</svg>