<svg width="450" height="250" viewBox="0 0 450 250" fill="none" xmlns="http://www.w3.org/2000/svg">
<g id="Colour=Pink">
<g id="illustration">
<g id="shadow">
<path id="shadow_2" fill-rule="evenodd" clip-rule="evenodd" d="M172.348 182.509L191.154 90.2591C191.829 86.9511 195.088 84.7961 198.397 85.4701L333.824 113.079C337.133 113.754 339.288 117.013 338.613 120.321L319.806 212.571C319.133 215.88 315.874 218.035 312.565 217.361L177.137 189.751C173.828 189.076 171.673 185.818 172.348 182.509Z" fill="#EFD4D8"/>
<path id="Fill 6" fill-rule="evenodd" clip-rule="evenodd" d="M172.526 63.1021C174.1 56.6461 172.988 50.1661 169.906 44.8341L170.635 44.3911C171.451 43.8951 171.71 42.8311 171.214 42.0161L170.883 41.4711C170.387 40.6561 169.324 40.3961 168.508 40.8921L167.567 41.4651C166.063 39.6391 164.297 38.0181 162.302 36.6731C163.859 35.2361 152.311 30.8421 152.544 32.7911C139.845 30.6491 127.462 38.6501 124.363 51.3591C121.121 64.6591 129.274 78.0691 142.573 81.3121C155.873 84.5551 169.283 76.4021 172.526 63.1021Z" fill="#EFD4D8"/>
<path id="Fill 1" fill-rule="evenodd" clip-rule="evenodd" d="M173.174 146.865L127.823 163.601C126.95 163.924 125.982 163.477 125.659 162.604L115.105 134.006C114.783 133.133 115.23 132.164 116.103 131.842L161.453 115.105C162.326 114.783 163.296 115.23 163.617 116.103L174.172 144.7C174.494 145.573 174.047 146.543 173.174 146.865Z" fill="#EFD4D8"/>
</g>
<g id="card">
<path id="Fill 8" fill-rule="evenodd" clip-rule="evenodd" d="M170.174 145.415L124.823 162.151C123.95 162.474 122.981 162.027 122.659 161.154L112.105 132.556C111.783 131.683 112.23 130.714 113.103 130.392L158.453 113.655C159.326 113.333 160.295 113.78 160.617 114.653L171.171 143.25C171.493 144.123 171.047 145.093 170.174 145.415Z" fill="#C41F3E"/>
<path id="Fill 10" fill-rule="evenodd" clip-rule="evenodd" d="M126.961 143.012L122.575 144.621C121.947 144.851 121.245 144.526 121.015 143.898L119.586 140.007C119.356 139.379 119.682 138.676 120.31 138.446L124.695 136.837C125.323 136.606 126.025 136.931 126.255 137.559L127.684 141.451C127.914 142.079 127.589 142.782 126.961 143.012Z" fill="white"/>
<path id="Fill 12" fill-rule="evenodd" clip-rule="evenodd" d="M124.946 150.627C124.25 150.884 123.895 151.658 124.152 152.352C124.408 153.047 125.181 153.401 125.877 153.145L130.278 151.513C130.973 151.256 131.329 150.482 131.072 149.789C130.816 149.094 130.042 148.738 129.347 148.995L124.946 150.627Z" fill="white"/>
<path id="Fill 14" fill-rule="evenodd" clip-rule="evenodd" d="M126.717 155.429C126.021 155.686 125.666 156.46 125.923 157.154C126.179 157.849 126.952 158.204 127.648 157.947L141.35 152.885C142.046 152.628 142.402 151.855 142.145 151.161C141.888 150.466 141.115 150.111 140.42 150.367L126.717 155.429Z" fill="white"/>
<path id="Fill 16" fill-rule="evenodd" clip-rule="evenodd" d="M134.248 147.196C133.552 147.453 133.197 148.227 133.454 148.921C133.711 149.616 134.484 149.97 135.179 149.714L139.58 148.082C140.276 147.825 140.631 147.051 140.374 146.358C140.118 145.663 139.344 145.308 138.649 145.565L134.248 147.196Z" fill="white"/>
<path id="Fill 18" fill-rule="evenodd" clip-rule="evenodd" d="M143.55 143.766C142.854 144.023 142.499 144.797 142.756 145.491C143.012 146.186 143.785 146.54 144.481 146.284L148.882 144.652C149.578 144.395 149.933 143.622 149.676 142.928C149.42 142.233 148.646 141.878 147.951 142.135L143.55 143.766Z" fill="white"/>
<path id="Fill 20" fill-rule="evenodd" clip-rule="evenodd" d="M152.851 140.336C152.155 140.593 151.801 141.367 152.057 142.061C152.314 142.756 153.087 143.11 153.782 142.854L158.184 141.222C158.879 140.965 159.234 140.192 158.978 139.498C158.721 138.803 157.947 138.448 157.252 138.705L152.851 140.336Z" fill="white"/>
</g>
<g id="device">
<path id="Vector" d="M336.715 107.449L316.353 207.144C315.64 210.648 312.184 212.934 308.681 212.214L165.211 182.907C161.707 182.194 159.421 178.738 160.141 175.236L180.503 75.5405C181.217 72.0366 184.671 69.7571 188.175 70.4707L331.646 99.7768C335.149 100.49 337.429 103.945 336.715 107.449Z" fill="#8B1D41"/>
<path id="Vector_2" d="M312 203.572L331.273 108.941C331.739 106.653 330.262 104.42 327.974 103.954L189.719 75.7951C187.43 75.3291 185.198 76.8063 184.731 79.0946L165.458 173.725C164.992 176.014 166.469 178.246 168.757 178.713L307.012 206.871C309.301 207.337 311.534 205.86 312 203.572Z" fill="white"/>
<path id="Vector_3" d="M314.858 205.436L316.892 205.85C317.049 205.882 317.204 205.779 317.236 205.623L318.69 198.486C318.722 198.329 318.619 198.174 318.462 198.142L316.435 197.729L314.863 205.444L314.858 205.436Z" fill="#8B1D41"/>
<path id="Vector_4" d="M297.009 208.115L296.597 210.142C296.565 210.299 296.647 210.45 296.783 210.478L302.798 211.703C302.934 211.73 303.069 211.623 303.101 211.467L303.514 209.439L297.009 208.115Z" fill="#8B1D41"/>
<path id="Vector_5" d="M289.315 206.547L288.902 208.575C288.87 208.731 288.953 208.883 289.089 208.91L295.103 210.135C295.239 210.163 295.375 210.056 295.406 209.9L295.819 207.872L289.315 206.547Z" fill="#8B1D41"/>
<g id="screen">
<path id="Fill 28" fill-rule="evenodd" clip-rule="evenodd" d="M193.187 173.659L184.906 171.975L188.442 154.583L196.723 156.266L193.187 173.659Z" fill="#C41F3E"/>
<path id="Fill 30" fill-rule="evenodd" clip-rule="evenodd" d="M203.483 175.752L195.202 174.068L197.953 160.538L206.233 162.221L203.483 175.752Z" fill="#C41F3E"/>
<path id="Fill 32" fill-rule="evenodd" clip-rule="evenodd" d="M213.778 177.845L205.498 176.162L210.367 152.205L218.648 153.888L213.778 177.845Z" fill="#C41F3E"/>
<path id="Fill 34" fill-rule="evenodd" clip-rule="evenodd" d="M224.074 179.938L215.793 178.255L222.029 147.577L230.31 149.26L224.074 179.938Z" fill="#C41F3E"/>
<path id="Fill 36" fill-rule="evenodd" clip-rule="evenodd" d="M234.37 182.03L226.089 180.347L233.106 145.824L241.387 147.508L234.37 182.03Z" fill="#C41F3E"/>
<path id="Fill 38" fill-rule="evenodd" clip-rule="evenodd" d="M244.665 184.123L236.384 182.44L241.445 157.545L249.726 159.228L244.665 184.123Z" fill="#C41F3E"/>
<path id="Fill 40" fill-rule="evenodd" clip-rule="evenodd" d="M254.962 186.216L246.681 184.533L255.539 140.958L263.819 142.641L254.962 186.216Z" fill="#C41F3E"/>
<path id="Fill 42" fill-rule="evenodd" clip-rule="evenodd" d="M265.257 188.309L256.976 186.626L268.062 132.092L276.342 133.775L265.257 188.309Z" fill="#8B1D41"/>
<path id="Fill 44" fill-rule="evenodd" clip-rule="evenodd" d="M275.552 190.402L267.271 188.719L276.918 141.262L285.199 142.945L275.552 190.402Z" fill="#8B1D41"/>
<path id="Fill 46" fill-rule="evenodd" clip-rule="evenodd" d="M285.848 192.495L277.568 190.812L289.917 130.057L298.198 131.741L285.848 192.495Z" fill="#8B1D41"/>
<path id="Fill 48" fill-rule="evenodd" clip-rule="evenodd" d="M296.144 194.587L287.864 192.903L301.687 124.896L309.968 126.579L296.144 194.587Z" fill="#C41F3E"/>
<path id="Fill 50" fill-rule="evenodd" clip-rule="evenodd" d="M260.764 112.285L200.754 100.087C199.794 99.8905 199.175 98.9545 199.369 97.9945L199.992 94.9345C200.187 93.9755 201.123 93.3555 202.083 93.5505L262.093 105.749C263.052 105.944 263.672 106.881 263.477 107.84L262.855 110.9C262.66 111.86 261.724 112.48 260.764 112.285Z" fill="#D9D9D6"/>
<path id="Fill 52" fill-rule="evenodd" clip-rule="evenodd" d="M242.006 117.435L198.75 108.643C197.931 108.476 197.402 107.677 197.568 106.858L198.294 103.288C198.461 102.469 199.259 101.94 200.078 102.106L243.335 110.899C244.153 111.065 244.682 111.865 244.516 112.684L243.79 116.253C243.624 117.073 242.825 117.602 242.006 117.435Z" fill="#D9D9D6"/>
</g>
</g>
<g id="cup">
<path id="Fill 54" fill-rule="evenodd" clip-rule="evenodd" d="M169.631 60.6643C172.874 47.3643 164.721 33.9543 151.421 30.7113C138.121 27.4683 124.711 35.6213 121.468 48.9213C118.226 62.2213 126.379 75.6313 139.678 78.8733C152.978 82.1173 166.388 73.9643 169.631 60.6643Z" fill="white"/>
<path id="Fill 57" fill-rule="evenodd" clip-rule="evenodd" d="M163.058 59.0618C164.193 54.4058 163.403 49.7338 161.204 45.8738L167.72 41.9128C168.536 41.4168 168.795 40.3538 168.299 39.5388L167.968 38.9938C167.472 38.1778 166.409 37.9188 165.593 38.4148L158.779 42.5568C156.456 40.0408 153.394 38.1558 149.818 37.2838C140.149 34.9258 130.398 40.8538 128.04 50.5238C125.683 60.1938 131.611 69.9438 141.28 72.3018C150.95 74.6598 160.701 68.7318 163.058 59.0618Z" fill="#C41F3E"/>
<path id="Fill 59" fill-rule="evenodd" clip-rule="evenodd" d="M159.732 58.3156C161.637 50.5006 156.847 42.6196 149.031 40.7136C141.216 38.8086 133.336 43.5996 131.43 51.4146C129.524 59.2306 134.315 67.1106 142.13 69.0166C149.946 70.9216 157.826 66.1306 159.732 58.3156Z" fill="#8B1D41"/>
</g>
</g>
</g>
</svg>
