<?xml version="1.0" encoding="UTF-8"?>
<svg width="256px" height="256px" viewBox="0 0 256 256" version="1.1" xmlns="http://www.w3.org/2000/svg" xmlns:xlink="http://www.w3.org/1999/xlink">
    <!-- Generator: Sketch 56.3 (81716) - https://sketch.com -->
    <title>Icons/Illustrative/objects/business-256x256</title>
    <desc>Created with Sketch.</desc>
    <g id="Icons/Illustrative/objects/business-256x256" stroke="none" stroke-width="1" fill="none" fill-rule="evenodd">
        <g id="Icons/Illustrative/Oval-White" fill="#FFFFFF">
            <circle id="Oval" cx="128" cy="128" r="128"></circle>
        </g>
        <path d="M142.875,130 L142.875,139.053392 C142.875,141.595719 140.794818,143.664627 138.238636,143.664627 L117.761364,143.664627 C115.205182,143.664627 113.125,141.595719 113.125,139.053392 L113.125,130 L60,130 L60,178.464082 C60,180.964908 61.9642727,183 64.3782727,183 L191.621727,183 C194.035727,183 196,180.964908 196,178.464082 L196,130 L142.875,130 Z" id="Fill-4" fill="#C41F3E"></path>
        <path d="M117.57377,141 L138.42623,141 C139.293377,141 140,140.317974 140,139.477621 L140,127.522379 C140,126.683548 139.293377,126 138.42623,126 L117.57377,126 C116.706623,126 116,126.683548 116,127.522379 L116,139.477621 C116,140.317974 116.706623,141 117.57377,141" id="Fill-6" fill="#8B1D41"></path>
        <path d="M108.154818,92.0202708 L149.236091,92.0202708 L149.236091,83.1218784 L108.154818,83.1218784 L108.154818,92.0202708 Z M191.363636,93.5968355 L158.508818,93.5968355 L158.508818,81.6015654 C158.508818,77.4100622 155.042364,74 150.781545,74 L106.609364,74 C102.348545,74 98.8820909,77.4100622 98.8820909,81.6015654 L98.8820909,93.5968355 L64.6363636,93.5968355 C62.0801818,93.5968355 60,95.6416566 60,98.1577747 L60,126.479687 L113.131182,128 C113.163636,125.511248 115.225273,123.495312 117.762909,123.495312 L138.238636,123.495312 C140.776273,123.495312 142.837909,125.511248 142.868818,128 L196,126.479687 L196,98.1577747 C196,95.6416566 193.919818,93.5968355 191.363636,93.5968355 L191.363636,93.5968355 Z" id="Fill-8" fill="#8B1D41"></path>
        <g id="Group" transform="translate(49.000000, 51.000000)"></g>
    </g>
</svg>