<?xml version="1.0" encoding="UTF-8"?>
<svg width="450px" height="250px" viewBox="0 0 450 250" version="1.1" xmlns="http://www.w3.org/2000/svg" xmlns:xlink="http://www.w3.org/1999/xlink">
    <!-- Generator: Sketch 63.1 (92452) - https://sketch.com -->
    <title>Illustrations/Grey/Mortgage/calculating-your-mortgage-450x250</title>
    <desc>Created with Sketch.</desc>
    <g id="Illustrations/Grey/Mortgage/calculating-your-mortgage-450x250" stroke="none" stroke-width="1" fill="none" fill-rule="evenodd">
        <g id="Group-92" transform="translate(128.000000, 47.583000)">
            <path d="M52.9779,88.2353 L48.3529,79.8873 L46.5109,78.0303 L45.2559,77.6963 L47.5529,80.0113 L7.6999,39.8393 L7.1299,40.4043 L5.3799,38.6403 C4.6529,37.9083 3.4709,37.9033 2.7379,38.6303 L2.1119,39.2513 C1.3789,39.9783 1.3739,41.1613 2.1009,41.8933 L3.8509,43.6573 L3.2809,44.2233 L3.2809,44.2233 L0.1839,47.2963 L15.9489,63.1873 C16.3729,63.6153 17.0629,63.6183 17.4909,63.1943 C17.9189,62.7693 17.9209,62.0793 17.4969,61.6513 L3.2689,47.3083 L4.8129,45.7683 L33.3419,74.5263 L43.6139,84.7663 L51.3129,89.8863 C51.6739,90.0893 52.0899,90.1013 52.4549,89.9173 C52.8239,89.7323 53.0739,89.3793 53.1239,88.9743 C53.1559,88.7203 53.1049,88.4653 52.9779,88.2353" id="Fill-2" fill="#D9DAD5"></path>
            <path d="M144.4759,153.6752 L38.6499,153.6752 C36.3799,153.6752 34.5389,151.8342 34.5389,149.5642 L34.5389,6.8572 C34.5389,4.5872 36.3799,2.7462 38.6499,2.7462 L144.4759,2.7462 C146.7469,2.7462 148.5869,4.5872 148.5869,6.8572 L148.5869,149.5642 C148.5869,151.8342 146.7469,153.6752 144.4759,153.6752" id="Fill-4" fill="#D9DAD5"></path>
            <path d="M192.1898,84.9179 C192.6318,84.0769 192.6818,83.1349 192.4078,82.2979 C192.1438,81.4929 191.5808,80.7839 190.7708,80.3589 L157.0268,62.6399 C155.3758,61.7729 153.3348,62.4089 152.4678,64.0599 L124.0568,118.1649 C123.5668,119.0969 123.5578,120.1529 123.9378,121.0519 C124.2318,121.7459 124.7568,122.3459 125.4758,122.7239 L159.2198,140.4429 C160.8708,141.3099 162.9118,140.6739 163.7788,139.0229 L192.1898,84.9179 Z" id="Fill-6" fill="#D9DAD5"></path>
            <path d="M142.2601,151.4999 L36.4341,151.4999 C34.1641,151.4999 32.3231,149.6599 32.3231,147.3889 L32.3231,4.6829 C32.3231,2.4119 34.1641,0.5719 36.4341,0.5719 L142.2601,0.5719 C144.5311,0.5719 146.3711,2.4119 146.3711,4.6829 L146.3711,147.3889 C146.3711,149.6599 144.5311,151.4999 142.2601,151.4999" id="Fill-8" fill="#FFFFFF"></path>
            <path d="M131.4173,43.976 L103.7413,43.976 C102.8293,43.976 102.0893,43.236 102.0893,42.324 L102.0893,42.322 C102.0893,41.409 102.8293,40.67 103.7413,40.67 L131.4173,40.67 C132.3303,40.67 133.0693,41.409 133.0693,42.322 L133.0693,42.324 C133.0693,43.236 132.3303,43.976 131.4173,43.976" id="Fill-10" fill="#F2F3F2"></path>
            <path d="M131.4173,35.5849 L103.7413,35.5849 C102.8293,35.5849 102.0893,34.8449 102.0893,33.9329 L102.0893,33.9309 C102.0893,33.0179 102.8293,32.2789 103.7413,32.2789 L131.4173,32.2789 C132.3303,32.2789 133.0693,33.0179 133.0693,33.9309 L133.0693,33.9329 C133.0693,34.8449 132.3303,35.5849 131.4173,35.5849" id="Fill-12" fill="#F2F3F2"></path>
            <path d="M95.806,43.976 L87.935,43.976 C87.023,43.976 86.284,43.236 86.284,42.324 L86.284,42.322 C86.284,41.409 87.023,40.67 87.935,40.67 L95.806,40.67 C96.719,40.67 97.458,41.409 97.458,42.322 L97.458,42.324 C97.458,43.236 96.719,43.976 95.806,43.976" id="Fill-14" fill="#F2F3F2"></path>
            <path d="M95.806,35.5849 L87.935,35.5849 C87.023,35.5849 86.284,34.8449 86.284,33.9329 L86.284,33.9309 C86.284,33.0179 87.023,32.2789 87.935,32.2789 L95.806,32.2789 C96.719,32.2789 97.458,33.0179 97.458,33.9309 L97.458,33.9329 C97.458,34.8449 96.719,35.5849 95.806,35.5849" id="Fill-16" fill="#F2F3F2"></path>
            <path d="M131.4173,75.4701 L46.6563,75.4701 L46.7903,75.5841 L48.6313,77.4411 L49.3713,78.7761 L131.4173,78.7761 C132.3303,78.7761 133.0693,78.0361 133.0693,77.1241 L133.0693,77.1221 C133.0693,76.2101 132.3303,75.4701 131.4173,75.4701" id="Fill-18" fill="#F2F3F2"></path>
            <path d="M47.0658,70.3876 L131.4178,70.3876 C132.3298,70.3876 133.0688,69.6476 133.0688,68.7356 L133.0688,68.7336 C133.0688,67.8206 132.3298,67.0806 131.4178,67.0806 L47.0658,67.0806 C46.1528,67.0806 45.4138,67.8206 45.4138,68.7336 L45.4138,68.7356 C45.4138,69.6476 46.1528,70.3876 47.0658,70.3876" id="Fill-20" fill="#F2F3F2"></path>
            <path d="M47.0658,61.9985 L131.4178,61.9985 C132.3298,61.9985 133.0688,61.2585 133.0688,60.3465 L133.0688,60.3445 C133.0688,59.4315 132.3298,58.6925 131.4178,58.6925 L47.0658,58.6925 C46.1528,58.6925 45.4138,59.4315 45.4138,60.3445 L45.4138,60.3465 C45.4138,61.2585 46.1528,61.9985 47.0658,61.9985" id="Fill-22" fill="#F2F3F2"></path>
            <path d="M45.4134,51.9555 L45.4134,51.9575 C45.4134,52.8705 46.1534,53.6095 47.0654,53.6095 L131.4174,53.6095 C132.3304,53.6095 133.0694,52.8705 133.0694,51.9575 L133.0694,51.9555 C133.0694,51.0425 132.3304,50.3035 131.4174,50.3035 L47.0654,50.3035 C46.1534,50.3035 45.4134,51.0425 45.4134,51.9555" id="Fill-24" fill="#F2F3F2"></path>
            <path d="M45.4134,93.9013 L45.4134,93.9013 C45.4134,94.8143 46.1534,95.5533 47.0654,95.5533 L131.4174,95.5533 C132.3304,95.5533 133.0694,94.8143 133.0694,93.9013 C133.0694,92.9883 132.3304,92.2493 131.4174,92.2493 L47.0654,92.2493 C46.1534,92.2493 45.4134,92.9883 45.4134,93.9013" id="Fill-26" fill="#F2F3F2"></path>
            <path d="M45.4134,102.2904 L45.4134,102.2904 C45.4134,103.2024 46.1534,103.9424 47.0654,103.9424 L131.4174,103.9424 C132.3304,103.9424 133.0694,103.2024 133.0694,102.2904 C133.0694,101.3774 132.3304,100.6384 131.4174,100.6384 L47.0654,100.6384 C46.1534,100.6384 45.4134,101.3774 45.4134,102.2904" id="Fill-28" fill="#F2F3F2"></path>
            <path d="M45.4134,110.6791 L45.4134,110.6791 C45.4134,111.5921 46.1534,112.3311 47.0654,112.3311 L131.4174,112.3311 C132.3304,112.3311 133.0694,111.5921 133.0694,110.6791 C133.0694,109.7671 132.3304,109.0271 131.4174,109.0271 L47.0654,109.0271 C46.1534,109.0271 45.4134,109.7671 45.4134,110.6791" id="Fill-30" fill="#F2F3F2"></path>
            <path d="M45.4134,119.0683 L45.4134,119.0683 C45.4134,119.9813 46.1534,120.7203 47.0654,120.7203 L131.4174,120.7203 C132.3304,120.7203 133.0694,119.9813 133.0694,119.0683 C133.0694,118.1553 132.3304,117.4163 131.4174,117.4163 L47.0654,117.4163 C46.1534,117.4163 45.4134,118.1553 45.4134,119.0683" id="Fill-32" fill="#F2F3F2"></path>
            <path d="M45.4134,127.81 L45.4134,127.81 C45.4134,128.723 46.1534,129.462 47.0654,129.462 L131.4174,129.462 C132.3304,129.462 133.0694,128.723 133.0694,127.81 C133.0694,126.898 132.3304,126.158 131.4174,126.158 L47.0654,126.158 C46.1534,126.158 45.4134,126.898 45.4134,127.81" id="Fill-34" fill="#F2F3F2"></path>
            <path d="M45.4134,136.1991 L45.4134,136.1991 C45.4134,137.1121 46.1534,137.8511 47.0654,137.8511 L131.4174,137.8511 C132.3304,137.8511 133.0694,137.1121 133.0694,136.1991 C133.0694,135.2861 132.3304,134.5471 131.4174,134.5471 L47.0654,134.5471 C46.1534,134.5471 45.4134,135.2861 45.4134,136.1991" id="Fill-36" fill="#F2F3F2"></path>
            <path d="M51.4378,83.8588 L47.0658,83.8588 C46.9298,83.8588 46.7998,83.8798 46.6728,83.9108 L51.9148,86.8698 C52.4088,87.1488 52.9588,86.6038 52.6838,86.1068 L51.4378,83.8588 Z" id="Fill-38" fill="#F2F3F2"></path>
            <path d="M45.9818,84.2733 C45.6358,84.5763 45.4138,85.0153 45.4138,85.5113 L45.4138,85.5133 C45.4138,86.4253 46.1528,87.1653 47.0658,87.1653 L51.1048,87.1653 L45.9818,84.2733 Z" id="Fill-40" fill="#F2F3F2"></path>
            <path d="M131.4173,83.8588 L52.1873,83.8588 L53.2563,85.7898 C53.3843,86.0198 53.4353,86.2748 53.4033,86.5288 C53.3733,86.7688 53.2663,86.9858 53.1123,87.1658 L131.4173,87.1658 C132.3303,87.1658 133.0693,86.4258 133.0693,85.5128 L133.0693,85.5108 C133.0693,84.5988 132.3303,83.8588 131.4173,83.8588" id="Fill-42" fill="#F2F3F2"></path>
            <polygon id="Fill-44" fill="#8B1D41" points="7.9793 37.393 3.5603 41.777 43.4523 81.991 47.8723 77.606"></polygon>
            <path d="M0.4622,44.85 L16.2272,60.742 C16.6512,61.169 17.3422,61.172 17.7702,60.748 C18.1972,60.324 18.2002,59.633 17.7762,59.205 L3.5472,44.862 L5.0962,43.326 L3.5602,41.777 L0.4622,44.85 Z" id="Fill-46" fill="#C41F3E"></path>
            <path d="M5.659,36.1947 C4.932,35.4627 3.749,35.4577 3.017,36.1837 L2.39,36.8057 C1.658,37.5317 1.654,38.7147 2.38,39.4467 L4.13,41.2117 L7.409,37.9587 L5.659,36.1947 Z" id="Fill-48" fill="#C41F3E"></path>
            <path d="M51.9144,86.8695 C52.4094,87.1485 52.9584,86.6035 52.6834,86.1075 L48.2684,78.1375 L43.9804,82.3905 L51.9144,86.8695 Z" id="Fill-50" fill="#C41F3E"></path>
            <path d="M64.5775,9.1615 C64.1015,8.8025 63.7085,8.6475 63.2645,8.64546552 C62.7735,8.6425 62.2605,8.8355 61.9575,9.1365 L46.4135,23.4235 C45.9395,23.8925 45.6955,24.4045 45.6924703,24.9395 C45.6865,26.0555 46.5905,26.9675 47.7045,26.9735 C48.1945,26.9755 48.7075,26.7825 49.0115,26.4815 L63.2405,13.3955 L77.3225,26.6145 C77.7975,26.9735 78.1905,27.1275 78.6365,27.1305207 C79.7505,27.1355 80.6625,26.2325 80.667528,25.1175 C80.6705,24.5835 80.4325,24.0705 79.9595,23.5915 L64.5775,9.1615 Z" id="Fill-52" fill="#F2F3F2"></path>
            <path d="M63.2372,13.9057 L49.9182,26.1557 L49.8401735,41.4737 C49.8342,42.7207 50.8492,43.7457 52.0962,43.7527 L58.6712,43.7857 L58.7342,30.5297 L67.5712,30.5747 L67.5082,43.8307 L74.0742,43.863736 C75.3212,43.8707 76.3462,42.8557 76.3522,41.6097 L76.4302,26.2897 L63.2372,13.9057 Z" id="Fill-54" fill="#F2F3F2"></path>
            <path d="M191.1029,78.2172 L122.6329,116.9702 C122.9259,117.6642 123.4519,118.2642 124.1709,118.6422 L157.9149,136.3622 C159.5659,137.2282 161.6069,136.5932 162.4739,134.9422 L190.8849,80.8372 C191.3269,79.9952 191.3759,79.0542 191.1029,78.2172" id="Fill-56" fill="#8B1D41"></path>
            <path d="M189.4662,76.2777 L155.7212,58.5587 C154.0702,57.6917 152.0292,58.3267 151.1632,59.9777 L122.7512,114.0837 C122.2622,115.0157 122.2522,116.0717 122.6332,116.9707 L191.1032,78.2167 C190.8392,77.4117 190.2762,76.7027 189.4662,76.2777" id="Fill-58" fill="#C41F3E"></path>
            <path d="M168.8885,102.5873 L168.8885,102.5873 C167.0645,101.6293 166.3625,99.3743 167.3205,97.5503 C168.2775,95.7263 170.5325,95.0243 172.3565,95.9823 C174.1805,96.9403 174.8835,99.1953 173.9255,101.0193 C172.9675,102.8433 170.7125,103.5453 168.8885,102.5873" id="Fill-60" fill="#C41F3E"></path>
            <path d="M164.3543,111.2216 L164.3543,111.2216 C162.5303,110.2636 161.8283,108.0086 162.7863,106.1846 C163.7433,104.3616 165.9993,103.6586 167.8223,104.6166 C169.6463,105.5746 170.3493,107.8296 169.3913,109.6536 C168.4333,111.4776 166.1783,112.1796 164.3543,111.2216" id="Fill-62" fill="#C41F3E"></path>
            <path d="M159.8202,119.8564 L159.8202,119.8564 C157.9962,118.8984 157.2942,116.6434 158.2522,114.8194 C159.2092,112.9954 161.4652,112.2934 163.2892,113.2514 C165.1122,114.2094 165.8152,116.4634 164.8572,118.2884 C163.8992,120.1114 161.6442,120.8144 159.8202,119.8564" id="Fill-64" fill="#C41F3E"></path>
            <path d="M155.286,128.4906 L155.286,128.4906 C153.462,127.5326 152.76,125.2776 153.718,123.4536 C154.676,121.6296 156.931,120.9286 158.755,121.8856 C160.578,122.8436 161.281,125.0986 160.323,126.9226 C159.365,128.7466 157.11,129.4486 155.286,128.4906" id="Fill-66" fill="#C41F3E"></path>
            <path d="M145.745,90.4345 L145.745,90.4345 C143.921,89.4765 143.219,87.2215 144.177,85.3975 C145.135,83.5735 147.39,82.8715 149.214,83.8295 C151.037,84.7875 151.74,87.0425 150.782,88.8665 C149.824,90.6895 147.569,91.3925 145.745,90.4345" id="Fill-68" fill="#FFFFFF"></path>
            <path d="M157.3167,96.5111 L157.3167,96.5111 C155.4927,95.5531 154.7907,93.2981 155.7487,91.4741 C156.7057,89.6501 158.9617,88.9481 160.7857,89.9061 C162.6087,90.8631 163.3117,93.1181 162.3537,94.9431 C161.3957,96.7661 159.1407,97.4691 157.3167,96.5111" id="Fill-70" fill="#FFFFFF"></path>
            <polygon id="Fill-72" fill="#FFFFFF" points="179.5536 95.619 145.4276 77.699 154.1126 61.158 188.2396 79.078"></polygon>
            <path d="M141.2113,99.0688 L141.2113,99.0688 C139.3873,98.1108 138.6853,95.8568 139.6433,94.0318 C140.6003,92.2078 142.8553,91.5068 144.6793,92.4638 C146.5033,93.4218 147.2063,95.6768 146.2483,97.5008 C145.2903,99.3248 143.0353,100.0268 141.2113,99.0688" id="Fill-74" fill="#FFFFFF"></path>
            <path d="M152.7826,105.1454 L152.7826,105.1454 C150.9586,104.1874 150.2566,101.9324 151.2146,100.1084 C152.1716,98.2844 154.4276,97.5824 156.2516,98.5404 C158.0746,99.4984 158.7776,101.7534 157.8196,103.5774 C156.8616,105.4004 154.6066,106.1034 152.7826,105.1454" id="Fill-76" fill="#FFFFFF"></path>
            <path d="M136.6771,107.7035 L136.6771,107.7035 C134.8531,106.7455 134.1511,104.4905 135.1091,102.6665 C136.0661,100.8425 138.3221,100.1405 140.1451,101.0985 C141.9691,102.0565 142.6721,104.3115 141.7141,106.1355 C140.7561,107.9595 138.5011,108.6615 136.6771,107.7035" id="Fill-78" fill="#FFFFFF"></path>
            <path d="M148.2484,113.7797 L148.2484,113.7797 C146.4244,112.8217 145.7224,110.5677 146.6804,108.7427 C147.6384,106.9187 149.8934,106.2177 151.7174,107.1747 C153.5404,108.1327 154.2434,110.3877 153.2854,112.2117 C152.3274,114.0357 150.0724,114.7377 148.2484,113.7797" id="Fill-80" fill="#FFFFFF"></path>
            <path d="M143.7142,122.4145 L132.1432,116.3375 C130.3192,115.3805 129.6162,113.1255 130.5742,111.3015 C131.5322,109.4765 133.7872,108.7745 135.6112,109.7325 L147.1832,115.8095 C149.0072,116.7675 149.7092,119.0225 148.7512,120.8465 C147.7942,122.6695 145.5382,123.3725 143.7142,122.4145" id="Fill-82" fill="#FFFFFF"></path>
            <polygon id="Fill-84" fill="#FFFFFF" points="170.7249 99.5692 170.0149 100.9222 169.6259 100.7182 170.3369 99.3652 169.0039 98.6652 169.1939 98.3032 170.5269 99.0042 171.2369 97.6512 171.6249 97.8542 170.9149 99.2072 172.2419 99.9042 172.0519 100.2652"></polygon>
            <polygon id="Fill-86" fill="#FFFFFF" points="164.4759 107.3285 164.6869 106.9265 167.7009 108.5095 167.4899 108.9115"></polygon>
            <path d="M155.0208,125.3344 L155.2318,124.9324 L158.2458,126.5154 L158.0348,126.9174 L155.0208,125.3344 Z M155.7948,123.8604 L156.0058,123.4594 L159.0198,125.0414 L158.8088,125.4434 L155.7948,123.8604 Z" id="Fill-88" fill="#FFFFFF"></path>
            <path d="M160.4979,117.9555 L160.8139,117.3525 L161.3239,117.6205 L161.0069,118.2235 L160.4979,117.9555 Z M161.7919,115.4905 L162.1089,114.8885 L162.6179,115.1555 L162.3009,115.7575 L161.7919,115.4905 Z M159.9359,115.9345 L160.1259,115.5725 L163.1729,117.1725 L162.9829,117.5345 L159.9359,115.9345 Z" id="Fill-90" fill="#FFFFFF"></path>
        </g>
    </g>
</svg>