<?xml version="1.0" encoding="UTF-8"?>
<svg width="256px" height="256px" viewBox="0 0 256 256" version="1.1" xmlns="http://www.w3.org/2000/svg" xmlns:xlink="http://www.w3.org/1999/xlink">
    <!-- Generator: Sketch 56.3 (81716) - https://sketch.com -->
    <title>Icons/Illustrative/objects/calendar-256x256</title>
    <desc>Created with Sketch.</desc>
    <g id="Icons/Illustrative/objects/calendar-256x256" stroke="none" stroke-width="1" fill="none" fill-rule="evenodd">
        <g id="Icons/Illustrative/Oval" fill="#F2F3F2">
            <circle id="Oval" cx="128" cy="128" r="128"></circle>
        </g>
        <g id="regular-investment-plans" transform="translate(71.000000, 73.000000)">
            <g id="Group">
                <path d="M0.388105856,46.5727027 L0.388105856,99.743205 C0.388105856,105.564793 5.23942906,110.416116 11.0610169,110.416116 C11.0610169,110.416116 11.0610169,110.416116 11.0610169,110.416116 L103.236158,110.416116 C109.057746,110.416116 113.909069,105.564793 113.909069,99.743205 L113.909069,99.743205 L113.909069,46.5727027 L0.388105856,46.5727027 Z" id="Path" fill="#8B1D41"></path>
                <polygon id="Path" fill="#FFFFFF" points="60.5445136 89.2643469 53.5586081 89.2643469 53.5586081 82.0843886 60.5445136 82.0843886 60.5445136 84.9951825"></polygon>
                <polygon id="Path" fill="#FFFFFF" points="85.3832884 89.2643469 78.3973829 89.2643469 78.3973829 82.0843886 85.3832884 82.0843886 85.3832884 85.9654471"></polygon>
                <polygon id="Path" fill="#FFFFFF" points="35.7057388 89.2643469 28.7198334 89.2643469 28.7198334 82.0843886 35.7057388 82.0843886 35.7057388 85.9654471"></polygon>
                <polygon id="Path" fill="#FFFFFF" points="60.5445136 67.9185248 53.5586081 67.9185248 53.5586081 60.9326194 60.5445136 60.9326194 60.5445136 64.4255721"></polygon>
                <polygon id="Path" fill="#FFFFFF" points="85.3832884 67.9185248 78.3973829 67.9185248 78.3973829 60.9326194 85.3832884 60.9326194 85.3832884 64.813678"></polygon>
                <polygon id="Path" fill="#FFFFFF" points="35.7057388 67.9185248 28.7198334 67.9185248 28.7198334 60.9326194 35.7057388 60.9326194 35.7057388 64.4255721"></polygon>
                <path d="M81.8903356,-1.81188398e-13 L81.8903356,-1.81188398e-13 C83.8308649,-1.81188398e-13 85.3832884,1.55242342 85.3832884,3.49295271 L85.3832884,17.6588165 C85.3832884,19.5993457 83.8308649,21.1517692 81.8903356,21.1517692 L81.8903356,21.1517692 C79.9498064,21.1517692 78.3973829,19.5993457 78.3973829,17.6588165 L78.3973829,3.49295271 C78.3973829,1.55242342 79.9498064,-1.81188398e-13 81.8903356,-1.81188398e-13 Z" id="Path" fill="#8B1D41" fill-rule="nonzero"></path>
                <path d="M32.2127861,-1.81188398e-13 L32.2127861,-1.81188398e-13 C34.1533153,-1.81188398e-13 35.7057388,1.55242342 35.7057388,3.49295271 L35.7057388,17.6588165 C35.7057388,19.5993457 34.1533153,21.1517692 32.2127861,21.1517692 L32.2127861,21.1517692 C30.2722568,21.1517692 28.7198334,19.5993457 28.7198334,17.6588165 L28.7198334,3.49295271 C28.5257804,1.55242342 30.0782039,-1.81188398e-13 32.2127861,-1.81188398e-13 Z" id="Path" fill="#8B1D41" fill-rule="nonzero"></path>
                <path d="M81.8903356,-1.81188398e-13 L81.8903356,-1.81188398e-13 C83.8308649,-1.81188398e-13 85.3832884,1.55242342 85.3832884,3.49295271 L85.3832884,17.6588165 C85.3832884,19.5993457 83.8308649,21.1517692 81.8903356,21.1517692 L81.8903356,21.1517692 C79.9498064,21.1517692 78.3973829,19.5993457 78.3973829,17.6588165 L78.3973829,3.49295271 C78.3973829,1.55242342 79.9498064,-1.81188398e-13 81.8903356,-1.81188398e-13 Z" id="Path" fill="#8B1D41" fill-rule="nonzero"></path>
                <path d="M32.2127861,-1.81188398e-13 L32.2127861,-1.81188398e-13 C34.1533153,-1.81188398e-13 35.7057388,1.55242342 35.7057388,3.49295271 L35.7057388,17.6588165 C35.7057388,19.5993457 34.1533153,21.1517692 32.2127861,21.1517692 L32.2127861,21.1517692 C30.2722568,21.1517692 28.7198334,19.5993457 28.7198334,17.6588165 L28.7198334,3.49295271 C28.5257804,1.55242342 30.0782039,-1.81188398e-13 32.2127861,-1.81188398e-13 Z" id="Path" fill="#8B1D41" fill-rule="nonzero"></path>
                <rect id="Rectangle" fill="#F0F2F3" fill-rule="nonzero" x="0.388105856" y="44.0500147" width="113.520963" height="2.52268806"></rect>
                <path d="M113.715016,44.0500147 L113.715016,21.7339279 C113.715016,15.9123401 108.863693,11.0610169 103.042105,11.0610169 L87.7119235,11.0610169 L87.7119235,17.8528694 C87.7119235,21.1517692 84.9951825,23.8685102 81.6962827,23.8685102 C78.3973829,23.8685102 75.6806419,21.1517692 75.6806419,17.8528694 L75.6806419,11.0610169 L38.0343739,11.0610169 L38.0343739,17.8528694 C38.0343739,21.1517692 35.3176329,23.8685102 32.0187331,23.8685102 C28.7198334,23.8685102 26.0030924,21.1517692 26.0030924,17.8528694 L26.0030924,11.0610169 L10.672911,11.0610169 C4.8513232,11.0610169 6.75015599e-14,15.9123401 6.75015599e-14,21.7339279 L6.75015599e-14,43.8559617 L113.715016,43.8559617 L113.715016,44.0500147 Z" id="Path" fill="#C41F3E"></path>
            </g>
        </g>
    </g>
</svg>