<svg width="450" height="250" viewBox="0 0 450 250" fill="none" xmlns="http://www.w3.org/2000/svg">
<path fill-rule="evenodd" clip-rule="evenodd" d="M318.041 185.974C318.041 194.283 275.957 201.018 224.042 201.018C172.127 201.018 130.042 194.283 130.042 185.974C130.042 177.665 172.127 170.929 224.042 170.929C275.957 170.929 318.041 177.665 318.041 185.974" fill="#BCE4E3"/>
<path fill-rule="evenodd" clip-rule="evenodd" d="M285.045 123.945L282.061 110.198C281.691 108.49 280.179 107.271 278.431 107.271H171.966C170.218 107.271 168.707 108.49 168.336 110.198L165.352 123.945H165.343V142.166H285.054V123.945H285.045Z" fill="#D9D9D6"/>
<path fill-rule="evenodd" clip-rule="evenodd" d="M248.763 118.571C248.614 118.621 248.456 118.653 248.292 118.666L175.49 124.416C174.817 124.468 174.162 124.257 173.649 123.818C173.135 123.379 172.823 122.766 172.77 122.093L170.074 87.9623C169.965 86.5723 171.006 85.3523 172.396 85.2413L245.198 79.4923C245.734 79.4493 246.254 79.6183 246.663 79.9673C247.072 80.3163 247.32 80.8033 247.363 81.3393L250.139 116.502C250.213 117.444 249.623 118.288 248.763 118.571" fill="white"/>
<path fill-rule="evenodd" clip-rule="evenodd" d="M172.169 86.4658C171.585 86.6578 171.184 87.2318 171.234 87.8698L173.93 122.002C173.959 122.365 174.127 122.696 174.405 122.934C174.682 123.17 175.035 123.285 175.399 123.256L248.201 117.506C248.67 117.469 249.017 117.061 248.98 116.593L246.203 81.4308C246.186 81.2048 246.081 80.9998 245.908 80.8518C245.736 80.7048 245.517 80.6338 245.291 80.6518L172.489 86.4018C172.377 86.4098 172.27 86.4318 172.169 86.4658" fill="#8B1D41"/>
<path fill-rule="evenodd" clip-rule="evenodd" d="M228.9 100.488C229.523 108.37 221.604 115.425 211.214 116.246C200.824 117.066 191.897 111.342 191.274 103.46C190.651 95.5783 198.57 88.5233 208.96 87.7033C219.35 86.8823 228.277 92.6063 228.9 100.488" fill="white"/>
<path fill-rule="evenodd" clip-rule="evenodd" d="M210.558 107.48C212.512 107.326 213.426 106.443 213.312 105.002C213.227 103.926 212.731 103.253 210.847 102.738L210.509 107.484C210.509 107.484 210.533 107.482 210.558 107.48M209.53 95.3935C207.82 95.5285 207.047 96.3275 207.141 97.5255C207.225 98.5755 207.782 99.0955 209.54 99.5735L209.847 95.3685C209.749 95.3755 209.627 95.3855 209.53 95.3935M214.466 93.7755L214.249 96.3245C213.404 95.9005 212.445 95.5815 211.402 95.4425L211.069 99.9435C214.204 100.728 215.744 101.86 215.954 104.522C216.203 107.673 214.088 109.537 210.546 109.817C210.497 109.821 210.473 109.823 210.424 109.827L210.211 112.743L208.497 112.51C208.497 112.51 208.703 109.814 208.678 109.816C207.294 109.729 206.016 109.412 204.974 108.978L205.165 106.431C206.442 107.02 207.675 107.388 208.985 107.481L209.343 102.366C206.308 101.598 204.735 100.666 204.529 98.0505C204.297 95.1195 206.295 93.3375 209.666 93.0725C209.764 93.0645 209.837 93.0585 209.91 93.0525L210.059 91.1985L211.8 91.4545L211.683 93.0855C212.724 93.2005 213.677 93.4445 214.466 93.7755" fill="#8B1D41"/>
<path fill-rule="evenodd" clip-rule="evenodd" d="M266.346 163.786C266.188 163.786 266.028 163.767 265.868 163.728L194.929 146.389C194.272 146.228 193.718 145.821 193.367 145.244C193.016 144.667 192.911 143.987 193.072 143.331L201.201 110.073C201.533 108.719 202.904 107.886 204.259 108.216L275.199 125.556C275.721 125.683 276.162 126.007 276.441 126.467C276.721 126.926 276.804 127.467 276.676 127.988L268.301 162.252C268.076 163.17 267.251 163.786 266.346 163.786" fill="white"/>
<path fill-rule="evenodd" clip-rule="evenodd" d="M203.659 109.307C203.044 109.307 202.484 109.726 202.331 110.349L194.202 143.608C194.116 143.962 194.172 144.329 194.362 144.641C194.551 144.953 194.85 145.172 195.204 145.258L266.145 162.599C266.602 162.71 267.059 162.431 267.171 161.976L275.546 127.713C275.599 127.493 275.564 127.265 275.447 127.071C275.329 126.876 275.143 126.741 274.923 126.687L203.983 109.347C203.874 109.32 203.766 109.307 203.659 109.307" fill="#C41F3E"/>
<path fill-rule="evenodd" clip-rule="evenodd" d="M253.144 140.392C251.267 148.073 241.538 152.292 231.413 149.818C221.289 147.343 214.603 139.111 216.48 131.43C218.357 123.75 228.087 119.53 238.211 122.005C248.336 124.48 255.021 132.712 253.144 140.392" fill="white"/>
<path fill-rule="evenodd" clip-rule="evenodd" d="M233.536 141.287C235.44 141.752 236.584 141.2 236.928 139.796C237.184 138.748 236.924 137.953 235.295 136.874L233.489 141.275C233.489 141.275 233.512 141.281 233.536 141.287M236.344 129.486C234.678 129.079 233.694 129.596 233.409 130.764C233.159 131.787 233.525 132.455 235.045 133.459L236.654 129.562C236.559 129.539 236.439 129.51 236.344 129.486M241.539 129.496L240.535 131.849C239.866 131.182 239.055 130.578 238.107 130.119L236.382 134.29C239.112 136.016 240.221 137.574 239.587 140.168C238.836 143.238 236.244 144.346 232.793 143.503C232.745 143.491 232.721 143.485 232.674 143.474L231.558 146.177L230.004 145.419C230.004 145.419 231.043 142.923 231.018 142.916C229.732 142.4 228.617 141.699 227.764 140.961L228.744 138.601C229.771 139.56 230.827 140.297 232.042 140.795L233.983 136.049C231.342 134.37 230.14 132.991 230.763 130.444C231.461 127.588 233.916 126.522 237.201 127.325C237.296 127.348 237.368 127.365 237.438 127.383L238.161 125.669L239.734 126.456L239.112 127.97C240.065 128.404 240.894 128.935 241.539 129.496" fill="#8B1D41"/>
<path fill-rule="evenodd" clip-rule="evenodd" d="M268.967 116.149C268.82 116.093 268.677 116.018 268.542 115.924L208.573 74.2514C208.018 73.8654 207.647 73.2864 207.527 72.6224C207.407 71.9574 207.553 71.2854 207.939 70.7304L227.477 42.6154C228.273 41.4694 229.85 41.1854 230.997 41.9804L290.967 83.6544C291.408 83.9614 291.704 84.4214 291.799 84.9514C291.894 85.4794 291.779 86.0134 291.472 86.4554L271.344 115.42C270.804 116.196 269.812 116.475 268.967 116.149" fill="white"/>
<path fill-rule="evenodd" clip-rule="evenodd" d="M230.045 42.7832C229.471 42.5622 228.798 42.7522 228.432 43.2782L208.894 71.3942C208.686 71.6942 208.607 72.0562 208.671 72.4162C208.736 72.7742 208.936 73.0872 209.236 73.2952L269.207 114.969C269.593 115.237 270.121 115.14 270.388 114.756L290.516 85.7922C290.645 85.6052 290.694 85.3802 290.654 85.1562C290.614 84.9332 290.49 84.7392 290.303 84.6102L230.333 42.9362C230.241 42.8722 230.145 42.8222 230.045 42.7832" fill="#C41F3E"/>
<path fill-rule="evenodd" clip-rule="evenodd" d="M265.055 89.5742C260.543 96.0672 249.947 96.5092 241.388 90.5612C232.829 84.6132 229.549 74.5282 234.06 68.0362C238.572 61.5432 249.168 61.1012 257.727 67.0492C266.286 72.9972 269.567 83.0822 265.055 89.5742" fill="white"/>
<path fill-rule="evenodd" clip-rule="evenodd" d="M246.434 83.3633C248.043 84.4813 249.31 84.3783 250.135 83.1913C250.75 82.3043 250.793 81.4693 249.662 79.8773L246.394 83.3363C246.394 83.3363 246.413 83.3493 246.434 83.3633M253.295 73.3603C251.887 72.3823 250.783 72.5093 250.097 73.4973C249.496 74.3623 249.598 75.1183 250.655 76.6003L253.557 73.5423C253.476 73.4863 253.375 73.4163 253.295 73.3603M258.14 75.2353L256.357 77.0713C255.972 76.2073 255.432 75.3523 254.713 74.5843L251.604 77.8563C253.532 80.4493 254.006 82.3013 252.483 84.4933C250.679 87.0893 247.862 87.1913 244.944 85.1643C244.904 85.1353 244.884 85.1223 244.844 85.0933L242.831 87.2163L241.653 85.9503C241.653 85.9503 243.519 83.9933 243.499 83.9793C242.484 83.0353 241.695 81.9803 241.164 80.9843L242.926 79.1353C243.54 80.3993 244.262 81.4663 245.216 82.3673L248.734 78.6363C246.872 76.1203 246.246 74.4023 247.743 72.2493C249.421 69.8343 252.095 69.7213 254.871 71.6503C254.952 71.7073 255.012 71.7493 255.072 71.7903L256.362 70.4503L257.547 71.7503L256.423 72.9393C257.156 73.6873 257.739 74.4803 258.14 75.2353" fill="#8B1D41"/>
<path fill-rule="evenodd" clip-rule="evenodd" d="M283.781 124.479L280.961 137.468C280.598 139.144 279.116 140.338 277.402 140.338H172.996C171.282 140.338 169.8 139.144 169.436 137.468L166.617 124.479C166.549 124.167 166.274 123.946 165.955 123.946H165.343V179.062C165.343 181.789 167.553 183.999 170.279 183.999H280.118C282.844 183.999 285.054 181.789 285.054 179.062V123.946H284.443C284.124 123.946 283.848 124.167 283.781 124.479" fill="white"/>
<path fill-rule="evenodd" clip-rule="evenodd" d="M275.149 171.124H247.054C246.329 171.124 245.741 170.536 245.741 169.812C245.741 169.086 246.329 168.499 247.054 168.499H275.149C275.874 168.499 276.461 169.086 276.461 169.812C276.461 170.536 275.874 171.124 275.149 171.124" fill="#D9D9D6"/>
<path fill-rule="evenodd" clip-rule="evenodd" d="M275.149 176.082H247.054C246.329 176.082 245.741 175.494 245.741 174.77C245.741 174.045 246.329 173.457 247.054 173.457H275.149C275.874 173.457 276.461 174.045 276.461 174.77C276.461 175.494 275.874 176.082 275.149 176.082" fill="#D9D9D6"/>
</svg>
