<?xml version="1.0" encoding="UTF-8"?>
<svg width="450px" height="250px" viewBox="0 0 450 250" version="1.1" xmlns="http://www.w3.org/2000/svg" xmlns:xlink="http://www.w3.org/1999/xlink">
    <!-- Generator: Sketch 62 (91390) - https://sketch.com -->
    <title>Illustrations/Grey/Places/city-streets-with-stores-450x250</title>
    <desc>Created with Sketch.</desc>
    <g id="Illustrations/Grey/Places/city-streets-with-stores-450x250" stroke="none" stroke-width="1" fill="none" fill-rule="evenodd">
        <polygon id="Path" fill="#D9DAD5" points="0 250 450 250 450 168 0 168"></polygon>
        <path d="M231.104567,74.1528701 C237.876439,74.1528701 243.366303,68.6591994 243.366303,61.8826308 C243.366303,55.1056616 237.876439,49.6123914 231.104567,49.6123914 C229.751313,49.6123914 228.451293,49.8350861 227.234125,50.2396215 C227.700819,48.3559285 227.952979,46.3869225 227.952979,44.3582376 C227.952979,30.9056334 217.054903,20 203.611621,20 C190.633833,20 180.031144,30.1638516 179.31189,42.9704008 C176.065842,39.8690963 171.67147,37.9605704 166.829215,37.9605704 C156.841713,37.9605704 148.745405,46.0620926 148.745405,56.05652 C143.751855,56.05652 139.703701,60.1074814 139.703701,65.1044948 C139.703701,70.1019088 143.751855,74.1528701 148.745405,74.1528701 L231.104567,74.1528701 Z" id="Path" fill="#D9DAD5"></path>
        <path d="M182.987409,116.166074 C182.35501,116.166074 181.744625,116.259397 181.167461,116.431625 C181.472453,115.582902 181.639759,114.668492 181.639759,113.71483 C181.639759,109.279359 178.046292,105.6834 173.613495,105.6834 C172.215413,105.6834 170.901784,106.041474 169.757062,106.670707 C167.861866,102.352592 163.553148,99.3357992 158.538784,99.3357992 C151.888989,99.3357992 146.481177,104.638417 146.297461,111.248365 C145.039467,110.613926 143.618971,110.25465 142.114021,110.25465 C136.970376,110.25465 132.800946,114.426972 132.800946,119.574585 C132.800946,124.721396 136.970376,128.893718 142.114021,128.893718 L182.987409,128.893718 C186.500025,128.893718 189.347422,126.044748 189.347422,122.529696 C189.347422,119.015044 186.500025,116.166074 182.987409,116.166074 L182.987409,116.166074 Z" id="Path" fill="#D9DAD5"></path>
        <path d="M352.390288,101.696924 C352.390288,107.130115 348.453404,111.804301 343.27934,112.697884 L302.322299,112.697884 C298.204902,112.697884 294.867996,109.358264 294.867996,105.238411 C294.867996,101.118959 298.204902,97.7789387 302.322299,97.7789387 C303.144418,97.7789387 303.934917,97.9143179 304.675384,98.1602434 C304.391605,97.0155284 304.237908,95.8183439 304.237908,94.5851118 C304.237908,86.4070883 310.863288,79.7771137 319.035644,79.7771137 C326.925422,79.7771137 333.371088,85.9560915 333.808564,93.7415954 C335.781809,91.8563003 338.453095,90.695564 341.397352,90.695564 C347.468783,90.695564 352.390288,95.6208826 352.390288,101.696924 L352.390288,101.696924 Z" id="Path" fill="#D9DAD5"></path>
        <g id="Art" transform="translate(79.000000, 104.000000)">
            <g id="Group-69" transform="translate(0.000000, 0.272000)">
                <path d="M231.38828,28.37016 C231.38188,28.35736 231.37628,28.34376 231.37028,28.33016 L227.97468,20.20016 C227.93348,20.10176 227.83788,20.03816 227.73148,20.03816 L180.16108,20.03816 C180.05428,20.03816 179.95868,20.10176 179.91748,20.20016 L176.52188,28.33016 C176.51628,28.34376 176.51028,28.35736 176.50388,28.37016 L175.59268,30.14496 L175.59268,63.49016 L232.26068,63.49016 L232.26068,30.31216 L231.38828,28.37016 Z" id="Fill-4" fill="#FFFFFF"></path>
                <path d="M226.659,34.57796 C223.8002,34.57796 221.4286,32.51116 220.9442,29.79116 C220.4598,32.51116 218.0882,34.57796 215.2294,34.57796 C212.5954,34.57796 210.3738,32.82436 209.661,30.42156 C208.9486,32.82436 206.7266,34.57796 204.093,34.57796 C201.2338,34.57796 198.8622,32.51116 198.3782,29.79116 C197.8938,32.51116 195.5222,34.57796 192.6634,34.57796 C189.8038,34.57796 187.433,32.51116 186.9486,29.79156 C186.4642,32.51116 184.0926,34.57796 181.2338,34.57796 C178.4998,34.57796 176.2118,32.68796 175.5926,30.14516 L175.5926,63.48996 L232.2606,63.48996 L232.2606,30.31236 C231.5842,32.77116 229.333,34.57796 226.659,34.57796" id="Fill-6" fill="#C41F3E"></path>
                <path d="M227.73164,20.03812 C227.83804,20.03812 227.93364,20.10172 227.97444,20.20012 L231.41004,28.25012 C231.41604,28.26372 231.42204,28.27732 231.42844,28.29052 C231.63484,28.71652 231.70404,29.18772 231.62324,29.61692 C231.18004,31.98172 229.06924,33.77812 226.65884,33.77812 C224.22964,33.77812 222.15724,32.04252 221.73164,29.65092 C221.66364,29.26932 221.33164,28.99132 220.94404,28.99132 C220.55644,28.99132 220.22404,29.26932 220.15644,29.65092 C219.73044,32.04252 217.65804,33.77812 215.22924,33.77812 C213.02804,33.77812 211.05404,32.30452 210.42804,30.19452 C210.32724,29.85452 210.01524,29.62172 209.66084,29.62172 C209.30644,29.62172 208.99444,29.85452 208.89404,30.19452 C208.26804,32.30452 206.29364,33.77812 204.09284,33.77812 C201.66364,33.77812 199.59124,32.04252 199.16564,29.65092 C199.09764,29.26932 198.76564,28.99132 198.37804,28.99132 C197.99004,28.99132 197.65804,29.26932 197.59004,29.65092 C197.16444,32.04252 195.09204,33.77812 192.66324,33.77812 C190.23404,33.77812 188.16164,32.04252 187.73604,29.65132 C187.66804,29.26932 187.33604,28.99172 186.94804,28.99172 C186.56044,28.99172 186.22844,29.26932 186.16044,29.65132 C185.73484,32.04252 183.66244,33.77812 181.23324,33.77812 C178.82324,33.77812 176.71204,31.98172 176.26884,29.61692 C176.18844,29.18772 176.25764,28.71652 176.46404,28.29052 C176.47044,28.27732 176.47604,28.26372 176.48204,28.25012 L179.91764,20.20012 C179.95844,20.10172 180.05444,20.03812 180.16084,20.03812 L227.73164,20.03812" id="Fill-8" fill="#8B1D41"></path>
                <path d="M193.5836,45.6604 C193.5836,42.2212 190.7856,39.4232 187.3464,39.4232 C183.9076,39.4232 181.1092,42.2212 181.1092,45.6604 L181.1092,63.49 L193.5836,63.49 L193.5836,45.6604 Z" id="Fill-10" fill="#8B1D41"></path>
                <path d="M187.34648,38.62328 C183.46008,38.62328 180.30928,41.77368 180.30928,45.66048 L180.30928,63.49008 L181.10928,63.49008 L181.10928,45.66048 C181.10928,42.22128 183.90728,39.42328 187.34648,39.42328 C190.78568,39.42328 193.58368,42.22128 193.58368,45.66048 L193.58368,63.49008 L194.38368,63.49008 L194.38368,45.66048 C194.38368,41.77368 191.23288,38.62328 187.34648,38.62328" id="Fill-12" fill="#FFFFFF"></path>
                <polygon id="Fill-14" fill="#FFFFFF" points="199.1 58.7624 227.5436 58.7624 227.5436 38.6232 199.1 38.6232"></polygon>
                <polygon id="Fill-16" fill="#F2F3F2" points="227.54376 38.62328 227.54376 58.76248 199.10016 58.76248"></polygon>
                <polygon id="Fill-17" fill="#C41F3E" points="124.9112 63.49 172.7596 63.49 172.7596 33.3964 124.9112 33.3964"></polygon>
                <polygon id="Fill-18" fill="#8B1D41" points="124.9112 32.5964 172.7596 32.5964 172.7596 23.4304 124.9112 23.4304"></polygon>
                <polygon id="Fill-19" fill="#8B1D41" points="142.8936 63.49 154.7776 63.49 154.7776 42.4932 142.8936 42.4932"></polygon>
                <polygon id="Fill-20" fill="#FFFFFF" points="127.836 61.192 140.5732 61.192 140.5732 42.4932 127.836 42.4932"></polygon>
                <polygon id="Fill-21" fill="#FFFFFF" points="157.098 61.192 169.8356 61.192 169.8356 42.4932 157.098 42.4932"></polygon>
                <path d="M152.28204,54.33188 L150.40084,54.33188 C150.10124,54.33188 149.85764,54.08868 149.85764,53.78908 C149.85764,53.48948 150.10124,53.24628 150.40084,53.24628 L152.28204,53.24628 C152.58164,53.24628 152.82444,53.48948 152.82444,53.78908 C152.82444,54.08868 152.58164,54.33188 152.28204,54.33188" id="Fill-22" fill="#FFFFFF"></path>
                <polygon id="Fill-23" fill="#F2F3F2" points="140.57324 42.4932 140.57324 61.1916 127.83604 61.1916"></polygon>
                <polygon id="Fill-24" fill="#F2F3F2" points="169.83556 42.4932 169.83556 61.1916 157.09796 61.1916"></polygon>
                <polygon id="Fill-25" fill="#8B1D41" points="63.5312 63.49 120.1988 63.49 120.1988 32.4092 63.5312 32.4092"></polygon>
                <path d="M122.3832,32.40924 L61.3464,32.40924 C60.7012,32.40924 60.2572,31.76244 60.4884,31.16044 L63.5308,23.24324 L120.1988,23.24324 L123.2412,31.16044 C123.4724,31.76244 123.028,32.40924 122.3832,32.40924" id="Fill-26" fill="#FFFFFF"></path>
                <polygon id="Fill-27" fill="#C41F3E" points="63.5312 23.2432 120.1988 23.2432 120.1988 18.2628 63.5312 18.2628"></polygon>
                <polygon id="Fill-28" fill="#C41F3E" points="69.82736 23.2432 67.62376 32.4092 74.74656 32.4092 76.12376 23.2432"></polygon>
                <polygon id="Fill-29" fill="#C41F3E" points="88.7166 32.40924 81.8694 32.40924 82.4202 23.24324 88.7166 23.24324"></polygon>
                <polygon id="Fill-30" fill="#C41F3E" points="101.86036 32.40924 95.01276 32.40924 95.01276 23.24324 101.30956 23.24324"></polygon>
                <polygon id="Fill-31" fill="#C41F3E" points="116.10568 32.40924 108.98288 32.40924 107.60568 23.24324 113.90208 23.24324"></polygon>
                <path d="M115.56368,63.49008 L101.48928,63.49008 L101.48928,45.66048 C101.48928,41.77368 104.64008,38.62328 108.52648,38.62328 C112.41328,38.62328 115.56368,41.77368 115.56368,45.66048 L115.56368,63.49008 Z" id="Fill-32" fill="#FFFFFF"></path>
                <polygon id="Fill-33" fill="#FFFFFF" points="66.7996 55.8 81.414 55.8 81.414 38.6236 66.7996 38.6236"></polygon>
                <polygon id="Fill-34" fill="#FFFFFF" points="83.6412 55.8 98.256 55.8 98.256 38.6236 83.6412 38.6236"></polygon>
                <polygon id="Fill-35" fill="#F2F3F2" points="81.41408 38.62328 81.41408 55.79968 66.79968 55.79968"></polygon>
                <polygon id="Fill-36" fill="#F2F3F2" points="98.25604 38.62328 98.25604 55.79968 83.64124 55.79968"></polygon>
                <path d="M113.17304,54.00024 L113.17304,50.06544 C113.17304,49.71624 113.45584,49.43344 113.80504,49.43344 C114.15384,49.43344 114.43664,49.71624 114.43664,50.06544 L114.43664,54.00024 C114.43664,54.34944 114.15384,54.63224 113.80504,54.63224 C113.45584,54.63224 113.17304,54.34944 113.17304,54.00024" id="Fill-37" fill="#C41F3E"></path>
                <polygon id="Fill-38" fill="#C41F3E" points="2.0128 63.49 58.6804 63.49 58.6804 31.1452 2.0128 31.1452"></polygon>
                <polygon id="Fill-39" fill="#8B1D41" points="2.0128 31.1452 58.6804 31.1452 58.6804 5.8484 2.0128 5.8484"></polygon>
                <polygon id="Fill-40" fill="#FFFFFF" points="6.7292 55.8 34.8504 55.8 34.8504 38.6236 6.7292 38.6236"></polygon>
                <polygon id="Fill-41" fill="#FFFFFF" points="6.2492 26.6852 27.6608 26.6852 27.6608 9.5088 6.2492 9.5088"></polygon>
                <polygon id="Fill-42" fill="#FFFFFF" points="32.0512 26.6852 53.4628 26.6852 53.4628 9.5088 32.0512 9.5088"></polygon>
                <polygon id="Fill-43" fill="#F2F3F2" points="34.8506 38.62328 34.8506 55.79968 6.7294 55.79968"></polygon>
                <polygon id="Fill-44" fill="#F2F3F2" points="27.66076 9.50844 27.66076 26.68484 6.24916 26.68484"></polygon>
                <polygon id="Fill-45" fill="#F2F3F2" points="53.46268 9.50844 53.46268 26.68484 32.05108 26.68484"></polygon>
                <path d="M54.04552,63.49008 L39.97112,63.49008 L39.97112,45.66048 C39.97112,41.77368 43.12192,38.62328 47.00832,38.62328 C50.89512,38.62328 54.04552,41.77368 54.04552,45.66048 L54.04552,63.49008 Z" id="Fill-46" fill="#8B1D41"></path>
                <path d="M47.0084,37.82328 C42.6872,37.82328 39.1712,41.33888 39.1712,45.66048 L39.1712,63.49008 L39.9712,63.49008 L39.9712,45.66048 C39.9712,41.77368 43.122,38.62328 47.0084,38.62328 C50.8948,38.62328 54.0456,41.77368 54.0456,45.66048 L54.0456,63.49008 L54.8456,63.49008 L54.8456,45.66048 C54.8456,41.33888 51.33,37.82328 47.0084,37.82328" id="Fill-47" fill="#FFFFFF"></path>
                <path d="M50.52872,54.42056 C50.52872,53.78496 51.04392,53.26976 51.67952,53.26976 C52.31512,53.26976 52.83032,53.78496 52.83032,54.42056 C52.83032,55.05616 52.31512,55.57176 51.67952,55.57176 C51.04392,55.57176 50.52872,55.05616 50.52872,54.42056" id="Fill-48" fill="#FFFFFF"></path>
                <path d="M47.0084,44.14752 L49.5812,46.87312 L44.436,46.87312 L47.0084,44.14752 Z M50.1312,46.87312 L47.0084,43.56472 L43.8856,46.87312 L43.2372,46.87312 L43.2372,51.14232 L50.7796,51.14232 L50.7796,46.87312 L50.1312,46.87312 Z" id="Fill-49" fill="#FFFFFF"></path>
                <path d="M46.5504,43.97212 C46.5504,43.71932 46.7556,43.51412 47.0084,43.51412 C47.2612,43.51412 47.4664,43.71932 47.4664,43.97212 C47.4664,44.22532 47.2612,44.43052 47.0084,44.43052 C46.7556,44.43052 46.5504,44.22532 46.5504,43.97212" id="Fill-50" fill="#C41F3E"></path>
                <polygon id="Fill-51" fill="#8B1D41" points="234.7048 63.49 291.3728 63.49 291.3728 34.85 234.7048 34.85"></polygon>
                <polygon id="Fill-52" fill="#C41F3E" points="234.7048 31.1732 291.3728 31.1732 291.3728 8.9632 234.7048 8.9632"></polygon>
                <polygon id="Fill-53" fill="#FFFFFF" points="234.7048 34.8504 291.3728 34.8504 291.3728 31.1736 234.7048 31.1736"></polygon>
                <polygon id="Fill-54" fill="#C41F3E" points="252.216 63.49 273.8672 63.49 273.8672 41.478 252.216 41.478"></polygon>
                <path d="M260.45704,54.28072 L254.80064,54.28072 C254.52184,54.28072 254.29584,54.05472 254.29584,53.77512 C254.29584,53.49632 254.52184,53.27032 254.80064,53.27032 L260.45704,53.27032 C260.73584,53.27032 260.96224,53.49632 260.96224,53.77512 C260.96224,54.05472 260.73584,54.28072 260.45704,54.28072" id="Fill-55" fill="#FFFFFF"></path>
                <path d="M271.28244,54.28072 L265.62604,54.28072 C265.34724,54.28072 265.12124,54.05472 265.12124,53.77512 C265.12124,53.49632 265.34724,53.27032 265.62604,53.27032 L271.28244,53.27032 C271.56124,53.27032 271.78764,53.49632 271.78764,53.77512 C271.78764,54.05472 271.56124,54.28072 271.28244,54.28072" id="Fill-56" fill="#FFFFFF"></path>
                <polygon id="Fill-57" fill="#F2F3F2" points="238.3832 51.5016 248.4068 51.5016 248.4068 41.478 238.3832 41.478"></polygon>
                <polygon id="Fill-58" fill="#F2F3F2" points="277.676 51.5016 287.7 51.5016 287.7 41.478 277.676 41.478"></polygon>
                <polygon id="Fill-59" fill="#FFFFFF" points="238.0104 27.032 251.9376 27.032 251.9376 13.1048 238.0104 13.1048"></polygon>
                <polygon id="Fill-60" fill="#FFFFFF" points="256.0752 27.032 270.0024 27.032 270.0024 13.1048 256.0752 13.1048"></polygon>
                <polygon id="Fill-61" fill="#FFFFFF" points="274.14 27.032 288.0672 27.032 288.0672 13.1048 274.14 13.1048"></polygon>
                <polygon id="Fill-62" fill="#F2F3F2" points="251.93748 13.10456 251.93748 27.03176 238.01028 27.03176"></polygon>
                <polygon id="Fill-63" fill="#F2F3F2" points="270.00236 13.10456 270.00236 27.03176 256.07516 27.03176"></polygon>
                <polygon id="Fill-64" fill="#F2F3F2" points="288.0672 13.10456 288.0672 27.03176 274.14 27.03176"></polygon>
                <polygon id="Fill-65" fill="#C41F3E" points="0.3348 5.0484 60.0572 5.0484 60.0572 0.2504 0.3348 0.2504"></polygon>
                <polygon id="Fill-66" fill="#8B1D41" points="233.1916 8.9632 292.3752 8.9632 292.3752 3.086 233.1916 3.086"></polygon>
                <polygon id="Fill-67" fill="#FFFFFF" points="2.0128 5.8484 58.6804 5.8484 58.6804 5.0484 2.0128 5.0484"></polygon>
                <polygon id="Fill-68" fill="#FFFFFF" points="124.9112 33.3964 172.7596 33.3964 172.7596 32.5964 124.9112 32.5964"></polygon>
            </g>
        </g>
    </g>
</svg>