<?xml version="1.0" encoding="UTF-8"?>
<svg width="450px" height="250px" viewBox="0 0 450 250" version="1.1" xmlns="http://www.w3.org/2000/svg" xmlns:xlink="http://www.w3.org/1999/xlink">
    <!-- Generator: Sketch 63.1 (92452) - https://sketch.com -->
    <title>Illustrations/Pink/Objects/clock-450x250</title>
    <desc>Created with Sketch.</desc>
    <g id="Illustrations/Pink/Objects/clock-450x250" stroke="none" stroke-width="1" fill="none" fill-rule="evenodd">
        <path d="M225,194 C272.5,194 311,199.1 311,205.5 C311,211.9 272.5,217 225,217 C177.5,217 139,211.9 139,205.5 C139,199.1 177.5,194 225,194" id="Fill-1" fill="#EFD4D8"></path>
        <g id="Group-5" transform="translate(139.000000, 32.000000)" fill="#8B1D41">
            <path d="M85.9,0.1 C133.4,0.1 171.8,38.6 171.8,86 C171.8,133.4 133.3,171.9 85.9,171.9 C38.5,171.9 0,133.5 0,86 C0,38.5 38.5,0.1 85.9,0.1" id="Fill-3"></path>
        </g>
        <path d="M225,39 C268.1,39 303,74.1 303,117.5 C303,160.9 268.1,196 225,196 C181.9,196 147,160.9 147,117.5 C147,74.1 181.9,39 225,39" id="Fill-6" fill="#C41F3E"></path>
        <path d="M224.5,55 C259.6,55 288,83.4 288,118.5 C288,153.6 259.6,182 224.5,182 C189.4,182 161,153.6 161,118.5 C161,83.4 189.4,55 224.5,55" id="Fill-8" fill="#FFFFFF"></path>
        <g id="Stroke-10" transform="translate(256.000000, 148.000000)" fill="#8B1D41" fill-rule="nonzero">
            <rect id="Rectangle" transform="translate(6.962945, 6.964645) rotate(-45.000000) translate(-6.962945, -6.964645) " x="5.46295939" y="-0.185286431" width="2.99997123" height="14.2998629"></rect>
        </g>
        <g id="Stroke-12" transform="translate(180.000000, 74.000000)" fill="#8B1D41" fill-rule="nonzero">
            <rect id="Rectangle" transform="translate(6.963945, 6.964645) rotate(-45.000000) translate(-6.963945, -6.964645) " x="5.46395939" y="-0.185286431" width="2.99997123" height="14.2998629"></rect>
        </g>
        <polygon id="Fill-14" fill="#8B1D41" points="232 84.4 224.5 77 217 84.4 217 121 232 121"></polygon>
        <polygon id="Fill-16" fill="#C41F3E" points="246.3 149 256.9 148.9 257 138.3 228.7 110 218 120.7"></polygon>
        <g id="Stroke-18" transform="translate(223.000000, 166.000000)" fill="#8B1D41" fill-rule="nonzero">
            <rect id="Rectangle" x="0" y="0.5" width="3" height="12"></rect>
        </g>
        <g id="Stroke-20" transform="translate(223.000000, 57.000000)" fill="#8B1D41" fill-rule="nonzero">
            <rect id="Rectangle" x="0" y="0.5" width="3" height="12"></rect>
        </g>
        <g id="Stroke-22" transform="translate(165.000000, 116.000000)" fill="#8B1D41" fill-rule="nonzero">
            <rect id="Rectangle" x="0.5" y="0" width="13" height="3"></rect>
        </g>
        <g id="Stroke-24" transform="translate(180.000000, 149.000000)" fill="#8B1D41" fill-rule="nonzero">
            <rect id="Rectangle" transform="translate(6.963445, 7.034855) rotate(-45.000000) translate(-6.963445, -7.034855) " x="-0.186486431" y="5.53486939" width="14.2998629" height="2.99997123"></rect>
        </g>
        <g id="Stroke-26" transform="translate(255.000000, 75.000000)" fill="#8B1D41" fill-rule="nonzero">
            <rect id="Rectangle" transform="translate(6.963445, 7.035855) rotate(-45.000000) translate(-6.963445, -7.035855) " x="-0.186486431" y="5.53586939" width="14.2998629" height="2.99997123"></rect>
        </g>
        <g id="Stroke-28" transform="translate(271.000000, 116.000000)" fill="#8B1D41" fill-rule="nonzero">
            <rect id="Rectangle" x="0.5" y="0" width="13" height="3"></rect>
        </g>
        <path d="M225,108 C230.5,108 235,112.5 235,118 C235,123.5 230.5,128 225,128 C219.5,128 215,123.5 215,118 C215,112.5 219.5,108 225,108" id="Fill-30" fill="#8B1D41"></path>
        <path d="M224.5,108.5 C219.5,108.5 215.5,112.6 215.5,117.5 C215.5,122.4 219.6,126.5 224.5,126.5 C229.4,126.5 233.5,122.4 233.5,117.5 C233.5,112.6 229.5,108.5 224.5,108.5 M224.5,129 C218.2,129 213,123.8 213,117.5 C213,111.2 218.2,106 224.5,106 C230.8,106 236,111.2 236,117.5 C236,123.8 230.8,129 224.5,129" id="Fill-32" fill="#FFFFFF"></path>
    </g>
</svg>