<?xml version="1.0" encoding="UTF-8"?>
<svg width="450px" height="250px" viewBox="0 0 450 250" version="1.1" xmlns="http://www.w3.org/2000/svg" xmlns:xlink="http://www.w3.org/1999/xlink">
    <!-- Generator: Sketch 63.1 (92452) - https://sketch.com -->
    <title>Illustrations/Grey/Objects/connecting-450x250</title>
    <desc>Created with Sketch.</desc>
    <g id="Illustrations/Grey/Objects/connecting-450x250" stroke="none" stroke-width="1" fill="none" fill-rule="evenodd">
        <path d="M360.1328,194.296 C364.9148,180.167 357.3378,164.837 343.2098,160.055 C336.3518,157.733 329.2118,158.325 323.1318,161.164 L322.7198,160.331 C322.3948,159.672 321.7348,159.296 321.0468,159.29 C320.3438,159.678 319.6468,160.086 318.9638,160.533 C318.8708,160.595 318.7828,160.661 318.6908,160.723 C318.4768,161.214 318.4638,161.79 318.7208,162.308 L319.2528,163.385 C317.1278,164.843 315.2008,166.606 313.5518,168.644 C313.0808,168.035 312.5228,167.447 311.8988,166.887 C309.0308,170.393 307.0028,174.439 305.8768,178.713 C306.7508,178.842 307.6018,178.894 308.4118,178.867 C304.8808,192.448 312.3908,206.65 325.8908,211.219 C340.0198,216.001 355.3508,208.425 360.1328,194.296" id="Fill-2" fill="#D9DAD5"></path>
        <path d="M146.207,89.1935 C157.737,79.7315 159.414,62.7135 149.952,51.1825 C145.359,45.5865 138.986,42.3125 132.324,41.5065 L132.415,40.5825 C132.487,39.8505 132.126,39.1825 131.546,38.8135 C130.744,38.7705 129.936,38.7485 129.121,38.7675 C129.009,38.7695 128.899,38.7805 128.788,38.7835 C128.347,39.0875 128.032,39.5695 127.976,40.1445 L127.857,41.3395 C125.283,41.4545 122.716,41.9315 120.238,42.7895 C120.16,42.0235 119.997,41.2295 119.764,40.4225 C115.477,41.8815 111.616,44.2445 108.399,47.2765 C109.073,47.8475 109.768,48.3415 110.47,48.7485 C100.291,58.4075 99.154,74.4305 108.196,85.4495 C117.658,96.9795 134.677,98.6565 146.207,89.1935" id="Fill-4" fill="#D9DAD5"></path>
        <path d="M264.7539,92.0177 L269.3859,101.7427 C269.3929,102.0017 269.4259,102.2607 269.4849,102.5147 C270.8459,106.6257 271.5349,110.9297 271.528939,115.2607 C271.4729,124.7147 269.8289,134.0917 266.6669,143.0017 C260.4549,161.6777 251.2319,178.8217 240.5469,195.2437 C240.2089,195.9097 239.4649,196.2637 238.7349,196.1067 C223.1619,194.6397 207.7669,191.6737 192.7629,187.2507 C182.0559,184.1997 171.8369,179.6417 162.4119,173.7147 C151.9439,167.1437 144.5869,156.6107 142.0209,144.5197 C135.8509,117.3497 161.6339,92.7677 188.5019,100.1487 C190.7959,100.7707 193.0059,101.7167 195.3999,102.5447 C195.4189,102.3297 195.4509,102.1157 195.4959,101.9027 C199.4719,88.3327 207.9599,79.0707 221.5479,75.1947 C236.4439,70.9327 249.4129,74.8677 260.1289,86.0337 C261.7799,87.9417 263.3239,89.9397 264.7539,92.0177" id="Fill-6" fill="#D9DAD5"></path>
        <path d="M263.5244,87.6906 L268.1554,97.4156 C268.1634,97.6746 268.1964,97.9336 268.2544,98.1876 C269.6154,102.2986 270.3054,106.6026 270.298453,110.9336 C270.2424,120.3876 268.5984,129.7646 265.4374,138.6746 C259.2254,157.3506 250.0024,174.4946 239.3164,190.9166 C238.9784,191.5826 238.2354,191.9366 237.5054,191.7796 C221.9324,190.3126 206.5374,187.3466 191.5334,182.9236 C180.8264,179.8726 170.6064,175.3146 161.1814,169.3876 C150.7134,162.8166 143.3574,152.2836 140.7914,140.1926 C134.6214,113.0226 160.4034,88.4406 187.2714,95.8216 C189.5664,96.4436 191.7764,97.3896 194.1694,98.2176 C194.1894,98.0026 194.2214,97.7886 194.2654,97.5756 C198.2424,84.0056 206.7304,74.7436 220.3184,70.8676 C235.2144,66.6056 248.1834,70.5406 258.8994,81.7066 C260.5494,83.6146 262.0934,85.6126 263.5244,87.6906" id="Fill-8" fill="#D9DAD5"></path>
        <path d="M137.9766,206.1495 C138.4196,205.9505 138.9186,206.0045 139.3126,206.2935 C139.9756,206.7795 140.7616,207.0795 141.5856,207.1595 C142.8876,207.2855 144.1866,206.8495 145.1496,205.9635 C146.1256,205.0665 146.6546,203.8345 146.6366,202.4945 C146.6086,200.3475 145.0586,198.4845 142.9526,198.0635 C141.9636,197.8635 140.9626,197.9855 140.0626,198.4115 C139.6306,198.6165 139.1386,198.5735 138.7476,198.2965 C138.3526,198.0205 138.1366,197.5515 138.1836,197.0745 L139.1416,187.2025 L128.2656,186.1445 C128.1056,186.1285 128.0176,186.2285 127.9876,186.2715 C127.9556,186.3155 127.8916,186.4335 127.9606,186.5825 C128.3896,187.4955 128.5646,188.5095 128.4666,189.5175 C128.3126,191.1095 127.4846,192.5655 126.1956,193.5115 C124.9076,194.4585 123.2666,194.8115 121.6866,194.4795 C119.1166,193.9405 117.2436,191.6415 117.2336,189.0125 C117.2286,187.7795 117.6086,186.6105 118.3326,185.6305 C118.4176,185.5155 118.3866,185.4015 118.3616,185.3435 C118.3386,185.2935 118.2696,185.1745 118.1066,185.1585 L106.7516,184.0515 L105.7856,193.9245 C105.7686,194.0875 105.8726,194.1785 105.9166,194.2115 C105.9686,194.2485 106.0766,194.2995 106.2056,194.2385 C107.3046,193.7175 108.5236,193.5715 109.7336,193.8105 C112.3116,194.3275 114.2066,196.6075 114.2416,199.2345 C114.2616,200.8445 113.5996,202.3895 112.4236,203.4715 C111.2466,204.5545 109.6586,205.0875 108.0666,204.9315 C107.0586,204.8345 106.0956,204.4665 105.2836,203.8705 C105.1516,203.7745 105.0226,203.8145 104.9736,203.8365 C104.9246,203.8575 104.8106,203.9245 104.7946,204.0855 L103.5546,216.8535 L114.9186,217.9585 C115.0816,217.9735 115.1736,217.8705 115.2056,217.8255 C115.2416,217.7735 115.2936,217.6675 115.2326,217.5375 C114.7106,216.4375 114.5626,215.2165 114.8046,214.0075 C115.3206,211.4305 117.6016,209.5355 120.2276,209.5005 C121.8416,209.4785 123.3836,210.1415 124.4656,211.3185 C125.5476,212.4965 126.0806,214.0845 125.9256,215.6745 C125.8286,216.6835 125.4606,217.6455 124.8646,218.4585 C124.7676,218.5895 124.8076,218.7195 124.8306,218.7685 C124.8516,218.8165 124.9186,218.9305 125.0786,218.9465 L135.9756,220.0045 L137.1976,207.2365 C137.2436,206.7535 137.5346,206.3475 137.9766,206.1495" id="Fill-10" fill="#D9DAD5"></path>
        <path d="M284.9971,74.0001 L295.9641,76.6421 C296.4311,76.7551 296.8041,77.1121 296.9361,77.5741 C297.0681,78.0361 296.9481,78.5151 296.6141,78.8551 C295.9171,79.5661 295.4761,80.4711 295.3391,81.4731 C295.0481,83.6011 296.3031,85.6751 298.3221,86.4031 C299.5801,86.8571 300.9201,86.7621 302.0881,86.1331 C303.2391,85.5121 304.0761,84.4271 304.3821,83.1561 C304.5761,82.3511 304.5501,81.5091 304.3071,80.7221 C304.1621,80.2561 304.2751,79.7671 304.6071,79.4131 C304.9381,79.0601 305.4161,78.9171 305.8881,79.0301 L311.5011,80.3831 C308.3441,69.7191 301.2541,61.7721 290.0541,57.0081 C289.7611,56.8831 289.4681,56.7671 289.1761,56.6481 L284.9971,74.0001 Z" id="Fill-12" fill="#D9DAD5"></path>
        <path d="M321.1543,157.6046 C307.6703,163.9816 301.9083,180.0826 308.2853,193.5656 C314.6623,207.0496 330.7623,212.8116 344.2473,206.4346 C357.7313,200.0576 363.4923,183.9576 357.1163,170.4726 C350.7393,156.9896 334.6383,151.2276 321.1543,157.6046" id="Fill-14" fill="#FFFFFF"></path>
        <path d="M324.3057,164.2677 C319.5847,166.4997 316.1707,170.3737 314.4117,174.8827 L306.5887,172.0827 C305.6107,171.7337 304.5327,172.2437 304.1817,173.2217 L303.9477,173.8757 C303.5967,174.8557 304.1067,175.9337 305.0857,176.2847 L313.2667,179.2107 C312.7297,182.9037 313.2347,186.7887 314.9497,190.4137 C319.5847,200.2187 331.2907,204.4077 341.0957,199.7717 C350.8997,195.1347 355.0887,183.4287 350.4517,173.6237 C345.8157,163.8207 334.1097,159.6317 324.3057,164.2677" id="Fill-16" fill="#8B1D41"></path>
        <path d="M325.915,167.672 C317.991,171.419 314.605,180.881 318.353,188.805 C322.101,196.729 331.561,200.114 339.485,196.367 C347.409,192.619 350.795,183.158 347.048,175.234 C343.301,167.311 333.839,163.925 325.915,167.672" id="Fill-18" fill="#C41F3E"></path>
        <path d="M151.9922,72.8839 C156.2562,58.5899 148.1242,43.5469 133.8302,39.2839 C119.5362,35.0209 104.4922,43.1539 100.2292,57.4469 C95.9672,71.7409 104.0982,86.7839 118.3922,91.0469 C132.6862,95.3099 147.7292,87.1779 151.9922,72.8839" id="Fill-20" fill="#FFFFFF"></path>
        <path d="M144.9287,70.7775 C146.4207,65.7735 145.8197,60.6455 143.6387,56.3245 L150.9487,52.3735 C151.8637,51.8795 152.2037,50.7365 151.7087,49.8215 L151.3787,49.2105 C150.8847,48.2955 149.7417,47.9545 148.8267,48.4485 L141.1837,52.5805 C138.7947,49.7145 135.5667,47.4945 131.7227,46.3475 C121.3297,43.2485 110.3927,49.1615 107.2937,59.5535 C104.1947,69.9465 110.1067,80.8835 120.4987,83.9835 C130.8917,87.0825 141.8287,81.1705 144.9287,70.7775" id="Fill-22" fill="#C41F3E"></path>
        <path d="M141.3203,69.7013 C143.8253,61.3023 139.0473,52.4623 130.6463,49.9563 C122.2473,47.4513 113.4073,52.2303 110.9023,60.6303 C108.3973,69.0293 113.1753,77.8693 121.5753,80.3743 C129.9743,82.8793 138.8153,78.1003 141.3203,69.7013" id="Fill-24" fill="#8B1D41"></path>
        <path d="M168.5566,151.9572 C168.6006,151.9872 168.7166,152.0512 168.8616,151.9812 L179.4496,146.9432 L174.1196,135.7322 C174.0506,135.5882 173.9206,135.5622 173.8686,135.5592 C173.8136,135.5552 173.6786,135.5612 173.5876,135.6972 C173.0276,136.5332 172.2476,137.2052 171.3346,137.6412 C169.8916,138.3282 168.2166,138.3682 166.7416,137.7512 C165.2666,137.1352 164.1176,135.9082 163.5876,134.3862 C162.7256,131.9042 163.7316,129.1142 165.9796,127.7522 C167.0316,127.1132 168.2316,126.8362 169.4446,126.9522 C169.5876,126.9662 169.6696,126.8812 169.7056,126.8292 C169.7376,126.7832 169.8036,126.6622 169.7336,126.5152 L165.4606,117.5462 L154.8646,122.5932 C154.7196,122.6612 154.6946,122.7912 154.6916,122.8442 C154.6866,122.8982 154.6926,123.0332 154.8286,123.1242 C155.6666,123.6852 156.3396,124.4652 156.7756,125.3802 C157.4626,126.8232 157.5026,128.4972 156.8866,129.9732 C156.2706,131.4472 155.0426,132.6002 153.5216,133.1262 C151.0396,133.9882 148.2496,132.9822 146.8866,130.7352 C146.2476,129.6812 145.9716,128.4822 146.0866,127.2712 C146.1006,127.1282 146.0156,127.0462 145.9626,127.0102 C145.9176,126.9782 145.7966,126.9122 145.6496,126.9822 L139.7996,129.7692 C139.6016,133.1162 139.8626,136.5692 140.6566,140.0652 C142.2826,147.7232 145.8306,154.7532 150.8716,160.5502 L159.6466,156.3712 C159.7946,156.3012 159.8206,156.1652 159.8236,156.1102 C159.8276,156.0472 159.8176,155.9292 159.6986,155.8492 C158.6846,155.1762 157.9286,154.2062 157.5126,153.0452 C156.6246,150.5702 157.6026,147.7702 159.8366,146.3872 C161.2076,145.5372 162.8716,145.3112 164.4056,145.7612 C165.9406,146.2132 167.2146,147.2992 167.9016,148.7422 C168.3366,149.6562 168.5186,150.6712 168.4266,151.6742 C168.4106,151.8372 168.5126,151.9272 168.5566,151.9572" id="Fill-26" fill="#C41F3E"></path>
        <path d="M175.0459,135.2921 L180.3749,146.5031 L190.6759,141.6021 C191.1089,141.3961 191.6229,141.4381 192.0179,141.7151 C192.4109,141.9891 192.6189,142.4381 192.5729,142.9121 C192.4799,143.9031 192.7059,144.8851 193.2309,145.7491 C194.3439,147.5851 196.6239,148.4071 198.6509,147.7021 C199.9169,147.2631 200.8959,146.3471 201.4069,145.1231 C201.9109,143.9161 201.8789,142.5461 201.3169,141.3651 C200.9599,140.6171 200.4089,139.9791 199.7259,139.5211 C199.3199,139.2501 199.1009,138.8001 199.1349,138.3151 C199.1709,137.8331 199.4529,137.4211 199.8899,137.2121 L209.7559,132.5141 L204.4159,121.3021 C204.2069,120.8641 204.2479,120.3661 204.5249,119.9711 C204.8029,119.5711 205.2589,119.3601 205.7429,119.4051 C206.5639,119.4801 207.3929,119.3331 208.1409,118.9771 C209.3209,118.4141 210.2099,117.3721 210.5789,116.1161 C210.9529,114.8441 210.7709,113.5151 210.0659,112.3761 C208.9359,110.5511 206.6479,109.7521 204.6249,110.4771 C203.6749,110.8151 202.8799,111.4351 202.3279,112.2641 C202.0639,112.6621 201.6199,112.8791 201.1409,112.8441 C200.6609,112.8101 200.2339,112.5201 200.0279,112.0861 L195.7569,103.1181 L185.8899,107.8161 C185.7449,107.8851 185.7209,108.0161 185.7169,108.0681 C185.7129,108.1221 185.7189,108.2571 185.8549,108.3491 C186.6919,108.9091 187.3649,109.6881 187.8009,110.6041 C188.4879,112.0471 188.5289,113.7211 187.9119,115.1971 C187.2959,116.6711 186.0689,117.8231 184.5469,118.3501 C182.0669,119.2121 179.2759,118.2061 177.9129,115.9591 C177.2739,114.9041 176.9969,113.7061 177.1119,112.4941 C177.1259,112.3521 177.0409,112.2701 176.9889,112.2331 C176.9439,112.2021 176.8229,112.1361 176.6749,112.2061 L166.3869,117.1051 L170.6579,126.0731 C170.8649,126.5081 170.8219,127.0221 170.5459,127.4161 C170.2699,127.8111 169.8219,128.0181 169.3469,127.9731 C168.3559,127.8781 167.3749,128.1051 166.5109,128.6291 C164.6739,129.7411 163.8519,132.0211 164.5569,134.0501 C164.9959,135.3151 165.9119,136.2941 167.1359,136.8061 C168.3439,137.3111 169.7139,137.2771 170.8939,136.7151 C171.6419,136.3591 172.2779,135.8101 172.7359,135.1261 C173.0089,134.7211 173.4599,134.5011 173.9429,134.5371 C174.4259,134.5721 174.8379,134.8551 175.0459,135.2921" id="Fill-28" fill="#8B1D41"></path>
        <path d="M207.5615,97.673 C207.5165,97.642 207.3955,97.575 207.2485,97.646 L196.6815,102.677 L200.9535,111.646 C201.0235,111.793 201.1595,111.819 201.2135,111.821 C201.2775,111.826 201.3945,111.816 201.4755,111.696 C202.1495,110.683 203.1205,109.928 204.2795,109.512 C206.7535,108.625 209.5535,109.603 210.9365,111.836 C211.7855,113.206 212.0125,114.872 211.5625,116.405 C211.1115,117.94 210.0245,119.214 208.5815,119.902 C207.6665,120.337 206.6525,120.519 205.6495,120.426 C205.4865,120.411 205.3965,120.512 205.3655,120.557 C205.3345,120.6 205.2725,120.717 205.3405,120.861 L210.6815,132.073 L221.2485,127.042 C221.6805,126.836 222.1955,126.879 222.5895,127.154 C222.9835,127.43 223.1915,127.878 223.1455,128.353 C223.0515,129.344 223.2785,130.324 223.8025,131.189 C224.9155,133.026 227.1955,133.847 229.2235,133.143 C230.4915,132.702 231.4675,131.786 231.9795,130.563 C232.4845,129.356 232.4515,127.985 231.8885,126.805 C231.5325,126.057 230.9825,125.419 230.2965,124.96 C229.8925,124.69 229.6715,124.239 229.7075,123.755 C229.7425,123.273 230.0245,122.86 230.4605,122.652 L240.4505,117.892 L235.1235,106.68 C235.0525,106.532 234.9175,106.507 234.8625,106.503 C234.7995,106.498 234.6815,106.509 234.6015,106.628 C233.9275,107.641 232.9585,108.395 231.7975,108.812 C229.3235,109.697 226.5235,108.721 225.1405,106.487 C224.2915,105.117 224.0645,103.451 224.5155,101.918 C224.9665,100.384 226.0525,99.11 227.4965,98.422 C228.4115,97.986 229.4245,97.805 230.4285,97.898 C230.5905,97.912 230.6805,97.812 230.7115,97.767 C230.7425,97.724 230.8055,97.608 230.7365,97.462 L226.4645,88.493 L216.4625,93.256 C216.3175,93.325 216.2925,93.455 216.2895,93.508 C216.2855,93.562 216.2905,93.696 216.4275,93.788 C217.2645,94.349 217.9375,95.128 218.3745,96.043 C219.0605,97.486 219.1015,99.16 218.4845,100.636 C217.8685,102.111 216.6435,103.262 215.1195,103.789 C212.6385,104.652 209.8485,103.647 208.4855,101.399 C207.8465,100.345 207.5695,99.147 207.6845,97.935 C207.6985,97.792 207.6135,97.709 207.5615,97.673" id="Fill-30" fill="#C41F3E"></path>
        <path d="M256.417,149.0646 L259.074,154.6446 C260.309,151.8376 261.481,149.0016 262.583,146.1266 L256.417,149.0646 Z" id="Fill-32" fill="#C41F3E"></path>
        <path d="M250.8447,135.0978 C251.8367,135.1928 252.8177,134.9668 253.6817,134.4418 C255.5197,133.3278 256.3417,131.0478 255.6367,129.0198 C255.1967,127.7548 254.2807,126.7758 253.0567,126.2648 C251.8487,125.7598 250.4797,125.7928 249.2987,126.3558 C248.5507,126.7108 247.9137,127.2608 247.4557,127.9438 C247.1847,128.3488 246.7337,128.5688 246.2487,128.5338 C245.7667,128.4968 245.3557,128.2148 245.1477,127.7778 L240.8897,118.8178 L230.9027,123.5768 C230.7577,123.6458 230.7337,123.7768 230.7297,123.8288 C230.7257,123.8828 230.7317,124.0178 230.8667,124.1088 C231.7057,124.6698 232.3787,125.4508 232.8147,126.3648 C233.5007,127.8078 233.5417,129.4818 232.9247,130.9578 C232.3887,132.2408 231.3917,133.2768 230.1397,133.8718 C229.9517,133.9618 229.7587,134.0418 229.5597,134.1108 C227.0787,134.9728 224.2887,133.9678 222.9257,131.7198 C222.2857,130.6658 222.0097,129.4678 222.1257,128.2558 C222.1387,128.1138 222.0537,128.0308 222.0017,127.9938 C221.9567,127.9628 221.8357,127.8968 221.6887,127.9668 L211.1217,132.9988 L215.3877,141.9528 C215.4577,142.1008 215.5927,142.1258 215.6487,142.1298 C215.7107,142.1338 215.8287,142.1228 215.9087,142.0038 C216.5827,140.9908 217.5527,140.2358 218.7127,139.8198 C221.1887,138.9328 223.9887,139.9098 225.3707,142.1438 C226.2197,143.5138 226.4477,145.1788 225.9957,146.7118 C225.5447,148.2468 224.4587,149.5218 223.0157,150.2088 C222.1017,150.6438 221.0877,150.8258 220.0857,150.7338 C219.9217,150.7178 219.8327,150.8208 219.8017,150.8648 C219.7727,150.9088 219.7087,151.0248 219.7787,151.1688 L225.3107,162.7428 L235.8577,157.7188 C236.0057,157.6488 236.0307,157.5138 236.0337,157.4578 C236.0387,157.3948 236.0287,157.2778 235.9087,157.1978 C234.8957,156.5228 234.1397,155.5528 233.7237,154.3928 C232.8377,151.9178 233.8157,149.1188 236.0487,147.7358 C237.4187,146.8858 239.0837,146.6598 240.6177,147.1108 C242.1527,147.5608 243.4267,148.6478 244.1147,150.0908 C244.5497,151.0048 244.7317,152.0198 244.6387,153.0238 C244.6237,153.1868 244.7247,153.2768 244.7687,153.3068 C244.8127,153.3368 244.9287,153.4008 245.0737,153.3308 L255.0507,148.5788 L249.5337,136.9958 C249.3277,136.5628 249.3707,136.0478 249.6467,135.6538 C249.9207,135.2608 250.3687,135.0528 250.8447,135.0978" id="Fill-34" fill="#8B1D41"></path>
        <path d="M255.4912,149.505 L245.5132,154.257 C245.0772,154.465 244.5792,154.424 244.1822,154.148 C243.7842,153.87 243.5732,153.414 243.6182,152.93 C243.6932,152.109 243.5452,151.279 243.1882,150.531 C242.6272,149.351 241.5842,148.462 240.3282,148.093 C239.0552,147.719 237.7262,147.902 236.5882,148.607 C234.7632,149.736 233.9652,152.025 234.6882,154.047 C235.0292,154.998 235.6472,155.793 236.4762,156.345 C236.8742,156.609 237.0912,157.052 237.0562,157.531 C237.0222,158.011 236.7312,158.438 236.2982,158.645 L225.7532,163.667 L229.4682,171.44 C229.6762,171.874 229.6332,172.389 229.3562,172.783 C229.0812,173.178 228.6332,173.386 228.1572,173.34 C227.1682,173.246 226.1872,173.473 225.3242,173.996 C223.4862,175.109 222.6652,177.39 223.3692,179.418 C223.8092,180.684 224.7252,181.662 225.9492,182.174 C227.1572,182.679 228.5262,182.646 229.7072,182.083 C230.4552,181.727 231.0932,181.177 231.5512,180.493 C231.8222,180.088 232.2732,179.868 232.7572,179.903 C233.2392,179.939 233.6512,180.221 233.8592,180.658 L238.8812,191.203 C239.0002,191.083 239.1032,190.945 239.1822,190.789 C246.4782,179.577 253.0912,168.027 258.5292,155.884 L255.4912,149.505 Z" id="Fill-36" fill="#C41F3E"></path>
        <path d="M194.4922,178.5548 L187.8462,181.7198 C189.0242,182.0968 190.2082,182.4568 191.3992,182.7968 C193.3602,183.3748 195.3282,183.9268 197.3022,184.4548 L194.4922,178.5548 Z" id="Fill-38" fill="#C41F3E"></path>
        <path d="M232.9336,181.0988 C232.8656,180.9538 232.7346,180.9298 232.6816,180.9258 C232.6276,180.9218 232.4936,180.9258 232.4026,181.0638 C231.8416,181.9008 231.0626,182.5728 230.1476,183.0078 C228.7046,183.6958 227.0306,183.7368 225.5546,183.1198 C224.0796,182.5028 222.9306,181.2768 222.4016,179.7548 C221.5386,177.2728 222.5446,174.4828 224.7926,173.1198 C225.8456,172.4828 227.0436,172.2048 228.2536,172.3198 C228.3986,172.3328 228.4806,172.2468 228.5166,172.1968 C228.5476,172.1518 228.6146,172.0298 228.5426,171.8818 L224.8276,164.1088 L214.9416,168.8168 C214.5046,169.0258 214.0066,168.9848 213.6106,168.7078 C213.2116,168.4298 213.0006,167.9748 213.0456,167.4898 C213.1216,166.6688 212.9726,165.8398 212.6166,165.0918 C212.0536,163.9118 211.0116,163.0228 209.7556,162.6538 C208.4836,162.2798 207.1546,162.4628 206.0156,163.1668 C204.1916,164.2968 203.3926,166.5848 204.1176,168.6078 C204.4566,169.5598 205.0756,170.3538 205.9046,170.9038 C206.3016,171.1678 206.5186,171.6128 206.4846,172.0908 C206.4506,172.5718 206.1596,172.9978 205.7256,173.2038 L195.4166,178.1148 L198.5996,184.7948 C211.3136,188.1218 224.2796,190.4188 237.3716,191.6528 C237.5726,191.6958 237.7726,191.6968 237.9666,191.6668 L232.9336,181.0988 Z" id="Fill-40" fill="#8B1D41"></path>
        <path d="M196.2412,101.7521 L206.8062,96.7211 C207.2402,96.5141 207.7552,96.5581 208.1492,96.8331 C208.5422,97.1081 208.7502,97.5571 208.7052,98.0311 C208.6102,99.0231 208.8382,100.0041 209.3622,100.8671 C210.4752,102.7041 212.7552,103.5261 214.7832,102.8211 C216.0482,102.3821 217.0272,101.4651 217.5392,100.2411 C218.0442,99.0341 218.0112,97.6641 217.4482,96.4831 C217.0922,95.7351 216.5422,95.0981 215.8572,94.6401 C215.4522,94.3681 215.2312,93.9171 215.2672,93.4331 C215.3032,92.9511 215.5852,92.5391 216.0212,92.3301 L226.0242,87.5671 L218.2912,71.3311 C205.8312,75.4991 197.9522,84.4861 194.1552,97.3721 L196.2412,101.7521 Z" id="Fill-42" fill="#8B1D41"></path>
        <path d="M261.2285,109.1261 C260.7915,109.3341 260.2925,109.2931 259.8965,109.0171 C259.4985,108.7391 259.2875,108.2841 259.3325,107.7991 C259.4075,106.9801 259.2585,106.1501 258.9025,105.4021 C258.3405,104.2221 257.2975,103.3331 256.0425,102.9651 C254.7695,102.5901 253.4405,102.7731 252.3015,103.4781 C250.4765,104.6081 249.6775,106.8971 250.4035,108.9191 C250.7445,109.8711 251.3625,110.6651 252.1925,111.2161 C252.5895,111.4801 252.8065,111.9251 252.7725,112.4031 C252.7385,112.8831 252.4475,113.3101 252.0135,113.5171 L241.8155,118.3771 L246.0725,127.3381 C246.1415,127.4821 246.2715,127.5071 246.3245,127.5111 C246.3775,127.5151 246.5125,127.5091 246.6055,127.3731 C247.1655,126.5371 247.9445,125.8651 248.8585,125.4301 C250.3015,124.7421 251.9755,124.7021 253.4525,125.3181 C254.9255,125.9361 256.0755,127.1621 256.6045,128.6841 C257.4665,131.1651 256.4605,133.9551 254.2125,135.3181 C253.1575,135.9571 251.9595,136.2341 250.7485,136.1181 C250.6045,136.1051 250.5225,136.1901 250.4865,136.2411 C250.4555,136.2861 250.3885,136.4071 250.4595,136.5561 L255.9765,148.1391 L263.1075,144.7421 C263.8735,142.6951 264.6095,140.6331 265.3025,138.5481 C268.4645,129.6381 270.1085,120.2611 270.165521,110.8071 C270.1675,108.8821 270.0255,106.9641 269.7555,105.0641 L261.2285,109.1261 Z" id="Fill-44" fill="#C41F3E"></path>
        <path d="M186.4336,181.257 L194.0506,177.629 L188.5356,166.047 C188.3266,165.61 188.3676,165.111 188.6446,164.715 C188.9216,164.318 189.3766,164.106 189.8626,164.151 C190.6826,164.226 191.5116,164.077 192.2596,163.721 C193.4406,163.159 194.3296,162.116 194.6986,160.861 C195.0726,159.589 194.8896,158.261 194.1846,157.121 C193.0546,155.296 190.7666,154.497 188.7446,155.222 C187.7946,155.561 186.9986,156.18 186.4486,157.008 C186.1836,157.405 185.7396,157.623 185.2596,157.588 C184.7806,157.553 184.3536,157.263 184.1476,156.828 L179.8896,147.869 L169.3016,152.907 C168.8646,153.115 168.3666,153.074 167.9706,152.798 C167.5726,152.521 167.3616,152.066 167.4066,151.58 C167.4816,150.76 167.3326,149.932 166.9766,149.183 C166.4136,148.003 165.3716,147.113 164.1166,146.744 C162.8436,146.37 161.5146,146.553 160.3756,147.258 C158.5506,148.389 157.7516,150.677 158.4776,152.699 C158.8186,153.652 159.4366,154.445 160.2656,154.996 C160.6626,155.261 160.8796,155.704 160.8456,156.183 C160.8116,156.663 160.5216,157.09 160.0866,157.297 L151.5806,161.348 C154.3406,164.374 157.5166,167.044 161.0476,169.261 C169.0046,174.265 177.5296,178.288 186.4336,181.257" id="Fill-46" fill="#8B1D41"></path>
        <path d="M152.8262,106.7599 C154.0342,107.2649 155.4032,107.2329 156.5852,106.6699 C157.3332,106.3139 157.9712,105.7639 158.4292,105.0799 C158.6982,104.6759 159.1492,104.4539 159.6342,104.4899 C160.1162,104.5259 160.5282,104.8079 160.7362,105.2449 L165.9462,116.1809 L176.2342,111.2809 C176.6682,111.0739 177.1822,111.1169 177.5772,111.3939 C177.9702,111.6689 178.1782,112.1169 178.1332,112.5919 C178.0382,113.5829 178.2652,114.5639 178.7902,115.4279 C179.9032,117.2649 182.1822,118.0859 184.2112,117.3819 C185.4722,116.9429 186.4552,116.0259 186.9672,114.8019 C187.4712,113.5939 187.4372,112.2249 186.8762,111.0439 C186.5192,110.2959 185.9692,109.6579 185.2852,109.1989 C184.8802,108.9289 184.6592,108.4779 184.6942,107.9929 C184.7292,107.5119 185.0122,107.0999 185.4492,106.8909 L195.3162,102.1929 L193.2252,97.8039 C191.1392,97.0509 189.1712,96.2459 187.1382,95.6949 C173.4592,91.9369 160.0642,96.4669 151.0212,105.4029 C151.4952,105.9909 152.1052,106.4589 152.8262,106.7599" id="Fill-48" fill="#C41F3E"></path>
        <path d="M145.209,126.0577 C145.643,125.8507 146.156,125.8947 146.551,126.1697 C146.944,126.4457 147.152,126.8937 147.107,127.3687 C147.013,128.3587 147.239,129.3387 147.764,130.2037 C148.877,132.0407 151.157,132.8627 153.185,132.1587 C154.448,131.7177 155.43,130.8007 155.94,129.5787 C156.445,128.3707 156.412,127.0007 155.85,125.8207 C155.493,125.0727 154.943,124.4347 154.259,123.9757 C153.855,123.7047 153.634,123.2537 153.669,122.7697 C153.704,122.2877 153.986,121.8747 154.424,121.6667 L165.021,116.6207 L159.812,105.6857 C159.742,105.5397 159.612,105.5157 159.56,105.5117 C159.506,105.5077 159.371,105.5147 159.279,105.6507 C158.72,106.4877 157.939,107.1597 157.025,107.5947 C155.582,108.2827 153.907,108.3237 152.432,107.7057 C151.599,107.3577 150.876,106.8107 150.304,106.1297 C144.536,112.1347 140.684,119.9837 139.889,128.5907 L145.209,126.0577 Z" id="Fill-50" fill="#8B1D41"></path>
        <path d="M268.5967,99.7618 C268.0017,97.5638 267.0357,95.2188 266.0117,93.0678 L265.8837,92.7988 C263.8607,88.5968 261.6597,85.1988 261.6597,85.1988 L261.6807,85.1998 C260.7487,83.9618 259.7807,82.7508 258.7657,81.5788 C256.7627,79.4918 254.6807,77.6578 252.5227,76.0818 L246.7897,78.8128 C246.6457,78.8808 246.6207,79.0108 246.6177,79.0638 C246.6137,79.1178 246.6187,79.2528 246.7547,79.3438 C247.5927,79.9048 248.2657,80.6848 248.7007,81.5998 C249.3887,83.0428 249.4287,84.7168 248.8127,86.1928 C248.2767,87.4758 247.2787,88.5118 246.0267,89.1088 C245.8387,89.1978 245.6457,89.2768 245.4477,89.3458 C242.9657,90.2078 240.1757,89.2018 238.8127,86.9548 C238.1737,85.9018 237.8977,84.7028 238.0127,83.4908 C238.0267,83.3478 237.9417,83.2658 237.8897,83.2298 C237.8447,83.1978 237.7237,83.1318 237.5757,83.2018 L227.3907,88.0518 L231.6617,97.0218 C231.8697,97.4588 231.8287,97.9568 231.5527,98.3528 C231.2747,98.7518 230.8187,98.9618 230.3347,98.9178 C229.5147,98.8428 228.6857,98.9908 227.9367,99.3468 C226.7567,99.9088 225.8677,100.9508 225.4987,102.2068 C225.1237,103.4798 225.3067,104.8088 226.0117,105.9478 C227.1427,107.7728 229.4307,108.5718 231.4517,107.8468 C232.4067,107.5058 233.1977,106.8888 233.7477,106.0608 C234.0127,105.6628 234.4577,105.4468 234.9367,105.4808 C235.4167,105.5158 235.8427,105.8068 236.0487,106.2408 L241.3747,117.4508 L251.5737,112.5908 C251.7217,112.5208 251.7457,112.3858 251.7497,112.3298 C251.7547,112.2668 251.7437,112.1498 251.6247,112.0698 C250.6107,111.3958 249.8537,110.4258 249.4387,109.2648 C248.5507,106.7898 249.5287,103.9908 251.7627,102.6068 C253.1347,101.7558 254.7977,101.5308 256.3317,101.9818 C257.8667,102.4328 259.1407,103.5188 259.8277,104.9618 C260.2637,105.8758 260.4457,106.8898 260.3527,107.8928 C260.3377,108.0558 260.4387,108.1458 260.4837,108.1758 C260.5267,108.2068 260.6427,108.2698 260.7877,108.1998 L269.5937,104.0068 C269.3507,102.5718 269.0287,101.1488 268.6327,99.7438 L268.5967,99.7618 Z" id="Fill-52" fill="#8B1D41"></path>
        <path d="M135.877,204.0509 C136.32,203.8519 136.819,203.9059 137.213,204.1949 C137.876,204.6809 138.663,204.9799 139.487,205.0599 C140.788,205.1869 142.087,204.7509 143.051,203.8649 C144.027,202.9679 144.556,201.7359 144.538,200.3959 C144.51,198.2489 142.96,196.3859 140.854,195.9639 C139.865,195.7649 138.864,195.8869 137.964,196.3129 C137.532,196.5169 137.04,196.4739 136.648,196.1979 C136.254,195.9219 136.038,195.4529 136.085,194.9749 L137.043,185.1039 L126.167,184.0459 C126.007,184.0299 125.919,184.1289 125.889,184.1729 C125.857,184.2169 125.793,184.3349 125.862,184.4839 C126.291,185.3959 126.466,186.4109 126.368,187.4189 C126.214,189.0109 125.386,190.4659 124.096,191.4129 C122.809,192.3599 121.167,192.7129 119.588,192.3809 C117.018,191.8419 115.145,189.5419 115.134,186.9139 C115.13,185.6809 115.51,184.5119 116.233,183.5319 C116.319,183.4169 116.288,183.3029 116.263,183.2449 C116.24,183.1949 116.171,183.0749 116.008,183.0599 L104.653,181.9529 L103.687,191.8259 C103.67,191.9889 103.773,192.0799 103.818,192.1129 C103.87,192.1489 103.977,192.2009 104.106,192.1399 C105.206,191.6179 106.424,191.4729 107.635,191.7119 C110.212,192.2279 112.108,194.5089 112.142,197.1359 C112.163,198.7459 111.501,200.2909 110.324,201.3729 C109.148,202.4549 107.56,202.9889 105.968,202.8329 C104.96,202.7359 103.997,202.3679 103.185,201.7719 C103.053,201.6749 102.924,201.7159 102.874,201.7379 C102.826,201.7589 102.712,201.8259 102.696,201.9869 L101.456,214.7549 L112.82,215.8599 C112.983,215.8749 113.074,215.7719 113.106,215.7269 C113.143,215.6749 113.195,215.5689 113.134,215.4389 C112.612,214.3389 112.464,213.1179 112.706,211.9089 C113.222,209.3319 115.502,207.4359 118.129,207.4019 C119.742,207.3799 121.285,208.0429 122.366,209.2199 C123.449,210.3979 123.981,211.9849 123.827,213.5759 C123.729,214.5849 123.362,215.5469 122.766,216.3599 C122.668,216.4909 122.709,216.6199 122.731,216.6699 C122.753,216.7179 122.82,216.8319 122.98,216.8479 L133.877,217.9049 L135.099,205.1379 C135.145,204.6549 135.436,204.2489 135.877,204.0509" id="Fill-54" fill="#C41F3E"></path>
        <path d="M283.7539,71.4015 L294.7209,74.0435 C295.1889,74.1555 295.5609,74.5125 295.6929,74.9755 C295.8259,75.4375 295.7049,75.9165 295.3709,76.2565 C294.6739,76.9675 294.2329,77.8725 294.0969,78.8745 C293.8059,81.0025 295.0599,83.0755 297.0789,83.8045 C298.3369,84.2585 299.6769,84.1635 300.8449,83.5345 C301.9969,82.9135 302.8329,81.8285 303.1389,80.5565 C303.3329,79.7515 303.3069,78.9095 303.0639,78.1225 C302.9199,77.6575 303.0319,77.1685 303.3639,76.8135 C303.6949,76.4615 304.1739,76.3185 304.6449,76.4315 L310.2579,77.7835 C307.1009,67.1205 300.0109,59.1725 288.8119,54.4095 C288.5179,54.2845 288.2259,54.1675 287.9329,54.0495 L283.7539,71.4015 Z" id="Fill-56" fill="#C41F3E"></path>
    </g>
</svg>