<svg width="450" height="250" viewBox="0 0 450 250" fill="none" xmlns="http://www.w3.org/2000/svg">
<g id="Colour=Pink">
<g id="illustration">
<path id="Shadow" fill-rule="evenodd" clip-rule="evenodd" d="M330 214.457C330 219.98 283.214 224.458 225.5 224.458C167.786 224.458 121 219.98 121 214.457C121 208.935 167.786 204.458 225.5 204.458C283.214 204.458 330 208.935 330 214.457Z" fill="#EFD4D8"/>
<g id="calculator">
<path id="Fill 4" fill-rule="evenodd" clip-rule="evenodd" d="M211.104 155.727H144.854C142.946 155.727 141.398 154.18 141.398 152.271V210.093C141.398 212.429 143.292 214.322 145.628 214.322H210.331C212.667 214.322 214.56 212.429 214.56 210.093V152.271C214.56 154.18 213.013 155.727 211.104 155.727Z" fill="#C41F3E"/>
<path id="Fill 6" fill-rule="evenodd" clip-rule="evenodd" d="M211.104 155.727H144.854C142.946 155.727 141.398 154.18 141.398 152.271V92.9735C141.398 91.0499 142.958 89.4907 144.882 89.4907H211.078C213.001 89.4907 214.56 91.0499 214.56 92.9735V152.271C214.56 154.18 213.013 155.727 211.104 155.727Z" fill="#8B1D41"/>
<path id="Fill 8" fill-rule="evenodd" clip-rule="evenodd" d="M206.297 101.009H149.662C148.5 101.009 147.558 101.951 147.558 103.113V142.105C147.558 143.267 148.5 144.209 149.662 144.209H206.297C207.459 144.209 208.401 143.267 208.401 142.105V103.113C208.401 101.951 207.459 101.009 206.297 101.009Z" fill="white"/>
<path id="Fill 10" fill-rule="evenodd" clip-rule="evenodd" d="M148.279 143.678L208.237 102.299C207.919 101.541 207.17 101.009 206.297 101.009H149.662C148.501 101.009 147.559 101.951 147.559 103.113V142.105C147.559 142.734 147.841 143.293 148.279 143.678Z" fill="#D9D9D6"/>
<path id="Fill 12" fill-rule="evenodd" clip-rule="evenodd" d="M160.899 173.634H148.054C147.499 173.634 147.048 173.183 147.048 172.627V167.205C147.048 166.649 147.499 166.198 148.054 166.198H160.899C161.455 166.198 161.906 166.649 161.906 167.205V172.627C161.906 173.183 161.455 173.634 160.899 173.634Z" fill="white"/>
<path id="Fill 14" fill-rule="evenodd" clip-rule="evenodd" d="M184.402 173.634H171.557C171.001 173.634 170.55 173.183 170.55 172.627V167.205C170.55 166.649 171.001 166.198 171.557 166.198H184.402C184.958 166.198 185.408 166.649 185.408 167.205V172.627C185.408 173.183 184.958 173.634 184.402 173.634Z" fill="white"/>
<path id="Fill 16" fill-rule="evenodd" clip-rule="evenodd" d="M207.905 173.634H195.06C194.504 173.634 194.053 173.183 194.053 172.627V167.205C194.053 166.649 194.504 166.198 195.06 166.198H207.905C208.461 166.198 208.911 166.649 208.911 167.205V172.627C208.911 173.183 208.461 173.634 207.905 173.634Z" fill="white"/>
<path id="Fill 18" fill-rule="evenodd" clip-rule="evenodd" d="M160.899 184.661H148.054C147.499 184.661 147.048 184.21 147.048 183.654V178.232C147.048 177.676 147.499 177.226 148.054 177.226H160.899C161.455 177.226 161.906 177.676 161.906 178.232V183.654C161.906 184.21 161.455 184.661 160.899 184.661Z" fill="white"/>
<path id="Fill 20" fill-rule="evenodd" clip-rule="evenodd" d="M184.402 184.661H171.557C171.001 184.661 170.55 184.21 170.55 183.654V178.232C170.55 177.676 171.001 177.226 171.557 177.226H184.402C184.958 177.226 185.408 177.676 185.408 178.232V183.654C185.408 184.21 184.958 184.661 184.402 184.661Z" fill="white"/>
<path id="Fill 22" fill-rule="evenodd" clip-rule="evenodd" d="M207.905 184.661H195.06C194.504 184.661 194.053 184.21 194.053 183.654V178.232C194.053 177.676 194.504 177.226 195.06 177.226H207.905C208.461 177.226 208.911 177.676 208.911 178.232V183.654C208.911 184.21 208.461 184.661 207.905 184.661Z" fill="white"/>
<path id="Fill 24" fill-rule="evenodd" clip-rule="evenodd" d="M160.899 195.689H148.054C147.499 195.689 147.048 195.238 147.048 194.682V189.259C147.048 188.703 147.499 188.253 148.054 188.253H160.899C161.455 188.253 161.906 188.703 161.906 189.259V194.682C161.906 195.238 161.455 195.689 160.899 195.689Z" fill="white"/>
<path id="Fill 26" fill-rule="evenodd" clip-rule="evenodd" d="M184.402 195.689H171.557C171.001 195.689 170.55 195.238 170.55 194.682V189.259C170.55 188.703 171.001 188.253 171.557 188.253H184.402C184.958 188.253 185.408 188.703 185.408 189.259V194.682C185.408 195.238 184.958 195.689 184.402 195.689Z" fill="white"/>
<path id="Fill 28" fill-rule="evenodd" clip-rule="evenodd" d="M207.905 195.689H195.06C194.504 195.689 194.053 195.238 194.053 194.682V189.259C194.053 188.703 194.504 188.253 195.06 188.253H207.905C208.461 188.253 208.911 188.703 208.911 189.259V194.682C208.911 195.238 208.461 195.689 207.905 195.689Z" fill="white"/>
<path id="Fill 30" fill-rule="evenodd" clip-rule="evenodd" d="M160.899 206.716H148.054C147.499 206.716 147.048 206.265 147.048 205.709V200.287C147.048 199.731 147.499 199.28 148.054 199.28H160.899C161.455 199.28 161.906 199.731 161.906 200.287V205.709C161.906 206.265 161.455 206.716 160.899 206.716Z" fill="#D9D9D6"/>
<path id="Fill 32" fill-rule="evenodd" clip-rule="evenodd" d="M184.402 206.716H171.557C171.001 206.716 170.55 206.265 170.55 205.709V200.287C170.55 199.731 171.001 199.28 171.557 199.28H184.402C184.958 199.28 185.408 199.731 185.408 200.287V205.709C185.408 206.265 184.958 206.716 184.402 206.716Z" fill="#D9D9D6"/>
<path id="Fill 34" fill-rule="evenodd" clip-rule="evenodd" d="M207.905 206.716H195.06C194.504 206.716 194.053 206.265 194.053 205.709V200.287C194.053 199.731 194.504 199.28 195.06 199.28H207.905C208.461 199.28 208.911 199.731 208.911 200.287V205.709C208.911 206.265 208.461 206.716 207.905 206.716Z" fill="#D9D9D6"/>
<path id="Fill 36" fill-rule="evenodd" clip-rule="evenodd" d="M177.921 147.8C173.851 147.8 170.551 151.1 170.551 155.171V155.236V155.236C170.551 159.307 173.851 162.607 177.921 162.607H178.038C182.109 162.607 185.408 159.307 185.408 155.236V155.236V155.171C185.408 151.1 182.109 147.8 178.038 147.8H177.921Z" fill="white"/>
<path id="Fill 38" fill-rule="evenodd" clip-rule="evenodd" d="M204.333 159.439H198.632C198.155 159.439 197.768 159.051 197.768 158.575V152.873C197.768 152.397 198.155 152.01 198.632 152.01H204.333C204.81 152.01 205.196 152.397 205.196 152.873V158.575C205.196 159.051 204.81 159.439 204.333 159.439Z" fill="white"/>
<path id="Fill 40" fill-rule="evenodd" clip-rule="evenodd" d="M157.327 159.439H151.627C151.149 159.439 150.762 159.051 150.762 158.575V152.873C150.762 152.397 151.149 152.01 151.627 152.01H157.327C157.805 152.01 158.191 152.397 158.191 152.873V158.575C158.191 159.051 157.805 159.439 157.327 159.439Z" fill="white"/>
<path id="Fill 42" fill-rule="evenodd" clip-rule="evenodd" d="M198.313 88.6912V61.5328L194.246 58.748L190.179 61.5328L186.113 58.748L182.046 61.5328L177.98 58.748L173.912 61.5328L169.846 58.748L165.779 61.5328L161.712 58.748L157.646 61.5328V88.6912H198.313Z" fill="#C41F3E"/>
<path id="Fill 44" fill-rule="evenodd" clip-rule="evenodd" d="M190.732 71.4625H165.227C164.564 71.4625 164.027 70.9253 164.027 70.2625C164.027 69.5997 164.564 69.0625 165.227 69.0625H190.732C191.395 69.0625 191.932 69.5997 191.932 70.2625C191.932 70.9253 191.395 71.4625 190.732 71.4625Z" fill="white"/>
<path id="Fill 46" fill-rule="evenodd" clip-rule="evenodd" d="M182.046 78.3766H165.227C164.564 78.3766 164.027 77.8394 164.027 77.1766C164.027 76.5138 164.564 75.9766 165.227 75.9766H182.046C182.709 75.9766 183.246 76.5138 183.246 77.1766C183.246 77.8394 182.709 78.3766 182.046 78.3766Z" fill="white"/>
</g>
<g id="dotted line">
<path id="Fill 6 Copy" fill-rule="evenodd" clip-rule="evenodd" d="M179.094 56.045C178.843 56.1076 178.57 56.0919 178.313 55.9824C177.682 55.7143 177.386 54.9842 177.652 54.3514C178.084 53.3227 178.562 52.2967 179.074 51.3017C179.387 50.6909 180.135 50.4526 180.743 50.7689C181.351 51.0844 181.591 51.8349 181.277 52.4454C180.795 53.3844 180.344 54.3524 179.936 55.3228C179.779 55.6972 179.459 55.9539 179.094 56.045Z" fill="#C41F3E"/>
<path id="Fill 6_2" fill-rule="evenodd" clip-rule="evenodd" d="M183.829 47.1957C183.57 47.2047 183.306 47.1326 183.078 46.972C182.516 46.5786 182.379 45.803 182.77 45.2393C183.407 44.323 184.088 43.4188 184.795 42.5518C185.229 42.0195 186.01 41.942 186.538 42.3776C187.068 42.8128 187.146 43.5967 186.713 44.1287C186.046 44.9469 185.403 45.7999 184.803 46.6644C184.571 46.9979 184.205 47.1825 183.829 47.1957Z" fill="#C41F3E"/>
<path id="Fill 8_2" fill-rule="evenodd" clip-rule="evenodd" d="M220.22 29.0044C220.19 29.0054 220.159 29.0056 220.129 29.0042C219.133 28.9667 218.121 28.9656 217.12 29.0005L216.963 29.0064L216.958 29.0066C216.276 29.0304 215.703 28.4963 215.677 27.811C215.65 27.1241 216.183 26.546 216.867 26.5192L217.033 26.5129C218.093 26.4759 219.166 26.4775 220.221 26.517C220.905 26.5425 221.438 27.12 221.413 27.807C221.389 28.4633 220.863 28.9819 220.22 29.0044ZM207.309 30.5012C206.749 30.5208 206.228 30.1542 206.072 29.5876C205.89 28.9249 206.278 28.2397 206.937 28.0573C208.01 27.7608 209.109 27.5024 210.205 27.2894C210.877 27.16 211.527 27.5998 211.657 28.2743C211.788 28.9493 211.348 29.6022 210.677 29.7332C209.644 29.9341 208.607 30.1774 207.596 30.4572C207.5 30.4838 207.404 30.4979 207.309 30.5012ZM229.867 30.4972C229.744 30.5015 229.618 30.4872 229.494 30.453C228.482 30.1724 227.445 29.9284 226.413 29.7279C225.741 29.5973 225.302 28.9444 225.432 28.2694C225.562 27.5949 226.212 27.1546 226.884 27.2843C227.979 27.4972 229.078 27.756 230.152 28.0531C230.811 28.236 231.199 28.9211 231.018 29.5837C230.87 30.121 230.393 30.4788 229.867 30.4972ZM198.265 34.1819C197.811 34.1977 197.366 33.9625 197.134 33.5361C196.805 32.9332 197.025 32.1767 197.625 31.8465C198.603 31.3084 199.613 30.8028 200.628 30.3431C201.252 30.0598 201.986 30.3393 202.267 30.9658C202.549 31.5923 202.271 32.3293 201.648 32.6117C200.691 33.0453 199.738 33.5223 198.816 34.0298C198.64 34.126 198.452 34.1754 198.265 34.1819ZM238.918 34.1815C238.703 34.189 238.483 34.1402 238.28 34.029C237.357 33.5212 236.403 33.0439 235.446 32.6099C234.822 32.3274 234.545 31.5904 234.826 30.9641C235.107 30.3371 235.84 30.0578 236.464 30.3411C237.48 30.8013 238.491 31.3073 239.47 31.8459C240.071 32.1761 240.291 32.9322 239.963 33.5352C239.745 33.9351 239.34 34.1667 238.918 34.1815ZM190.3 39.8514C189.946 39.8637 189.589 39.7242 189.334 39.4388C188.876 38.9277 188.919 38.1404 189.427 37.6814C190.256 36.9343 191.125 36.2095 192.008 35.5274C192.551 35.1083 193.329 35.211 193.746 35.7564C194.163 36.3014 194.061 37.0825 193.519 37.5016C192.685 38.1446 191.865 38.8287 191.084 39.5338C190.859 39.7364 190.58 39.8416 190.3 39.8514ZM246.889 39.8486C246.58 39.8594 246.267 39.7549 246.019 39.5315C245.235 38.8255 244.415 38.1422 243.582 37.5005C243.039 37.0819 242.936 36.3005 243.353 35.7555C243.769 35.21 244.548 35.1073 245.09 35.5259C245.973 36.2061 246.842 36.93 247.673 37.6785C248.183 38.1372 248.225 38.924 247.768 39.4356C247.534 39.6982 247.214 39.8372 246.889 39.8486ZM253.366 47.1872C252.96 47.2014 252.555 47.0154 252.305 46.6564C251.703 45.7916 251.06 44.939 250.394 44.123C249.96 43.5914 250.037 42.8071 250.566 42.3714C251.095 41.9354 251.876 42.0135 252.31 42.5447C253.016 43.41 253.698 44.3135 254.336 45.2306C254.728 45.7939 254.592 46.5699 254.031 46.9635C253.828 47.1063 253.596 47.1792 253.366 47.1872ZM257.996 55.8128C257.487 55.8305 257 55.5304 256.801 55.0284C256.414 54.0499 255.982 53.0733 255.519 52.1252C255.218 51.5081 255.471 50.7628 256.086 50.4603C256.7 50.1571 257.443 50.4125 257.744 51.0296C258.235 52.0353 258.693 53.0712 259.104 54.1091C259.357 54.7478 259.046 55.4714 258.41 55.7253C258.274 55.7798 258.134 55.8079 257.996 55.8128ZM260.527 65.2812C259.905 65.3029 259.353 64.8519 259.26 64.2188C259.106 63.1728 258.909 62.1215 258.677 61.0944C258.525 60.4243 258.943 59.7576 259.611 59.6052C260.278 59.4536 260.942 59.8729 261.094 60.543C261.34 61.6323 261.548 62.7467 261.711 63.8555C261.812 64.5357 261.343 65.168 260.667 65.2685C260.62 65.2755 260.573 65.2796 260.527 65.2812Z" fill="#C41F3E"/>
<path id="Fill 10_2" fill-rule="evenodd" clip-rule="evenodd" d="M261.082 73.508C260.398 73.5318 259.824 72.9944 259.8 72.3074L259.742 70.6491C259.718 69.9621 260.254 69.3859 260.937 69.362C261.621 69.3381 262.195 69.8756 262.219 70.5626L262.277 72.2209C262.301 72.9079 261.766 73.4841 261.082 73.508Z" fill="#C41F3E"/>
</g>
<g id="phone">
<path id="Vector" d="M301.408 206.734C301.408 209.865 298.853 212.42 295.722 212.42H245.365C242.234 212.42 239.679 209.865 239.679 206.734V86.4064C239.679 83.2746 242.234 80.7197 245.365 80.7197H295.722C298.853 80.7197 301.408 83.2746 301.408 86.4064V206.734Z" fill="white"/>
<path id="Vector_2" d="M304.499 117.807C304.828 117.807 305.158 117.477 305.158 117.148V100.664C305.158 100.335 304.828 100.005 304.499 100.005H304.169V86.4064C304.169 81.7911 300.378 78 295.763 78H245.406C240.791 78 237 81.7911 237 86.4064V206.734C237 211.349 240.791 215.14 245.406 215.14H295.763C300.378 215.14 304.169 211.349 304.169 206.734V131.653H304.499C304.828 131.653 305.158 131.323 305.158 130.993V123.411C305.158 123.081 304.828 122.752 304.499 122.752H304.169V117.807H304.499ZM301.449 206.734C301.449 209.865 298.894 212.42 295.763 212.42H245.406C242.275 212.42 239.72 209.865 239.72 206.734V86.4064C239.72 83.2746 242.275 80.7197 245.406 80.7197H295.763C298.894 80.7197 301.449 83.2746 301.449 86.4064V206.734Z" fill="#8B1D41"/>
</g>
<g id="content">
<g id="thumbprint">
<path id="Fill 1" fill-rule="evenodd" clip-rule="evenodd" d="M268.066 163.68C267.765 163.68 267.479 163.505 267.353 163.212C267.185 162.821 267.366 162.368 267.757 162.199C267.91 162.132 271.512 160.502 272.227 155.435C272.286 155.013 272.678 154.718 273.102 154.778C273.526 154.837 273.822 155.228 273.762 155.65C272.922 161.609 268.557 163.538 268.371 163.617C268.272 163.66 268.168 163.68 268.066 163.68Z" fill="#8B1D41"/>
<path id="Fill 3" fill-rule="evenodd" clip-rule="evenodd" d="M272.933 162.87C272.655 162.87 272.386 162.727 272.244 162.474C272.039 162.11 272.179 161.654 272.556 161.455C272.63 161.415 274.116 160.59 274.661 158.574C274.77 158.171 275.197 157.93 275.614 158.034C276.032 158.139 276.283 158.55 276.175 158.953C275.451 161.634 273.391 162.734 273.304 162.779C273.186 162.841 273.058 162.87 272.933 162.87Z" fill="#8B1D41"/>
<path id="Fill 5" fill-rule="evenodd" clip-rule="evenodd" d="M263.174 162.06C262.894 162.06 262.626 161.894 262.5 161.613C262.327 161.226 262.488 160.767 262.86 160.587L263.123 160.46C265.101 159.513 267.81 158.214 269.073 153.707C269.188 153.297 269.601 153.062 269.995 153.181C270.389 153.3 270.615 153.729 270.5 154.139C269.048 159.322 265.857 160.852 263.746 161.863L263.487 161.988C263.386 162.037 263.279 162.06 263.174 162.06Z" fill="#8B1D41"/>
<path id="Fill 7" fill-rule="evenodd" clip-rule="evenodd" d="M278.162 159.63C278.101 159.63 278.038 159.623 277.975 159.608C277.545 159.507 277.279 159.079 277.382 158.653C277.957 156.28 278.404 150.939 275.988 147.712C274.757 146.068 272.901 145.161 270.473 145.014C270.031 144.988 269.695 144.612 269.722 144.175C269.749 143.738 270.13 143.405 270.57 143.432C273.494 143.608 275.749 144.73 277.275 146.768C278.53 148.444 279.247 150.675 279.407 153.401C279.569 156.159 279.091 158.401 278.941 159.022C278.853 159.386 278.525 159.63 278.162 159.63Z" fill="#8B1D41"/>
<path id="Fill 9" fill-rule="evenodd" clip-rule="evenodd" d="M260.757 158.82C260.339 158.82 260 158.483 260 158.066C260 157.65 260.339 157.313 260.757 157.313C262.186 157.313 264.601 156.091 265.918 154.273C266.163 153.935 266.636 153.859 266.976 154.102C267.315 154.346 267.391 154.817 267.147 155.154C265.484 157.449 262.592 158.82 260.757 158.82Z" fill="#8B1D41"/>
<path id="Fill 11" fill-rule="evenodd" clip-rule="evenodd" d="M276.071 158.01C276.047 158.01 276.023 158.009 275.998 158.007C275.515 157.972 275.155 157.586 275.195 157.147C275.423 154.596 275.053 151.112 273.261 149.691C272.895 149.401 272.858 148.896 273.176 148.564C273.495 148.231 274.049 148.197 274.415 148.487C277.287 150.765 277.077 155.79 276.945 157.276C276.907 157.694 276.523 158.01 276.071 158.01Z" fill="#8B1D41"/>
<path id="Fill 13" fill-rule="evenodd" clip-rule="evenodd" d="M260.811 155.58C260.363 155.58 260 155.204 260 154.741C260 154.277 260.363 153.902 260.811 153.902C263.397 153.902 265.038 151.715 265.712 149.669C265.856 149.23 266.317 148.995 266.741 149.145C267.165 149.295 267.391 149.772 267.246 150.21C266.795 151.582 266.03 152.845 265.093 153.769C263.89 154.954 262.41 155.58 260.811 155.58Z" fill="#8B1D41"/>
<path id="Fill 15" fill-rule="evenodd" clip-rule="evenodd" d="M272.988 153.15C272.666 153.15 272.363 152.923 272.251 152.561C272.092 152.049 271.603 150.858 270.505 150.858C269.681 150.858 269.319 151.374 268.771 152.607C268.578 153.041 268.108 153.217 267.722 153C267.336 152.783 267.18 152.255 267.373 151.821C267.854 150.737 268.582 149.1 270.505 149.1C271.961 149.1 273.165 150.177 273.726 151.981C273.868 152.439 273.654 152.941 273.246 153.101C273.161 153.134 273.074 153.15 272.988 153.15Z" fill="#8B1D41"/>
<path id="Fill 17" fill-rule="evenodd" clip-rule="evenodd" d="M260.856 152.34C260.456 152.34 260.099 152.096 260.017 151.743C259.924 151.341 260.225 150.95 260.689 150.869C261.146 150.79 261.469 150.606 261.599 150.352C261.791 149.977 262.297 149.808 262.73 149.974C263.163 150.141 263.358 150.579 263.166 150.954C262.804 151.662 262.044 152.149 261.026 152.325C260.969 152.335 260.912 152.34 260.856 152.34Z" fill="#8B1D41"/>
<path id="Fill 19" fill-rule="evenodd" clip-rule="evenodd" d="M280.373 152.34C280.028 152.34 279.73 152.036 279.692 151.627C279.406 148.529 278.035 145.285 276.502 144.081C276.188 143.834 276.106 143.338 276.318 142.972C276.529 142.607 276.956 142.51 277.27 142.757C279.164 144.245 280.72 147.822 281.056 151.456C281.097 151.895 280.824 152.288 280.448 152.335C280.423 152.339 280.398 152.34 280.373 152.34Z" fill="#8B1D41"/>
<path id="Fill 22_2" fill-rule="evenodd" clip-rule="evenodd" d="M263.968 148.29C263.829 148.29 263.689 148.251 263.565 148.169C263.23 147.946 263.14 147.496 263.362 147.163C264.207 145.902 265.687 144.237 267.947 143.469C268.327 143.34 268.741 143.542 268.871 143.921C269.001 144.3 268.798 144.712 268.417 144.842C266.544 145.478 265.294 146.892 264.575 147.967C264.434 148.177 264.203 148.29 263.968 148.29Z" fill="#8B1D41"/>
<path id="Fill 24_2" fill-rule="evenodd" clip-rule="evenodd" d="M267.234 149.1C267.013 149.1 266.794 149.005 266.645 148.824C266.385 148.506 266.438 148.043 266.763 147.79C267.528 147.193 268.66 146.529 270.651 146.696C271.066 146.731 271.373 147.087 271.337 147.492C271.302 147.897 270.938 148.198 270.522 148.162C269.075 148.041 268.313 148.464 267.704 148.939C267.565 149.047 267.399 149.1 267.234 149.1Z" fill="#8B1D41"/>
<path id="Fill 26_2" fill-rule="evenodd" clip-rule="evenodd" d="M260.724 147.48C260.599 147.48 260.471 147.449 260.356 147.385C260.011 147.194 259.897 146.777 260.102 146.454C261.093 144.886 262.348 143.6 263.733 142.734C264.066 142.526 264.516 142.611 264.738 142.923C264.96 143.235 264.87 143.657 264.537 143.865C263.333 144.618 262.23 145.753 261.349 147.147C261.213 147.361 260.972 147.48 260.724 147.48Z" fill="#8B1D41"/>
<path id="Fill 28_2" fill-rule="evenodd" clip-rule="evenodd" d="M274.617 143.43C274.512 143.43 274.405 143.409 274.303 143.363C272.192 142.428 269.523 142.265 267.502 142.95C267.098 143.087 266.659 142.873 266.522 142.471C266.384 142.07 266.6 141.634 267.003 141.497C269.373 140.694 272.485 140.876 274.932 141.961C275.322 142.133 275.497 142.587 275.323 142.975C275.195 143.26 274.912 143.43 274.617 143.43Z" fill="#8B1D41"/>
</g>
<g id="card">
<path id="Fill 1_2" fill-rule="evenodd" clip-rule="evenodd" d="M294.332 130.534C295.27 130.534 296.03 129.771 296.03 128.829V98.7045C296.03 97.763 295.27 97 294.332 97H246.698C245.76 97 245 97.7634 245 98.7052V127.538C245 129.192 246.337 130.534 247.984 130.534H294.332Z" fill="#C41F3E"/>
<path id="Path" d="M250.256 117.608C249.682 117.592 249.146 117.896 248.855 118.403C248.564 118.91 248.565 119.54 248.857 120.049C249.149 120.557 249.686 120.864 250.26 120.85L255.782 120.861C256.356 120.878 256.892 120.573 257.183 120.066C257.473 119.559 257.473 118.929 257.181 118.42C256.889 117.912 256.352 117.605 255.778 117.619L250.256 117.608Z" fill="white"/>
<path id="Path_2" d="M250.185 123.827C249.631 123.81 249.113 124.106 248.832 124.599C248.552 125.092 248.553 125.705 248.835 126.2C249.117 126.694 249.636 126.993 250.19 126.98L266.789 127.036C267.343 127.052 267.861 126.757 268.141 126.263C268.422 125.77 268.421 125.158 268.138 124.663C267.856 124.168 267.337 123.869 266.783 123.882L250.185 123.827Z" fill="white"/>
<path id="Path_3" d="M261.192 117.609C260.618 117.591 260.081 117.895 259.79 118.404C259.499 118.912 259.5 119.544 259.793 120.053C260.086 120.562 260.625 120.869 261.199 120.853L266.718 120.861C267.291 120.877 267.827 120.573 268.118 120.066C268.408 119.558 268.408 118.928 268.116 118.419C267.824 117.91 267.287 117.602 266.714 117.616L261.192 117.609Z" fill="white"/>
<path id="Path_4" d="M272.142 117.607C271.562 117.591 271.021 117.896 270.728 118.404C270.434 118.912 270.434 119.543 270.729 120.052C271.023 120.562 271.565 120.869 272.144 120.855L277.719 120.862C278.583 120.841 279.271 120.122 279.27 119.241C279.269 118.361 278.58 117.639 277.716 117.615L272.142 117.607Z" fill="white"/>
<path id="Path_5" d="M283.79 117.608C283.216 117.592 282.68 117.896 282.389 118.403C282.098 118.91 282.099 119.54 282.391 120.049C282.683 120.557 283.22 120.864 283.794 120.85L289.316 120.861C289.89 120.878 290.426 120.573 290.717 120.066C291.008 119.559 291.007 118.929 290.715 118.42C290.423 117.912 289.886 117.605 289.312 117.619L283.79 117.608Z" fill="white"/>
<path id="Path_6" d="M250.275 104.478C249.87 104.477 249.48 104.64 249.193 104.93C248.907 105.221 248.746 105.615 248.747 106.026L248.747 109.13C248.746 109.541 248.908 109.936 249.195 110.227C249.483 110.519 249.873 110.682 250.279 110.681L255.76 110.663C256.605 110.665 257.29 109.973 257.291 109.117L257.291 106.011C257.29 105.155 256.604 104.461 255.759 104.46L250.275 104.478Z" fill="#D9D9D6"/>
</g>
<g id="fields">
<path id="Path Copy" d="M296.315 177.488C296.316 176.32 295.853 175.198 295.026 174.372C294.2 173.546 293.079 173.082 291.91 173.083L249.239 173.102C247.235 173.093 245.478 174.441 244.967 176.379C244.456 178.317 245.32 180.355 247.068 181.335L294.115 181.325C295.486 180.536 296.327 179.07 296.315 177.488Z" fill="#D9D9D6"/>
<path id="Path Copy 8" d="M296.315 190.488C296.316 189.32 295.853 188.198 295.026 187.372C294.2 186.546 293.079 186.082 291.91 186.083L249.239 186.102C247.235 186.093 245.478 187.441 244.967 189.379C244.456 191.317 245.32 193.355 247.068 194.335L294.115 194.325C295.486 193.536 296.327 192.07 296.315 190.488Z" fill="#D9D9D6"/>
</g>
</g>
</g>
</g>
</svg>
