<?xml version="1.0" encoding="UTF-8"?>
<svg width="256px" height="256px" viewBox="0 0 256 256" version="1.1" xmlns="http://www.w3.org/2000/svg" xmlns:xlink="http://www.w3.org/1999/xlink">
    <!-- Generator: Sketch 63.1 (92452) - https://sketch.com -->
    <title>Icons/Illustrative/device/digital-signature-256x256</title>
    <desc>Created with Sketch.</desc>
    <g id="Icons/Illustrative/device/digital-signature-256x256" stroke="none" stroke-width="1" fill="none" fill-rule="evenodd">
        <g id="Icons/Illustrative/Oval" fill="#F2F3F2">
            <circle id="Oval" cx="128" cy="128" r="128"></circle>
        </g>
        <g id="support-when-you-need-it" transform="translate(53.000000, 73.000000)">
            <rect id="Rectangle" fill="#8B1D41" fill-rule="nonzero" x="57.7626667" y="97.8373333" width="33.792" height="15.872"></rect>
            <path d="M108.450667,122.072 L40.8666667,122.072 C40.8666667,122.072 43.5973333,113.538667 49.5706667,113.538667 L99.7466667,113.538667 C105.72,113.538667 108.450667,122.072 108.450667,122.072 Z" id="Path" fill="#C4203F" fill-rule="nonzero"></path>
            <path d="M144.290667,0.386666667 L5.02666667,0.386666667 C2.296,0.386666667 0.0773333333,2.60533333 0.0773333333,5.336 L0.0773333333,92.7173333 C0.0773333333,95.448 2.296,97.6666667 5.02666667,97.6666667 L144.290667,97.6666667 C147.021333,97.6666667 149.24,95.448 149.24,92.7173333 L149.24,5.50666667 C149.24,2.776 147.021333,0.386666667 144.290667,0.386666667 Z M140.706667,89.1333333 L8.78133333,89.1333333 L8.78133333,9.09066667 L140.706667,9.09066667 L140.706667,89.1333333 Z" id="Shape" fill="#C4203F" fill-rule="nonzero"></path>
            <rect id="Rectangle" fill="#FFFFFF" fill-rule="nonzero" x="8.78133333" y="9.09066667" width="131.925333" height="79.872"></rect>
            <path d="M61.5512456,59 C58.969476,58.9692985 56.4117137,58.501517 53.9871886,57.6166322 C51.6865615,56.8826997 49.7706436,55.2714232 48.6576512,53.1345204 C44.9441968,54.9552401 41.08669,56.4682188 37.1241993,57.6581332 L36,53.7293685 C40.0068738,52.4940477 43.9059331,50.9348907 47.658363,49.0674189 C47.6110852,47.6037917 47.7746727,46.1409717 48.1441281,44.7236439 C50.0871886,36.7277778 58.0814947,26.3663527 63.286121,27.0303693 C64.6740214,27.2240408 66.9918149,28.2615667 66.8391459,33.0341857 C66.5615658,41.0853865 59.511032,47.1445376 52.3355872,51.2531401 C52.9590442,52.4781205 54.064919,53.3899929 55.388968,53.7708696 C69.1430605,58.6403244 76.0964413,46.2315149 76.3740214,45.7058351 C76.8567244,44.8569091 77.8647745,44.4541805 78.8021035,44.7357861 C79.7394325,45.0173917 80.3562805,45.908295 80.2879004,46.8816977 C80.2879004,47.6563837 80.2879004,50.1049448 81.5231317,50.9487992 C82.4252669,51.5851484 84.2156584,51.3638095 86.547331,50.3262837 L96.5957295,45.8026708 C97.1590416,45.5508119 97.8051106,45.559339 98.3615343,45.8259768 C98.917958,46.0926146 99.3281174,46.5902312 99.4825623,47.1860387 C100.092708,49.3752503 101.564148,51.2260038 103.562989,52.3183333 C105.741993,53.2590235 108.587189,52.8025121 112.029181,50.9349655 L114,54.5870566 C109.364413,57.0909524 105.283986,57.5889648 101.855872,56.0810939 C99.3982394,54.9207613 97.4316877,52.93123 96.3042705,50.4646204 L88.2405694,54.0752105 C84.3960854,55.8044203 81.3010676,55.8735887 79.080427,54.2965494 C78.1627878,53.6360807 77.4391839,52.7428885 76.9846975,51.7096515 C73.1066308,56.2065922 67.4988176,58.8555726 61.5512456,59 L61.5512456,59 Z M62.7793216,31 C60.4806848,31.4028648 53.4848337,38.614145 52,45.7717099 L52,46 C57.7108988,42.656222 62.7935988,38.1575649 62.9934803,32.6517457 C63.0232685,32.0936884 62.9508271,31.5349681 62.7793216,31 L62.7793216,31 Z" id="Shape" fill="#8B1D41" fill-rule="nonzero"></path>
            <line x1="28.5" y1="67.5" x2="122.5" y2="67.5" id="Line" stroke="#8B1D41" stroke-width="2" stroke-linecap="square"></line>
        </g>
    </g>
</svg>