<svg width="256" height="256" viewBox="0 0 256 256" fill="none" xmlns="http://www.w3.org/2000/svg">
<circle cx="128" cy="128" r="128" fill="white"/>
<path d="M117.949 66.023H119.487C119.77 66.023 120 66.2546 120 66.5402V82.0575C120 82.3431 119.77 82.5747 119.487 82.5747H117.949V66.023Z" fill="#8B1D41"/>
<path d="M117.949 86.7126H119.487C119.77 86.7126 120 86.9442 120 87.2299V94.4713C120 94.7569 119.77 94.9885 119.487 94.9885H117.949V86.7126Z" fill="#8B1D41"/>
<path d="M53.3333 53.6092C53.3333 49.0386 57.0069 45.3333 61.5384 45.3333H110.769C115.301 45.3333 118.974 49.0386 118.974 53.6092V157.057C118.974 161.628 115.301 165.333 110.769 165.333H61.5384C57.0069 165.333 53.3333 161.628 53.3333 157.057V53.6092Z" fill="white"/>
<path fill-rule="evenodd" clip-rule="evenodd" d="M110.769 48.4368H61.5384C58.7062 48.4368 56.4102 50.7525 56.4102 53.6092V157.057C56.4102 159.914 58.7062 162.23 61.5384 162.23H110.769C113.601 162.23 115.897 159.914 115.897 157.057V53.6092C115.897 50.7525 113.601 48.4368 110.769 48.4368ZM61.5384 45.3333C57.0069 45.3333 53.3333 49.0386 53.3333 53.6092V157.057C53.3333 161.628 57.0069 165.333 61.5384 165.333H110.769C115.301 165.333 118.974 161.628 118.974 157.057V53.6092C118.974 49.0386 115.301 45.3333 110.769 45.3333H61.5384Z" fill="#C41F3E"/>
<path d="M200.615 111.356H202.154C202.437 111.356 202.667 111.588 202.667 111.874V127.391C202.667 127.676 202.437 127.908 202.154 127.908H200.615V111.356Z" fill="#8B1D41"/>
<path d="M200.615 132.046H202.154C202.437 132.046 202.667 132.278 202.667 132.563V139.805C202.667 140.09 202.437 140.322 202.154 140.322H200.615V132.046Z" fill="#8B1D41"/>
<path d="M136 98.9425C136 94.3719 139.674 90.6667 144.205 90.6667H193.436C197.967 90.6667 201.641 94.3719 201.641 98.9425V202.391C201.641 206.961 197.967 210.667 193.436 210.667H144.205C139.674 210.667 136 206.961 136 202.391V98.9425Z" fill="white"/>
<path fill-rule="evenodd" clip-rule="evenodd" d="M193.436 93.7701H144.205C141.373 93.7701 139.077 96.0859 139.077 98.9425V202.391C139.077 205.247 141.373 207.563 144.205 207.563H193.436C196.268 207.563 198.564 205.247 198.564 202.391V98.9425C198.564 96.0859 196.268 93.7701 193.436 93.7701ZM144.205 90.6667C139.674 90.6667 136 94.3719 136 98.9425V202.391C136 206.961 139.674 210.667 144.205 210.667H193.436C197.967 210.667 201.641 206.961 201.641 202.391V98.9425C201.641 94.3719 197.967 90.6667 193.436 90.6667H144.205Z" fill="#C41F3E"/>
<path d="M126.128 193.743L127.225 182.698L117.28 181.756L119.842 185.242C115.137 188.195 109.608 188.941 104.506 187.311C99.4053 185.682 95.1642 181.814 92.7436 176.585L87.5496 179.682C90.7713 186.633 96.4769 191.711 103.305 193.705C110.134 195.699 117.473 194.431 123.572 190.202L126.128 193.743Z" fill="#8B1D41"/>
<path fill-rule="evenodd" clip-rule="evenodd" d="M180.203 134.272L179.333 139.685C177.505 138.559 175.5 137.756 173.406 137.308L171.963 146.855C178.444 149.053 181.507 151.729 181.507 157.442C181.507 164.193 176.725 167.808 169.217 167.808H168.96L168.012 174L164.455 173.221C164.455 173.221 165.324 167.488 165.265 167.488C162.596 167.125 160.005 166.315 157.599 165.092L158.429 159.699C160.867 161.137 163.546 162.112 166.332 162.575L167.933 151.729C161.669 149.572 158.508 147.335 158.508 141.742C158.508 135.45 163.013 131.995 170.165 131.995H170.679L171.311 128L174.927 128.839L174.413 132.294C176.427 132.67 178.377 133.336 180.203 134.272ZM169.887 137C166.305 137 164.572 138.591 164.572 141.188C164.572 143.463 165.643 144.671 169.225 146L170.549 137H169.887ZM175.53 158.218C175.53 161.294 173.568 163 169.646 163L169.553 162.921L170.972 153C174.633 154.409 175.53 155.917 175.53 158.218Z" fill="#8B1D41"/>
</svg>
