<svg width="450" height="250" viewBox="0 0 450 250" fill="none" xmlns="http://www.w3.org/2000/svg">
<g id="Colour=Blue">
<g id="phone">
<ellipse id="Shadow" cx="224.999" cy="165.48" rx="132.999" ry="14.5195" fill="#CCDDF2"/>
<g id="phone_2">
<path id="Vector" d="M309.445 75.2255C313.859 75.2255 317.46 78.8263 317.46 83.2403L317.46 154.212C317.46 158.626 313.859 162.227 309.445 162.227L139.857 162.227C135.443 162.227 131.842 158.626 131.842 154.212L131.842 83.2403C131.842 78.8263 135.443 75.2255 139.857 75.2255L309.445 75.2255Z" fill="white"/>
<path id="Vector_2" d="M184.112 70.9285C184.112 70.4639 183.648 69.9993 183.183 69.9993L159.952 69.9993C159.487 69.9993 159.023 70.4639 159.023 70.9285L159.023 71.3932L139.857 71.3932C133.352 71.3932 128.009 76.7364 128.009 83.2411L128.009 154.213C128.009 160.717 133.352 166.061 139.857 166.061L309.445 166.061C315.95 166.061 321.293 160.717 321.293 154.213L321.293 83.2411C321.293 76.7364 315.95 71.3932 309.445 71.3932L203.627 71.3932L203.627 70.9285C203.627 70.4639 203.162 69.9993 202.697 69.9993L192.011 69.9993C191.546 69.9993 191.082 70.4639 191.082 70.9285L191.082 71.3932L184.112 71.3932L184.112 70.9285ZM309.445 75.2263C313.859 75.2263 317.46 78.8272 317.46 83.2411L317.46 154.213C317.46 158.627 313.859 162.227 309.445 162.227L139.857 162.227C135.443 162.227 131.842 158.627 131.842 154.213L131.842 83.2411C131.842 78.8272 135.443 75.2263 139.857 75.2263L309.445 75.2263Z" fill="#8B1D41"/>
</g>
<g id="content">
<path id="Rectangle" d="M159.964 105.058C159.637 102.614 161.36 100.37 163.805 100.054L275.781 85.6228C278.211 85.3097 280.436 87.0185 280.761 89.4462L286.55 132.712C286.877 135.156 285.153 137.4 282.708 137.715L170.732 152.147C168.302 152.46 166.077 150.751 165.752 148.324L159.964 105.058Z" fill="#C41F3E"/>
<path id="Rectangle_2" d="M169.458 119.661C169.325 118.702 169.997 117.819 170.956 117.691L236.687 108.922C237.639 108.795 238.515 109.462 238.647 110.413C238.78 111.372 238.108 112.255 237.149 112.383L171.418 121.152C170.466 121.279 169.59 120.613 169.458 119.661Z" fill="white"/>
<path id="Path" d="M274.374 108.166L251.137 111.147C250.659 111.209 250.176 111.087 249.793 110.807C249.411 110.527 249.161 110.113 249.1 109.656C249.036 109.201 249.164 108.739 249.457 108.374C249.75 108.009 250.183 107.771 250.661 107.711L273.898 104.73C274.375 104.669 274.858 104.792 275.24 105.071C275.622 105.351 275.872 105.765 275.934 106.221C275.998 106.677 275.87 107.138 275.577 107.503C275.284 107.868 274.851 108.107 274.374 108.166Z" fill="white"/>
<path id="Path_2" d="M274.38 114.619L171.589 128.341C171.117 128.403 170.64 128.28 170.262 127.999C169.884 127.719 169.637 127.305 169.576 126.848C169.511 126.391 169.638 125.928 169.927 125.561C170.217 125.195 170.646 124.955 171.118 124.896L273.921 111.178C274.393 111.116 274.87 111.239 275.248 111.519C275.626 111.8 275.873 112.214 275.934 112.671C275.998 113.129 275.869 113.593 275.577 113.959C275.285 114.325 274.854 114.563 274.38 114.619Z" fill="white"/>
<path id="Rectangle_3" d="M167.51 109.818C167.201 107.514 168.825 105.399 171.131 105.102L176.355 104.429C178.645 104.133 180.742 105.744 181.049 108.032C181.357 110.336 179.733 112.452 177.427 112.749L172.203 113.422C169.913 113.717 167.816 112.106 167.51 109.818Z" fill="white"/>
<path id="Shape" fill-rule="evenodd" clip-rule="evenodd" d="M247.449 107.441L247.424 108.082C247.176 107.977 246.91 107.914 246.638 107.896L246.605 109.033C247.47 109.192 247.904 109.457 247.995 110.12C248.103 110.905 247.553 111.397 246.588 111.507H246.555V112.239L246.084 112.201C246.084 112.201 246.104 111.526 246.084 111.526C245.736 111.52 245.391 111.464 245.062 111.359L245.082 110.723C245.417 110.852 245.774 110.926 246.137 110.939L246.166 109.654C245.339 109.499 244.888 109.275 244.797 108.635C244.698 107.904 245.211 107.437 246.137 107.331H246.204V106.865L246.68 106.907V107.316C246.941 107.324 247.2 107.366 247.449 107.441ZM246.126 107.902C245.663 107.955 245.46 108.164 245.501 108.463C245.543 108.762 245.696 108.842 246.184 108.948L246.213 107.891L246.126 107.902ZM247.28 110.26C247.33 110.62 247.094 110.851 246.56 110.911H246.548L246.581 109.721C247.102 109.828 247.243 109.991 247.28 110.26Z" fill="white"/>
<path id="Shape_2" fill-rule="evenodd" clip-rule="evenodd" d="M252.307 132.933L252.667 133.731L253.074 133.535C254.12 133.007 255.123 132.388 256.071 131.685C256.426 132.277 257.008 132.677 257.666 132.782C260.959 133.436 262.767 131.314 263.559 129.964C263.714 130.302 263.966 130.58 264.28 130.758C264.888 131.065 265.663 130.929 266.574 130.308L268.703 128.852C269.078 129.54 269.685 130.057 270.403 130.301C271.336 130.562 272.366 130.252 273.468 129.378L273.8 129.113L273.296 128.413L272.964 128.678C272.067 129.359 271.296 129.62 270.626 129.435C269.683 129.174 269.225 128.077 269.225 128.077C269.177 127.956 269.08 127.864 268.961 127.826C268.842 127.788 268.713 127.808 268.609 127.88L266.088 129.59C265.648 129.892 265.047 130.214 264.625 129.994C264.204 129.775 264.046 129.037 264.046 128.773C264.033 128.565 263.884 128.394 263.687 128.365C263.491 128.336 263.302 128.455 263.235 128.652C263.188 128.818 261.78 132.733 257.785 131.939C257.332 131.878 256.932 131.598 256.705 131.182C258.459 129.733 260.134 127.732 259.874 125.463C259.734 124.23 259.165 124.06 258.823 124.06C257.504 124.086 255.829 127.297 255.646 129.567C255.605 129.999 255.628 130.436 255.714 130.861C254.757 131.579 253.743 132.212 252.685 132.752L252.307 132.933ZM258.363 125.254C258.637 124.974 258.803 124.925 258.849 124.925L258.86 124.929C258.886 124.936 259.004 125.084 259.058 125.557C259.26 127.316 257.956 128.965 256.479 130.24C256.368 128.556 257.445 126.181 258.363 125.254Z" fill="white"/>
<path id="Path_3" d="M199.146 143.629L175.91 146.61C175.432 146.672 174.949 146.549 174.567 146.269C174.185 145.989 173.935 145.576 173.873 145.12C173.808 144.664 173.936 144.202 174.229 143.836C174.522 143.471 174.956 143.233 175.434 143.174L198.67 140.193C199.147 140.132 199.631 140.255 200.013 140.534C200.395 140.814 200.645 141.228 200.707 141.684C200.771 142.14 200.642 142.601 200.35 142.966C200.057 143.331 199.624 143.57 199.146 143.629Z" fill="white"/>
</g>
</g>
</g>
</svg>
