<svg width="32" height="32" viewBox="0 0 32 32" fill="none" xmlns="http://www.w3.org/2000/svg">
<path d="M16 1C24.2843 1 31 7.71573 31 16C31 23.6768 25.2329 30.0056 17.7949 30.8926V20.5547H21.8496L21.8633 20.5684L22.708 15.9932H17.8086V14.374C17.8086 11.9526 18.7522 11.0234 21.2158 11.0234C23.6792 11.0234 22.5956 11.0379 22.9473 11.0801V6.92676C22.2715 6.74378 20.6389 6.56059 19.6816 6.56055C14.6699 6.56055 12.3604 8.92626 12.3604 14.0225V15.9932H9.26367V20.5684H12.3604V30.5537C5.83503 28.9271 1 23.0289 1 16C1 7.71573 7.71573 1 16 1Z" fill="#383B3E"/>
</svg>
