<?xml version="1.0" encoding="UTF-8"?>
<svg width="450px" height="250px" viewBox="0 0 450 250" version="1.1" xmlns="http://www.w3.org/2000/svg" xmlns:xlink="http://www.w3.org/1999/xlink">
    <!-- Generator: Sketch 62 (91390) - https://sketch.com -->
    <title>Illustrations/Grey/Documents/files-magnifying-glass-450x250</title>
    <desc>Created with Sketch.</desc>
    <g id="Illustrations/Grey/Documents/files-magnifying-glass-450x250" stroke="none" stroke-width="1" fill="none" fill-rule="evenodd">
        <path d="M305.542469,47.1167116 L207.626514,35.0373053 C204.956919,34.7082663 202.524521,36.5923955 202.193528,39.2457765 L200.019521,56.6615315 L145.643665,67.025811 L156.035693,120.905719 C152.142685,124.452974 149.023047,128.93176 147.097061,134.156934 C141.242441,150.03822 148.059377,167.436044 162.406645,175.456705 L148.50446,213.543191 C147.465032,216.391126 148.910311,219.58379 151.780576,220.602735 C151.813495,220.614391 151.846414,220.626046 151.879784,220.637253 C152.066475,220.701806 152.25497,220.759186 152.443916,220.809841 C155.218581,221.557576 158.104178,220.037452 159.084984,217.350898 L170.29142,186.650754 L233.78268,174.548934 L287.06274,181.121644 L299.318074,82.9452007 L306.819996,77.9159252 L309.960828,52.7534092 C310.306252,49.9839231 308.328858,47.4605439 305.542469,47.1167116" id="Shadow" fill="#D9DAD5"></path>
        <g id="Art" transform="translate(139.000000, 29.000000)">
            <path d="M153.9945,48.328785 L161.4807,43.280685 L164.6154,18.021285 C164.9601,15.241635 162.98595,12.708135 160.2063,12.363435 L149.93415,11.088585 L133.2144,145.820385 L141.76485,146.881935 L153.9945,48.328785 Z" id="Fill-4" fill="#8B1D41"></path>
            <g id="Group-8" transform="translate(41.400000, 0.000000)" fill="#C41F3E">
                <path d="M91.81449,145.82061 L4.37544,134.96976 C1.71189,134.63901 -0.17946,132.21216 0.15084,129.54816 L15.67359,4.46211 C16.00389,1.79856 18.43119,-0.09279 21.09519,0.23751 L108.53379,11.08836 L91.81449,145.82061 Z" id="Fill-6"></path>
            </g>
            <polygon id="Fill-9" fill="#FFFFFF" points="125.813655 133.147665 23.722155 152.722665 0.642105 32.348565 102.733605 12.774015"></polygon>
            <polygon id="Fill-11" fill="#BBBCBC" points="71.649315 38.610495 77.067765 32.313645 84.482415 36.162495 93.403665 82.924695 80.571015 85.373145"></polygon>
            <polygon id="Fill-13" fill="#BBBCBC" points="61.31142 70.254 66.72987 63.95715 74.14407 67.806 77.60367 85.9392 64.77102 88.3872"></polygon>
            <polygon id="Fill-15" fill="#BBBCBC" points="42.156315 55.68219 47.574765 49.38534 54.988965 53.23374 61.803765 88.95384 48.971115 91.40184"></polygon>
            <polygon id="Fill-17" fill="#BBBCBC" points="28.23093 68.522535 33.64938 62.225685 41.06403 66.074085 46.00368 91.967985 33.17103 94.415985"></polygon>
            <path d="M56.77515,119.696895 C52.23645,132.205545 38.4165,138.666195 25.90785,134.127045 C13.3992,129.587895 6.93855,115.768845 11.4777,103.260195 C16.01685,90.751545 29.83635,84.290895 42.345,88.830045 C54.85365,93.368745 61.3143,107.188245 56.77515,119.696895 M44.9838,79.133895 C27.56745,73.276245 8.415,82.483695 2.0925,99.737145 C-3.7494,115.678845 3.0528,133.144245 17.37045,141.194745 L3.49695,179.427195 C2.4597,182.286495 3.90195,185.490945 6.76665,186.513795 C6.79905,186.525945 6.83235,186.537195 6.8652,186.548895 C7.0515,186.613245 7.2396,186.670845 7.42815,186.721695 C10.19745,187.472295 13.077,185.946795 14.0553,183.249945 L27.9261,145.025145 C44.0397,148.023045 60.4233,139.030695 66.19815,123.116445 C72.7191,105.145245 63.20655,85.262895 44.9838,79.133895" id="Fill-19" fill="#C41F3E"></path>
            <path d="M44.983755,79.13403 C63.206955,85.26303 72.719055,105.14538 66.198105,123.11613 C60.423255,139.03083 44.039655,148.02318 27.926055,145.02528 L25.238205,152.43183 L26.267355,152.23428 L28.514655,146.04183 C30.368655,146.34423 32.253255,146.49768 34.127955,146.49768 L34.129305,146.49768 C48.808305,146.49768 62.036055,137.22453 67.044105,123.42348 C70.288155,114.48333 69.800355,104.84073 65.670255,96.27183 C61.541505,87.70608 54.296955,81.31698 45.270855,78.28083 C41.698305,77.07978 37.982205,76.47048 34.225605,76.47048 C25.416405,76.47048 17.127405,79.78923 10.814805,85.40433 L11.012355,86.43483 C19.905255,78.28353 32.862105,75.05703 44.983755,79.13403" id="Fill-21" fill="#FFFFFF"></path>
            <path d="M34.127955,88.278165 C36.820755,88.278165 39.482055,88.748415 42.038055,89.675865 C47.861955,91.789065 52.514055,96.043815 55.137555,101.656215 C57.761505,107.268165 58.042755,113.565915 55.929105,119.389815 C52.610805,128.534715 43.848405,134.678565 34.124805,134.678565 C31.432005,134.678565 28.770705,134.208315 26.215155,133.281315 C23.591205,132.329565 21.244005,130.949865 19.221705,129.250665 L19.484055,130.618215 C21.386205,132.072615 23.537655,133.267365 25.907805,134.127315 C38.416455,138.666465 52.236405,132.205365 56.775105,119.696715 C61.314255,107.188065 54.853605,93.369015 42.344955,88.829865 C31.303305,84.823065 19.244205,89.391015 13.445055,99.120465 L13.706955,100.488465 C17.707905,93.070665 25.541955,88.278165 34.127955,88.278165" id="Fill-23" fill="#FFFFFF"></path>
            <polygon id="Fill-25" fill="#8B1D41" points="15.86997 178.249185 5.31432 174.418785 7.45542 168.518835 18.01062 172.349235"></polygon>
        </g>
    </g>
</svg>