<svg width="450" height="250" viewBox="0 0 450 250" fill="none" xmlns="http://www.w3.org/2000/svg">
<path fill-rule="evenodd" clip-rule="evenodd" d="M283.979 176.244L247.57 49.6644C246.96 47.542 244.746 46.3173 242.624 46.9272L149.507 73.7112C147.385 74.3221 146.16 76.5368 146.77 78.6582L183.179 205.237C183.789 207.359 186.004 208.585 188.126 207.975L281.242 181.191C283.364 180.58 284.589 178.365 283.979 176.244" fill="#BCE4E3"/>
<path fill-rule="evenodd" clip-rule="evenodd" d="M307.415 138.334V146.798C307.415 147.189 307.098 147.508 306.704 147.508H305.555V157.892C305.555 159.037 304.618 159.973 303.474 159.973H255.643C254.498 159.973 253.562 159.037 253.562 157.892V127.072C253.562 125.929 254.498 124.992 255.643 124.992H303.474C304.618 124.992 305.555 125.929 305.555 127.072V137.624H306.704C307.098 137.624 307.415 137.942 307.415 138.334" fill="#BCE4E3"/>
<path fill-rule="evenodd" clip-rule="evenodd" d="M299.263 121.333L265.04 133.963C264.382 134.205 263.649 133.868 263.407 133.21L255.443 111.628C255.199 110.97 255.536 110.238 256.195 109.995L290.418 97.3649C291.077 97.1212 291.808 97.4582 292.052 98.1172L300.017 119.699C300.259 120.358 299.922 121.09 299.263 121.333" fill="#BCE4E3"/>
<path fill-rule="evenodd" clip-rule="evenodd" d="M276.996 178.284L183.879 205.067C181.758 205.678 179.543 204.453 178.932 202.332L142.524 75.7518C141.913 73.6304 143.139 71.4157 145.26 70.8058L238.378 44.0218C240.5 43.4109 242.715 44.6366 243.325 46.758L279.734 173.337C280.343 175.46 279.118 177.674 276.996 178.284" fill="white"/>
<path fill-rule="evenodd" clip-rule="evenodd" d="M204.526 96.0887L160.426 108.8C158.156 109.454 155.784 108.145 155.13 105.874L147.188 78.3209C146.533 76.05 147.843 73.6789 150.114 73.0249L194.214 60.3124C196.483 59.6584 198.856 60.9674 199.51 63.2383L207.453 90.7927C208.107 93.0615 206.797 95.4337 204.526 96.0887" fill="#C41F3E"/>
<path fill-rule="evenodd" clip-rule="evenodd" d="M256.898 121.884L171.177 146.593C169.039 147.209 166.805 145.975 166.188 143.836L159.194 119.569C158.577 117.43 159.811 115.196 161.949 114.58L247.67 89.8698C249.809 89.253 252.043 90.4867 252.66 92.6272L259.655 116.893C260.271 119.032 259.037 121.267 256.898 121.884" fill="#D9D9D6"/>
<path fill-rule="evenodd" clip-rule="evenodd" d="M272.456 175.862L186.736 200.571C184.596 201.188 182.364 199.953 181.747 197.815L176.678 180.23C176.062 178.091 177.295 175.857 179.435 175.241L265.155 150.532C267.295 149.916 269.529 151.148 270.144 153.289L275.214 170.871C275.83 173.011 274.596 175.245 272.456 175.862" fill="#D9D9D6"/>
<path fill-rule="evenodd" clip-rule="evenodd" d="M261.018 133.789L174.025 158.866C172.236 159.381 170.371 158.349 169.855 156.562C169.341 154.775 170.371 152.909 172.158 152.393L259.153 127.316C260.94 126.801 262.807 127.833 263.322 129.62C263.838 131.407 262.806 133.273 261.018 133.789" fill="#D9D9D6"/>
<path fill-rule="evenodd" clip-rule="evenodd" d="M240.742 63.8349L210.575 72.5302C208.788 73.0458 206.921 72.0136 206.406 70.2272C205.891 68.4398 206.922 66.5722 208.709 66.0576L238.877 57.3623C240.663 56.8467 242.53 57.8779 243.045 59.6663C243.561 61.4527 242.529 63.3193 240.742 63.8349" fill="#8B1D41"/>
<path fill-rule="evenodd" clip-rule="evenodd" d="M243.905 74.8135L213.739 83.5088C211.953 84.0243 210.085 82.9932 209.57 81.2058C209.055 79.4184 210.086 77.5518 211.873 77.0372L242.041 68.3409C243.827 67.8263 245.694 68.8574 246.209 70.6448C246.725 72.4323 245.693 74.2979 243.905 74.8135" fill="#8B1D41"/>
<path fill-rule="evenodd" clip-rule="evenodd" d="M264.175 144.731L177.181 169.808C175.392 170.324 173.527 169.292 173.011 167.505C172.497 165.717 173.528 163.851 175.314 163.337L262.31 138.26C264.097 137.744 265.963 138.775 266.478 140.563C266.994 142.35 265.962 144.216 264.175 144.731" fill="#D9D9D6"/>
<path fill-rule="evenodd" clip-rule="evenodd" d="M197.915 67.7444C197.629 67.628 197.305 67.7664 197.189 68.0513L189.224 87.7219C189.166 87.7198 189.11 87.7158 189.051 87.7219C188.813 87.7439 188.598 87.8322 188.414 87.9576L177.251 79.2552C177.305 79.0837 177.326 78.8981 177.307 78.7086C177.234 77.9513 176.56 77.3976 175.802 77.4718C175.045 77.545 174.492 78.2191 174.567 78.9764C174.587 79.19 174.66 79.3846 174.765 79.5571L173.342 83.4108C173.204 83.4068 173.064 83.4178 172.925 83.4579C172.509 83.5773 172.198 83.8792 172.042 84.2493L170.672 84.2182C170.439 83.5211 169.7 83.1219 168.988 83.3275C168.258 83.5382 167.835 84.3015 168.046 85.0317C168.132 85.3306 168.313 85.5733 168.544 85.7469L165.774 94.4332C165.692 94.4412 165.61 94.4542 165.527 94.4773C165.279 94.5505 165.07 94.6879 164.906 94.8645L160.335 92.9948C160.343 92.8444 160.333 92.6909 160.289 92.5384C160.077 91.8072 159.315 91.3859 158.583 91.5966C157.853 91.8072 157.432 92.5705 157.643 93.3007C157.728 93.5966 157.905 93.8384 158.133 94.0109L156.816 100.395C156.755 100.696 156.947 100.991 157.249 101.053C157.342 101.072 157.432 101.067 157.516 101.042C157.709 100.987 157.864 100.83 157.907 100.619L159.217 94.2657C159.26 94.2586 159.304 94.2556 159.347 94.2426C159.528 94.1904 159.691 94.1032 159.828 93.9918L164.537 95.9177C164.544 96.0059 164.559 96.0952 164.586 96.1835C164.795 96.9137 165.558 97.335 166.29 97.1243C167.021 96.9137 167.442 96.1504 167.232 95.4202C167.158 95.1644 167.014 94.9507 166.831 94.7842L169.635 85.9956C169.673 85.9876 169.712 85.9856 169.75 85.9746C170.11 85.8702 170.394 85.6325 170.565 85.3296L172.064 85.3647C172.347 85.9665 173.028 86.2945 173.688 86.105C174.418 85.8933 174.84 85.13 174.629 84.3988C174.574 84.2052 174.476 84.0347 174.353 83.8913L175.717 80.1971C175.832 80.2161 175.95 80.2242 176.071 80.2131C176.228 80.1981 176.373 80.1509 176.509 80.0887L187.822 88.9105C187.809 89.0128 187.803 89.1191 187.814 89.2264C187.888 89.9827 188.562 90.5364 189.318 90.4621C190.076 90.3879 190.628 89.7149 190.555 88.9576C190.527 88.6667 190.409 88.4079 190.232 88.2013L198.222 68.4696C198.338 68.1837 198.2 67.8587 197.915 67.7444" fill="white"/>
<path fill-rule="evenodd" clip-rule="evenodd" d="M297.915 118.593L289.951 97.0103C289.707 96.3523 288.977 96.0152 288.318 96.258L254.094 108.888C253.434 109.131 253.097 109.863 253.341 110.522L257.82 122.658H290.572L297.163 120.226C297.822 119.983 298.159 119.251 297.915 118.593" fill="#C41F3E"/>
<path fill-rule="evenodd" clip-rule="evenodd" d="M264.551 118.412L261.242 119.627C260.768 119.8 260.238 119.556 260.063 119.081L258.986 116.144C258.811 115.671 259.057 115.14 259.532 114.966L262.841 113.752C263.315 113.579 263.845 113.823 264.019 114.297L265.096 117.235C265.271 117.708 265.025 118.238 264.551 118.412" fill="white"/>
<path fill-rule="evenodd" clip-rule="evenodd" d="M272.941 122.658L274.072 122.238C274.597 122.045 274.865 121.461 274.672 120.938C274.477 120.414 273.894 120.145 273.37 120.339L270.048 121.57C269.594 121.738 269.333 122.198 269.396 122.658H272.941Z" fill="white"/>
<path fill-rule="evenodd" clip-rule="evenodd" d="M277.069 118.982C276.544 119.175 276.275 119.759 276.469 120.284C276.664 120.807 277.246 121.076 277.771 120.882L281.093 119.651C281.618 119.456 281.885 118.873 281.692 118.349C281.498 117.825 280.915 117.556 280.391 117.75L277.069 118.982Z" fill="white"/>
<path fill-rule="evenodd" clip-rule="evenodd" d="M284.088 116.393C283.563 116.586 283.296 117.171 283.488 117.695C283.683 118.219 284.267 118.487 284.79 118.293L288.112 117.062C288.637 116.868 288.906 116.284 288.711 115.761C288.517 115.236 287.934 114.967 287.41 115.162L284.088 116.393Z" fill="white"/>
<path fill-rule="evenodd" clip-rule="evenodd" d="M301.74 158.239H253.908C252.765 158.239 251.828 157.302 251.828 156.157V125.338C251.828 124.194 252.765 123.258 253.908 123.258H301.74C302.885 123.258 303.821 124.194 303.821 125.338V156.157C303.821 157.302 302.885 158.239 301.74 158.239" fill="#C41F3E"/>
<path fill-rule="evenodd" clip-rule="evenodd" d="M289.516 140.832V140.832C289.516 143.561 291.728 145.774 294.458 145.774H304.969C305.362 145.774 305.68 145.455 305.68 145.063V136.6C305.68 136.208 305.362 135.89 304.969 135.89H294.458C291.728 135.89 289.516 138.102 289.516 140.832" fill="#8B1D41"/>
<path fill-rule="evenodd" clip-rule="evenodd" d="M252.611 157.779L303.496 124.231C303.126 123.648 302.477 123.258 301.739 123.258H253.908C252.764 123.258 251.828 124.194 251.828 125.338V156.157C251.828 156.812 252.135 157.397 252.611 157.779" fill="#8B1D41"/>
<path fill-rule="evenodd" clip-rule="evenodd" d="M294.756 137.966C293.174 137.966 291.891 139.249 291.891 140.831C291.891 142.415 293.174 143.698 294.756 143.698C296.339 143.698 297.622 142.415 297.622 140.831C297.622 139.249 296.339 137.966 294.756 137.966" fill="#D9D9D6"/>
</svg>
