<?xml version="1.0" encoding="UTF-8"?>
<svg width="450px" height="250px" viewBox="0 0 450 250" version="1.1" xmlns="http://www.w3.org/2000/svg" xmlns:xlink="http://www.w3.org/1999/xlink">
    <!-- Generator: Sketch 63.1 (92452) - https://sketch.com -->
    <title>Illustrations/Teal/Documents/financial-wellness-450x250</title>
    <desc>Created with Sketch.</desc>
    <g id="Illustrations/Teal/Documents/financial-wellness-450x250" stroke="none" stroke-width="1" fill="none" fill-rule="evenodd">
        <path d="M280.5767,176.0523 L244.2777,49.8563 C243.6697,47.7403 241.4617,46.5193 239.3467,47.1273 L146.5117,73.8303 C144.3957,74.4393 143.1747,76.6473 143.7827,78.7623 L180.0817,204.9583 C180.6897,207.0733 182.8977,208.2953 185.0137,207.6873 L277.8477,180.9843 C279.9637,180.3753 281.1847,178.1673 280.5767,176.0523" id="Fill-2" fill="#BBE3E2"></path>
        <path d="M303.938,138.2574 L303.938,146.6954 C303.938,147.0854 303.622,147.4034 303.23,147.4034 L302.084,147.4034 L302.084,157.7564 C302.084,158.8974 301.15,159.8304 300.009,159.8304 L252.323,159.8304 C251.182,159.8304 250.249,158.8974 250.249,157.7564 L250.249,127.0294 C250.249,125.8894 251.182,124.9554 252.323,124.9554 L300.009,124.9554 C301.15,124.9554 302.084,125.8894 302.084,127.0294 L302.084,137.5494 L303.23,137.5494 C303.622,137.5494 303.938,137.8664 303.938,138.2574" id="Fill-4" fill="#BBE3E2"></path>
        <path d="M295.813,121.3072 L261.693,133.8992 C261.037,134.1412 260.307,133.8052 260.065,133.1492 L252.125,111.6322 C251.882,110.9762 252.218,110.2462 252.875,110.0042 L286.995,97.4122 C287.652,97.1692 288.38,97.5052 288.624,98.1622 L296.564,119.6782 C296.806,120.3352 296.47,121.0652 295.813,121.3072" id="Fill-6" fill="#BBE3E2"></path>
        <path d="M273.6148,178.0865 L180.7798,204.7885 C178.6648,205.3975 176.4568,204.1765 175.8478,202.0615 L139.5498,75.8645 C138.9408,73.7495 140.1628,71.5415 142.2778,70.9335 L235.1138,44.2305 C237.2288,43.6215 239.4368,44.8435 240.0458,46.9585 L276.3438,173.1545 C276.9518,175.2705 275.7298,177.4785 273.6148,178.0865" id="Fill-8" fill="#FFFFFF"></path>
        <path d="M201.3638,96.1402 L157.3978,108.8132 C155.1348,109.4652 152.7698,108.1602 152.1178,105.8962 L144.1998,78.4262 C143.5468,76.1622 144.8528,73.7982 147.1168,73.1462 L191.0828,60.4722 C193.3458,59.8202 195.7108,61.1252 196.3628,63.3892 L204.2818,90.8602 C204.9338,93.1222 203.6278,95.4872 201.3638,96.1402" id="Fill-10" fill="#C41F3E"></path>
        <path d="M253.5748,121.857 L168.1138,146.491 C165.9818,147.106 163.7548,145.875 163.1398,143.743 L156.1668,119.549 C155.5518,117.417 156.7818,115.189 158.9138,114.575 L244.3748,89.94 C246.5078,89.325 248.7348,90.555 249.3498,92.689 L256.3238,116.881 C256.9378,119.014 255.7078,121.242 253.5748,121.857" id="Fill-12" fill="#F2F3F2"></path>
        <path d="M269.0875,175.6724 L183.6265,200.3064 C181.4935,200.9214 179.2675,199.6904 178.6525,197.5584 L173.5995,180.0274 C172.9845,177.8944 174.2145,175.6674 176.3475,175.0534 L261.8085,150.4184 C263.9415,149.8044 266.1685,151.0334 266.7825,153.1674 L271.8365,170.6964 C272.4505,172.8294 271.2205,175.0574 269.0875,175.6724" id="Fill-14" fill="#F2F3F2"></path>
        <path d="M257.6841,133.7261 L170.9541,158.7271 C169.1711,159.2411 167.3111,158.2121 166.7971,156.4301 C166.2841,154.6491 167.3111,152.7881 169.0931,152.2741 L255.8251,127.2731 C257.6061,126.7591 259.4671,127.7881 259.9811,129.5701 C260.4951,131.3511 259.4661,133.2121 257.6841,133.7261" id="Fill-16" fill="#F2F3F2"></path>
        <path d="M237.4693,63.984 L207.3933,72.653 C205.6123,73.167 203.7503,72.138 203.2373,70.357 C202.7233,68.575 203.7513,66.713 205.5333,66.2 L235.6093,57.531 C237.3903,57.017 239.2513,58.045 239.7653,59.828 C240.2793,61.609 239.2503,63.47 237.4693,63.984" id="Fill-18" fill="#8B1D41"></path>
        <path d="M240.6236,74.9293 L210.5486,83.5983 C208.7676,84.1123 206.9056,83.0843 206.3926,81.3023 C205.8786,79.5203 206.9066,77.6593 208.6886,77.1463 L238.7646,68.4763 C240.5456,67.9633 242.4066,68.9913 242.9206,70.7733 C243.4346,72.5553 242.4056,74.4153 240.6236,74.9293" id="Fill-20" fill="#8B1D41"></path>
        <path d="M260.8297,144.6353 L174.0987,169.6363 C172.3157,170.1503 170.4557,169.1213 169.9417,167.3403 C169.4287,165.5573 170.4567,163.6973 172.2377,163.1843 L258.9697,138.1833 C260.7517,137.6693 262.6117,138.6973 263.1257,140.4793 C263.6397,142.2613 262.6107,144.1213 260.8297,144.6353" id="Fill-22" fill="#F2F3F2"></path>
        <path d="M194.7701,67.8814 C194.4841,67.7654 194.1611,67.9034 194.0461,68.1874 L186.1051,87.7984 C186.0471,87.7964 185.9911,87.7924 185.9321,87.7984 C185.6951,87.8204 185.4811,87.9084 185.2971,88.0334 L174.1681,79.3574 C174.2221,79.1864 174.2431,79.0014 174.2241,78.8124 C174.1511,78.0574 173.4791,77.5054 172.7241,77.5794 C171.9691,77.6524 171.4171,78.3244 171.4921,79.0794 C171.5121,79.2924 171.5851,79.4864 171.6901,79.6584 L170.2711,83.5004 C170.1331,83.4964 169.9941,83.5074 169.8551,83.5474 C169.4401,83.6664 169.1301,83.9674 168.9751,84.3364 L167.6091,84.3054 C167.3771,83.6104 166.6401,83.2124 165.9301,83.4174 C165.2021,83.6274 164.7811,84.3884 164.9911,85.1164 C165.0771,85.4144 165.2571,85.6564 165.4871,85.8294 L162.7261,94.4894 C162.6441,94.4974 162.5621,94.5104 162.4801,94.5334 C162.2321,94.6064 162.0241,94.7434 161.8601,94.9194 L157.3031,93.0554 C157.3111,92.9054 157.3011,92.7524 157.2571,92.6004 C157.0461,91.8714 156.2861,91.4514 155.5571,91.6614 C154.8291,91.8714 154.4091,92.6324 154.6191,93.3604 C154.7041,93.6554 154.8811,93.8964 155.1081,94.0684 L153.7951,100.4334 C153.7341,100.7334 153.9261,101.0274 154.2271,101.0894 C154.3191,101.1084 154.4091,101.1034 154.4931,101.0784 C154.6851,101.0234 154.8401,100.8664 154.8831,100.6564 L156.1891,94.3224 C156.2321,94.3154 156.2751,94.3124 156.3181,94.2994 C156.4991,94.2474 156.6611,94.1604 156.7981,94.0494 L161.4931,95.9694 C161.5001,96.0574 161.5151,96.1464 161.5411,96.2344 C161.7501,96.9624 162.5111,97.3824 163.2401,97.1724 C163.9691,96.9624 164.3891,96.2014 164.1791,95.4734 C164.1061,95.2184 163.9621,95.0054 163.7801,94.8394 L166.5751,86.0774 C166.6131,86.0694 166.6521,86.0674 166.6901,86.0564 C167.0491,85.9524 167.3321,85.7154 167.5021,85.4134 L168.9971,85.4484 C169.2791,86.0484 169.9581,86.3754 170.6161,86.1864 C171.3441,85.9754 171.7641,85.2144 171.5541,84.4854 C171.4991,84.2924 171.4021,84.1224 171.2791,83.9794 L172.6391,80.2964 C172.7531,80.3154 172.8711,80.3234 172.9921,80.3124 C173.1481,80.2974 173.2931,80.2504 173.4281,80.1884 L184.7071,88.9834 C184.6941,89.0854 184.6881,89.1914 184.6991,89.2984 C184.7731,90.0524 185.4451,90.6044 186.1991,90.5304 C186.9541,90.4564 187.5051,89.7854 187.4321,89.0304 C187.4041,88.7404 187.2861,88.4824 187.1101,88.2764 L195.0761,68.6044 C195.1911,68.3194 195.0541,67.9954 194.7701,67.8814" id="Fill-24" fill="#FFFFFF"></path>
        <path d="M294.4673,118.5758 L286.5273,97.0588 C286.2843,96.4028 285.5563,96.0668 284.8993,96.3088 L250.7793,108.9008 C250.1213,109.1428 249.7853,109.8728 250.0283,110.5298 L254.4933,122.6288 L287.1463,122.6288 L293.7173,120.2038 C294.3743,119.9618 294.7103,119.2318 294.4673,118.5758" id="Fill-26" fill="#C41F3E"></path>
        <path d="M261.2056,118.3961 L257.9066,119.6071 C257.4346,119.7801 256.9056,119.5361 256.7316,119.0631 L255.6576,116.1351 C255.4836,115.6631 255.7286,115.1341 256.2016,114.9601 L259.5006,113.7501 C259.9736,113.5771 260.5016,113.8211 260.6756,114.2931 L261.7496,117.2221 C261.9236,117.6941 261.6786,118.2221 261.2056,118.3961" id="Fill-28" fill="#FFFFFF"></path>
        <path d="M269.5718,122.6285 L270.6998,122.2105 C271.2228,122.0175 271.4898,121.4355 271.2978,120.9135 C271.1038,120.3915 270.5218,120.1235 269.9998,120.3165 L266.6878,121.5445 C266.2348,121.7115 265.9748,122.1705 266.0378,122.6285 L269.5718,122.6285 Z" id="Fill-30" fill="#FFFFFF"></path>
        <path d="M273.6861,118.9635 C273.1631,119.1565 272.8951,119.7385 273.0881,120.2615 C273.2821,120.7835 273.8631,121.0515 274.3861,120.8585 L277.6981,119.6305 C278.2211,119.4365 278.4881,118.8555 278.2951,118.3325 C278.1021,117.8105 277.5201,117.5425 276.9981,117.7355 L273.6861,118.9635 Z" id="Fill-32" fill="#FFFFFF"></path>
        <path d="M280.6841,116.3824 C280.1611,116.5754 279.8941,117.1584 280.0861,117.6804 C280.2801,118.2034 280.8621,118.4704 281.3841,118.2774 L284.6961,117.0494 C285.2191,116.8564 285.4871,116.2744 285.2931,115.7524 C285.1001,115.2294 284.5181,114.9614 283.9961,115.1554 L280.6841,116.3824 Z" id="Fill-34" fill="#FFFFFF"></path>
        <path d="M298.2808,158.1021 L250.5938,158.1021 C249.4538,158.1021 248.5198,157.1681 248.5198,156.0271 L248.5198,125.3011 C248.5198,124.1601 249.4538,123.2271 250.5938,123.2271 L298.2808,123.2271 C299.4218,123.2271 300.3548,124.1601 300.3548,125.3011 L300.3548,156.0271 C300.3548,157.1681 299.4218,158.1021 298.2808,158.1021" id="Fill-36" fill="#C41F3E"></path>
        <path d="M286.0943,140.7476 L286.0943,140.7476 C286.0943,143.4686 288.3003,145.6746 291.0213,145.6746 L301.5013,145.6746 C301.8923,145.6746 302.2093,145.3566 302.2093,144.9666 L302.2093,136.5286 C302.2093,136.1376 301.8923,135.8206 301.5013,135.8206 L291.0213,135.8206 C288.3003,135.8206 286.0943,138.0266 286.0943,140.7476" id="Fill-38" fill="#8B1D41"></path>
        <path d="M249.3013,157.6441 L300.0313,124.1971 C299.6633,123.6161 299.0163,123.2271 298.2803,123.2271 L250.5943,123.2271 C249.4533,123.2271 248.5203,124.1601 248.5203,125.3011 L248.5203,156.0271 C248.5203,156.6801 248.8263,157.2631 249.3013,157.6441" id="Fill-40" fill="#8B1D41"></path>
        <path d="M291.3179,137.8902 C289.7399,137.8902 288.4609,139.1692 288.4609,140.7472 C288.4609,142.3262 289.7399,143.6052 291.3179,143.6052 C292.8959,143.6052 294.1749,142.3262 294.1749,140.7472 C294.1749,139.1692 292.8959,137.8902 291.3179,137.8902" id="Fill-42" fill="#F2F3F2"></path>
    </g>
</svg>