<?xml version="1.0" encoding="UTF-8"?>
<svg width="256px" height="256px" viewBox="0 0 256 256" version="1.1" xmlns="http://www.w3.org/2000/svg" xmlns:xlink="http://www.w3.org/1999/xlink">
    <!-- Generator: Sketch 56.3 (81716) - https://sketch.com -->
    <title>Icons/Illustrative/tech/fingerprint-256x256</title>
    <desc>Created with Sketch.</desc>
    <g id="Icons/Illustrative/tech/fingerprint-256x256" stroke="none" stroke-width="1" fill="none" fill-rule="evenodd">
        <g id="Icons/Illustrative/Oval" fill="#F2F3F2">
            <circle id="Oval" cx="128" cy="128" r="128"></circle>
        </g>
        <g id="Group" transform="translate(56.000200, 55.000255)">
            <path d="M52.6768,146.455545 C50.7368,146.455545 48.8918,145.320545 48.0788,143.425545 C46.9938,140.893545 48.1598,137.962545 50.6838,136.867545 C51.6708,136.434545 74.8968,125.880545 79.5058,93.0845453 C79.8888,90.3495453 82.4178,88.4425453 85.1518,88.8285453 C87.8858,89.2125453 89.7918,91.7405453 89.4078,94.4765453 C83.9878,133.049545 55.8408,145.536545 54.6448,146.049545 C54.0028,146.324545 53.3338,146.455545 52.6768,146.455545" id="Fill-1" fill="#C4203F"></path>
            <path d="M84.4605,146.455545 C82.6835,146.455545 80.9625,145.505545 80.0585,143.832545 C78.7485,141.411545 79.6435,138.389545 82.0545,137.068545 C82.5265,136.804545 92.0285,131.325545 95.5095,117.947545 C96.2045,115.274545 98.9395,113.673545 101.6065,114.367545 C104.2785,115.062545 105.8825,117.792545 105.1875,120.465545 C100.5585,138.256545 87.3925,145.551545 86.8345,145.852545 C86.0785,146.261545 85.2645,146.455545 84.4605,146.455545" id="Fill-3" fill="#C4203F"></path>
            <path d="M24.0733,136.920445 C22.1883,136.920445 20.3833,135.849445 19.5363,134.027445 C18.3713,131.524445 19.4573,128.550445 21.9613,127.385445 L23.7323,126.566445 C37.0403,120.431445 55.2663,112.026445 63.7643,82.8474453 C64.5363,80.1954453 67.3123,78.6724453 69.9633,79.4444453 C72.6153,80.2174453 74.1383,82.9914453 73.3653,85.6434453 C63.5933,119.199445 42.1253,129.098445 27.9193,135.648445 L26.1783,136.452445 C25.4963,136.770445 24.7793,136.920445 24.0733,136.920445" id="Fill-5" fill="#C4203F"></path>
            <path d="M119.4214,121.028845 C119.0354,121.028845 118.6454,120.984845 118.2534,120.890845 C115.5674,120.248845 113.9114,117.549845 114.5544,114.864845 C118.1364,99.8968453 120.9264,66.2128453 105.8514,45.8618453 C98.1704,35.4948453 86.5934,29.7708453 71.4404,28.8488453 C68.6834,28.6808453 66.5854,26.3108453 66.7524,23.5538453 C66.9204,20.7978453 69.2984,18.6998453 72.0474,18.8668453 C90.2884,19.9768453 104.3644,27.0568453 113.8864,39.9098453 C121.7154,50.4788453 126.1904,64.5518453 127.1884,81.7398453 C128.1974,99.1378453 125.2174,113.273845 124.2794,117.191845 C123.7314,119.485845 121.6814,121.028845 119.4214,121.028845" id="Fill-7" fill="#8B1D41"></path>
            <path d="M8.1783,117.850145 C5.4173,117.850145 3.1783,115.611145 3.1783,112.850145 C3.1783,110.088145 5.4173,107.850145 8.1783,107.850145 C17.6133,107.850145 33.5603,99.7441453 42.2613,87.6771453 C43.8783,85.4381453 47.0023,84.9321453 49.2423,86.5461453 C51.4823,88.1621453 51.9883,91.2871453 50.3733,93.5271453 C39.3933,108.751145 20.2973,117.850145 8.1783,117.850145" id="Fill-9" fill="#C4203F"></path>
            <path d="M103.5318,105.137245 C103.3958,105.137245 103.2588,105.131245 103.1208,105.119245 C100.3688,104.896245 98.3188,102.484245 98.5428,99.7312453 C99.8418,83.7602453 97.7358,61.9522453 87.5278,53.0532453 C85.4458,51.2382453 85.2298,48.0802453 87.0448,45.9982453 C88.8598,43.9172453 92.0168,43.7012453 94.0988,45.5152453 C110.4628,59.7812453 109.2658,91.2402453 108.5098,100.541245 C108.2978,103.156245 106.1088,105.137245 103.5318,105.137245" id="Fill-11" fill="#C4203F"></path>
            <path d="M5,95.6020453 C2.239,95.6020453 1.0658141e-13,93.3630453 1.0658141e-13,90.6020453 C1.0658141e-13,87.8400453 2.239,85.6020453 5,85.6020453 C20.949,85.6020453 31.072,72.5750453 35.229,60.3840453 C36.119,57.7690453 38.961,56.3720453 41.574,57.2650453 C44.188,58.1560453 45.584,60.9970453 44.693,63.6100453 C41.908,71.7800453 37.192,79.3090453 31.412,84.8100453 C23.995,91.8700453 14.862,95.6020453 5,95.6020453" id="Fill-13" fill="#C4203F"></path>
            <path d="M84.4566,80.0346453 C82.3906,80.0346453 80.4566,78.7446453 79.7366,76.6826453 C78.7186,73.7706453 75.5916,66.9966453 68.5646,66.9966453 C63.2946,66.9966453 60.9776,69.9306453 57.4696,76.9466453 C56.2346,79.4166453 53.2296,80.4176453 50.7616,79.1826453 C48.2906,77.9476453 47.2896,74.9446453 48.5246,72.4746453 C51.6066,66.3106453 56.2636,56.9966453 68.5646,56.9966453 C77.8846,56.9966453 85.5896,63.1226453 89.1766,73.3836453 C90.0876,75.9896453 88.7136,78.8426453 86.1056,79.7536453 C85.5606,79.9436453 85.0036,80.0346453 84.4566,80.0346453" id="Fill-15" fill="#C4203F"></path>
            <path d="M8.8062,76.5337453 C6.4732,76.5337453 4.3862,74.8907453 3.9092,72.5147453 C3.3662,69.8077453 5.1212,67.1727453 7.8282,66.6297453 C10.4972,66.0947453 12.3842,64.8587453 13.1432,63.1477453 C14.2622,60.6237453 17.2152,59.4837453 19.7412,60.6047453 C22.2652,61.7247453 23.4042,64.6787453 22.2842,67.2027453 C20.1722,71.9647453 15.7362,75.2437453 9.7942,76.4347453 C9.4632,76.5017453 9.1322,76.5337453 8.8062,76.5337453" id="Fill-17" fill="#8B1D41"></path>
            <path d="M138.481,76.5327453 C135.96,76.5327453 133.792,74.6317453 133.516,72.0667453 C131.429,52.6717453 121.433,32.3617453 110.264,24.8247453 C107.975,23.2797453 107.372,20.1717453 108.917,17.8827453 C110.461,15.5947453 113.568,14.9907453 115.858,16.5347453 C129.662,25.8497453 141.011,48.2457453 143.459,70.9977453 C143.753,73.7437453 141.767,76.2087453 139.022,76.5037453 C138.84,76.5227453 138.66,76.5327453 138.481,76.5327453" id="Fill-19" fill="#8B1D41"></path>
            <path d="M27.2437,54.2846453 C26.2907,54.2846453 25.3277,54.0136453 24.4757,53.4456453 C22.1777,51.9136453 21.5567,48.8096453 23.0867,46.5116453 C28.8837,37.8116453 39.0497,26.3296453 54.5607,21.0376453 C57.1747,20.1456453 60.0157,21.5416453 60.9077,24.1556453 C61.7997,26.7686453 60.4037,29.6106453 57.7897,30.5016453 C44.9327,34.8886453 36.3477,44.6446453 31.4097,52.0566453 C30.4457,53.5026453 28.8597,54.2846453 27.2437,54.2846453" id="Fill-22" fill="#8B1D41"></path>
            <path d="M52.6778,54.2841453 C51.2098,54.2841453 49.7568,53.6411453 48.7688,52.4071453 C47.0448,50.2501453 47.3948,47.1031453 49.5518,45.3791453 C54.6258,41.3221453 62.1368,36.8091453 75.3498,37.9461453 C78.1008,38.1821453 80.1398,40.6041453 79.9028,43.3561453 C79.6678,46.1071453 77.2528,48.1511453 74.4938,47.9091453 C64.8938,47.0871453 59.8358,49.9601453 55.7968,53.1891453 C54.8748,53.9261453 53.7728,54.2841453 52.6778,54.2841453" id="Fill-24" fill="#C4203F"></path>
            <path d="M10.0855,48.2514453 C9.2185,48.2514453 8.3405,48.0254453 7.5415,47.5514453 C5.1655,46.1444453 4.3805,43.0764453 5.7895,40.7014453 C12.6255,29.1664453 21.2845,19.7054453 30.8315,13.3414453 C33.1285,11.8094453 36.2325,12.4304453 37.7645,14.7284453 C39.2965,17.0254453 38.6755,20.1294453 36.3775,21.6614453 C28.0715,27.1994453 20.4685,35.5464453 14.3915,45.7994453 C13.4575,47.3754453 11.7935,48.2514453 10.0855,48.2514453" id="Fill-26" fill="#8B1D41"></path>
            <path d="M97.4898,15.8237453 C96.8088,15.8237453 96.1178,15.6837453 95.4558,15.3887453 C81.7918,9.29574535 64.5138,8.23974535 51.4328,12.6987453 C48.8178,13.5897453 45.9778,12.1947453 45.0868,9.58074535 C44.1958,6.96774535 45.5918,4.12574535 48.2048,3.23474535 C63.5418,-1.99525465 83.6868,-0.809254651 99.5288,6.25574535 C102.0518,7.38074535 103.1838,10.3367453 102.0588,12.8587453 C101.2288,14.7197453 99.4028,15.8237453 97.4898,15.8237453" id="Fill-28" fill="#8B1D41"></path>
        </g>
    </g>
</svg>