<?xml version="1.0" encoding="UTF-8"?>
<svg width="256px" height="256px" viewBox="0 0 256 256" version="1.1" xmlns="http://www.w3.org/2000/svg" xmlns:xlink="http://www.w3.org/1999/xlink">
    <!-- Generator: Sketch 63.1 (92452) - https://sketch.com -->
    <title>Icons/Illustrative/currency/forign-currency-2-256x256</title>
    <desc>Created with Sketch.</desc>
    <g id="Icons/Illustrative/currency/forign-currency-2-256x256" stroke="none" stroke-width="1" fill="none" fill-rule="evenodd">
        <g id="Icons/Illustrative/Oval" fill="#F2F3F2">
            <circle id="Oval" cx="128" cy="128" r="128"></circle>
        </g>
        <g id="Art" transform="translate(36.000000, 69.000000)">
            <g id="Group-31" transform="translate(90.000000, 0.627761)">
                <polygon id="Fill-26" fill="#C41F3E" points="74.0450877 54.3722393 -4.35000002e-05 42.4200073 6.95482535 0.372239335 80.9999565 12.3244714"></polygon>
                <polygon id="Fill-28" fill="#8B1D41" points="18.0749533 45.3722393 -4.35000002e-05 42.4407188 6.92495967 0.372239335 24.9999565 3.30404624"></polygon>
                <polygon id="Fill-30" fill="#8B1D41" points="61.1972753 52.3722393 44.9999565 49.682504 51.8026377 7.37223933 67.9999565 10.0619746"></polygon>
                <path d="M48.5258992,37.7567944 C47.5708145,38.2052404 46.0321647,38.5598531 44.1983549,38.2629611 C41.9480906,37.8985803 40.0860864,36.7068684 38.9553741,34.8577318 C38.087222,33.5103218 37.6513838,31.7736666 37.7224572,29.7170312 L35.9999565,29.4381955 L36.2187567,28.0659212 L37.8023413,28.3222606 C37.8246618,28.1822508 37.8469824,28.0428329 37.8693029,27.902527 C37.94067,27.4540811 38.0352386,27.0387875 38.1259893,26.6513184 L36.4863096,26.3860988 L36.7095152,24.9857042 L38.5436186,25.2825961 C39.1894463,23.3763307 40.281685,21.8871348 41.5756897,20.9192019 C43.2291729,19.6638492 45.169299,19.1165379 47.447464,19.4853588 C49.08685,19.7508744 50.2889294,20.4334595 50.9999565,20.9798828 L50.1497196,22.7378502 C49.5223945,22.2056351 48.4131217,21.6526997 47.162877,21.450233 C45.6627008,21.2075098 44.3551862,21.5416982 43.2497313,22.3962616 C42.2870106,23.0738147 41.5307549,24.2439183 41.0165011,25.6827934 L48.7679011,26.9378502 L48.5446955,28.3382448 L40.5427767,27.0426356 C40.4567251,27.4022804 40.3624501,27.8175739 40.2998938,28.2094831 C40.2731679,28.3773174 40.2508474,28.5176232 40.2197161,28.7135778 L48.2771425,30.0180672 L48.0583424,31.3903415 L40.1953397,30.1175246 C40.1589219,31.7775147 40.522512,33.0719399 41.1392642,34.0330648 C41.9927317,35.2922655 43.2973094,36.0485556 44.798073,36.2912789 C46.2700548,36.529562 47.6374824,36.1767253 48.3349998,35.9159459 L48.5258992,37.7567944 Z" id="Fill-32" fill="#FFFFFF"></path>
                <path d="M65.1518788,22.3127444 C64.2506654,22.1671937 63.5550214,21.8261972 62.9999565,21.4049824 L63.4205785,20.1928873 C63.9379882,20.6303662 64.6071342,20.9901079 65.3621898,21.1122271 C66.2631242,21.2575021 67.0296157,20.9581309 67.1788417,20.0567092 C67.3021275,19.3104864 66.8817844,18.7743197 65.98085,18.6284934 C65.4734817,18.5466211 65.0986037,18.5774955 64.761102,18.6601948 L63.8272542,18.2921831 L64.7527341,14.3722393 L68.9999565,15.0580917 L68.9927044,16.291413 L65.6918816,15.7582785 L65.2659599,17.4955138 C65.5605069,17.4632611 65.9337113,17.4434133 66.4408007,17.5255612 C67.950075,17.7692483 68.7999658,18.7867246 68.5642724,20.2119081 C68.2845086,21.9042101 66.8644909,22.5892355 65.1518788,22.3127444" id="Fill-34" fill="#F2F3F2"></path>
                <path d="M73.4429721,16.5770804 C72.4602108,16.4093606 71.7544193,17.3074014 71.4721027,19.1107388 C71.1897861,20.9140762 71.5851897,21.9999298 72.567951,22.1673706 C73.5501775,22.3350904 74.2345814,21.4334217 74.516898,19.6300843 C74.7989473,17.827026 74.425466,16.7445212 73.4429721,16.5770804 M72.3861562,23.3285725 C70.636916,23.0302488 69.6929199,21.4110963 70.0899276,18.8749263 C70.486668,16.3390354 71.8755267,15.1178339 73.6247669,15.4164366 C75.3630458,15.7125278 76.3067747,17.3319594 75.9100343,19.8678503 C75.5127592,22.4037412 74.1244352,23.6252218 72.3861562,23.3285725" id="Fill-36" fill="#F2F3F2"></path>
                <path d="M6.15188371,39.3126466 C5.25044214,39.1674433 4.55511446,38.8264126 3.9999565,38.4050503 L4.42015893,37.1927998 C4.93789741,37.6305316 5.60715413,37.9903569 6.36198492,38.1119154 C7.26311978,38.257725 8.02960582,37.9588305 8.17867033,37.0566907 C8.30227733,36.310667 7.88207489,35.7744152 6.98063332,35.6286056 C6.47393667,35.5464551 6.09851493,35.5776784 5.76112611,35.660132 L4.82717253,35.292122 L5.75284475,31.3722393 L9.9999565,32.0582415 L9.99259529,33.2914086 L6.69201253,32.7584912 L6.26567575,34.4957774 C6.56043089,34.4630385 6.93401232,34.4439408 7.44070898,34.5257881 C8.95006385,34.7695114 9.79997695,35.7868439 9.56411149,37.2118975 C9.28438549,38.9043192 7.8642853,39.589412 6.15188371,39.3126466" id="Fill-38" fill="#FFFFFF"></path>
                <path d="M14.442537,33.5769616 C13.4603233,33.4094071 12.7541643,34.3076345 12.4719359,36.1111475 C12.1897075,37.9146605 12.5851213,39.0000826 13.5673349,39.1676372 C14.5501366,39.3351917 15.2345405,38.4338955 15.5167689,36.6303825 C15.7989973,34.8268695 15.4253386,33.744823 14.442537,33.5769616 M13.3856504,40.3285509 C11.6367162,40.0302669 10.6930149,38.4111867 11.0898986,35.8751595 C11.4870763,33.3391324 12.8755813,32.1180709 14.6245155,32.4163548 C16.3631601,32.7131044 17.3068614,34.3315709 16.9099777,36.8679049 C16.513094,39.4036252 15.124295,40.6253004 13.3856504,40.3285509" id="Fill-40" fill="#FFFFFF"></path>
                <path d="M9.07574662,8.34250526 C8.62499486,8.27003191 8.27703536,8.09931017 7.9999565,7.88856131 L8.21014367,7.28269625 C8.46850513,7.50163247 8.8032704,7.68114805 9.18099363,7.74209844 C9.63174539,7.81487502 10.0146849,7.66537979 10.0892477,7.2144682 C10.1509231,6.8414882 9.94073588,6.57312455 9.49029096,6.5006512 C9.23653214,6.45941113 9.04874447,6.47487616 8.87998105,6.51641946 L8.41358031,6.33235535 L8.87629894,4.37223933 L10.9999565,4.71519899 L10.9959675,5.33167731 L9.3457681,5.06513307 L9.13281934,5.93420678 C9.28010378,5.91783205 9.46635724,5.90782527 9.72011606,5.94845886 C10.4749488,6.07066288 10.8999258,6.5794925 10.7820983,7.29179332 C10.642178,8.13782112 9.93183745,8.48078077 9.07574662,8.34250526" id="Fill-42" fill="#FFFFFF"></path>
                <path d="M12.7217004,5.97482499 C12.2299392,5.89101828 11.8770005,6.33982929 11.7358251,7.24144211 C11.5949437,8.14305493 11.7922953,8.68580313 12.2840565,8.76960984 C12.7752295,8.85341655 13.11758,8.40276363 13.2584613,7.50115081 C13.3996368,6.59953799 13.2128734,6.05832471 12.7217004,5.97482499 M12.1931748,9.35042409 C11.3184751,9.20122973 10.8464196,8.39171219 11.0449476,7.12356015 C11.2434756,5.85540811 11.9375883,5.24512337 12.8125821,5.39431772 C13.6816936,5.54259113 14.153455,6.35210867 13.954927,7.61964674 C13.7566931,8.88779878 13.0622862,9.49869749 12.1931748,9.35042409" id="Fill-44" fill="#FFFFFF"></path>
                <path d="M67.0759434,50.3424862 C66.6252377,50.2697045 66.2773138,50.0992737 65.9999565,49.8885098 L66.210429,49.2822981 C66.468764,49.5015533 66.8031882,49.6810817 67.180566,49.7423397 C67.6312717,49.8151215 68.0147857,49.6653123 68.0893408,49.2140652 C68.1507031,48.8413617 67.9405374,48.5732821 67.4901385,48.5001971 C67.2364057,48.4595606 67.048944,48.4747234 66.8801979,48.5162697 L66.413538,48.3324957 L66.8765161,46.3722393 L68.9999565,46.7152235 L68.995968,47.331746 L67.3456305,47.0654859 L67.1327035,47.9340154 C67.2799729,47.9176394 67.4665141,47.9079352 67.7202469,47.948875 C68.4750025,48.0707845 68.8996292,48.5796505 68.7821205,49.2920023 C68.6419078,50.1380907 67.9319467,50.4807717 67.0759434,50.3424862" id="Fill-46" fill="#FFFFFF"></path>
                <path d="M70.7215819,47.9748363 C70.2297755,47.8910281 69.8770986,48.3395403 69.7359101,49.2411697 C69.5947217,50.142799 69.7923855,50.6858641 70.2841919,50.7693654 C70.77541,50.8531736 71.1174978,50.4025125 71.2586863,49.5005761 C71.3998747,48.5992538 71.2128,48.0583376 70.7215819,47.9748363 M70.1933018,51.3504973 C69.3182277,51.2009932 68.8464229,50.3914608 69.0449692,49.1232855 C69.2435154,47.8554173 69.9376919,47.2451213 70.8127661,47.3943184 C71.6816633,47.5425945 72.153468,48.3521269 71.9549218,49.6196882 C71.7566697,50.8878635 71.062199,51.4984664 70.1933018,51.3504973" id="Fill-48" fill="#FFFFFF"></path>
                <path d="M55.4447083,38.9888921 C55.4231301,38.9853538 55.4021432,38.9750338 55.3864769,38.9585217 C55.3578046,38.9299204 55.3483457,38.8877557 55.3613517,38.849424 L55.7790213,37.6413888 L55.0202401,36.6064355 C54.9965928,36.5742959 54.9933414,36.5306568 55.0119636,36.4949789 C55.0305858,36.4590062 55.0678302,36.4368918 55.1083261,36.4377764 L56.3799571,36.4595959 L57.1390338,35.4160917 C57.1626811,35.3836573 57.2025858,35.3671452 57.242195,35.3736321 L57.2424906,35.3736321 C57.2820997,35.3804138 57.3149103,35.4087202 57.3267339,35.4470519 L57.7092282,36.6763169 L58.9255837,37.0599278 C58.9643061,37.072017 58.9926828,37.1050412 58.9985946,37.1451419 C59.0050976,37.1849478 58.9879533,37.2247537 58.9548472,37.2477527 L57.9019533,37.9875527 L57.912299,39.2651745 C57.9128901,39.3055701 57.8898341,39.3427223 57.853772,39.3607087 C57.8330807,39.3710287 57.8106158,39.374567 57.7890377,39.3707339 C57.7718934,39.3680801 57.7556359,39.3615933 57.7417432,39.3506835 L56.717226,38.5796285 L55.4955499,38.9847641 C55.4787012,38.9903664 55.4615569,38.9915458 55.4447083,38.9888921" id="Fill-50" fill="#FFFFFF"></path>
                <path d="M58.444741,32.9888921 C58.4231613,32.9853538 58.4018772,32.9750338 58.3862098,32.9585217 C58.357831,32.9299204 58.3480758,32.8877557 58.3613783,32.849424 L58.7787831,31.6413888 L58.0202416,30.6064355 C57.9965926,30.5742959 57.9933409,30.5306568 58.0119644,30.4949789 C58.030588,30.4590062 58.0678352,30.4368918 58.1080385,30.4377764 L59.3797632,30.4595959 L60.1388959,29.4160917 C60.1625449,29.3836573 60.2027482,29.3671452 60.2423602,29.3736321 L60.2426558,29.3736321 C60.2822679,29.3804138 60.3147853,29.4087202 60.3269054,29.4470519 L60.7091322,30.6763169 L61.925873,31.0599278 C61.9645982,31.072017 61.992977,31.1047463 61.9985937,31.1451419 C62.0050971,31.1849478 61.9879516,31.2247537 61.9551386,31.2477527 L60.9021672,31.9875527 L60.9125136,33.2651745 C60.9128092,33.3055701 60.8897514,33.3427223 60.8539823,33.3607087 C60.8332895,33.3710287 60.8105273,33.374567 60.7889476,33.3707339 C60.7720977,33.3680801 60.755839,33.3615933 60.7419452,33.3506835 L59.7170569,32.5796285 L58.4952908,32.9847641 C58.4784409,32.9903664 58.461591,32.9915458 58.444741,32.9888921" id="Fill-52" fill="#FFFFFF"></path>
                <path d="M57.4447083,24.9887395 C57.4231301,24.9852014 57.4021432,24.9748818 57.3864769,24.9583704 C57.3578046,24.9300652 57.3483457,24.8876073 57.3613517,24.8495722 L57.7790213,23.6412931 L57.0202401,22.6066782 C56.9965928,22.5742452 56.9933414,22.5309028 57.0119636,22.4949316 C57.0305858,22.4592552 57.0678302,22.4368469 57.1083261,22.4377314 L58.3799571,22.4595501 L59.1390338,21.4160899 C59.1626811,21.3836568 59.2025858,21.3671454 59.242195,21.373632 L59.2424906,21.373632 C59.2820997,21.3804135 59.3149103,21.4087187 59.3267339,21.4470487 L59.7092282,22.6762619 L60.9255837,23.0598566 C60.9643061,23.0722402 60.9926828,23.1049681 60.9985946,23.1450671 C61.0050976,23.1848714 60.9879533,23.2246756 60.9548472,23.2479684 L59.9019533,23.9874423 L59.912299,25.2650103 C59.9128901,25.3056991 59.8898341,25.3425548 59.853772,25.3608353 C59.8330807,25.3711549 59.8106158,25.3743982 59.7890377,25.37086 C59.7718934,25.3682064 59.7556359,25.361425 59.7417432,25.3508105 L58.717226,24.5797881 L57.4955499,24.9849065 C57.4787012,24.9902138 57.4615569,24.9913932 57.4447083,24.9887395" id="Fill-54" fill="#FFFFFF"></path>
                <path d="M53.4444667,18.9887828 C53.4228871,18.9852446 53.4018988,18.9749249 53.3862314,18.9584133 C53.3575572,18.9298129 53.3480976,18.8876494 53.3614001,18.849319 L53.7788024,17.6413202 L53.0199698,16.6063982 C52.9966166,16.5742596 52.9933648,16.5306218 53.0119883,16.494945 C53.0303162,16.4589734 53.0678587,16.4368596 53.1080618,16.4377442 L54.3797788,16.4595631 L55.138907,15.4160904 C55.1625559,15.3836569 55.2024633,15.3671454 55.2423707,15.373632 L55.2426663,15.373632 C55.2822782,15.3804136 55.3147953,15.4087191 55.3266198,15.4470496 L55.70914,16.6762775 L56.9258734,17.0598768 C56.9645984,17.0719657 56.9926814,17.1049888 56.9985937,17.1450884 C57.0050971,17.184893 56.9879517,17.2246977 56.9551389,17.247696 L55.9021737,17.9874736 L55.9125201,19.2650569 C55.9128157,19.3054513 55.8897581,19.3426023 55.8536936,19.3605881 C55.8332964,19.3709079 55.8105344,19.3744461 55.7889548,19.3709079 C55.772105,19.3682542 55.7558465,19.3614727 55.7416571,19.3505632 L54.7170706,18.5795316 L53.4953117,18.9846549 C53.4784619,18.9902571 53.4616121,18.9914365 53.4444667,18.9887828" id="Fill-56" fill="#FFFFFF"></path>
                <path d="M46.444741,15.9888921 C46.4231613,15.9853538 46.4021729,15.9750338 46.3862098,15.9585217 C46.357831,15.9299204 46.3480758,15.8877557 46.3613783,15.849424 L46.7787831,14.6413888 L46.0202416,13.6064355 C45.9965926,13.5742959 45.9933409,13.5306568 46.0119644,13.4949789 C46.030588,13.4590062 46.0678352,13.4368918 46.1080385,13.4377764 L47.3797632,13.4595959 L48.1388959,12.4160917 C48.1628405,12.3836573 48.2027482,12.3671452 48.2423602,12.3736321 L48.2426558,12.3736321 C48.2822679,12.3804138 48.3147853,12.4087202 48.3269054,12.4470519 L48.7091322,13.6763169 L49.925873,14.0599278 C49.9645982,14.072017 49.992977,14.1050412 49.9985937,14.1451419 C50.0050971,14.1849478 49.9879516,14.2247537 49.9551386,14.2477527 L48.9021672,14.9875527 L48.9125136,16.2651745 C48.9128092,16.3055701 48.8897514,16.3427223 48.8539823,16.3607087 C48.8332895,16.3710287 48.8105273,16.374567 48.7889476,16.3707339 C48.7720977,16.3680801 48.755839,16.3615933 48.7419452,16.3506835 L47.7170569,15.5796285 L46.4952908,15.9847641 C46.4784409,15.9903664 46.461591,15.9915458 46.444741,15.9888921" id="Fill-58" fill="#FFFFFF"></path>
                <path d="M41.4447083,44.9888921 C41.4231301,44.9853538 41.4021432,44.9750338 41.3861813,44.9585217 C41.3578046,44.9299204 41.3480501,44.8877557 41.3613517,44.849424 L41.7790213,43.6413888 L41.0202401,42.6064355 C40.9965928,42.5742959 40.9933414,42.5306568 41.0119636,42.4949789 C41.0305858,42.4590062 41.0678302,42.4368918 41.1080305,42.4377764 L42.3799571,42.4595959 L43.1390338,41.4160917 C43.1626811,41.3836573 43.2025858,41.3671452 43.242195,41.3736321 L43.2424906,41.3736321 C43.2820997,41.3804138 43.3149103,41.4087202 43.3267339,41.4470519 L43.7092282,42.6763169 L44.9255837,43.0599278 C44.9643061,43.072017 44.9926828,43.1050412 44.9985946,43.1451419 C45.0050976,43.1849478 44.9879533,43.2247537 44.9548472,43.2477527 L43.9019533,43.9875527 L43.912299,45.2651745 C43.9125946,45.3055701 43.8898341,45.3427223 43.853772,45.3607087 C43.8330807,45.3710287 43.8103202,45.374567 43.7887421,45.3707339 C43.7718934,45.3680801 43.7556359,45.3615933 43.7417432,45.3506835 L42.717226,44.5796285 L41.4952543,44.9847641 C41.4787012,44.9903664 41.4615569,44.9915458 41.4447083,44.9888921" id="Fill-60" fill="#FFFFFF"></path>
                <path d="M49.4447083,43.9887395 C49.4231301,43.9852014 49.4021432,43.9748818 49.3861813,43.9583704 C49.3578046,43.9300652 49.3480501,43.8876073 49.3613517,43.8495722 L49.7790213,42.6412931 L49.0202401,41.6066782 C48.9965928,41.5742452 48.9933414,41.5309028 49.0119636,41.4949316 C49.0305858,41.4592552 49.0678302,41.4368469 49.1080305,41.4377314 L50.3799571,41.4595501 L51.1390338,40.4160899 C51.1626811,40.3836568 51.2025858,40.3671454 51.242195,40.373632 L51.2424906,40.373632 C51.2820997,40.3804135 51.3149103,40.4087187 51.3267339,40.4470487 L51.7092282,41.6762619 L52.9255837,42.0598566 C52.9643061,42.0722402 52.9926828,42.1049681 52.9985946,42.1450671 C53.0050976,42.1848714 52.9879533,42.2246756 52.9548472,42.2479684 L51.9019533,42.9874423 L51.912299,44.2650103 C51.9125946,44.3056991 51.8898341,44.3428497 51.853772,44.3608353 C51.8330807,44.3711549 51.8103202,44.3743982 51.7887421,44.37086 C51.7718934,44.3682064 51.7556359,44.361425 51.7417432,44.3508105 L50.717226,43.5797881 L49.4952543,43.9849065 C49.4787012,43.9902138 49.4615569,43.9913932 49.4447083,43.9887395" id="Fill-62" fill="#FFFFFF"></path>
                <path d="M32.7926144,35.3708602 C32.814192,35.3743979 32.8372475,35.371155 32.8579383,35.3608366 C32.8939994,35.3425584 32.9167593,35.3057071 32.9161682,35.265318 L32.9058228,33.9876089 L33.9551431,33.2476343 C33.9879528,33.2243443 34.0050966,33.1842501 33.9985938,33.1444506 C33.9926821,33.1046512 33.9643061,33.0716324 33.9255847,33.0595452 L32.7131025,32.6765862 L32.3264797,31.4463416 C32.3146564,31.4086059 32.2818467,31.3800093 32.2422385,31.3735234 L32.2419429,31.3735234 C32.2023348,31.3673324 32.1621355,31.3838418 32.1387844,31.416271 L31.383865,32.4599004 L30.1084235,32.4374948 C30.067633,32.4366104 30.0303896,32.459016 30.0120634,32.4949829 C29.9931461,32.530655 29.9966931,32.5739921 30.0206353,32.6064213 L30.7826488,33.6415013 L30.3652853,34.8496351 C30.3519841,34.8876656 30.3617383,34.9301184 30.3901143,34.958715 C30.406667,34.9749296 30.4270622,34.9852479 30.4486398,34.9887857 C30.465488,34.991439 30.483223,34.9902597 30.4997757,34.9846583 L31.7169872,34.578999 L32.7459123,35.3511079 C32.7601003,35.3614263 32.7757662,35.3682069 32.7926144,35.3708602" id="Fill-64" fill="#FFFFFF"></path>
                <path d="M31.7926249,28.3708602 C31.8142025,28.3743979 31.8372581,28.371155 31.8576534,28.3608366 C31.8937147,28.3425584 31.9164747,28.3054122 31.9161791,28.265318 L31.9058336,26.9876089 L32.9551579,26.2476343 C32.9876721,26.2243443 33.0051116,26.1842501 32.9986088,26.1444506 C32.9926971,26.1046512 32.964321,26.0716324 32.9255994,26.0595452 L31.7128171,25.6765862 L31.3264884,24.4463416 C31.3146651,24.4086059 31.2815596,24.3800093 31.2422469,24.3735234 L31.2419513,24.3735234 C31.202343,24.3673324 31.161848,24.3838418 31.1384968,24.416271 L30.3835746,25.4599004 L29.1081283,25.4374948 C29.0676333,25.4366104 29.0303897,25.459016 29.0120635,25.4949829 C28.9931461,25.530655 28.9966931,25.5739921 29.0206354,25.6064213 L29.7823561,26.6415013 L29.3652867,27.8493403 C29.3519854,27.8876656 29.3617397,27.9301184 29.3901158,27.958715 C29.4063729,27.9749296 29.4270638,27.9852479 29.4486414,27.9887857 C29.4654898,27.991439 29.4829292,27.9902597 29.4994819,27.9846583 L30.7169936,27.578999 L31.7459225,28.3511079 C31.7601106,28.3614263 31.7757766,28.3682069 31.7926249,28.3708602" id="Fill-66" fill="#FFFFFF"></path>
                <path d="M34.7926144,21.3708602 C34.814192,21.3743979 34.8372475,21.371155 34.8579383,21.3608366 C34.8939994,21.3428532 34.9164638,21.3057071 34.9161682,21.265318 L34.9058228,19.9876089 L35.9551431,19.2476343 C35.9879528,19.2243443 36.0050966,19.1842501 35.9985938,19.1444506 C35.9926821,19.1046512 35.9643061,19.0716324 35.9255847,19.0595452 L34.7131025,18.676881 L34.3264797,17.4466364 C34.3146564,17.4086059 34.2815511,17.3800093 34.2422385,17.3735234 L34.2419429,17.3735234 C34.2023348,17.3673324 34.1621355,17.3838418 34.1387844,17.416271 L33.383865,18.4601953 L32.1084235,18.4374948 C32.067633,18.4366104 32.0303896,18.459016 32.0120634,18.4949829 C31.9931461,18.530655 31.9966931,18.5739921 32.0206353,18.6064213 L32.7826488,19.6415013 L32.3652853,20.8496351 C32.3519841,20.8876656 32.3617383,20.9301184 32.3901143,20.958715 C32.406667,20.9749296 32.4270622,20.9852479 32.4486398,20.9890805 C32.465488,20.9917338 32.483223,20.9902597 32.4997757,20.9846583 L33.7169872,20.5792938 L34.7459123,21.3511079 C34.7601003,21.3614263 34.7757662,21.3682069 34.7926144,21.3708602" id="Fill-68" fill="#FFFFFF"></path>
                <path d="M40.7926144,17.3708602 C40.814192,17.3743979 40.8372475,17.371155 40.8579383,17.3608366 C40.8937039,17.3428532 40.9164638,17.3057071 40.9161682,17.265318 L40.9058228,15.9876089 L41.9551431,15.2476343 C41.9879528,15.2243443 42.0050966,15.1842501 41.9985938,15.1444506 C41.9926821,15.1046512 41.9643061,15.0716324 41.9255847,15.0595452 L40.7131025,14.6765862 L40.3264797,13.4466364 C40.3146564,13.4086059 40.2815511,13.3800093 40.2422385,13.3735234 L40.2419429,13.3735234 C40.2023348,13.3673324 40.1621355,13.3838418 40.1384888,13.416271 L39.383865,14.4601953 L38.1081279,14.4374948 C38.067633,14.4366104 38.0303896,14.459016 38.0120634,14.4949829 C37.9931461,14.530655 37.9966931,14.5739921 38.0206353,14.6064213 L38.7826488,15.6415013 L38.3652853,16.8496351 C38.3519841,16.8876656 38.3617383,16.9301184 38.3901143,16.958715 C38.406667,16.9749296 38.4270622,16.9852479 38.4486398,16.9890805 C38.465488,16.9917338 38.4829274,16.9902597 38.4994801,16.9846583 L39.7169872,16.578999 L40.7459123,17.3511079 C40.7601003,17.3614263 40.7757662,17.3682069 40.7926144,17.3708602" id="Fill-70" fill="#FFFFFF"></path>
                <path d="M36.7926249,41.3708602 C36.8142025,41.3743979 36.8372581,41.371155 36.8576534,41.3608366 C36.8937147,41.3425584 36.9164747,41.3054122 36.9161791,41.265318 L36.9058336,39.9876089 L37.9551579,39.2476343 C37.9876721,39.2243443 38.0051116,39.1842501 37.9986088,39.1444506 C37.9926971,39.1046512 37.964321,39.0716324 37.9255994,39.0595452 L36.7128171,38.6765862 L36.3264884,37.4463416 C36.3146651,37.4083111 36.2815596,37.3800093 36.2422469,37.3735234 L36.2419513,37.3735234 C36.202343,37.3673324 36.161848,37.3838418 36.1384968,37.416271 L35.3835746,38.4599004 L34.1081283,38.4374948 C34.0676333,38.4366104 34.0303897,38.459016 34.0120635,38.4949829 C33.9931461,38.530655 33.9966931,38.5739921 34.0206354,38.6064213 L34.7823561,39.6415013 L34.3652867,40.8493403 C34.3519854,40.8876656 34.3617397,40.9301184 34.3901158,40.958715 C34.4063729,40.9749296 34.4270638,40.9852479 34.4486414,40.9887857 C34.4654898,40.991439 34.4829292,40.9902597 34.4994819,40.9846583 L35.7169936,40.578999 L36.7459225,41.3511079 C36.7601106,41.3614263 36.7757766,41.3682069 36.7926249,41.3708602" id="Fill-72" fill="#FFFFFF"></path>
            </g>
            <g id="Group-23" transform="translate(74.000000, 59.627761)">
                <polygon id="Fill-74" fill="#C41F3E" points="69.8666469 67.3722393 0.9999565 35.3801079 17.1335546 0.372239335 85.9999565 32.3646604"></polygon>
                <polygon id="Fill-76" fill="#8B1D41" points="23.5921603 45.3722393 -4.35000002e-05 34.5449607 16.4080461 -0.627760665 39.9999565 10.199809"></polygon>
                <path d="M67.9913937,46.9671856 C65.4537712,52.485319 58.9232142,54.90129 53.4050482,52.3636825 C47.8868821,49.8260751 45.4708968,43.2955568 48.0085193,37.7771345 C50.5461418,32.2592901 57.0766988,29.8430301 62.5948648,32.3809265 C68.1130309,34.918534 70.5290162,41.4487633 67.9913937,46.9671856" id="Fill-78" fill="#8B1D41"></path>
                <path d="M18.4892379,6.34096679 C19.3917722,5.35408212 20.2004802,5.1319787 21.2738902,5.62557636 C21.5609613,5.75759587 21.8032941,5.91384484 21.9999565,6.07133635 L21.5395242,6.77927157 C21.3472114,6.6121504 21.156452,6.49069245 20.8510505,6.35028582 C20.2495681,6.07413206 19.7624171,6.2310023 19.1323519,6.9168825 C19.1323519,6.9168825 18.3143234,7.81865342 18.3050029,7.81430454 L19.9152732,8.55516697 L19.6943775,9.32771409 L17.7414238,8.42998141 C17.7507443,8.43401966 16.2013679,10.1210737 16.2013679,10.1210737 L19.3669176,11.5763947 L19.1463326,12.3722393 L14.9999565,10.4652563 L15.293552,9.82690316 L16.917803,8.05100776 L16.2513879,7.74472249 L16.5831974,7.02280874 L17.4810714,7.43533088 L18.4892379,6.34096679 Z" id="Fill-84" fill="#FFFFFF"></path>
                <path d="M20.9999565,12.5904006 L21.3721227,11.7970872 L24.4335368,10.6515992 C25.0986972,10.3889558 25.4725972,10.169378 25.6667709,9.75572166 C25.9123775,9.23241811 25.7121358,8.81451191 25.1353938,8.55470175 C24.5670312,8.29829151 23.9194966,8.32322422 23.2713841,8.48132026 L23.5848937,7.45681259 C24.2038224,7.31656611 24.9290842,7.32676585 25.6953768,7.67214053 C26.865909,8.19997731 27.2785281,9.14288702 26.8118755,10.1390621 C26.4631141,10.8819434 25.8846384,11.2035187 24.8458669,11.5732595 L22.7882615,12.3130243 L25.2330585,13.4154466 L24.9516222,14.3722393 L20.9999565,12.5904006 Z" id="Fill-86" fill="#FFFFFF"></path>
                <path d="M30.0623602,10.5801574 C29.2185833,10.1931029 28.3701377,10.7896696 27.6875841,12.2692918 C27.0053418,13.748914 27.1030718,14.779404 27.9471599,15.1664585 C28.7906256,15.553513 29.6200854,14.9479449 30.3023278,13.4686331 C30.9848814,11.989011 30.9061372,10.9669015 30.0623602,10.5801574 M27.5076863,16.1193513 C26.0056326,15.4302887 25.5412596,13.8057151 26.5008186,11.7248703 C27.4603775,9.64433591 28.9988465,8.93882275 30.5012114,9.62788532 C31.994239,10.3122921 32.4579896,11.9365553 31.4987419,14.0174001 C30.5391829,16.0976241 29.0007139,16.803758 27.5076863,16.1193513" id="Fill-88" fill="#FFFFFF"></path>
                <path d="M68.7116617,29.3602226 C68.4615985,29.2549565 68.1649432,29.3525137 68.0481684,29.5776661 C67.9995122,29.6715017 67.99214,29.7725146 68.015436,29.8660844 L66.1576546,29.9981986 L65.5227652,27.6967002 C65.688786,27.6791558 65.8415369,27.5879784 65.9173226,27.441244 C66.0338026,27.2160916 65.9258743,26.9484075 65.6761059,26.8431415 C65.4260426,26.7381413 65.1290925,26.8354326 65.0123177,27.060585 C64.9350576,27.2102435 64.9580587,27.3774464 65.0547812,27.5047757 L62.8360595,28.5388285 L61.8346268,27.1562814 C61.8823984,27.1172053 61.9227977,27.0690913 61.9516966,27.0130026 C62.0684714,26.7875844 61.9602482,26.5196345 61.7107747,26.4146343 C61.4607115,26.3093682 61.1634665,26.4069254 61.0469865,26.6320778 C60.9302117,26.8574959 61.0384348,27.12518 61.2882032,27.2301802 C61.366348,27.2631423 61.4486212,27.2740411 61.5294199,27.2697879 L61.4866614,29.3389567 C63.0979182,30.0168062 64.70888,30.6946557 66.3198419,31.3722393 C66.9084342,30.9200739 67.4967317,30.4676426 68.0850291,30.0154771 C68.1342751,30.0824646 68.2023937,30.1396166 68.2890902,30.1757685 C68.5391535,30.2810346 68.8363985,30.1837432 68.9528784,29.9585909 C69.0696533,29.7331727 68.961725,29.4654886 68.7116617,29.3602226" id="Fill-80" fill="#FFFFFF"></path>
                <path d="M57.4869175,38.1658051 C59.163758,36.3359197 60.6647825,35.9257536 62.6551192,36.8460304 C63.1870534,37.0922424 63.6359868,37.3830925 63.9999565,37.6764694 L63.1444314,38.9900677 C62.7880327,38.6792848 62.4341577,38.4530056 61.8680137,38.191072 C60.7528307,37.6753464 59.8485146,37.9659158 58.678652,39.2379642 C58.678652,39.2379642 57.1571576,40.9106333 57.1400527,40.9027725 L60.1252774,42.2837493 L59.7130774,43.7186288 L56.0927284,42.0442752 C56.1098333,42.052136 53.2300421,45.1807404 53.2300421,45.1807404 L59.0978621,47.8946868 L58.6867838,49.3722393 L50.9999565,45.8171857 L51.5470327,44.6316063 L54.5656259,41.3379248 L53.3304282,40.7668927 L53.9487281,39.4269045 L55.6126698,40.1964221 L57.4869175,38.1658051 Z" id="Fill-82" fill="#FFFFFF"></path>
            </g>
            <g id="Group-22" transform="translate(0.000000, 16.627761)">
                <polygon id="Fill-90" fill="#C41F3E" points="88.9999565 36.4328136 10.7439567 59.3722393 -4.35000002e-05 22.311954 78.2559563 -0.627760665"></polygon>
                <polygon id="Fill-92" fill="#8B1D41" points="76.9999565 39.8094299 64.6946175 43.3722393 53.9999565 6.93504873 66.3052955 3.37223933"></polygon>
                <path d="M77.0787673,20.0880139 C79.1708155,27.232684 83.6053952,32.2300154 86.9841365,31.2493916 C86.9894098,31.2476415 86.9946832,31.2453081 86.9999565,31.243558 L79.4248143,5.37223933 C79.419248,5.37369773 79.4136817,5.37457276 79.4084084,5.37603116 C76.0296671,6.356655 74.9867191,12.9433437 77.0787673,20.0880139" id="Fill-94" fill="#8B1D41"></path>
                <path d="M11.9211345,39.6563032 C9.82908866,32.5116962 5.39451399,27.5147007 2.01606944,28.4950242 C2.01050315,28.4967742 2.00522983,28.4991076 1.9999565,28.5008577 L9.57509009,54.3722393 C9.58065638,54.3704893 9.58622267,54.3699059 9.59178896,54.3681559 C12.9702335,53.3878324 14.0131803,46.8009102 11.9211345,39.6563032" id="Fill-96" fill="#8B1D41"></path>
                <path d="M53.577786,26.9345125 C55.2002193,32.5004944 52.003515,38.3275994 46.4378607,39.9500437 C40.8722064,41.572488 35.0448505,38.3760522 33.422127,32.8100703 C31.7996937,27.2440883 34.996398,21.4166932 40.5620523,19.7945391 C46.1279968,18.1718047 51.9553526,21.3685305 53.577786,26.9345125" id="Fill-98" fill="#8B1D41"></path>
                <path d="M19.7112878,52.0679287 C18.3556352,52.4475397 17.1962034,52.4358862 16.1881073,52.2302029 L15.9679275,50.4078954 C16.9369007,50.6578618 18.0572096,50.714381 19.2193709,50.3886672 C20.4782779,50.0361505 21.2470876,49.1647641 20.8752688,47.9399869 C20.5601629,46.9013736 19.6570011,46.4643694 18.3656433,46.8259175 C17.6395958,47.0292701 17.1604166,47.2978821 16.7652453,47.6107771 L15.2876749,47.7045873 L13.9999565,42.0765558 L20.0849263,40.3722393 L20.8676868,41.9702181 L16.1380664,43.2946322 L16.6879094,45.798375 C17.0585151,45.5772508 17.5422436,45.3237884 18.2682911,45.1204358 C20.4312698,44.5147479 22.2139379,45.3109696 22.816248,47.2955514 C23.5219759,49.6215791 22.1323561,51.3899895 19.7112878,52.0679287" id="Fill-100" fill="#FFFFFF"></path>
                <path d="M19.5095467,33.4741412 C20.2797067,33.7687778 21.0469203,34.0776028 21.817375,34.3722393 L21.7584492,33.5906675 C21.7616901,33.5761772 21.7543244,33.543574 21.7611008,33.5145933 C21.7678773,33.4856127 21.7885013,33.4599527 21.8061791,33.4487831 C22.7896504,32.951282 23.755444,32.4646487 24.7389153,31.9674495 L24.2607326,31.5750032 C24.2498313,31.5568903 24.1682191,31.521872 24.1917894,31.4201379 C24.2018068,31.3766669 24.2395193,31.2785554 24.2569024,31.2670839 C24.5197114,30.7786392 24.7374421,30.3560048 24.9999565,29.8675602 L23.6461366,29.8304287 C23.6178523,29.8234854 23.4802606,29.8358626 23.4475567,29.7824295 C23.4151476,29.7283927 23.3786136,29.6272623 23.3786136,29.6272623 C23.3615251,29.377908 23.3591681,29.1928545 23.3456151,28.928708 L21.94436,29.9385024 C21.8707028,29.9973693 21.7681719,29.988011 21.6898006,29.9382005 C21.6005281,29.870579 21.5849127,29.7440905 21.6367674,29.6492997 C21.9909114,28.8299927 22.3591975,28.0146101 22.716877,27.1808128 L21.8889698,27.3939413 C21.8603908,27.3872999 21.7938046,27.4171862 21.7154334,27.3673757 C21.6229199,27.3142445 21.6255715,27.2381703 21.6149649,27.2200574 C21.4588116,26.5993886 21.299712,25.9932101 21.1438533,25.3722393 C20.7325513,25.855552 20.3247849,26.3237705 19.9137775,26.8070832 C19.8928589,26.8327431 19.8616282,26.9018741 19.7590974,26.8922138 C19.6533256,26.8973458 19.6206218,26.843309 19.5923374,26.8363657 L18.9459216,26.2652055 C18.9037896,27.1599829 18.8755052,28.058383 18.8298378,28.9676507 C18.8348465,29.0763282 18.765314,29.1819868 18.6563013,29.2016091 C18.5608416,29.2245521 18.4827649,29.1750435 18.4285532,29.0850827 L17.5758971,27.5279768 C17.4512691,27.7432184 17.3684783,27.9074421 17.2403148,28.1368722 C17.2403148,28.1368722 17.1637113,28.2102295 17.1109727,28.2434365 C17.0585287,28.2766435 16.9409718,28.2020787 16.9126874,28.1954373 L15.6861472,27.6061641 C15.7070659,28.1634378 15.7161994,28.6413166 15.737118,29.1985903 C15.7480193,29.2164013 15.7385912,29.321758 15.7285738,29.365229 C15.7050035,29.4669631 15.6166148,29.4606236 15.5992317,29.4717932 L14.9999565,29.602508 C15.6608092,30.4993986 16.3110552,31.3784782 16.9722025,32.275067 C16.9828091,32.2931799 16.9760326,32.3221605 16.983693,32.3544619 C16.9769165,32.3837444 16.9701401,32.412725 16.9527569,32.4238947 L16.5544187,33.1094681 C17.3720139,33.2006363 18.1925554,33.2773143 19.0101507,33.3681807" id="Fill-102" fill="#FFFFFF"></path>
                <path d="M44.1702176,33.0558703 C45.2675882,32.6409893 45.6499484,31.9674774 45.3528462,31.1338465 C45.1311756,30.5124179 44.7384111,30.1960489 43.5737011,30.2031917 L44.1424726,33.066287 L44.1702176,33.0558703 Z M41.6356006,26.0781917 C40.6755096,26.4409893 40.3599108,27.0415846 40.6070143,27.7338465 C40.8234827,28.341287 41.2272296,28.5573584 42.3139069,28.547537 L41.8142087,26.0106322 C41.7592968,26.0311679 41.6908015,26.0573584 41.6356006,26.0781917 L41.6356006,26.0781917 Z M44.2101009,24.3034893 L44.4959318,25.8466441 C43.9424778,25.7353346 43.3401811,25.7064655 42.7188098,25.7969417 L43.251455,28.5136084 C45.1774171,28.4588465 46.2441528,28.8731322 46.7929826,30.4130131 C47.4426769,32.2356322 46.5279605,33.6877155 44.5384162,34.4395012 C44.5115383,34.4502155 44.4976658,34.455275 44.4699209,34.4653941 L44.8173108,36.2261084 L43.7950827,36.3722393 C43.7950827,36.3722393 43.4794839,34.7436679 43.4656114,34.7487274 C42.6572506,34.9267036 41.8720107,34.9511084 41.2035308,34.8665846 L40.9044055,33.328787 C41.7315519,33.4647989 42.4994512,33.4793822 43.2667726,33.3171798 L42.6497364,30.2320608 C40.7827323,30.280275 39.7298692,29.9892036 39.1908657,28.4775965 C38.5865459,26.7820608 39.4475065,25.3984298 41.3408105,24.6829536 C41.3960114,24.6621203 41.4367618,24.6466441 41.4780902,24.6308703 L41.2648009,23.5088465 L42.3058146,23.3722393 L42.5008963,24.3564655 C43.1173544,24.251406 43.7043336,24.2383108 44.2101009,24.3034893 L44.2101009,24.3034893 Z" id="Fill-104" fill="#FFFFFF"></path>
            </g>
        </g>
    </g>
</svg>