<?xml version="1.0" encoding="UTF-8"?>
<svg width="256px" height="256px" viewBox="0 0 256 256" version="1.1" xmlns="http://www.w3.org/2000/svg" xmlns:xlink="http://www.w3.org/1999/xlink">
    <!-- Generator: Sketch 55.2 (78181) - https://sketchapp.com -->
    <title>Icons/Illustrative/misc/franchises-256x256</title>
    <desc>Created with Sketch.</desc>
    <g id="Icons/Illustrative/misc/franchises-256x256" stroke="none" stroke-width="1" fill="none" fill-rule="evenodd">
        <g id="Icons/Illustrative/Oval" fill="#F2F3F2">
            <circle id="Oval" cx="128" cy="128" r="128"></circle>
        </g>
        <g id="Group" transform="translate(47.000000, 68.000000)">
            <g id="Group-6-Copy" transform="translate(100.000000, -0.000000)">
                <path d="M61.6411632,66.0844769 C61.6411632,70.7972889 47.8363461,74.610671 30.8292096,74.610671 C13.8038216,74.610671 0.000663693131,70.7972889 0.000663693131,66.0844769 C0.000663693131,61.3699931 13.8038216,57.5566109 30.8292096,57.5566109 C47.8363461,57.5566109 61.6411632,61.3850393 61.6411632,66.0844769" id="Fill-1" fill="#7B143D"></path>
                <path d="M30.7372881,33.6591208 C24.6787514,33.6591208 19.7789511,28.7048195 19.7789511,22.578893 C19.7789511,16.4529665 24.6787514,11.4986653 30.7372881,11.4986653 C36.7958249,11.4986653 41.6956251,16.4529665 41.6956251,22.578893 C41.6956251,28.688082 36.7792715,33.6591208 30.7372881,33.6591208 M30.7372881,0 C18.4050207,0 8.40677966,10.1094525 8.40677966,22.578893 C8.40677966,35.0483336 30.7372881,65.6779661 30.7372881,65.6779661 C30.7372881,65.6779661 53.0677966,35.0483336 53.0677966,22.578893 C53.0495879,10.1094525 43.0513469,0 30.7372881,0" id="Fill-4" fill="#C22240"></path>
            </g>
            <g id="Group-6-Copy-2" transform="translate(0.000000, -0.000000)">
                <path d="M61.6411632,66.0844769 C61.6411632,70.7972889 47.8363461,74.610671 30.8292096,74.610671 C13.8038216,74.610671 0.000663693131,70.7972889 0.000663693131,66.0844769 C0.000663693131,61.3699931 13.8038216,57.5566109 30.8292096,57.5566109 C47.8363461,57.5566109 61.6411632,61.3850393 61.6411632,66.0844769" id="Fill-1" fill="#7B143D"></path>
                <path d="M30.7372881,33.6591208 C24.6787514,33.6591208 19.7789511,28.7048195 19.7789511,22.578893 C19.7789511,16.4529665 24.6787514,11.4986653 30.7372881,11.4986653 C36.7958249,11.4986653 41.6956251,16.4529665 41.6956251,22.578893 C41.6956251,28.688082 36.7792715,33.6591208 30.7372881,33.6591208 M30.7372881,0 C18.4050207,0 8.40677966,10.1094525 8.40677966,22.578893 C8.40677966,35.0483336 30.7372881,65.6779661 30.7372881,65.6779661 C30.7372881,65.6779661 53.0677966,35.0483336 53.0677966,22.578893 C53.0495879,10.1094525 43.0513469,0 30.7372881,0" id="Fill-4" fill="#C22240"></path>
            </g>
            <g id="Group-6" transform="translate(40.000000, 21.000000)">
                <path d="M81.5254095,87.4020501 C81.5254095,93.635124 63.2674255,98.6786294 40.774116,98.6786294 C18.2566673,98.6786294 0.00087778769,93.635124 0.00087778769,87.4020501 C0.00087778769,81.166765 18.2566673,76.1232596 40.774116,76.1232596 C63.2674255,76.1232596 81.5254095,81.1866649 81.5254095,87.4020501" id="Fill-1" fill="#7B143D"></path>
                <path d="M40.6525424,44.5169016 C32.6396389,44.5169016 26.159258,37.9644387 26.159258,29.8624069 C26.159258,21.7603751 32.6396389,15.2079122 40.6525424,15.2079122 C48.6654458,15.2079122 55.1458268,21.7603751 55.1458268,29.8624069 C55.1458268,37.942302 48.6435527,44.5169016 40.6525424,44.5169016 M40.6525424,0 C24.3421241,0 11.1186441,13.3705662 11.1186441,29.8624069 C11.1186441,46.3542477 40.6525424,86.8644068 40.6525424,86.8644068 C40.6525424,86.8644068 70.1864407,46.3542477 70.1864407,29.8624069 C70.1623582,13.3705662 56.9388781,0 40.6525424,0" id="Fill-4" fill="#C22240"></path>
            </g>
        </g>
    </g>
</svg>