<?xml version="1.0" encoding="UTF-8"?>
<svg width="450px" height="250px" viewBox="0 0 450 250" version="1.1" xmlns="http://www.w3.org/2000/svg" xmlns:xlink="http://www.w3.org/1999/xlink">
    <!-- Generator: Sketch 62 (91390) - https://sketch.com -->
    <title>Illustrations/Grey/Currency/fraud-prevention-450x250</title>
    <desc>Created with Sketch.</desc>
    <g id="Illustrations/Grey/Currency/fraud-prevention-450x250" stroke="none" stroke-width="1" fill="none" fill-rule="evenodd">
        <path d="M280,193 C280,197.971429 255.150745,202 224.502497,202 C193.85425,202 169,197.966387 169,193 C169,188.033613 193.849255,184 224.487513,184 C255.125771,184 279.985016,188.033613 279.985016,193" id="Shadow" fill="#D9DAD5"></path>
        <g id="Group" transform="translate(169.000000, 47.000000)" fill-rule="nonzero">
            <path d="M109.3,46.445 C104.47955,46.3945634 99.6662394,46.0606535 94.885,45.445 C95.0594082,43.8977596 95.1478773,42.3420377 95.15,40.785 C95.15,18.285 77.435,2.84217094e-14 55.585,2.84217094e-14 C33.735,2.84217094e-14 16.015,18.26 16.015,40.785 C16.019762,42.3436226 16.1082227,43.9008649 16.28,45.45 C20.8861898,44.8635258 25.4433373,43.9410669 29.915,42.69 C29.7219681,41.3654081 29.6250482,40.0285832 29.625,38.69 C29.625,23.915 41.25,11.935 55.585,11.935 C69.92,11.935 81.54,23.935 81.54,38.69 C81.5399518,40.0285832 81.443032,41.3654081 81.25,42.69 C63.945,37.785 56.78,29.655 55.585,28.165 L55.585,144.955 L55.585,144.955 C56.4755811,144.955 57.3555114,144.7613 58.165,144.39 L66.925,140.39 C93.82,128.055 111.165,100.44 111.165,69.955 L111.165,48.11 C111.098116,47.1408819 110.270471,46.4019926 109.3,46.445 Z" id="Path" fill="#8B1D41"></path>
            <path d="M16.25,45.455 C11.4804258,46.0700545 6.67879665,46.4039647 1.87,46.455 C0.897626996,46.4091922 0.0669000621,47.1488502 -1.49213975e-13,48.12 L-1.49213975e-13,69.945 C-1.49213975e-13,100.445 17.345,128.045 44.24,140.38 L53,144.38 C53.8114186,144.750812 54.692868,144.94347 55.585,144.945 L55.585,28.17 C54.11,30 43.585,41.9 16.25,45.455" id="Path" fill="#C41F3E"></path>
            <path d="M64.395,70.95 L63.81,76.08 C62.0341274,75.1200239 60.1113955,74.4610912 58.12,74.13 L57.185,83.19 C63.46,84.955 66.5,87.33 66.77,92.69 C67.085,99.06 62.715,102.69 55.555,103.05 L55.305,103.05 L54.705,108.915 L51.265,108.365 C51.265,108.365 51.835,102.935 51.765,102.94 C49.2041187,102.715123 46.6974876,102.071574 44.345,101.035 L44.88,95.91 C47.2617078,97.1517015 49.8514308,97.9448889 52.52,98.25 L53.52,87.955 C47.445,86.23 44.33,84.255 44.065,78.955 C43.77,73.03 47.905,69.555 54.715,69.215 L55.215,69.215 L55.625,65.485 L59.125,66.1 L58.795,69.385 C60.7264613,69.6383445 62.612035,70.165295 64.395,70.95 L64.395,70.95 Z M54.345,73.925 C50.89,74.095 49.285,75.66 49.405,78.085 C49.51,80.205 50.605,81.29 54.125,82.355 L54.99,73.89 L54.345,73.925 Z M55.715,98.365 C59.665,98.165 61.56,96.44 61.415,93.53 C61.305,91.355 60.345,89.965 56.575,88.815 L55.615,98.365 L55.715,98.365 Z" id="Shape" fill="#FFFFFF"></path>
        </g>
    </g>
</svg>