<?xml version="1.0" encoding="UTF-8"?>
<svg width="450px" height="250px" viewBox="0 0 450 250" version="1.1" xmlns="http://www.w3.org/2000/svg" xmlns:xlink="http://www.w3.org/1999/xlink">
    <!-- Generator: Sketch 63.1 (92452) - https://sketch.com -->
    <title>Illustrations/Grey/Currency/growing-your-wealth-450x250</title>
    <desc>Created with Sketch.</desc>
    <g id="Illustrations/Grey/Currency/growing-your-wealth-450x250" stroke="none" stroke-width="1" fill="none" fill-rule="evenodd">
        <path d="M367.965,167.836 C367.965,180.064 303.949,189.977 224.983,189.977 C146.016,189.977 82,180.064 82,167.836 C82,155.608 146.016,145.696 224.983,145.696 C303.949,145.696 367.965,155.608 367.965,167.836" id="Fill-2" fill="#D9DAD5"></path>
        <path d="M314.9523,125.982 L276.3853,125.982 C275.3133,125.982 274.4453,126.85 274.4453,127.921 L274.4453,136.592 C274.4453,137.663 275.3133,138.532 276.3853,138.532 L306.0783,138.532 C307.5893,133.434 310.7553,129.043 314.9523,125.982" id="Fill-4" fill="#C41F3E"></path>
        <path d="M314.9523,125.982 L307.6013,125.982 L307.6013,134.67 C309.3253,131.217 311.8583,128.238 314.9523,125.982" id="Fill-6" fill="#8B1D41"></path>
        <path d="M305.092,145.3185 C305.092,143.3065 305.345,141.3525 305.815,139.4845 L280.93,139.4845 C279.859,139.4845 278.989,140.3535 278.989,141.4245 L278.989,150.0945 C278.989,151.1665 279.859,152.0345 280.93,152.0345 L306.059,152.0345 C305.434,149.9015 305.092,147.6505 305.092,145.3185" id="Fill-8" fill="#C41F3E"></path>
        <path d="M306.4338,153.2037 L277.4018,153.2037 C276.3298,153.2037 275.4608,154.0717 275.4608,155.1427 L275.4608,163.8137 C275.4608,164.8847 276.3298,165.7537 277.4018,165.7537 L316.5878,165.7537 C311.9018,162.8927 308.2758,158.4637 306.4338,153.2037" id="Fill-10" fill="#C41F3E"></path>
        <path d="M175.2697,165.7535 L125.6527,165.7535 C124.5817,165.7535 123.7117,164.8845 123.7117,163.8135 L123.7117,155.1435 C123.7117,154.0715 124.5817,153.2035 125.6527,153.2035 L175.2697,153.2035 C176.3407,153.2035 177.2087,154.0715 177.2087,155.1435 L177.2087,163.8135 C177.2087,164.8845 176.3407,165.7535 175.2697,165.7535" id="Fill-12" fill="#C41F3E"></path>
        <polygon id="Fill-14" fill="#8B1D41" points="156.8699 165.7535 168.3569 165.7535 168.3569 153.2035 156.8699 153.2035"></polygon>
        <polygon id="Fill-16" fill="#8B1D41" points="150.2179 165.7535 154.2959 165.7535 154.2959 153.2035 150.2179 153.2035"></polygon>
        <path d="M170.3264,152.2452 L120.7084,152.2452 C119.6374,152.2452 118.7684,151.3772 118.7684,150.3062 L118.7684,141.6352 C118.7684,140.5642 119.6374,139.6952 120.7084,139.6952 L170.3264,139.6952 C171.3974,139.6952 172.2654,140.5642 172.2654,141.6352 L172.2654,150.3062 C172.2654,151.3772 171.3974,152.2452 170.3264,152.2452" id="Fill-17" fill="#C41F3E"></path>
        <polygon id="Fill-18" fill="#8B1D41" points="151.9249 152.2455 163.4129 152.2455 163.4129 139.6955 151.9249 139.6955"></polygon>
        <polygon id="Fill-19" fill="#8B1D41" points="145.2739 152.2455 149.3529 152.2455 149.3529 139.6955 145.2739 139.6955"></polygon>
        <path d="M171.7912,138.7374 L122.1732,138.7374 C121.1022,138.7374 120.2332,137.8684 120.2332,136.7974 L120.2332,128.1274 C120.2332,127.0554 121.1022,126.1874 122.1732,126.1874 L171.7912,126.1874 C172.8622,126.1874 173.7302,127.0554 173.7302,128.1274 L173.7302,136.7974 C173.7302,137.8684 172.8622,138.7374 171.7912,138.7374" id="Fill-20" fill="#C41F3E"></path>
        <polygon id="Fill-21" fill="#8B1D41" points="153.3899 138.7375 164.8779 138.7375 164.8779 126.1875 153.3899 126.1875"></polygon>
        <polygon id="Fill-22" fill="#8B1D41" points="146.7389 138.7375 150.8179 138.7375 150.8179 126.1875 146.7389 126.1875"></polygon>
        <path d="M251.1994,165.7535 L201.5824,165.7535 C200.5114,165.7535 199.6414,164.8845 199.6414,163.8135 L199.6414,155.1435 C199.6414,154.0715 200.5114,153.2035 201.5824,153.2035 L251.1994,153.2035 C252.2704,153.2035 253.1384,154.0715 253.1384,155.1435 L253.1384,163.8135 C253.1384,164.8845 252.2704,165.7535 251.1994,165.7535" id="Fill-23" fill="#C41F3E"></path>
        <polygon id="Fill-24" fill="#8B1D41" points="232.7989 165.7535 244.2859 165.7535 244.2859 153.2035 232.7989 153.2035"></polygon>
        <polygon id="Fill-25" fill="#8B1D41" points="226.1469 165.7535 230.2259 165.7535 230.2259 153.2035 226.1469 153.2035"></polygon>
        <polygon id="Fill-26" fill="#8B1D41" points="301.9669 165.7535 306.0449 165.7535 306.0449 153.2035 301.9669 153.2035"></polygon>
        <polygon id="Fill-27" fill="#8B1D41" points="300.9509 138.5315 305.0299 138.5315 305.0299 125.9815 300.9509 125.9815"></polygon>
        <path d="M327.0607,111.2867 L277.4437,111.2867 C276.3727,111.2867 275.5027,110.4177 275.5027,109.3467 L275.5027,100.6767 C275.5027,99.6047 276.3727,98.7367 277.4437,98.7367 L327.0607,98.7367 C328.1317,98.7367 328.9997,99.6047 328.9997,100.6767 L328.9997,109.3467 C328.9997,110.4177 328.1317,111.2867 327.0607,111.2867" id="Fill-28" fill="#C41F3E"></path>
        <polygon id="Fill-29" fill="#8B1D41" points="308.6609 111.2865 320.1479 111.2865 320.1479 98.7365 308.6609 98.7365"></polygon>
        <polygon id="Fill-30" fill="#8B1D41" points="302.0089 111.2865 306.0869 111.2865 306.0869 98.7365 302.0089 98.7365"></polygon>
        <path d="M330.5471,97.6759 L280.9301,97.6759 C279.8591,97.6759 278.9891,96.8069 278.9891,95.7359 L278.9891,87.0659 C278.9891,85.9939 279.8591,85.1259 280.9301,85.1259 L330.5471,85.1259 C331.6181,85.1259 332.4861,85.9939 332.4861,87.0659 L332.4861,95.7359 C332.4861,96.8069 331.6181,97.6759 330.5471,97.6759" id="Fill-31" fill="#C41F3E"></path>
        <polygon id="Fill-32" fill="#8B1D41" points="312.1469 97.6755 323.6339 97.6755 323.6339 85.1255 312.1469 85.1255"></polygon>
        <polygon id="Fill-33" fill="#8B1D41" points="305.4959 97.6755 309.5739 97.6755 309.5739 85.1255 305.4959 85.1255"></polygon>
        <path d="M327.0187,84.0651 L277.4017,84.0651 C276.3307,84.0651 275.4607,83.1961 275.4607,82.1251 L275.4607,73.4551 C275.4607,72.3831 276.3307,71.5151 277.4017,71.5151 L327.0187,71.5151 C328.0897,71.5151 328.9577,72.3831 328.9577,73.4551 L328.9577,82.1251 C328.9577,83.1961 328.0897,84.0651 327.0187,84.0651" id="Fill-34" fill="#C41F3E"></path>
        <polygon id="Fill-35" fill="#8B1D41" points="308.6179 84.0655 320.4589 84.0655 320.4589 71.5155 308.6179 71.5155"></polygon>
        <polygon id="Fill-36" fill="#8B1D41" points="301.9669 84.0655 306.0449 84.0655 306.0449 71.5155 301.9669 71.5155"></polygon>
        <path d="M246.2551,152.2452 L196.6381,152.2452 C195.5671,152.2452 194.6981,151.3772 194.6981,150.3062 L194.6981,141.6352 C194.6981,140.5642 195.5671,139.6952 196.6381,139.6952 L246.2551,139.6952 C247.3261,139.6952 248.1951,140.5642 248.1951,141.6352 L248.1951,150.3062 C248.1951,151.3772 247.3261,152.2452 246.2551,152.2452" id="Fill-37" fill="#C41F3E"></path>
        <polygon id="Fill-38" fill="#8B1D41" points="227.8549 152.2455 239.3429 152.2455 239.3429 139.6955 227.8549 139.6955"></polygon>
        <polygon id="Fill-39" fill="#8B1D41" points="221.2039 152.2455 225.2829 152.2455 225.2829 139.6955 221.2039 139.6955"></polygon>
        <path d="M251.1379,138.7374 L201.5209,138.7374 C200.4499,138.7374 199.5809,137.8684 199.5809,136.7974 L199.5809,128.1274 C199.5809,127.0554 200.4499,126.1874 201.5209,126.1874 L251.1379,126.1874 C252.2089,126.1874 253.0779,127.0554 253.0779,128.1274 L253.0779,136.7974 C253.0779,137.8684 252.2089,138.7374 251.1379,138.7374" id="Fill-40" fill="#C41F3E"></path>
        <polygon id="Fill-41" fill="#8B1D41" points="232.7369 138.7375 243.8729 138.7375 243.8729 126.1875 232.7369 126.1875"></polygon>
        <polygon id="Fill-42" fill="#8B1D41" points="226.0859 138.7375 230.1649 138.7375 230.1649 126.1875 226.0859 126.1875"></polygon>
        <path d="M247.7199,125.1056 L198.1029,125.1056 C197.0319,125.1056 196.1629,124.2366 196.1629,123.1656 L196.1629,114.4956 C196.1629,113.4236 197.0319,112.5556 198.1029,112.5556 L247.7199,112.5556 C248.7909,112.5556 249.6599,113.4236 249.6599,114.4956 L249.6599,123.1656 C249.6599,124.2366 248.7909,125.1056 247.7199,125.1056" id="Fill-43" fill="#C41F3E"></path>
        <polygon id="Fill-44" fill="#8B1D41" points="229.3199 125.1055 240.1019 125.1055 240.1019 112.5555 229.3199 112.5555"></polygon>
        <polygon id="Fill-45" fill="#8B1D41" points="222.6679 125.1055 226.7469 125.1055 226.7469 112.5555 222.6679 112.5555"></polygon>
        <path d="M252.7805,111.4733 L203.1635,111.4733 C202.0925,111.4733 201.2225,110.6053 201.2225,109.5343 L201.2225,100.8633 C201.2225,99.7923 202.0925,98.9233 203.1635,98.9233 L252.7805,98.9233 C253.8515,98.9233 254.7195,99.7923 254.7195,100.8633 L254.7195,109.5343 C254.7195,110.6053 253.8515,111.4733 252.7805,111.4733" id="Fill-46" fill="#C41F3E"></path>
        <polygon id="Fill-47" fill="#8B1D41" points="234.3799 111.4735 245.8669 111.4735 245.8669 98.9235 234.3799 98.9235"></polygon>
        <polygon id="Fill-48" fill="#8B1D41" points="227.7289 111.4735 231.8069 111.4735 231.8069 98.9235 227.7289 98.9235"></polygon>
        <path d="M331.9797,68.232 C327.9897,68.232 324.7527,71.472 324.7527,75.468 C324.7527,71.472 321.5137,68.232 317.5177,68.232 C321.5137,68.232 324.7527,64.992 324.7527,61 C324.7527,64.992 327.9897,68.232 331.9797,68.232" id="Fill-49" fill="#FFFFFF"></path>
        <path d="M198.5422,144.9625 C196.1012,144.9625 194.1202,146.9445 194.1202,149.3895 C194.1202,146.9445 192.1392,144.9625 189.6942,144.9625 C192.1392,144.9625 194.1202,142.9805 194.1202,140.5385 C194.1202,142.9805 196.1012,144.9625 198.5422,144.9625" id="Fill-50" fill="#FFFFFF"></path>
        <path d="M281.7053,90.984 C278.9823,90.984 276.7723,93.195 276.7723,95.923 C276.7723,93.195 274.5613,90.984 271.8343,90.984 C274.5613,90.984 276.7723,88.772 276.7723,86.047 C276.7723,88.772 278.9823,90.984 281.7053,90.984" id="Fill-51" fill="#FFFFFF"></path>
        <path d="M277.343,131.8023 C275.116,131.8023 273.311,133.6103 273.311,135.8403 C273.311,133.6103 271.503,131.8023 269.273,131.8023 C271.503,131.8023 273.311,129.9943 273.311,127.7663 C273.311,129.9943 275.116,131.8023 277.343,131.8023" id="Fill-52" fill="#FFFFFF"></path>
        <path d="M245.4357,97.2618 C242.7127,97.2618 240.5027,99.4728 240.5027,102.2008 C240.5027,99.4728 238.2917,97.2618 235.5647,97.2618 C238.2917,97.2618 240.5027,95.0498 240.5027,92.3248 C240.5027,95.0498 242.7127,97.2618 245.4357,97.2618" id="Fill-53" fill="#FFFFFF"></path>
        <path d="M124.6721,127.0977 C122.6881,127.0977 121.0771,128.7097 121.0771,130.6977 C121.0771,128.7097 119.4661,127.0977 117.4791,127.0977 C119.4661,127.0977 121.0771,125.4857 121.0771,123.5007 C121.0771,125.4857 122.6881,127.0977 124.6721,127.0977" id="Fill-54" fill="#FFFFFF"></path>
        <path d="M324.5871,121.8121 L324.5871,114.3111 C324.5871,113.2391 323.7191,112.3711 322.6481,112.3711 L273.0301,112.3711 C271.9591,112.3711 271.0911,113.2391 271.0911,114.3111 L271.0911,122.9811 C271.0911,124.0521 271.9591,124.9211 273.0301,124.9211 L316.5291,124.9211 C318.9631,123.4251 321.6841,122.3581 324.5871,121.8121" id="Fill-55" fill="#C41F3E"></path>
        <polygon id="Fill-56" fill="#8B1D41" points="304.2479 124.9205 315.7359 124.9205 315.7359 112.3705 304.2479 112.3705"></polygon>
        <polygon id="Fill-57" fill="#8B1D41" points="297.5959 124.9205 301.6749 124.9205 301.6749 112.3705 297.5959 112.3705"></polygon>
        <path d="M329.0158,164.6139 C318.3768,164.6139 309.7208,155.9579 309.7208,145.3189 C309.7208,134.6789 318.3768,126.0229 329.0158,126.0229 C339.6558,126.0229 348.3118,134.6789 348.3118,145.3189 C348.3118,155.9579 339.6558,164.6139 329.0158,164.6139 M329.0158,122.2099 C316.2748,122.2099 305.9088,132.5759 305.9088,145.3189 C305.9088,158.0599 316.2748,168.4269 329.0158,168.4269 C341.7578,168.4269 352.1238,158.0599 352.1238,145.3189 C352.1238,132.5759 341.7578,122.2099 329.0158,122.2099" id="Fill-58" fill="#8B1D41"></path>
        <path d="M329.0158,126.839 C318.8268,126.839 310.5368,135.129 310.5368,145.318 C310.5368,155.508 318.8268,163.798 329.0158,163.798 C339.2058,163.798 347.4958,155.508 347.4958,145.318 C347.4958,135.129 339.2058,126.839 329.0158,126.839" id="Fill-59" fill="#C41F3E"></path>
        <path d="M329.3273,150.0636 C330.9743,149.9766 331.7623,149.2526 331.6973,148.0376 C331.6493,147.1316 331.2473,146.5536 329.6733,146.0796 L329.2853,150.0656 C329.2853,150.0656 329.3063,150.0646 329.3273,150.0636 M328.7233,139.8716 C327.2813,139.9476 326.6133,140.6036 326.6673,141.6126 C326.7143,142.4986 327.1723,142.9486 328.6403,143.3876 L328.9903,139.8566 C328.9083,139.8616 328.8053,139.8676 328.7233,139.8716 M332.9113,138.6166 L332.6743,140.7566 C331.9723,140.3806 331.1723,140.0926 330.2973,139.9536 L329.9203,143.7326 C332.5403,144.4606 333.8103,145.4466 333.9313,147.6916 C334.0713,150.3486 332.2533,151.8706 329.2653,152.0296 C329.2243,152.0316 329.2043,152.0326 329.1633,152.0346 L328.9223,154.4846 L327.4833,154.2516 C327.4833,154.2516 327.7153,151.9876 327.6943,151.9886 C326.5323,151.8856 325.4633,151.5906 324.5963,151.2036 L324.8123,149.0646 C325.8723,149.5866 326.9023,149.9246 328.0033,150.0306 L328.4153,145.7336 C325.8773,145.0216 324.5743,144.2026 324.4573,141.9996 C324.3253,139.5266 326.0453,138.0726 328.8883,137.9206 C328.9703,137.9166 329.0323,137.9136 329.0943,137.9106 L329.2593,136.3526 L330.7183,136.6056 L330.5843,137.9756 C331.4583,138.0946 332.2553,138.3206 332.9113,138.6166" id="Fill-60" fill="#FFFFFF"></path>
    </g>
</svg>