<?xml version="1.0" encoding="UTF-8"?>
<svg width="256px" height="256px" viewBox="0 0 256 256" version="1.1" xmlns="http://www.w3.org/2000/svg" xmlns:xlink="http://www.w3.org/1999/xlink">
    <!-- Generator: Sketch 56.3 (81716) - https://sketch.com -->
    <title>Icons/Illustrative/charts-graphs/growth-256x256</title>
    <desc>Created with Sketch.</desc>
    <g id="Icons/Illustrative/charts-graphs/growth-256x256" stroke="none" stroke-width="1" fill="none" fill-rule="evenodd">
        <g id="Icons/Illustrative/Oval" fill="#F2F3F2">
            <circle id="Oval" cx="128" cy="128" r="128"></circle>
        </g>
        <g id="il-ic-investment-management" transform="translate(44.000000, 50.000000)" fill-rule="nonzero">
            <polygon id="Path" fill="#C41F3E" points="113.25 0.2 113.16 9.3 134.12 9.5 100.19 41.51 66.31 8.22 14.27 49.61 19.94 56.74 65.67 20.36 100.07 54.14 141.13 15.39 140.92 37.58 150.02 37.67 150.37 0.55"></polygon>
            <path d="M163.46,143.43 L4.54,143.43 C2.51,143.43 0.87,141.79 0.87,139.76 L0.87,130.89 C0.87,128.86 2.51,127.22 4.54,127.22 L163.45,127.22 C165.48,127.22 167.120045,128.86 167.120045,130.89 L167.120045,139.76 C167.13,141.78 165.48,143.43 163.46,143.43 Z" id="Path" fill="#8B1D41"></path>
            <path d="M40.94,77 C40.94,75.1 39.4,73.55 37.49,73.55 L20.4,73.55 C18.5,73.55 16.95,75.09 16.95,77 L16.95,127.21 L40.93,127.21 L40.93,77 L40.94,77 Z" id="Path" fill="#C41F3E"></path>
            <path d="M77.64,66.27 C77.64,64.49 76.2,63.05 74.42,63.05 L56.87,63.05 C55.09,63.05 53.65,64.49 53.65,66.27 L53.65,127.21 L77.63,127.21 L77.63,66.27 L77.64,66.27 Z" id="Path" fill="#C41F3E"></path>
            <path d="M114.34,86.4 C114.34,84.77 113.02,83.46 111.4,83.46 L93.3,83.46 C91.67,83.46 90.36,84.78 90.36,86.4 L90.36,127.21 L114.34,127.21 L114.34,86.4 Z" id="Path" fill="#C41F3E"></path>
            <path d="M151.05,53.39 C151.05,51.38 149.42,49.76 147.42,49.76 L130.7,49.76 C128.69,49.76 127.07,51.39 127.07,53.39 L127.07,127.21 L151.05,127.21 L151.05,53.39 L151.05,53.39 Z" id="Path" fill="#C41F3E"></path>
        </g>
    </g>
</svg>