<?xml version="1.0" encoding="UTF-8"?>
<svg width="256px" height="256px" viewBox="0 0 256 256" version="1.1" xmlns="http://www.w3.org/2000/svg" xmlns:xlink="http://www.w3.org/1999/xlink">
    <title>Icons/Illustrative/device/headset-256x256</title>
    <g id="Icons/Illustrative/device/headset-256x256" stroke="none" stroke-width="1" fill="none" fill-rule="evenodd">
        <g id="Oval" fill="#F2F3F2">
            <circle cx="128" cy="128" r="128"></circle>
        </g>
        <g id="Group-18" transform="translate(66.000000, 68.000000)">
            <path d="M61.8228,0.3039 C38.7308,0.3039 19.3648,16.5549 14.5028,38.1939 C14.9968,38.1409 15.5128,38.0259 16.0178,38.0259 C17.3968,38.0259 18.7228,38.3099 19.9748,38.6999 C24.5428,19.8069 41.5408,5.6929 61.8228,5.6929 C82.0938,5.6929 99.1028,19.8069 103.6708,38.6999 C104.9228,38.3099 106.2388,38.0259 107.6278,38.0259 C108.1328,38.0259 108.6488,38.1409 109.1428,38.1939 C104.2808,16.5549 84.9048,0.3039 61.8228,0.3039" id="Fill-4" fill="#C41F3E"></path>
            <path d="M0.0049,65.4982 C0.0049,74.1392 3.2259,81.4642 8.0879,85.3692 L8.0879,45.6272 C3.2259,49.5312 0.0049,56.8562 0.0049,65.4982" id="Fill-6" fill="#C41F3E"></path>
            <path d="M115.7788,45.6271 L115.7788,85.3691 C120.6418,81.4641 123.8618,74.1391 123.8618,65.4981 C123.8618,56.8561 120.6418,49.5311 115.7788,45.6271" id="Fill-8" fill="#C41F3E"></path>
            <path d="M104.7964,89.9474 C103.7434,97.7074 95.2814,109.9554 86.0724,109.9554 L73.8704,109.9554 C74.0484,110.8294 72.6504,111.7234 72.6504,112.6504 C72.6504,113.5764 73.8274,114.4704 73.6484,115.3444 L86.0724,115.3444 C98.1764,115.3444 110.7264,100.5334 111.1144,90.5024 C110.5464,90.5754 109.3654,90.2804 108.7874,90.2804 C107.4614,90.2804 106.0064,90.3044 104.7964,89.9474" id="Fill-10" fill="#C41F3E"></path>
            <path d="M56.4341,104.5666 C51.9821,104.5666 48.3511,108.1986 48.3511,112.6506 C48.3511,117.1016 51.9821,120.7336 56.4341,120.7336 L69.9061,120.7336 C74.3581,120.7336 77.9891,117.1016 77.9891,112.6506 C77.9891,108.1986 74.3581,104.5666 69.9061,104.5666 L56.4341,104.5666 Z" id="Fill-12" fill="#8B1D41"></path>
            <path d="M16.0181,37.2072 C11.5661,37.2072 7.9351,40.8382 7.9351,45.2902 L7.9351,85.7062 C7.9351,90.1582 11.5661,93.7892 16.0181,93.7892 C20.4701,93.7892 24.1011,90.1582 24.1011,85.7062 L24.1011,45.2902 C24.1011,40.8382 20.4701,37.2072 16.0181,37.2072" id="Fill-14" fill="#8B1D41"></path>
            <path d="M107.6274,37.2072 C103.1754,37.2072 99.5444,40.8382 99.5444,45.2902 L99.5444,85.7062 C99.5444,90.1582 103.1754,93.7892 107.6274,93.7892 C112.0794,93.7892 115.7104,90.1582 115.7104,85.7062 L115.7104,45.2902 C115.7104,40.8382 112.0794,37.2072 107.6274,37.2072" id="Fill-16" fill="#8B1D41"></path>
        </g>
    </g>
</svg>