<?xml version="1.0" encoding="UTF-8"?>
<svg width="257px" height="257px" viewBox="0 0 257 257" version="1.1" xmlns="http://www.w3.org/2000/svg" xmlns:xlink="http://www.w3.org/1999/xlink">
    <!-- Generator: Sketch 56.3 (81716) - https://sketch.com -->
    <title>Icons/Illustrative/health/heart-check-256x256</title>
    <desc>Created with Sketch.</desc>
    <g id="Icons/Illustrative/health/heart-check-256x256" stroke="none" stroke-width="1" fill="none" fill-rule="evenodd">
        <g id="Icons/Illustrative/Oval" fill="#F2F3F2">
            <circle id="Oval" cx="128" cy="128" r="128"></circle>
        </g>
        <g id="Group-9" transform="translate(57.000000, 67.000000)">
            <g id="Group-3" transform="translate(0.000000, 0.496000)" fill="#C4203F">
                <path d="M70.8807,121.0003 L70.8807,21.3673 C64.5587,8.5773 51.5417,0.5553 37.3847,0.5553 C36.7537,0.5553 36.1187,0.5703 35.4827,0.6033 C20.5977,1.3573 7.5857,10.8833 2.3677,24.8433 C-2.8513,38.8033 0.7227,54.5283 11.4617,64.8613 L70.8807,121.0003 Z" id="Fill-1"></path>
            </g>
            <g id="Group-6" transform="translate(70.000000, 0.496000)" fill="#8B1D41">
                <path d="M69.4236,24.804 C64.2056,10.831 51.1796,1.298 36.2816,0.551 C21.3856,-0.196 7.4706,7.986 0.8806,21.367 L0.8806,121 L26.9476,96.361 C24.7206,93.059 24.1806,88.633 24.1806,84.35 C24.1806,72.915 34.8776,62.835 46.3136,62.835 C51.0126,62.835 55.5856,63.367 59.0626,66.006 L60.2906,64.844 C71.0516,54.515 74.6426,38.778 69.4236,24.804" id="Fill-4"></path>
            </g>
            <path d="M113.4617,95.0871 L104.5837,86.1991 L106.4887,84.2941 L113.4617,91.2681 L128.0217,76.7091 L129.9357,78.6141 L113.4617,95.0871 Z M129.7687,69.4021 C126.2917,66.7631 121.9597,65.1941 117.2587,65.1941 C105.8237,65.1941 96.5557,74.4641 96.5557,85.8991 C96.5557,90.1811 97.8567,94.1591 100.0827,97.4621 C103.8037,102.9761 110.1077,106.6031 117.2587,106.6031 C128.6927,106.6031 137.9637,97.3331 137.9637,85.8991 C137.9637,79.1641 134.7457,73.1841 129.7687,69.4021 L129.7687,69.4021 Z" id="Fill-7" fill="#C41F3E"></path>
        </g>
    </g>
</svg>