<?xml version="1.0" encoding="UTF-8"?>
<svg width="256px" height="256px" viewBox="0 0 256 256" version="1.1" xmlns="http://www.w3.org/2000/svg" xmlns:xlink="http://www.w3.org/1999/xlink">
    <!-- Generator: Sketch 56.3 (81716) - https://sketch.com -->
    <title>Icons/Illustrative/health/heart-256x256</title>
    <desc>Created with Sketch.</desc>
    <g id="Icons/Illustrative/health/heart-256x256" stroke="none" stroke-width="1" fill="none" fill-rule="evenodd">
        <g id="Icons/Illustrative/Oval-White" fill="#FFFFFF">
            <circle id="Oval" cx="128" cy="128" r="128"></circle>
        </g>
        <g id="Group-7" transform="translate(57.000000, 67.000000)">
            <g id="Group-3" transform="translate(0.000000, 0.496000)" fill="#C4203F">
                <path d="M37.3846,0.5549 C36.7536,0.5549 36.1186,0.5709 35.4826,0.6029 C20.5976,1.3579 7.5856,10.8829 2.3676,24.8429 C-2.8514,38.8029 0.7226,54.5289 11.4616,64.8619 L70.8806,120.9999 L70.8806,21.3679 C64.5586,8.5779 51.5416,0.5549 37.3846,0.5549" id="Fill-1"></path>
            </g>
            <g id="Group-6" transform="translate(70.000000, 0.496000)" fill="#8B1D41">
                <path d="M69.4242,24.804 C64.2062,10.831 51.1802,1.298 36.2822,0.551 C21.3862,-0.196 7.4712,7.986 0.8812,21.367 L0.8812,121 L60.2912,64.844 C71.0522,54.515 74.6422,38.778 69.4242,24.804" id="Fill-4"></path>
            </g>
        </g>
    </g>
</svg>