<?xml version="1.0" encoding="UTF-8"?>
<svg width="256px" height="256px" viewBox="0 0 256 256" version="1.1" xmlns="http://www.w3.org/2000/svg" xmlns:xlink="http://www.w3.org/1999/xlink">
    <!-- Generator: Sketch 59.1 (86144) - https://sketch.com -->
    <title>Icons/Illustrative/misc/higher-interest-rates-256x256</title>
    <desc>Created with Sketch.</desc>
    <g id="Icons/Illustrative/misc/higher-interest-rates-256x256" stroke="none" stroke-width="1" fill="none" fill-rule="evenodd">
        <g id="Icons/Illustrative/Oval" fill="#F2F3F2">
            <circle id="Oval" cx="128" cy="128" r="128"></circle>
        </g>
        <g id="Group-17" transform="translate(57.000000, 57.000000)">
            <path d="M69.8163087,0.0217196605 L73.9558198,17.6566216 C97.4224027,18.7173453 118.297176,35.1541317 123.931224,59.1592855 C130.730478,88.1282719 112.766506,117.12385 83.8091263,123.925483 C54.851747,130.727116 25.8663082,112.756859 19.0670541,83.7893503 C14.6336569,64.903149 20.7653908,46.0405849 33.5693728,33.2926944 L42.0728709,38.2255031 L41.9798316,6.34469697 L10.6418272,19.0659955 L18.2444684,23.7919778 C3.22526464,40.5936649 -3.63453886,64.2088033 1.90794608,87.8195097 C10.929806,126.267053 49.4037782,150.118564 87.8378764,141.090594 C126.271975,132.0641 150.115145,93.5766692 141.091808,55.1291261 C133.21891,21.5863224 102.938305,-0.796721795 69.8163087,0.0217196605" id="Fill-7" fill="#8B1D41"></path>
            <path d="M23.3258532,82.7881868 C26.3477994,95.6622701 34.1983544,106.589635 45.4330751,113.555515 C56.6677958,120.522875 69.9412952,122.692963 82.8082217,119.670816 C95.6766266,116.648668 106.596438,108.793746 113.559925,97.5512974 C120.521933,86.3103277 122.692293,73.0294453 119.671826,60.1553621 C114.634756,38.6941188 95.7549843,23.0109026 73.758646,22.0168335 C73.758646,22.0168335 59.1308889,21.3659548 46.4458114,28.1587608 L46.4975571,45.8966825 L34.3432422,38.8435251 C23.751646,50.8877381 19.6371273,67.0709474 23.3258532,82.7881868" id="Fill-9" fill="#C41F3E"></path>
            <path d="M54.3888538,70.0195286 C51.5045916,69.9640354 50.0514854,66.8414198 50.1407497,61.9175258 C50.2329407,56.780658 51.7284841,53.8560179 54.6800604,53.9115111 C57.4940819,53.9640047 58.8813374,57.016129 58.7906097,62.0105143 C58.6984187,67.075391 57.2716527,70.0750218 54.3888538,70.0195286 M54.7868849,48.0022384 C48.4037536,47.8807534 43.1678884,52.7071593 43.0039933,61.7810426 C42.8386348,70.8564256 47.8286572,75.874808 54.280566,75.9977928 C60.6636973,76.1192779 65.8322484,71.2223806 65.9961435,62.1469975 C66.1585754,53.1436056 61.1700163,48.1222236 54.7868849,48.0022384" id="Fill-11" fill="#FFFFFF"></path>
            <polygon id="Fill-13" fill="#FFFFFF" points="52 94.4418837 67.5321409 71.8279432 82.7909846 49 89 50.4906908 73.3969496 73.2424138 58.1395832 96"></polygon>
            <path d="M87.3185715,91.0888365 C84.5060196,91.034846 83.0499899,87.9813853 83.1407174,82.9887671 C83.2329082,77.9241617 84.659671,74.9246914 87.6097774,74.9801816 C90.425256,75.0341721 91.8798224,78.0891325 91.7890949,83.0817507 C91.6983674,88.1463562 90.201364,91.1443267 87.3185715,91.0888365 M87.7180651,69.0022375 C81.3364112,68.8807589 76.1678716,73.7084063 76.0039768,82.8522912 C75.840082,91.8567009 80.7613161,96.8748145 87.2117472,96.9977928 C93.5948644,97.1192714 98.8336447,92.2226362 98.9960761,83.2182266 C99.1599709,74.1448292 94.1699596,69.1252158 87.7180651,69.0022375" id="Fill-15" fill="#FFFFFF"></path>
        </g>
    </g>
</svg>