<?xml version="1.0" encoding="UTF-8"?>
<svg width="256px" height="256px" viewBox="0 0 256 256" version="1.1" xmlns="http://www.w3.org/2000/svg" xmlns:xlink="http://www.w3.org/1999/xlink">
    <!-- Generator: Sketch 56.3 (81716) - https://sketch.com -->
    <title>Icons/Illustrative/mortgage/home-renovation-256x256</title>
    <desc>Created with Sketch.</desc>
    <g id="Icons/Illustrative/mortgage/home-renovation-256x256" stroke="none" stroke-width="1" fill="none" fill-rule="evenodd">
        <g id="Icons/Illustrative/Oval-White" fill="#FFFFFF">
            <circle id="Oval" cx="128" cy="128" r="128"></circle>
        </g>
        <g id="Group-10" transform="translate(52.000000, 59.000000)">
            <path d="M104.8064,90.8505 C104.8064,107.1095 91.6254,120.2895 75.3664,120.2895 C59.1074,120.2895 45.9264,107.1095 45.9264,90.8505 C45.9264,74.5905 59.1074,61.4105 75.3664,61.4105 C91.6254,61.4105 104.8064,74.5905 104.8064,90.8505 L104.8064,90.8505 Z M24.2864,78.6365 L24.2864,137.6295 L127.5664,137.6295 L127.5664,78.6015 L75.9264,26.9705 L24.2864,78.6365 Z" id="Fill-1" fill="#C4203F"></path>
            <path d="M84.5866,78.0497 L87.3766,80.8397 C88.0656,81.5297 87.3766,83.4807 88.3766,84.5897 C88.7996,85.0067 89.3626,85.2487 89.9566,85.2707 C90.5066,84.8447 91.2906,84.9147 91.7566,85.4297 L92.3366,86.0707 C92.9166,86.6467 92.9196,87.5827 92.3436,88.1627 L92.3366,88.1697 L89.4856,91.0707 C88.9126,91.6527 87.9766,91.6597 87.3936,91.0867 C87.3876,91.0817 87.3826,91.0757 87.3766,91.0707 L86.7466,90.3907 C86.2746,90.0127 86.1016,89.3737 86.3156,88.8107 C86.7966,88.4897 86.6366,87.5397 85.7356,86.6997 C84.4766,85.3797 82.8366,85.3297 82.2066,86.0097 C81.9456,86.2197 81.0966,87.1197 81.0966,87.1197 L80.2266,88.0707 L63.2266,106.8397 C62.4516,107.6267 61.1856,107.6367 60.3986,106.8617 C60.3906,106.8547 60.3836,106.8477 60.3766,106.8397 L58.3166,104.7307 C57.5326,103.9517 57.5266,102.6857 58.3046,101.9017 C58.3086,101.8977 58.3126,101.8937 58.3166,101.8907 L76.4066,84.1697 L77.1956,83.2707 L77.8266,82.6407 C77.8266,82.6407 77.9856,82.4807 78.3066,82.1107 C78.9816,81.3747 78.9586,80.2387 78.2566,79.5297 C76.0036,77.4647 73.0816,76.2817 70.0266,76.1997 L69.9766,74.9897 C79.6266,72.5097 83.2666,76.7307 84.5866,78.0497 M45.9266,90.8507 C45.9266,107.1097 59.1076,120.2897 75.3666,120.2897 C91.6256,120.2897 104.8066,107.1097 104.8066,90.8507 C104.8066,74.5907 91.6256,61.4097 75.3666,61.4097 C59.1076,61.4097 45.9266,74.5907 45.9266,90.8507" id="Fill-3" fill="#FFFFFF"></path>
            <g id="Group-7" transform="translate(0.000000, 0.630000)" fill="#8B1D41">
                <path d="M149.2468,69.9099 L82.2968,2.9999 C80.6058,1.3129 78.3148,0.3669 75.9268,0.369871751 C73.5298,0.3639 71.2298,1.3139 69.5368,3.0099 L2.6368,69.9099 C-0.8782,73.4259 -0.8782,79.1249 2.6368,82.6399 C6.1518,86.1549 11.8508,86.1549 15.3668,82.6399 L24.2868,73.7229 L75.9268,22.0999 L127.5658,73.6889 L136.5258,82.6399 C140.0088,85.9729 145.4988,85.9719 148.9788,82.6359 C152.5668,79.1949 152.6858,73.4979 149.2468,69.9099" id="Fill-5"></path>
            </g>
            <path d="M70.0266,76.2001 C73.0816,76.2821 76.0046,77.4651 78.2566,79.5301 C78.9586,80.2391 78.9816,81.3751 78.3066,82.1101 C77.9856,82.4801 77.8266,82.6401 77.8266,82.6401 L77.1956,83.2701 L76.4066,84.1701 L58.3166,101.8901 C58.3126,101.8931 58.3086,101.8971 58.3046,101.9011 C57.5266,102.6851 57.5326,103.9521 58.3166,104.7301 L60.3766,106.8401 C60.3836,106.8471 60.3906,106.8541 60.3986,106.8611 C61.1856,107.6371 62.4516,107.6271 63.2266,106.8401 L80.2266,88.0701 L81.0966,87.1201 C81.0966,87.1201 81.9456,86.2201 82.2066,86.0101 C82.8366,85.3301 84.4766,85.3801 85.7356,86.7001 C86.6366,87.5401 86.7966,88.4901 86.3166,88.8101 C86.1016,89.3741 86.2756,90.0131 86.7466,90.3901 L87.3766,91.0701 C87.3826,91.0761 87.3876,91.0821 87.3936,91.0871 C87.9766,91.6601 88.9126,91.6521 89.4856,91.0701 L92.3366,88.1701 L92.3436,88.1631 C92.9196,87.5831 92.9166,86.6461 92.3366,86.0701 L91.7566,85.4291 C91.2906,84.9151 90.5066,84.8451 89.9566,85.2701 C89.3626,85.2491 88.7996,85.0071 88.3766,84.5901 C87.3766,83.4801 88.0666,81.5301 87.3766,80.8401 L84.5866,78.0501 C83.2666,76.7301 79.6266,72.5101 69.9766,74.9901 L70.0266,76.2001 Z" id="Fill-8" fill="#8B1D41"></path>
        </g>
    </g>
</svg>