<svg width="32" height="32" viewBox="0 0 32 32" fill="none" xmlns="http://www.w3.org/2000/svg">
<path d="M3 30.9999V13.5316L12.6606 8.46826V12.8986L21.4541 8.46826V12.8986L30 8.46826V30.9999H3Z" fill="#C41F3E"/>
<path d="M24.3925 8.72152V1H29.4557V6.31646L24.3925 8.72152Z" fill="#C41F3E"/>
<rect x="5" y="16" width="3" height="3" fill="white"/>
<rect x="5" y="21" width="3" height="3" fill="white"/>
<rect x="5" y="26" width="3" height="3" fill="white"/>
<rect x="10" y="16" width="3" height="3" fill="white"/>
<rect x="10" y="21" width="3" height="3" fill="white"/>
<rect x="10" y="26" width="3" height="3" fill="white"/>
<rect x="15" y="16" width="3" height="3" fill="white"/>
<rect x="15" y="21" width="3" height="3" fill="white"/>
<rect x="15" y="26" width="3" height="3" fill="white"/>
<rect x="20" y="16" width="3" height="3" fill="white"/>
<rect x="25" y="16" width="3" height="3" fill="white"/>
<rect x="20" y="21" width="3" height="3" fill="white"/>
<rect x="25" y="21" width="3" height="3" fill="white"/>
<rect x="20" y="26" width="3" height="3" fill="white"/>
<rect x="25" y="26" width="3" height="3" fill="white"/>
</svg>
