<svg width="32" height="32" viewBox="0 0 32 32" fill="none" xmlns="http://www.w3.org/2000/svg">
<path d="M17.2695 2.51994L30.5051 15.7477C31.185 16.457 31.1615 17.5833 30.4522 18.2635C29.7642 18.923 28.6788 18.9232 27.9903 18.2643L16.0102 6.2959L4.03782 18.2643C3.34273 18.9592 2.21607 18.9592 1.52117 18.2643C0.826276 17.5694 0.826276 16.4428 1.52117 15.7477L14.7469 2.52192C15.0816 2.18663 15.5363 1.99882 16.0102 2.00001C16.4823 1.99941 16.9352 2.18643 17.2695 2.51994Z" fill="#C41F3E"/>
<path d="M5.80118 28.0126V18.35L16.0101 8.1359L26.2191 18.3431V28.0126C26.2191 29.1171 25.3236 30.0126 24.2191 30.0126H7.80118C6.69661 30.0126 5.80118 29.1171 5.80118 28.0126Z" fill="#C41F3E"/>
<path fill-rule="evenodd" clip-rule="evenodd" d="M17.6667 19.3333H20C20.5523 19.3333 21 19.781 21 20.3333V21.6667C21 22.219 20.5523 22.6667 20 22.6667H17.6667V25C17.6667 25.5523 17.2189 26 16.6667 26H15.3333C14.781 26 14.3333 25.5523 14.3333 25V22.6667H12C11.4477 22.6667 11 22.219 11 21.6667V20.3333C11 19.781 11.4477 19.3333 12 19.3333H14.3333V17C14.3333 16.4477 14.781 16 15.3333 16H16.6667C17.2189 16 17.6667 16.4477 17.6667 17V19.3333Z" fill="white"/>
</svg>
