<svg width="32" height="32" viewBox="0 0 32 32" fill="none" xmlns="http://www.w3.org/2000/svg">
<path d="M10.2019 2.09791C8.71225 2.16819 7.695 2.40591 6.80571 2.75536C5.88534 3.11404 5.10525 3.59536 4.32909 4.37432C3.55292 5.15328 3.07495 5.93393 2.71879 6.85569C2.37411 7.74693 2.14058 8.76502 2.07478 10.2555C2.00898 11.7459 1.99442 12.225 2.0017 16.0268C2.00898 19.8287 2.02578 20.3053 2.09802 21.7988C2.16914 23.2881 2.40603 24.3051 2.75547 25.1946C3.11471 26.115 3.59548 26.8948 4.37473 27.6712C5.15397 28.4477 5.93406 28.9245 6.85807 29.2812C7.74848 29.6254 8.76685 29.86 10.257 29.9253C11.7472 29.9905 12.2268 30.0056 16.0276 29.9983C19.8284 29.9911 20.3069 29.9743 21.8001 29.9034C23.2934 29.8326 24.305 29.594 25.1949 29.2462C26.1153 28.8862 26.8956 28.4062 27.6715 27.6267C28.4474 26.8472 28.9251 26.066 29.281 25.1437C29.6259 24.2533 29.8603 23.2349 29.925 21.7459C29.9902 20.2515 30.0056 19.7744 29.9983 15.9731C29.9911 12.1718 29.974 11.6952 29.9031 10.2023C29.8323 8.7093 29.5951 7.69541 29.246 6.80529C28.8862 5.88493 28.406 5.10568 27.627 4.32868C26.848 3.55168 26.0663 3.07428 25.1442 2.71924C24.2532 2.37455 23.2354 2.13963 21.7453 2.07523C20.2551 2.01083 19.7754 1.99431 15.9733 2.00159C12.1711 2.00887 11.6951 2.02511 10.2019 2.09791ZM10.3654 27.4066C9.00037 27.3473 8.25921 27.1205 7.76528 26.9306C7.11119 26.6786 6.64527 26.374 6.15302 25.8865C5.66078 25.399 5.35838 24.9314 5.10301 24.2788C4.91121 23.7848 4.68021 23.0445 4.61637 21.6795C4.54693 20.2042 4.53237 19.7612 4.52425 16.0235C4.51613 12.2857 4.53041 11.8433 4.59509 10.3675C4.65333 9.00358 4.88153 8.26157 5.07109 7.76793C5.3231 7.11301 5.62662 6.64793 6.11522 6.15597C6.60383 5.66401 7.07003 5.36104 7.72328 5.10568C8.21665 4.91304 8.95697 4.684 10.3214 4.61904C11.7979 4.54904 12.2403 4.53504 15.9775 4.52692C19.7147 4.5188 20.1582 4.5328 21.6352 4.59776C22.9991 4.65712 23.7414 4.88308 24.2345 5.07376C24.8889 5.32576 25.3545 5.62845 25.8465 6.11789C26.3384 6.60733 26.6417 7.07185 26.897 7.72649C27.09 8.21845 27.319 8.9585 27.3834 10.3238C27.4537 11.8002 27.4696 12.2429 27.4764 15.9798C27.4831 19.7167 27.4699 20.1605 27.4052 21.6358C27.3456 23.0008 27.1194 23.7423 26.9292 24.2367C26.6772 24.8906 26.3734 25.3568 25.8845 25.8484C25.3957 26.3401 24.93 26.6431 24.2765 26.8984C23.7837 27.0908 23.0425 27.3204 21.6792 27.3854C20.2027 27.4548 19.7603 27.4694 16.0217 27.4775C12.2831 27.4856 11.8421 27.4705 10.3657 27.4066M21.7786 8.5175C21.7791 8.84979 21.8782 9.17446 22.0633 9.45044C22.2484 9.72642 22.5112 9.94131 22.8184 10.0679C23.1256 10.1946 23.4635 10.2272 23.7893 10.1618C24.1151 10.0964 24.4142 9.93586 24.6487 9.70046C24.8833 9.46506 25.0427 9.16539 25.1069 8.83936C25.1712 8.51332 25.1373 8.17557 25.0095 7.86881C24.8817 7.56205 24.6659 7.30007 24.3892 7.11599C24.1126 6.93192 23.7875 6.83403 23.4552 6.83469C23.0098 6.83558 22.5829 7.01336 22.2685 7.32893C21.9541 7.6445 21.7778 8.07203 21.7786 8.5175ZM8.81165 16.014C8.81949 19.9844 12.044 23.1957 16.0136 23.1881C19.9832 23.1806 23.1968 19.9564 23.1892 15.986C23.1817 12.0155 19.9563 8.80338 15.9862 8.81122C12.016 8.81906 8.80409 12.0441 8.81165 16.014ZM11.3334 16.0089C11.3315 15.0859 11.6035 14.1831 12.1147 13.4147C12.626 12.6462 13.3537 12.0466 14.2057 11.6917C15.0578 11.3368 15.9959 11.2425 16.9015 11.4208C17.8072 11.5991 18.6396 12.0419 19.2935 12.6933C19.9475 13.3446 20.3936 14.1753 20.5755 15.0802C20.7573 15.9851 20.6668 16.9236 20.3153 17.777C19.9637 18.6305 19.367 19.3605 18.6006 19.8748C17.8341 20.3891 16.9324 20.6646 16.0094 20.6665C15.3965 20.6677 14.7894 20.5483 14.2227 20.3149C13.656 20.0815 13.1408 19.7388 12.7066 19.3063C12.2724 18.8738 11.9276 18.36 11.692 17.7942C11.4564 17.2284 11.3345 16.6218 11.3334 16.0089Z" fill="#383B3E"/>
</svg>
