<?xml version="1.0" encoding="UTF-8"?>
<svg width="256px" height="256px" viewBox="0 0 256 256" version="1.1" xmlns="http://www.w3.org/2000/svg" xmlns:xlink="http://www.w3.org/1999/xlink">
    <!-- Generator: Sketch 56.3 (81716) - https://sketch.com -->
    <title>Icons/Illustrative/currency/jar-graph-256x256</title>
    <desc>Created with Sketch.</desc>
    <g id="Icons/Illustrative/currency/jar-graph-256x256" stroke="none" stroke-width="1" fill="none" fill-rule="evenodd">
        <g id="Icons/Illustrative/Oval" fill="#F2F3F2">
            <circle id="Oval" cx="128" cy="128" r="128"></circle>
        </g>
        <g id="Group" transform="translate(73.999800, 37.999999)">
            <path d="M28.9301,24.1268009 L20.1901,0.866800868 C13.7691,3.28280087 10.5201,10.4438009 12.9301,16.8668009 C15.3551,23.2798009 22.5081,26.5248009 28.9301,24.1268009" id="Fill-1" fill="#C41F3E"></path>
            <path d="M37.016,14.5252009 C37.768,10.0992009 36.078,5.61120087 32.592,2.78220087 C29.107,-0.047799132 24.367,-0.779799132 20.19,0.867200868 L28.96,24.1472009 C33.185,22.6282009 36.264,18.9512009 37.016,14.5252009" id="Fill-3" fill="#8B1D41"></path>
            <path d="M53.9403,21.1971009 C47.5273,23.6221009 44.2823,30.7741009 46.6803,37.1971009 L69.9703,28.4271009 C67.5333,22.0101009 60.3633,18.7761009 53.9403,21.1971009" id="Fill-6" fill="#C41F3E"></path>
            <path d="M46.6801,37.2269009 C46.8401,37.6369009 47.0201,38.0369009 47.2101,38.4269009 L69.4301,38.4269009 C71.0031,35.3159009 71.1991,31.6889009 69.9711,28.4269009 L46.6801,37.2269009 Z" id="Fill-8" fill="#8B1D41"></path>
            <path d="M54.31,161.808401 C32.921,161.808401 15.581,144.468401 15.581,123.079401 C15.581,101.690401 32.921,84.3504009 54.31,84.3504009 C75.699,84.3504009 93.039,101.690401 93.039,123.079401 C93.039,144.468401 75.699,161.808401 54.31,161.808401 L54.31,161.808401 Z M108.55,83.3474009 C108.537,77.6184009 106.391,72.0994009 102.53,67.8674009 L88.601,56.4564009 L19.47,56.4564009 L6.09,67.8674009 C2.216,72.0764009 0.045,77.5764009 -5.68434189e-14,83.2974009 L-5.68434189e-14,168.197401 C-5.68434189e-14,175.636401 6.8,181.666401 15.19,181.666401 L93.431,181.666401 C101.82,181.666401 108.62,175.666401 108.62,168.197401 L108.62,142.947401 L108.55,88.9364009 L108.55,83.3474009 Z" id="Fill-10" fill="#C41F3E"></path>
            <path d="M88.4804,41.8968009 L20.1404,41.8968009 C18.7924,41.8968009 17.7004,42.9898009 17.7004,44.3368009 L17.7004,50.5368009 C17.7004,51.8848009 18.7924,52.9768009 20.1404,52.9768009 L88.4804,52.9768009 C89.8284,52.9768009 90.9194,51.8848009 90.9194,50.5368009 L90.9194,44.3368009 C90.9194,42.9898009 89.8284,41.8968009 88.4804,41.8968009" id="Fill-13" fill="#C41F3E"></path>
            <path d="M76.9862,141.686301 L76.9862,144.335301 L65.3032,144.335301 L65.3032,102.004301 L76.9862,102.004301 L76.9862,141.686301 Z M59.4592,142.984301 L59.4592,144.335301 L47.7762,144.335301 L47.7762,116.143301 L59.4592,116.143301 L59.4592,142.984301 Z M41.9302,142.577301 L41.9302,144.335301 L30.2402,144.335301 L30.2402,131.296301 L41.9302,131.296301 L41.9302,142.577301 Z M54.3102,84.3513009 C32.9212,84.3513009 15.5812,101.690301 15.5812,123.080301 C15.5812,144.468301 32.9212,161.808301 54.3102,161.808301 C75.6992,161.808301 93.0392,144.468301 93.0392,123.080301 C93.0392,101.690301 75.6992,84.3513009 54.3102,84.3513009 L54.3102,84.3513009 Z" id="Fill-15" fill="#FFFFFF"></path>
            <polygon id="Fill-17" fill="#8B1D41" points="30.2406 144.335801 41.9306 144.335801 41.9306 142.576801 41.9306 131.296801 30.2406 131.296801"></polygon>
            <polygon id="Fill-19" fill="#C41F3E" points="47.7758 144.335801 59.4588 144.335801 59.4588 142.983801 59.4588 116.143801 47.7758 116.143801"></polygon>
            <polygon id="Fill-21" fill="#8B1D41" points="65.3036 144.335801 76.9866 144.335801 76.9866 141.686801 76.9866 102.004801 65.3036 102.004801"></polygon>
        </g>
    </g>
</svg>