<?xml version="1.0" encoding="UTF-8"?>
<svg width="256px" height="256px" viewBox="0 0 256 256" version="1.1" xmlns="http://www.w3.org/2000/svg" xmlns:xlink="http://www.w3.org/1999/xlink">
    <!-- Generator: Sketch 59.1 (86144) - https://sketch.com -->
    <title>Icons/Illustrative/charts-graphs/line-chart-256x256 Copy</title>
    <desc>Created with Sketch.</desc>
    <g id="Icons/Illustrative/charts-graphs/line-chart-256x256-Copy" stroke="none" stroke-width="1" fill="none" fill-rule="evenodd">
        <g id="Icons/Illustrative/Oval" fill="#F2F3F2">
            <circle id="Oval" cx="128" cy="128" r="128"></circle>
        </g>
        <g id="Layer_1" transform="translate(59.000000, 60.000000)" fill="#C4203F" fill-rule="nonzero">
            <polygon id="Path" points="137.62 138.21 0.200000023 138.21 0.200000023 0.790000024 6.20000003 0.790000024 6.20000003 132.21 137.62 132.21"></polygon>
        </g>
        <g id="Group" transform="translate(80.000000, 73.000000)" fill-rule="nonzero">
            <path d="M98.5010121,52.4754098 C94.0091093,52.4754098 90.479757,55.9737705 90.1589068,60.1081967 L74.4372469,71.8754098 C73.4746963,71.2393443 72.1912955,70.9213115 70.9078947,70.9213115 C69.6244939,70.9213115 68.3410931,71.2393443 67.3785425,71.557377 L56.1487854,62.3344262 C56.1487854,62.0163934 56.1487854,61.6983607 56.1487854,61.3803279 C56.1487854,56.9278689 52.298583,53.1114754 47.8066801,53.1114754 C43.3147773,53.1114754 39.4645749,56.9278689 39.4645749,61.3803279 C39.4645749,61.6983607 39.4645749,61.6983607 39.4645749,62.0163934 L13.4757085,81.4163934 C12.1923077,80.7803279 10.5880567,80.4622951 8.98380566,80.4622951 C4.17105263,80.4622951 0,84.2786885 0,88.7311475 C0,93.1836066 4.17105263,97 8.98380566,97 C13.7965587,97 17.9676113,93.5016393 17.9676113,89.0491803 C17.9676113,88.7311475 17.9676113,88.095082 17.9676113,87.7770492 L43.3147773,69.0131148 C44.5981781,69.9672131 46.2024291,70.2852459 47.8066801,70.2852459 C49.4109311,70.2852459 50.694332,69.9672131 51.9777328,69.0131148 L62.8866396,77.6 C62.8866396,78.2360656 62.5657894,78.8721311 62.5657894,79.5081967 C62.5657894,83.9606557 66.4159919,87.7770492 70.9078947,87.7770492 C75.3997975,87.7770492 79.25,83.9606557 79.25,79.5081967 C79.25,78.8721311 79.25,78.5540984 78.9291498,77.9180328 L93.0465587,67.104918 C94.3299595,68.3770492 96.2550607,69.0131148 98.1801619,69.0131148 C102.672065,69.0131148 106.522267,65.1967213 106.522267,60.7442623 C106.843117,56.2918033 102.992915,52.4754098 98.5010121,52.4754098 Z" id="Path" fill="#C4203F"></path>
            <path d="M8.99823304,56.4508197 C13.818715,56.4508197 17.9964661,52.5799063 17.9964661,48.0638407 C17.9964661,47.0961124 17.6751006,46.4509602 17.6751006,45.4832319 L30.5297193,34.1930679 C31.4938156,34.515644 32.457912,34.8382201 33.7433739,34.8382201 C36.6356631,34.8382201 39.2065868,33.2253396 40.8134142,30.9673068 L59.7739766,33.2253396 C61.0594385,36.4511007 63.9517277,38.7091335 67.4867478,38.7091335 C71.9858643,38.7091335 75.8422499,34.8382201 75.8422499,30.3221546 C75.8422499,29.9995785 75.8422499,29.6770023 75.8422499,29.0318501 L94.8028124,15.8062295 C96.0882743,16.4513817 97.3737361,16.7739578 98.9805635,16.7739578 C103.47968,16.7739578 107.336066,12.9030445 107.336066,8.38697892 C107.336066,3.87091335 103.47968,0 98.9805635,0 C94.4814469,0 90.6250614,3.87091335 90.6250614,8.38697892 C90.6250614,8.70955504 90.6250614,9.03213115 90.6250614,9.67728337 L71.6644989,22.902904 C70.379037,22.2577518 69.0935751,21.9351756 67.4867478,21.9351756 C64.5944586,21.9351756 62.0235349,23.5480562 60.4167076,25.806089 L41.4561451,23.5480562 C40.1706832,20.3222951 37.278394,18.0642623 33.7433739,18.0642623 C29.2442574,18.0642623 25.3878718,21.9351756 25.3878718,26.4512412 C25.3878718,27.0963934 25.3878718,27.7415457 25.7092373,28.709274 L12.2118877,40.3220141 C11.2477913,39.9994379 9.96232944,39.6768618 8.99823304,39.6768618 C4.17775106,39.6768618 0,43.5477752 0,48.0638407 C0,52.5799063 4.17775106,56.4508197 8.99823304,56.4508197 Z" id="Path" fill="#8B1D41"></path>
        </g>
    </g>
</svg>