<svg width="32" height="32" viewBox="0 0 32 32" fill="none" xmlns="http://www.w3.org/2000/svg">
<path d="M27.2317 3C27.3518 3.05642 27.4927 3.06313 27.6211 3.10881C28.3489 3.36671 28.8515 4.01014 28.9233 4.76238V27.3576C28.8584 28.2992 28.1058 29.0461 27.146 29.1535H3.74278C3.00258 29.0515 2.39219 28.5853 2.12153 27.9097L2 27.4395V4.71267C2.09529 3.88522 2.82168 3.10881 3.69169 3H27.2317ZM9.61742 10.4431C10.5896 9.49742 10.4999 7.87608 9.38403 7.08087C7.55425 5.77789 5.14446 7.48788 5.82942 9.56458C6.34038 11.1093 8.43531 11.5929 9.61742 10.4431ZM24.9185 25.258V18.089C24.8398 16.2729 24.6285 14.1048 22.836 13.0987C21.7616 12.4956 20.052 12.3626 18.8699 12.6783C17.8535 12.9496 16.9352 13.5904 16.4118 14.4836L16.2889 14.5159V12.8368H12.5271V25.258H16.4615V18.5927C16.5443 17.2011 16.9959 15.9908 18.6172 15.8901C20.3199 15.7839 20.8488 16.8062 20.951 18.2905V25.258H24.9185ZM9.97371 12.8368H6.03933V25.258H9.97371V12.8368Z" fill="#383B3E"/>
<path d="M30.0511 24.0557C30.6076 23.9402 31.0675 24.3123 30.9915 24.8698C30.8755 25.72 29.4007 25.6677 29.5457 24.6051C29.5774 24.3727 29.815 24.1041 30.0511 24.0557ZM30.2265 24.1565C29.7003 24.1927 29.478 24.9047 29.8909 25.2056C30.3038 25.5065 30.9211 25.1921 30.8534 24.6723C30.8162 24.3848 30.5248 24.1363 30.2265 24.1565Z" fill="#383B3E"/>
<path d="M29.9937 24.3514C30.2685 24.3433 30.6924 24.3004 30.575 24.698C30.546 24.7933 30.401 24.7812 30.4079 24.8041C30.4204 24.843 30.633 25.1077 30.6151 25.1224C30.5612 25.1197 30.488 25.1372 30.4411 25.1063C30.3941 25.0754 30.2754 24.8229 30.2477 24.8189C30.2229 24.8148 30.1345 24.8162 30.1317 24.8189C30.1152 24.8377 30.1483 25.1023 30.1317 25.1211C30.1276 25.1265 29.9937 25.1278 29.9937 25.1211V24.3487V24.3514ZM30.1304 24.6872C30.5626 24.753 30.5612 24.4199 30.1304 24.4857V24.6872Z" fill="#383B3E"/>
</svg>
