<?xml version="1.0" encoding="UTF-8"?>
<svg width="256px" height="256px" viewBox="0 0 256 256" version="1.1" xmlns="http://www.w3.org/2000/svg" xmlns:xlink="http://www.w3.org/1999/xlink">
    <!-- Generator: Sketch 56.3 (81716) - https://sketch.com -->
    <title>Icons/Illustrative/objects/lock-256x256</title>
    <desc>Created with Sketch.</desc>
    <g id="Icons/Illustrative/objects/lock-256x256" stroke="none" stroke-width="1" fill="none" fill-rule="evenodd">
        <g id="Icons/Illustrative/Oval" fill="#F2F3F2">
            <circle id="Oval" cx="128" cy="128" r="128"></circle>
        </g>
        <g id="Group" transform="translate(67.000162, 60.000146)">
            <polygon id="Fill-1" fill="#8A1740" points="45.2275379 31.8669536 45.2375379 31.8669536 53.8275379 17.6169536"></polygon>
            <path d="M116.347738,55.3367536 L107.747738,69.5867536 L111.417738,71.7967536 C114.327738,73.5567536 115.267738,77.3367536 113.507738,80.2367536 L81.6277379,133.076754 C79.8687379,135.986754 76.0977379,136.916754 73.1877379,135.166754 L38.2577379,114.086754 L49.3477379,95.7167536 C51.3477379,96.8767536 53.9477379,96.2167536 55.1477379,94.2267536 L57.9277379,89.6167536 L60.0077379,86.1767536 C62.8077379,86.1667536 65.5377379,84.7567536 67.0877379,82.1867536 C67.3377379,81.7767536 67.5377379,81.3567536 67.7077379,80.9267536 C69.1477379,77.2567536 67.7977379,72.9867536 64.3477379,70.8567536 L76.4977379,50.7267536 L98.7277379,64.1367536 L103.307738,56.5367536 L107.417738,49.7267536 C107.647738,49.3567536 107.857738,48.9767536 108.057738,48.5967536 C108.067738,48.5867536 108.067738,48.5667536 108.077738,48.5567536 C108.137738,48.4567536 108.198738,48.3467536 108.237738,48.2467536 C108.387738,47.9567536 108.537738,47.6667536 108.677738,47.3767536 C108.747738,47.2267536 108.817738,47.0767536 108.877738,46.9267536 C108.987738,46.6767536 109.107738,46.4267536 109.207738,46.1667536 C109.377738,45.7567536 109.537738,45.3567536 109.677738,44.9467536 C109.827738,44.5367536 109.957738,44.1267536 110.077738,43.7167536 C110.187738,43.3667536 110.287738,43.0167536 110.368738,42.6567536 C110.387738,42.5967536 110.397738,42.5367536 110.417738,42.4767536 C110.477738,42.2367536 110.537738,41.9967536 110.577738,41.7467536 C110.618738,41.5767536 110.658738,41.3967536 110.687738,41.2267536 C110.747738,40.9667536 110.797738,40.7067536 110.827738,40.4467536 C110.847738,40.2867536 110.877738,40.1267536 110.908738,39.9667536 C110.948738,39.6867536 110.987738,39.4167536 111.007738,39.1367536 C111.017738,39.0067536 111.037738,38.8767536 111.057738,38.7367536 L111.057738,38.7067536 C111.087738,38.4167536 111.107738,38.1267536 111.118738,37.8367536 C111.127738,37.7267536 111.137738,37.6067536 111.147738,37.4967536 L111.147738,37.4467536 C111.167738,37.1367536 111.167738,36.8367536 111.167738,36.5267536 L111.167738,36.1867536 C111.167738,35.8667536 111.167738,35.5367536 111.147738,35.2167536 C111.147738,35.1167536 111.147738,35.0267536 111.137738,34.9367536 C111.127738,34.5867536 111.097738,34.2467536 111.067738,33.9067536 C111.057738,33.8367536 111.057738,33.7567536 111.047738,33.6867536 C111.017738,33.3267536 110.967738,32.9667536 110.917738,32.6167536 C110.917738,32.5567536 110.908738,32.4967536 110.897738,32.4367536 C110.847738,32.0667536 110.787738,31.6967536 110.717738,31.3367536 C110.707738,31.2967536 110.698738,31.2467536 110.687738,31.2067536 C110.627738,30.8167536 110.547738,30.4467536 110.448738,30.0667536 C110.437738,30.0467536 110.437738,30.0167536 110.427738,29.9867536 C110.337738,29.5967536 110.237738,29.2167536 110.118738,28.8267536 C110.107738,28.8067536 110.107738,28.7967536 110.107738,28.7767536 C109.997738,28.3767536 109.868738,27.9867536 109.727738,27.5967536 L109.727738,27.5867536 C107.827738,22.0467536 104.087738,17.1167536 98.7577379,13.8167536 L103.948738,5.2167536 C121.147738,15.5967536 126.717738,38.1467536 116.347738,55.3367536" id="Fill-2" fill="#8B1D41"></path>
            <path d="M67.7080379,80.9265536 C67.5380379,81.3565536 67.3380379,81.7775536 67.0880379,82.1865536 C65.5380379,84.7565536 62.8080379,86.1665536 60.0080379,86.1765536 L57.9280379,89.6165536 L55.1480379,94.2265536 C53.9480379,96.2165536 51.3480379,96.8765536 49.3480379,95.7165536 C49.3280379,95.7065536 49.2980379,95.6865536 49.2780379,95.6765536 C47.2580379,94.4665536 46.6080379,91.8175536 47.8280379,89.8065536 L50.6180379,85.1765536 L52.6780379,81.7565536 C51.3780379,79.2775536 51.3580379,76.1975536 52.9080379,73.6265536 C53.1280379,73.2665536 53.3680379,72.9265536 53.6280379,72.6165536 C56.1980379,69.5165536 60.7180379,68.6765536 64.2770379,70.8175536 C64.2980379,70.8265536 64.3280379,70.8465536 64.3480379,70.8565536 C67.7980379,72.9875536 69.1470379,77.2565536 67.7080379,80.9265536" id="Fill-5" fill="#FFFFFF"></path>
            <path d="M103.948238,5.2165536 L98.7582379,13.8165536 C98.6682379,13.7565536 98.5782379,13.6965536 98.4872379,13.6465536 C86.1072379,6.1765536 69.8682379,10.1865536 62.3982379,22.5665536 L53.7082379,36.9765536 L76.4982379,50.7265536 L64.3472379,70.8565536 C64.3282379,70.8465536 64.2982379,70.8265536 64.2772379,70.8175536 C60.7182379,68.6765536 56.1982379,69.5165536 53.6282379,72.6165536 C53.3672379,72.9265536 53.1282379,73.2665536 52.9072379,73.6265536 C51.3582379,76.1965536 51.3782379,79.2775536 52.6772379,81.7565536 L50.6172379,85.1765536 L47.8272379,89.8065536 C46.6082379,91.8175536 47.2582379,94.4665536 49.2782379,95.6765536 C49.2982379,95.6865536 49.3272379,95.7065536 49.3472379,95.7165536 L38.2582379,114.086554 L2.96823788,92.7965536 C0.068237881,91.0465536 -0.871762119,87.2665536 0.887237881,84.3565536 L32.7672379,31.5165536 C34.5172379,28.6165536 38.2982379,27.6765536 41.2082379,29.4365536 L45.2272379,31.8665536 L45.2382379,31.8665536 L53.8272379,17.6165536 C64.2082379,0.426553597 86.7582379,-5.1534464 103.948238,5.2165536" id="Fill-7" fill="#C21F3D"></path>
        </g>
    </g>
</svg>