<svg width="256" height="256" viewBox="0 0 256 256" fill="none" xmlns="http://www.w3.org/2000/svg">
<circle cx="128" cy="128" r="128" fill="#F2F3F2"/>
<path d="M170.626 75.5862H172.656C173.03 75.5862 173.333 75.895 173.333 76.2759V96.9655C173.333 97.3464 173.03 97.6552 172.656 97.6552H170.626V75.5862Z" fill="#8B1D41"/>
<path d="M170.626 103.172H172.656C173.03 103.172 173.333 103.481 173.333 103.862V113.517C173.333 113.898 173.03 114.207 172.656 114.207H170.626V103.172Z" fill="#8B1D41"/>
<path d="M85.3333 59.0345C85.3333 52.9403 90.1824 48 96.1641 48H161.149C167.13 48 171.979 52.9403 171.979 59.0345V196.966C171.979 203.06 167.13 208 161.149 208H96.1641C90.1824 208 85.3333 203.06 85.3333 196.966V59.0345Z" fill="white"/>
<path fill-rule="evenodd" clip-rule="evenodd" d="M161.149 52.1379H96.1641C92.4255 52.1379 89.3949 55.2256 89.3949 59.0345V196.966C89.3949 200.774 92.4255 203.862 96.1641 203.862H161.149C164.887 203.862 167.918 200.774 167.918 196.966V59.0345C167.918 55.2256 164.887 52.1379 161.149 52.1379ZM96.1641 48C90.1824 48 85.3333 52.9403 85.3333 59.0345V196.966C85.3333 203.06 90.1824 208 96.1641 208H161.149C167.13 208 171.979 203.06 171.979 196.966V59.0345C171.979 52.9403 167.13 48 161.149 48H96.1641Z" fill="#C41F3E"/>
<path fill-rule="evenodd" clip-rule="evenodd" d="M144.337 116.619L144.324 123.164L146.029 123.166C147.383 123.169 148.479 124.253 148.473 125.587L148.428 149.856C148.425 151.193 147.329 152.27 145.977 152.27L129.735 152.239L129.753 143.8C130.674 143.786 131.426 143.037 131.427 142.123L131.43 140.006L131.435 138.426C132.388 137.855 133.031 136.827 133.033 135.647C133.034 135.458 133.016 135.276 132.986 135.096C132.725 133.568 131.389 132.402 129.775 132.382L129.793 123.136L140.128 123.154L140.133 119.664L140.139 116.536C140.142 116.365 140.136 116.194 140.126 116.026C140.127 116.02 140.123 116.014 140.125 116.008C140.125 115.962 140.123 115.913 140.116 115.871C140.107 115.743 140.099 115.615 140.087 115.489C140.081 115.424 140.074 115.359 140.063 115.297C140.05 115.19 140.039 115.082 140.02 114.974C139.994 114.801 139.967 114.634 139.93 114.467C139.898 114.299 139.858 114.134 139.815 113.972C139.78 113.831 139.743 113.693 139.697 113.555C139.691 113.531 139.682 113.509 139.676 113.485C139.648 113.392 139.619 113.299 139.581 113.206C139.561 113.141 139.537 113.072 139.512 113.009C139.479 112.909 139.443 112.811 139.4 112.718C139.374 112.66 139.352 112.6 139.329 112.539C139.286 112.437 139.244 112.338 139.193 112.239C139.17 112.194 139.15 112.146 139.128 112.095L139.122 112.084C139.073 111.981 139.02 111.879 138.964 111.779C138.945 111.74 138.924 111.697 138.904 111.658L138.894 111.641C138.838 111.533 138.776 111.432 138.712 111.327L138.643 111.213C138.577 111.105 138.509 110.994 138.437 110.89C138.417 110.856 138.398 110.826 138.376 110.797C138.301 110.681 138.221 110.573 138.141 110.464C138.123 110.443 138.107 110.416 138.089 110.394C138.005 110.279 137.914 110.168 137.825 110.06C137.813 110.04 137.798 110.021 137.782 110.003C137.689 109.889 137.592 109.776 137.495 109.669C137.483 109.657 137.47 109.642 137.458 109.631C137.357 109.512 137.254 109.403 137.143 109.295C137.135 109.291 137.129 109.281 137.119 109.273C137.008 109.159 136.896 109.052 136.776 108.944C136.768 108.94 136.766 108.936 136.762 108.93C136.642 108.817 136.518 108.712 136.39 108.609L136.388 108.605C134.604 107.123 132.317 106.218 129.821 106.186L129.829 102.235C137.827 102.251 144.351 108.724 144.337 116.619" fill="#8B1D41"/>
<path fill-rule="evenodd" clip-rule="evenodd" d="M129.874 102.248L129.866 106.198C129.823 106.196 129.78 106.194 129.739 106.196C123.982 106.185 119.263 110.826 119.253 116.512L119.242 123.13L129.838 123.149L129.819 132.395C129.81 132.396 129.796 132.395 129.787 132.396C128.134 132.395 126.763 133.594 126.522 135.159C126.497 135.317 126.485 135.48 126.483 135.646C126.481 136.826 127.12 137.86 128.072 138.433L128.07 140.003L128.067 142.129C128.063 143.054 128.828 143.815 129.766 143.814C129.775 143.813 129.789 143.814 129.797 143.813L129.78 152.251L113.373 152.223C112.024 152.22 110.928 151.136 110.932 149.799L110.977 125.53C110.979 124.198 112.077 123.116 113.43 123.12L115.3 123.125L115.304 123.123L115.313 116.579C115.331 108.682 121.882 102.234 129.874 102.248Z" fill="#C41F3E"/>
</svg>
