<?xml version="1.0" encoding="UTF-8"?>
<svg width="450px" height="250px" viewBox="0 0 450 250" version="1.1" xmlns="http://www.w3.org/2000/svg" xmlns:xlink="http://www.w3.org/1999/xlink">
    <!-- Generator: Sketch 63.1 (92452) - https://sketch.com -->
    <title>Illustrations/Blue/Objects/long-term-planning-direction-sign-450x250</title>
    <desc>Created with Sketch.</desc>
    <g id="Illustrations/Blue/Objects/long-term-planning-direction-sign-450x250" stroke="none" stroke-width="1" fill="none" fill-rule="evenodd">
        <path d="M143.2232,220.2496 C143.2232,225.8186 139.1852,230.6096 133.8772,231.5256 L91.8682,231.5256 C87.6452,231.5256 84.2222,228.1026 84.2222,223.8796 C84.2222,219.6566 87.6452,216.2336 91.8682,216.2336 C92.7112,216.2336 93.5222,216.3726 94.2812,216.6246 C93.9902,215.4506 93.8322,214.2246 93.8322,212.9596 C93.8322,204.5776 100.6282,197.7816 109.0112,197.7816 C117.1042,197.7816 123.7142,204.1156 124.1632,212.0956 C126.1872,210.1626 128.9272,208.9736 131.9472,208.9736 C138.1742,208.9736 143.2232,214.0216 143.2232,220.2496" id="Fill-2" fill="#CCDDF2"></path>
        <path d="M171.6636,36.6353 C171.0146,36.6353 170.3886,36.7313 169.7966,36.9073 C170.1096,36.0383 170.2806,35.1003 170.2806,34.1233 C170.2806,29.5763 166.5956,25.8903 162.0486,25.8903 C160.6146,25.8903 159.2676,26.2583 158.0926,26.9033 C156.1486,22.4773 151.7296,19.3853 146.5856,19.3853 C139.7656,19.3853 134.2186,24.8203 134.0296,31.5943 C132.7396,30.9453 131.2826,30.5763 129.7386,30.5763 C124.4636,30.5763 120.1866,34.8533 120.1866,40.1293 C120.1866,45.4053 124.4636,49.6813 129.7386,49.6813 L171.6636,49.6813 C175.2666,49.6813 178.1866,46.7613 178.1866,43.1583 C178.1866,39.5563 175.2666,36.6353 171.6636,36.6353" id="Fill-4" fill="#CCDDF2"></path>
        <path d="M355.397,187.8003 C361.716,187.8003 366.839,182.6773 366.839,176.3573 C366.839,170.0373 361.716,164.9143 355.397,164.9143 C354.134,164.9143 352.921,165.1223 351.786,165.5003 C352.22,163.7433 352.457,161.9073 352.457,160.0153 C352.457,147.4693 342.286,137.2993 329.741,137.2993 C317.629,137.2993 307.735,146.7783 307.063,158.7203 C304.035,155.8283 299.933,154.0493 295.415,154.0493 C286.094,154.0493 278.539,161.6043 278.539,170.9243 C273.878,170.9243 270.101,174.7023 270.101,179.3623 C270.101,184.0223 273.878,187.8003 278.539,187.8003 L355.397,187.8003 Z" id="Fill-6" fill="#CCDDF2"></path>
        <path d="M236.0288,250.251 L236.0288,58.954 C236.0288,57.176 234.5878,55.734 232.8088,55.734 L216.5508,55.734 C214.7728,55.734 213.3318,57.176 213.3318,58.954 L213.3318,250.251 L236.0288,250.251 Z" id="Fill-8" fill="#FFFFFF"></path>
        <path d="M236.0288,250.517 L236.0288,59.166 C236.0288,57.418 234.6108,56 232.8628,56 L228.9958,56 L228.9958,250.517 L236.0288,250.517 Z" id="Fill-10" fill="#F2F3F2"></path>
        <path d="M304.9165,90.8042 L314.7965,80.3132 C315.8165,79.2292 315.8165,77.5392 314.7965,76.4552 L304.9165,65.9652 L210.9395,65.9652 C209.3865,65.9652 208.1275,67.2242 208.1275,68.7782 L208.1275,87.9912 C208.1275,89.5442 209.3865,90.8042 210.9395,90.8042 L304.9165,90.8042 Z" id="Fill-12" fill="#C41F3E"></path>
        <path d="M144.2329,101.711 L134.3519,112.202 C133.3329,113.285 133.3329,114.976 134.3519,116.059 L144.2329,126.55 L238.2089,126.55 C239.7619,126.55 241.0219,125.291 241.0219,123.737 L241.0219,104.524 C241.0219,102.97 239.7619,101.711 238.2089,101.711 L144.2329,101.711 Z" id="Fill-14" fill="#8B1D41"></path>
        <path d="M144.2329,137.8247 L134.3519,148.3157 C133.3329,149.3987 133.3329,151.0897 134.3519,152.1727 L144.2329,162.6637 L238.2089,162.6637 C239.7619,162.6637 241.0219,161.4047 241.0219,159.8507 L241.0219,140.6377 C241.0219,139.0837 239.7619,137.8247 238.2089,137.8247 L144.2329,137.8247 Z" id="Fill-16" fill="#8B1D41"></path>
    </g>
</svg>