<?xml version="1.0" encoding="UTF-8"?>
<svg width="256px" height="256px" viewBox="0 0 256 256" version="1.1" xmlns="http://www.w3.org/2000/svg" xmlns:xlink="http://www.w3.org/1999/xlink">
    <!-- Generator: Sketch 56.3 (81716) - https://sketch.com -->
    <title>Icons/Illustrative/currency/lower-payments-256x256</title>
    <desc>Created with Sketch.</desc>
    <g id="Icons/Illustrative/currency/lower-payments-256x256" stroke="none" stroke-width="1" fill="none" fill-rule="evenodd">
        <g id="Icons/Illustrative/Oval" fill="#F2F3F2">
            <circle id="Oval" cx="128" cy="128" r="128"></circle>
        </g>
        <g id="Group-11" transform="translate(62.000000, 68.000000)">
            <g id="Group-3" transform="translate(0.000000, 0.790000)" fill="#C4203F">
                <path d="M131.4605,5.2099 L131.4605,60.8199 C131.4605,63.5819 129.2215,65.8199 126.4605,65.8199 L5.0005,65.8199 C2.2385,65.8199 0.0005,63.5819 0.0005,60.8199 L0.0005,5.2099 C0.0005,2.4489 2.2385,0.2099 5.0005,0.2099 L126.4605,0.2099 C129.2215,0.2099 131.4605,2.4489 131.4605,5.2099" id="Fill-1"></path>
            </g>
            <path d="M65.73,9.18 C83.663,9.18 98.2,20.207 98.2,33.81 C98.2,47.413 83.663,58.44 65.73,58.44 C47.797,58.44 33.26,47.413 33.26,33.81 C33.26,20.207 47.797,9.18 65.73,9.18" id="Fill-4" fill="#FFFFFF"></path>
            <path d="M65.7998,43.2601 C69.1708,43.2601 70.8598,41.8701 70.8598,39.3901 C70.8598,37.5301 70.0998,36.3101 66.9398,35.1701 L65.7298,43.2801 L65.7998,43.2601 Z M65.6698,22.3901 C62.6698,22.3901 61.2898,23.6601 61.2898,25.7301 C61.2898,27.5401 62.1698,28.5101 65.1198,29.5601 L66.2198,22.3901 L65.6698,22.3901 Z M74.3598,20.3101 L73.6398,24.6501 C72.1708,23.7561 70.5608,23.1141 68.8808,22.7501 L67.7298,30.3901 C72.9998,32.1601 75.4798,34.3101 75.4798,38.9001 C75.4798,44.3401 71.6098,47.2501 65.4798,47.2501 L65.2698,47.2501 L64.5098,52.2501 L61.5998,51.6201 C61.5998,51.6201 62.3198,47.0301 62.2798,47.0301 C60.1088,46.7271 58.0008,46.0721 56.0398,45.0901 L56.7098,40.7401 C58.6828,41.9061 60.8578,42.6941 63.1198,43.0601 L64.4298,34.3401 C59.3298,32.6101 56.7498,30.8001 56.7498,26.2801 C56.7498,21.2201 60.4198,18.4401 66.2398,18.4401 L66.6598,18.4401 L67.1708,15.2801 L70.1708,15.9501 L69.7498,18.7401 C71.3548,19.0371 72.9078,19.5661 74.3598,20.3101 L74.3598,20.3101 Z" id="Fill-6" fill="#8B1D41"></path>
            <g id="Group-10" transform="translate(41.000000, 68.790000)" fill="#8B1D41">
                <polygon id="Fill-8" points="35.9898 0.8197 13.4898 0.8197 13.4898 25.7297 0.8498 25.7297 24.7298 51.0007 48.6098 25.7297 35.9898 25.7297"></polygon>
            </g>
        </g>
    </g>
</svg>