<svg width="450" height="250" viewBox="0 0 450 250" fill="none" xmlns="http://www.w3.org/2000/svg">
<path fill-rule="evenodd" clip-rule="evenodd" d="M115.057 108.756L114.985 107.919C114.905 106.984 114.081 106.29 113.144 106.371L112.519 106.424C111.583 106.505 110.89 107.329 110.97 108.265L111.063 109.346C108.796 109.873 106.595 110.721 104.536 111.892C103.95 109.89 102.695 107.778 100.852 105.935C97.6882 102.772 93.7292 101.335 90.9032 102.056L71.6102 79.3826C71.0852 78.8146 69.0412 79.8476 68.3702 80.4676C67.6992 81.0866 66.5062 83.0426 67.0312 83.6116L87.9192 104.471C86.5892 107.305 87.9722 111.794 91.4832 115.305C93.1442 116.966 95.0252 118.151 96.8462 118.798C89.4022 129.058 91.0412 143.475 100.891 151.766C111.2 160.442 126.589 159.119 135.266 148.811C143.941 138.502 142.619 123.113 132.31 114.436C127.307 110.225 121.106 108.372 115.057 108.756Z" fill="#EFD4D8"/>
<path fill-rule="evenodd" clip-rule="evenodd" d="M185.446 192.263L240.116 181.781L285.993 187.474L296.546 102.436L303.005 98.0788L305.71 76.2838C306.008 73.8858 304.303 71.6998 301.905 71.4018L217.593 60.9398C215.295 60.6548 213.201 62.2858 212.916 64.5838L211.044 79.6688L164.222 88.6468L173.171 135.316L185.446 192.263Z" fill="#EFD4D8"/>
<path fill-rule="evenodd" clip-rule="evenodd" d="M383.721 167.484L356.374 180.152C353.875 181.311 350.909 180.222 349.75 177.722L319.578 112.588C318.419 110.088 319.508 107.123 322.008 105.965L349.355 93.2957C351.855 92.1383 354.821 93.2257 355.979 95.7259L386.151 160.86C387.308 163.36 386.221 166.326 383.721 167.484Z" fill="#EFD4D8"/>
<path fill-rule="evenodd" clip-rule="evenodd" d="M131.408 110.855C121.1 102.179 105.71 103.501 97.0344 113.81C88.3584 124.119 89.6814 139.508 99.9894 148.184C110.298 156.861 125.687 155.538 134.364 145.229C143.039 134.92 141.717 119.531 131.408 110.855Z" fill="white"/>
<path fill-rule="evenodd" clip-rule="evenodd" d="M127.121 115.948C123.513 112.911 119.047 111.564 114.683 111.815L114.04 104.338C113.959 103.401 113.135 102.708 112.199 102.789L111.574 102.843C110.638 102.923 109.944 103.747 110.025 104.682L110.697 112.503C107.463 113.45 104.462 115.325 102.129 118.097C95.8212 125.592 96.7832 136.781 104.277 143.09C111.772 149.397 122.962 148.435 129.27 140.941C135.578 133.446 134.616 122.257 127.121 115.948Z" fill="#8B1D41"/>
<path fill-rule="evenodd" clip-rule="evenodd" d="M99.9508 102.354C96.7868 99.1897 92.8268 97.7537 90.0018 98.4737L70.7088 75.8017C70.1838 75.2327 68.1398 76.2667 67.4688 76.8857C66.7978 77.5057 65.6048 79.4607 66.1298 80.0307L87.0178 100.89C85.6878 103.723 87.0708 108.213 90.5808 111.723C94.6608 115.803 100.066 117.013 102.653 114.425C105.241 111.838 104.031 106.434 99.9508 102.354Z" fill="#C41F3E"/>
<path fill-rule="evenodd" clip-rule="evenodd" d="M124.931 118.551C118.874 113.453 109.83 114.231 104.732 120.288C99.6331 126.345 100.41 135.389 106.468 140.488C112.526 145.586 121.569 144.809 126.668 138.751C131.766 132.694 130.989 123.65 124.931 118.551Z" fill="#C41F3E"/>
<path fill-rule="evenodd" clip-rule="evenodd" d="M291.894 97.5285L298.353 93.1725L301.058 71.3775C301.356 68.9775 299.653 66.7925 297.253 66.4945L288.39 65.3945L273.963 181.651L281.341 182.566L291.894 97.5285Z" fill="#8B1D41"/>
<path fill-rule="evenodd" clip-rule="evenodd" d="M273.963 181.651L198.515 172.288C196.217 172.003 194.584 169.909 194.869 167.61L208.264 59.6765C208.549 57.3795 210.644 55.7465 212.942 56.0325L288.39 65.3945L273.963 181.651Z" fill="#C41F3E"/>
<path fill-rule="evenodd" clip-rule="evenodd" d="M267.577 170.716L179.485 187.606L159.57 83.7389L247.662 66.8489L267.577 170.716Z" fill="white"/>
<path fill-rule="evenodd" clip-rule="evenodd" d="M222.841 96.1425L227.516 90.7085L233.913 94.0305L241.612 134.379L230.538 136.492L222.841 96.1425Z" fill="#D9D9D6"/>
<path fill-rule="evenodd" clip-rule="evenodd" d="M213.92 123.446L218.596 118.012L224.993 121.334L227.979 136.98L216.905 139.092L213.92 123.446Z" fill="#D9D9D6"/>
<path fill-rule="evenodd" clip-rule="evenodd" d="M197.392 110.873L202.068 105.439L208.465 108.761L214.345 139.582L203.273 141.694L197.392 110.873Z" fill="#D9D9D6"/>
<path fill-rule="evenodd" clip-rule="evenodd" d="M185.376 121.952L190.052 116.518L196.449 119.84L200.712 142.182L189.639 144.295L185.376 121.952Z" fill="#D9D9D6"/>
<path d="M380.645 160.06C381.436 161.78 380.678 163.828 378.958 164.619L351.309 177.332C349.59 178.123 347.542 177.365 346.751 175.645L316.372 109.577C315.582 107.858 316.339 105.81 318.059 105.019L345.708 92.3059C347.427 91.5152 349.475 92.273 350.266 93.9926L380.645 160.06Z" fill="white"/>
<path d="M359.891 110.453C360.072 110.37 360.169 110.106 360.086 109.925L355.925 100.874C355.842 100.693 355.577 100.596 355.396 100.679L355.215 100.762L351.782 93.2956C350.617 90.7615 347.578 89.637 345.044 90.8022L317.395 103.516C314.861 104.681 313.736 107.72 314.902 110.254L345.281 176.322C346.446 178.856 349.485 179.98 352.019 178.815L379.668 166.101C382.202 164.936 383.326 161.898 382.161 159.363L363.205 118.139L363.386 118.056C363.567 117.972 363.665 117.708 363.582 117.527L361.668 113.364C361.584 113.183 361.32 113.085 361.139 113.168L360.958 113.252L359.71 110.537L359.891 110.453ZM380.668 160.05C381.458 161.77 380.701 163.817 378.981 164.608L351.332 177.322C349.613 178.112 347.565 177.355 346.774 175.635L316.395 109.567C315.604 107.848 316.362 105.8 318.082 105.009L345.731 92.2956C347.45 91.5049 349.498 92.2626 350.289 93.9822L380.668 160.05Z" fill="#8B1D41"/>
<path fill-rule="evenodd" clip-rule="evenodd" d="M354.567 116.175L330.367 127.386C329.635 127.725 328.768 127.407 328.431 126.676L321.153 110.965C320.815 110.235 321.132 109.369 321.863 109.03L346.063 97.8189C346.794 97.4801 347.661 97.7983 348 98.5284L355.277 114.239C355.616 114.97 355.298 115.837 354.567 116.175Z" fill="#D9D9D6"/>
<path fill-rule="evenodd" clip-rule="evenodd" d="M357.131 123.464L334.719 133.845C333.493 134.414 331.973 134.03 331.301 132.856C330.543 131.534 331.091 129.877 332.444 129.249L354.855 118.868C356.081 118.3 357.601 118.683 358.274 119.857C359.033 121.179 358.483 122.838 357.131 123.464Z" fill="#D9D9D6"/>
<path fill-rule="evenodd" clip-rule="evenodd" d="M360.36 130.443L337.956 140.822C336.729 141.39 335.209 141.006 334.538 139.833C333.78 138.51 334.327 136.853 335.68 136.226L358.084 125.847C359.311 125.279 360.831 125.663 361.503 126.836C362.262 128.159 361.712 129.817 360.36 130.443Z" fill="#D9D9D6"/>
<path fill-rule="evenodd" clip-rule="evenodd" d="M366.778 145.498L345.17 155.508C343.631 156.221 341.806 155.552 341.094 154.013L337.876 147.066C337.163 145.528 337.833 143.704 339.372 142.991L360.979 132.981C362.518 132.268 364.343 132.938 365.056 134.477L368.273 141.422C368.987 142.961 368.316 144.787 366.778 145.498Z" fill="#D9D9D6"/>
<path fill-rule="evenodd" clip-rule="evenodd" d="M371.717 148.862C371.122 147.577 369.597 147.019 368.313 147.613L345.788 158.047C344.504 158.642 343.945 160.166 344.54 161.452C344.94 162.313 345.761 162.839 346.646 162.916L371.473 151.416C371.986 150.691 372.118 149.725 371.717 148.862Z" fill="#D9D9D6"/>
<path fill-rule="evenodd" clip-rule="evenodd" d="M375 155.821C374.405 154.536 372.88 153.978 371.596 154.572L349.071 165.006C347.787 165.602 347.228 167.126 347.823 168.411C348.224 169.273 349.044 169.798 349.929 169.875L374.756 158.375C375.269 157.65 375.401 156.684 375 155.821Z" fill="#D9D9D6"/>
<path fill-rule="evenodd" clip-rule="evenodd" d="M347.987 101.404C347.816 101.362 347.643 101.469 347.603 101.641L344.901 113.1C344.777 113.093 344.649 113.112 344.528 113.169C344.438 113.21 344.362 113.267 344.295 113.335L337.387 109.48C337.396 109.35 337.378 109.217 337.32 109.092C337.137 108.697 336.669 108.525 336.274 108.709C335.879 108.891 335.709 109.36 335.891 109.753C335.948 109.877 336.034 109.973 336.134 110.05L335.701 112.18C335.651 112.192 335.599 112.209 335.549 112.233C335.323 112.337 335.174 112.535 335.12 112.759L334.331 112.863C334.111 112.574 333.716 112.465 333.374 112.624C332.98 112.806 332.808 113.274 332.991 113.669C333.046 113.789 333.13 113.885 333.229 113.961L332.467 118.817C332.397 118.828 332.329 118.845 332.262 118.877C332.095 118.953 331.971 119.084 331.894 119.235L329.399 118.638C329.388 118.566 329.371 118.495 329.34 118.424C329.156 118.03 328.689 117.858 328.294 118.041C327.9 118.225 327.728 118.692 327.911 119.087C327.971 119.216 328.063 119.318 328.172 119.396L327.99 123.027C327.98 123.204 328.117 123.353 328.293 123.362C328.347 123.365 328.398 123.355 328.444 123.334C328.548 123.286 328.622 123.182 328.629 123.059L328.806 119.522C328.857 119.51 328.907 119.492 328.956 119.471C329.067 119.419 329.158 119.344 329.23 119.255L331.867 119.887C331.872 119.898 331.874 119.91 331.878 119.921C332.061 120.315 332.529 120.487 332.924 120.304C333.319 120.122 333.49 119.654 333.307 119.26C333.255 119.146 333.178 119.056 333.088 118.982L333.852 114.109C333.915 114.096 333.977 114.08 334.035 114.052C334.273 113.942 334.428 113.728 334.475 113.488L335.232 113.39C335.445 113.701 335.857 113.825 336.21 113.66C336.605 113.479 336.776 113.01 336.595 112.616C336.533 112.484 336.44 112.38 336.329 112.304L336.759 110.193C336.818 110.18 336.878 110.164 336.937 110.136C336.991 110.111 337.04 110.079 337.086 110.044L344.077 113.947C344.085 114.037 344.104 114.126 344.145 114.213C344.328 114.607 344.795 114.779 345.189 114.597C345.585 114.414 345.756 113.946 345.574 113.552C345.549 113.499 345.52 113.451 345.485 113.407L348.225 101.788C348.266 101.616 348.159 101.444 347.987 101.404Z" fill="#8B1D41"/>
</svg>
