<svg xmlns="http://www.w3.org/2000/svg" width="256" height="256" viewBox="0 0 256 256">
  <g fill="none" fill-rule="evenodd">
    <circle cx="128" cy="128" r="128" fill="#F2F3F2"/>
    <g fill-rule="nonzero" transform="translate(54 70)">
      <polygon fill="#C41F3E" points="80.733 .144 80.669 6.697 95.611 6.841 71.423 29.892 47.271 5.919 10.173 35.725 14.215 40.859 46.815 14.662 71.338 38.987 100.609 11.083 100.459 27.062 106.946 27.127 107.196 .396"/>
      <path fill="#8B1D41" d="M116.527125,103.286503 L3.23646854,103.286503 C1.78932512,103.286503 0.620204323,102.105509 0.620204323,100.64367 L0.620204323,94.2562247 C0.620204323,92.7943855 1.78932512,91.6133923 3.23646854,91.6133923 L116.519996,91.6133923 C117.967139,91.6133923 119.136293,92.7943855 119.136293,94.2562247 L119.136293,100.64367 C119.143389,102.098308 117.967139,103.286503 116.527125,103.286503 Z"/>
      <path fill="#C41F3E" d="M29.1852471 55.4490741C29.1852471 54.0808502 28.0874142 52.9646675 26.7258162 52.9646675L14.5427221 52.9646675C13.1882528 52.9646675 12.0832911 54.073649 12.0832911 55.4490741L12.0832911 91.6061911 29.1781183 91.6061911 29.1781183 55.4490741 29.1852471 55.4490741zM55.3478892 47.7222096C55.3478892 46.4403998 54.3213441 45.4034301 53.0524204 45.4034301L40.5414021 45.4034301C39.2724783 45.4034301 38.2459332 46.4403998 38.2459332 47.7222096L38.2459332 91.6061911 55.3407604 91.6061911 55.3407604 47.7222096 55.3478892 47.7222096zM81.5105314 62.2181818C81.5105314 61.0443897 80.5695317 60.1010354 79.4146685 60.1010354L66.511567 60.1010354C65.349575 60.1010354 64.4157042 61.0515909 64.4157042 62.2181818L64.4157042 91.6061911 81.5105314 91.6061911 81.5105314 62.2181818zM107.680302 38.4470918C107.680302 36.9996549 106.51831 35.833064 105.092553 35.833064L93.1732241 35.833064C91.7403383 35.833064 90.5854751 37.0068561 90.5854751 38.4470918L90.5854751 91.6061911 107.680302 91.6061911 107.680302 38.4470918 107.680302 38.4470918z"/>
      <path fill="#C4203F" stroke="#F2F3F2" stroke-width="2" d="M95.3357742,57.2646987 L126.830724,57.2646987 C129.039863,57.2646987 130.830724,59.0555597 130.830724,61.2646987 L130.830724,130.896918 C130.830724,133.106057 129.039863,134.896918 126.830724,134.896918 L95.3357742,134.896918 C93.1266352,134.896918 91.3357742,133.106057 91.3357742,130.896918 L91.3357742,61.2646987 C91.3357742,59.0555597 93.1266352,57.2646987 95.3357742,57.2646987 Z" transform="rotate(90 111.083 96.08)"/>
      <ellipse cx="111.322" cy="96.685" fill="#FFF" rx="18.682" ry="14.079"/>
      <path fill="#8B1D41" d="M115.517773,89.017697 L115.112061,91.5017374 C114.265404,90.9874895 113.336997,90.6198119 112.36643,90.4143838 L111.687099,94.8012929 C114.715784,95.8136566 116.149928,97.0416162 116.149928,99.6662626 C116.149928,102.778343 113.923231,104.437495 110.403918,104.437495 L110.281261,104.437495 L109.847243,107.249616 L108.167785,106.893414 C108.167785,106.893414 108.582932,104.268768 108.554627,104.268768 C107.306456,104.09288 106.095471,103.716119 104.969267,103.153293 L105.356109,100.678626 C106.49508,101.33758 107.745103,101.785421 109.045255,102.000323 L109.800068,97.013495 C106.865734,96.0292525 105.384414,94.9887677 105.384414,92.4109899 C105.384414,89.5145051 107.488454,87.9303434 110.837935,87.9303434 L111.083249,87.9303434 L111.375739,86.1212121 L113.074067,86.5055354 L112.828753,88.0990707 C113.765337,88.2735536 114.671242,88.5830299 115.517773,89.017697 Z M110.526575,90.2550303 C108.828246,90.2550303 107.997953,90.9768081 107.997953,92.1297778 C107.997953,93.1702626 108.507451,93.7233131 110.205779,94.3232323 L110.837935,90.2269091 L110.526575,90.2550303 Z M110.592621,102.187798 C112.536263,102.187798 113.508084,101.39103 113.508084,99.9662222 C113.508084,98.9069899 113.074067,98.2133333 111.253082,97.5571717 L110.545445,102.187798 L110.592621,102.187798 Z"/>
    </g>
  </g>
</svg>
