<svg width="450" height="250" viewBox="0 0 450 250" fill="none" xmlns="http://www.w3.org/2000/svg">
<g id="Colour=Teal">
<g id="phone">
<path id="Fill 2" fill-rule="evenodd" clip-rule="evenodd" d="M294 203C294 209.075 263.107 214 225 214C186.893 214 156 209.075 156 203C156 196.925 186.893 192 225 192C263.107 192 294 196.925 294 203Z" fill="#BCE4E3"/>
<g id="phone_2">
<path id="Vector" d="M263.2 192.2C263.2 196 260.1 199.1 256.3 199.1H195.2C191.4 199.1 188.3 196 188.3 192.2V46.1998C188.3 42.3998 191.4 39.2998 195.2 39.2998H256.3C260.1 39.2998 263.2 42.3998 263.2 46.1998V192.2Z" fill="white"/>
<path id="Vector_2" d="M266.9 84.3C267.3 84.3 267.7 83.9 267.7 83.5V63.5C267.7 63.1 267.3 62.7 266.9 62.7H266.5V46.2C266.5 40.6 261.9 36 256.3 36H195.2C189.6 36 185 40.6 185 46.2V192.2C185 197.8 189.6 202.4 195.2 202.4H256.3C261.9 202.4 266.5 197.8 266.5 192.2V101.1H266.9C267.3 101.1 267.7 100.7 267.7 100.3V91.1C267.7 90.7 267.3 90.3 266.9 90.3H266.5V84.3H266.9ZM263.2 192.2C263.2 196 260.1 199.1 256.3 199.1H195.2C191.4 199.1 188.3 196 188.3 192.2V46.2C188.3 42.4 191.4 39.3 195.2 39.3H256.3C260.1 39.3 263.2 42.4 263.2 46.2V192.2Z" fill="#8B1D41"/>
</g>
<g id="content">
<path id="Fill 18" fill-rule="evenodd" clip-rule="evenodd" d="M225.375 88.7939C224.584 89.9152 218.063 98.3021 200 98.3021V110.507C200 126.357 207.919 140.716 220.196 147.129L224.196 149.219C224.571 149.414 224.973 149.513 225.375 149.513V88.7939Z" fill="#C41F3E"/>
<path id="Fill 20" fill-rule="evenodd" clip-rule="evenodd" d="M225.375 88.7939C226.167 89.9152 232.687 98.3021 250.75 98.3021V110.507C250.75 126.357 242.831 140.716 230.554 147.129L226.554 149.219C226.178 149.414 225.777 149.513 225.375 149.513V88.7939Z" fill="#8B1D41"/>
<g id="Icons/Illustrative/Oval">
<ellipse id="Oval" cx="246.219" cy="96.2344" rx="11.7812" ry="12.2344" fill="#D9D9D6"/>
</g>
<path id="outline 3" d="M250.75 99.4211C250.75 101.842 248.743 103.294 245.821 103.294C244.251 103.294 242.761 102.887 241.688 102.268L242.045 100.157C243.158 100.835 244.351 101.222 245.722 101.222C247.252 101.222 248.206 100.564 248.206 99.3436C248.206 98.044 247.335 97.2914 245.172 97.272L244.211 97.2716L243.874 95.2578H245.086C247.073 95.2578 247.968 94.58 247.968 93.3988C247.968 92.4306 247.232 91.7722 245.742 91.7722C244.41 91.7722 243.238 92.2176 242.224 92.934L241.906 90.9008C242.94 90.1843 244.291 89.7002 246.02 89.7002C249.021 89.7002 250.512 91.23 250.512 93.1277C250.512 94.8124 249.518 95.7225 248.087 96.2066C249.776 96.6907 250.75 97.6589 250.75 99.4211Z" fill="#C41F3E"/>
</g>
</g>
</g>
</svg>
