<svg width="450" height="250" viewBox="0 0 450 250" fill="none" xmlns="http://www.w3.org/2000/svg">
<g id="Colour=Pink">
<g id="illustration">
<g id="shadow">
<path id="Shadow" fill-rule="evenodd" clip-rule="evenodd" d="M353.767 136.859L249.504 35C247.509 33.0028 244.802 31.8806 241.979 31.8806C239.156 31.8806 236.449 33.0028 234.454 35L189 80.4564C187.005 82.4511 185.883 85.1569 185.883 87.9783C185.883 90.7997 187.005 93.5055 189 95.5002L293.262 197.359C295.258 199.356 297.965 200.478 300.788 200.478C303.611 200.478 306.318 199.356 308.313 197.359L353.767 151.903C355.762 149.908 356.883 147.202 356.883 144.381C356.883 141.559 355.762 138.853 353.767 136.859Z" fill="#EFD4D8"/>
<path id="Fill 1" fill-rule="evenodd" clip-rule="evenodd" d="M189.283 158.338C181.382 151.721 171.591 148.808 162.04 149.412L161.926 148.098C161.799 146.628 160.498 145.538 159.02 145.664L158.033 145.749C156.554 145.875 155.459 147.17 155.586 148.641L155.734 150.34C152.153 151.167 148.677 152.5 145.426 154.34C144.501 151.195 142.519 147.876 139.61 144.98C134.614 140.009 128.361 137.752 123.9 138.885L93.436 103.26C92.6066 102.366 89.379 103.989 88.3193 104.963C87.2591 105.937 85.3759 109.01 86.2052 109.903L119.188 142.68C117.088 147.133 119.272 154.187 124.815 159.703C127.438 162.313 130.408 164.175 133.283 165.191C121.53 181.313 124.117 203.967 139.671 216.994C155.949 230.626 180.25 228.548 193.949 212.35C207.649 196.153 205.56 171.971 189.283 158.338Z" fill="#EFD4D8"/>
</g>
<g id="phone">
<path id="Vector" d="M349.098 134.902C351.804 137.57 351.836 141.954 349.168 144.66L306.272 188.17C303.604 190.876 299.22 190.907 296.514 188.24L192.545 85.7387C189.839 83.0709 189.808 78.687 192.476 75.9809L235.371 32.4706C238.039 29.7645 242.423 29.7333 245.129 32.4012L349.098 134.902Z" fill="white"/>
<path id="Vector_2" d="M274.894 56.4787C275.175 56.1939 275.171 55.6282 274.886 55.3474L260.644 41.3062C260.359 41.0254 259.793 41.0294 259.512 41.3142L259.231 41.5991L247.482 30.0151C243.494 26.0835 236.988 26.1298 233.057 30.1177L190.161 73.628C186.229 77.6159 186.276 84.1211 190.264 88.0526L294.233 190.553C298.221 194.485 304.726 194.439 308.657 190.451L351.553 146.941C355.485 142.953 355.438 136.447 351.451 132.516L286.577 68.5582L286.858 68.2734C287.138 67.9885 287.134 67.4228 286.85 67.142L280.298 60.6831C280.013 60.4022 279.448 60.4063 279.167 60.6911L278.886 60.9759L274.613 56.7636L274.894 56.4787ZM349.134 134.866C351.84 137.534 351.871 141.918 349.203 144.624L306.307 188.134C303.639 190.84 299.256 190.871 296.549 188.203L192.58 85.7026C189.874 83.0348 189.843 78.6509 192.511 75.9448L235.407 32.4345C238.075 29.7284 242.459 29.6972 245.165 32.3651L349.134 134.866Z" fill="#8B1D41"/>
<g id="screen">
<g id="wifi">
<g id="Group">
<path id="Fill 10" fill-rule="evenodd" clip-rule="evenodd" d="M324.405 70.8992L324.386 70.7278C324.221 69.3411 323.954 67.9838 323.597 66.6633C322.12 61.2097 319.039 56.3914 314.586 52.8153C311.635 50.445 308.267 48.7772 304.691 47.8654C301.566 47.0677 298.282 46.8452 294.969 47.257L295.363 50.8619C297.676 50.606 299.967 50.6831 302.179 51.0804C305.868 51.7448 309.337 53.3031 312.328 55.7052C316.937 59.4075 319.855 64.5727 320.715 70.3507C320.743 70.5423 320.776 70.7319 320.799 70.9246L320.805 70.9295L324.349 71.1661L324.405 70.8992Z" fill="#8B1D41"/>
<path id="Fill 12" fill-rule="evenodd" clip-rule="evenodd" d="M299.205 55.5262C298.016 55.4123 296.804 55.4061 295.58 55.5248L296.045 59.0155C296.195 59.001 296.344 59.0058 296.494 58.9953C304.728 58.4465 312.325 64.664 313.448 72.993L316.906 72.6539C315.662 63.4224 308.092 56.3747 299.205 55.5262Z" fill="#8B1D41"/>
<path id="Fill 14" fill-rule="evenodd" clip-rule="evenodd" d="M296.542 64.0215L296.932 67.6802C300.786 67.1033 304.31 69.9337 304.733 73.9457L308.436 73.5742C307.713 67.5643 302.383 63.2833 296.542 64.0215Z" fill="#8B1D41"/>
</g>
<g id="Group Copy">
<path id="Fill 10_2" fill-rule="evenodd" clip-rule="evenodd" d="M210.205 148.516L210.224 148.687C210.389 150.074 210.656 151.431 211.013 152.752C212.49 158.205 215.571 163.024 220.024 166.6C222.975 168.97 226.343 170.638 229.919 171.55C233.044 172.347 236.328 172.57 239.64 172.158L239.247 168.553C236.934 168.809 234.643 168.732 232.431 168.335C228.742 167.67 225.273 166.112 222.282 163.71C217.672 160.008 214.755 154.842 213.895 149.064C213.867 148.873 213.834 148.683 213.81 148.49L213.804 148.486L210.261 148.249L210.205 148.516Z" fill="#8B1D41"/>
<path id="Fill 12_2" fill-rule="evenodd" clip-rule="evenodd" d="M235.405 163.889C236.594 164.003 237.806 164.009 239.03 163.89L238.565 160.4C238.414 160.414 238.266 160.409 238.116 160.42C229.882 160.969 222.285 154.751 221.162 146.422L217.704 146.761C218.948 155.993 226.518 163.04 235.405 163.889Z" fill="#8B1D41"/>
<path id="Fill 14_2" fill-rule="evenodd" clip-rule="evenodd" d="M238.068 155.394L237.678 151.735C233.824 152.312 230.3 149.481 229.877 145.469L226.174 145.841C226.897 151.851 232.227 156.132 238.068 155.394Z" fill="#8B1D41"/>
</g>
</g>
<g id="screen_2">
<g id="fields">
<path id="Path" d="M316.378 111.067C315.351 110.06 313.965 109.502 312.527 109.518C311.089 109.533 309.716 110.12 308.71 111.149L271.99 148.696C270.256 150.451 269.929 153.156 271.194 155.274C272.459 157.392 274.995 158.387 277.362 157.692L317.858 116.306C318.345 114.42 317.779 112.419 316.378 111.067Z" fill="#D9D9D6"/>
<path id="Path Copy 7" d="M327.494 121.949C326.467 120.942 325.082 120.384 323.644 120.399C322.205 120.415 320.832 121.002 319.827 122.031L283.106 159.577C281.373 161.333 281.046 164.038 282.311 166.156C283.575 168.274 286.112 169.268 288.479 168.574L328.975 127.187C329.462 125.302 328.896 123.3 327.494 121.949Z" fill="#D9D9D6"/>
</g>
<g id="card">
<path id="Fill 1 Copy" fill-rule="evenodd" clip-rule="evenodd" d="M271.01 73.9181C271.731 73.1825 271.715 72.0003 270.977 71.2776L247.353 48.1524C246.615 47.4297 245.433 47.4399 244.713 48.1752L208.147 85.5305C207.427 86.2661 207.442 87.4483 208.18 88.1713L230.791 110.305C232.089 111.575 234.167 111.556 235.432 110.264L271.01 73.9181Z" fill="#C41F3E"/>
<path id="Path Copy" d="M227.04 98.5604C226.586 98.9976 226.413 99.6517 226.587 100.269C226.762 100.886 227.256 101.369 227.879 101.531C228.502 101.692 229.155 101.507 229.585 101.046L233.832 96.7234C234.286 96.2862 234.459 95.632 234.284 95.0148C234.11 94.3976 233.615 93.9145 232.992 93.7531C232.369 93.5916 231.716 93.7772 231.287 94.2378L227.04 98.5604Z" fill="white"/>
<path id="Path Copy 2" d="M231.861 103.39C231.422 103.812 231.257 104.445 231.428 105.044C231.6 105.642 232.081 106.112 232.686 106.27C233.29 106.429 233.923 106.251 234.338 105.807L247.123 92.8325C247.562 92.4106 247.727 91.7776 247.556 91.1791C247.385 90.5807 246.903 90.1111 246.299 89.9525C245.694 89.794 245.061 89.9715 244.646 90.4161L231.861 103.39Z" fill="white"/>
<path id="Path Copy 3" d="M235.435 89.9843C234.98 90.4211 234.806 91.0762 234.982 91.6945C235.157 92.3128 235.653 92.7966 236.278 92.9576C236.902 93.1187 237.556 92.9316 237.984 92.4691L242.227 88.1473C242.68 87.7104 242.853 87.0564 242.678 86.4391C242.503 85.8218 242.008 85.3384 241.385 85.1765C240.762 85.0146 240.109 85.1997 239.679 85.66L235.435 89.9843Z" fill="white"/>
<path id="Path Copy 4" d="M243.839 81.3969C243.381 81.8383 243.205 82.497 243.378 83.1172C243.551 83.7375 244.046 84.2216 244.672 84.3818C245.297 84.5419 245.954 84.3528 246.387 83.8879L250.673 79.5216C251.319 78.828 251.284 77.7365 250.592 77.061C249.901 76.3854 248.806 76.3719 248.124 77.0305L243.839 81.3969Z" fill="white"/>
<path id="Path Copy 5" d="M252.782 72.2625C252.328 72.6997 252.155 73.3539 252.329 73.9711C252.504 74.5883 252.999 75.0714 253.622 75.2328C254.244 75.3943 254.897 75.2087 255.327 74.7481L259.574 70.4255C260.028 69.9883 260.201 69.3342 260.027 68.717C259.852 68.0998 259.357 67.6167 258.734 67.4552C258.112 67.2937 257.459 67.4793 257.029 67.9399L252.782 72.2625Z" fill="white"/>
<path id="Path Copy 6" d="M216.757 88.4657C216.445 88.7834 216.274 89.2137 216.282 89.6616C216.289 90.1096 216.475 90.5383 216.799 90.8532L219.232 93.2351C219.554 93.5517 219.988 93.7287 220.437 93.7268C220.886 93.7248 221.314 93.5441 221.625 93.2247L225.818 88.9132C226.468 88.2521 226.452 87.1833 225.782 86.5254L223.345 84.1414C222.673 83.4854 221.603 83.49 220.953 84.1517L216.757 88.4657Z" fill="#D9D9D6"/>
</g>
<g id="thumbprint">
<path id="Fill 1_2" fill-rule="evenodd" clip-rule="evenodd" d="M279.02 122.976C278.774 123.202 278.408 123.274 278.084 123.129C277.653 122.936 277.46 122.43 277.653 121.997C277.728 121.827 279.447 117.784 276.22 113.104C275.951 112.714 276.05 112.178 276.441 111.907C276.833 111.637 277.368 111.734 277.637 112.124C281.433 117.629 279.314 122.491 279.222 122.695C279.173 122.804 279.103 122.899 279.02 122.976Z" fill="#8B1D41"/>
<path id="Fill 3" fill-rule="evenodd" clip-rule="evenodd" d="M282.39 118.652C282.163 118.861 281.835 118.946 281.53 118.847C281.088 118.702 280.86 118.225 281.018 117.778C281.049 117.69 281.643 115.897 280.572 113.839C280.358 113.428 280.526 112.909 280.946 112.68C281.366 112.452 281.881 112.599 282.095 113.01C283.52 115.748 282.663 118.196 282.626 118.298C282.575 118.438 282.493 118.557 282.39 118.652Z" fill="#8B1D41"/>
<path id="Fill 5" fill-rule="evenodd" clip-rule="evenodd" d="M273.801 125.331C273.571 125.542 273.228 125.608 272.913 125.473C272.48 125.287 272.267 124.79 272.436 124.363L272.556 124.061C273.46 121.798 274.699 118.699 272.341 114.062C272.126 113.641 272.287 113.138 272.699 112.939C273.111 112.741 273.618 112.921 273.833 113.342C276.544 118.674 275.086 122.324 274.12 124.74L274.002 125.036C273.956 125.153 273.886 125.252 273.801 125.331Z" fill="#8B1D41"/>
<path id="Fill 7" fill-rule="evenodd" clip-rule="evenodd" d="M284.229 112.068C284.179 112.115 284.122 112.156 284.06 112.191C283.631 112.432 283.092 112.282 282.856 111.856C281.54 109.483 277.888 104.78 273.485 103.958C271.242 103.54 269.042 104.194 266.946 105.901C266.565 106.212 266.007 106.157 265.701 105.78C265.394 105.402 265.455 104.843 265.835 104.534C268.358 102.478 271.047 101.7 273.828 102.218C276.115 102.645 278.38 103.93 280.561 106.038C282.768 108.172 284.064 110.364 284.408 110.985C284.61 111.349 284.525 111.796 284.229 112.068Z" fill="#8B1D41"/>
<path id="Fill 9" fill-rule="evenodd" clip-rule="evenodd" d="M269.387 124.499C269.045 124.814 268.514 124.793 268.201 124.453C267.888 124.112 267.911 123.581 268.253 123.267C269.422 122.192 270.477 119.377 270.187 116.898C270.133 116.438 270.463 116.02 270.923 115.964C271.384 115.908 271.801 116.235 271.855 116.695C272.221 119.822 270.888 123.119 269.387 124.499Z" fill="#8B1D41"/>
<path id="Fill 11" fill-rule="evenodd" clip-rule="evenodd" d="M281.3 112.317C281.28 112.335 281.26 112.353 281.239 112.369C280.817 112.704 280.233 112.659 279.934 112.27C278.202 110.013 275.279 107.442 272.744 107.628C272.227 107.666 271.817 107.282 271.827 106.77C271.838 106.259 272.265 105.814 272.782 105.776C276.845 105.478 280.453 109.745 281.462 111.06C281.746 111.429 281.67 111.977 281.3 112.317Z" fill="#8B1D41"/>
<path id="Fill 13" fill-rule="evenodd" clip-rule="evenodd" d="M266.994 121.81C266.627 122.147 266.048 122.113 265.699 121.734C265.351 121.355 265.365 120.774 265.731 120.438C267.846 118.492 267.543 115.47 266.555 113.289C266.343 112.822 266.543 112.284 267.002 112.087C267.461 111.891 268.005 112.111 268.217 112.578C268.879 114.039 269.205 115.648 269.133 117.108C269.041 118.981 268.301 120.607 266.994 121.81Z" fill="#8B1D41"/>
<path id="Fill 15" fill-rule="evenodd" clip-rule="evenodd" d="M275.124 110.662C274.86 110.905 274.442 110.947 274.077 110.735C273.562 110.436 272.267 109.83 271.369 110.656C270.695 111.276 270.787 111.97 271.267 113.391C271.435 113.891 271.184 114.388 270.705 114.501C270.226 114.614 269.701 114.3 269.532 113.8C269.111 112.551 268.474 110.665 270.046 109.219C271.237 108.123 273.032 108.098 274.848 109.151C275.309 109.418 275.51 109.99 275.297 110.428C275.253 110.519 275.194 110.598 275.124 110.662Z" fill="#8B1D41"/>
<path id="Fill 17" fill-rule="evenodd" clip-rule="evenodd" d="M264.594 119.126C264.267 119.427 263.79 119.497 263.458 119.269C263.08 119.011 263.031 118.464 263.35 118.049C263.664 117.64 263.791 117.247 263.706 116.941C263.581 116.49 263.867 115.971 264.346 115.782C264.825 115.592 265.315 115.804 265.44 116.255C265.676 117.106 265.421 118.076 264.721 118.987C264.682 119.038 264.639 119.084 264.594 119.126Z" fill="#8B1D41"/>
<path id="Fill 19" fill-rule="evenodd" clip-rule="evenodd" d="M280.553 104.445C280.27 104.705 279.799 104.68 279.459 104.374C276.895 102.056 273.333 100.435 271.175 100.603C270.732 100.637 270.291 100.294 270.189 99.8352C270.088 99.377 270.364 98.9775 270.806 98.9428C273.474 98.735 277.438 100.489 280.446 103.208C280.809 103.537 280.883 104.063 280.61 104.385C280.592 104.407 280.573 104.426 280.553 104.445Z" fill="#8B1D41"/>
<path id="Fill 22" fill-rule="evenodd" clip-rule="evenodd" d="M264.091 113.474C263.978 113.578 263.834 113.651 263.67 113.677C263.229 113.748 262.817 113.448 262.748 113.007C262.49 111.341 262.448 108.865 263.718 106.538C263.932 106.146 264.423 106.001 264.814 106.213C265.206 106.425 265.349 106.915 265.135 107.307C264.082 109.236 264.124 111.333 264.344 112.753C264.387 113.03 264.284 113.297 264.091 113.474Z" fill="#8B1D41"/>
<path id="Fill 24" fill-rule="evenodd" clip-rule="evenodd" d="M267.371 111.679C267.19 111.845 266.94 111.932 266.682 111.896C266.231 111.832 265.926 111.414 266.001 110.962C266.177 109.898 266.603 108.504 268.357 107.143C268.722 106.859 269.242 106.919 269.517 107.277C269.793 107.635 269.721 108.155 269.354 108.438C268.08 109.428 267.775 110.347 267.635 111.193C267.603 111.386 267.506 111.554 267.371 111.679Z" fill="#8B1D41"/>
<path id="Fill 26" fill-rule="evenodd" clip-rule="evenodd" d="M260.83 115.251C260.727 115.346 260.6 115.417 260.457 115.451C260.031 115.554 259.624 115.299 259.548 114.881C259.179 112.853 259.239 110.857 259.72 109.108C259.836 108.687 260.267 108.417 260.684 108.506C261.1 108.594 261.344 109.007 261.228 109.428C260.81 110.949 260.762 112.707 261.09 114.509C261.14 114.786 261.032 115.065 260.83 115.251Z" fill="#8B1D41"/>
<path id="Fill 28" fill-rule="evenodd" clip-rule="evenodd" d="M269.143 101.488C269.057 101.567 268.954 101.63 268.836 101.67C266.406 102.493 264.102 104.368 262.964 106.448C262.737 106.864 262.217 107.019 261.802 106.794C261.388 106.569 261.236 106.05 261.463 105.635C262.796 103.196 265.478 101.003 268.296 100.05C268.744 99.8978 269.229 100.137 269.378 100.585C269.488 100.915 269.385 101.266 269.143 101.488Z" fill="#8B1D41"/>
</g>
</g>
</g>
</g>
<g id="cup">
<path id="Fill 7_2" fill-rule="evenodd" clip-rule="evenodd" d="M188.469 151.927C172.413 138.414 148.442 140.475 134.928 156.531C121.414 172.587 123.475 196.558 139.531 210.072C155.587 223.586 179.558 221.525 193.072 205.469C206.586 189.413 204.525 165.441 188.469 151.927Z" fill="white"/>
<path id="Fill 9_2" fill-rule="evenodd" clip-rule="evenodd" d="M182.03 159.723C176.333 154.942 169.285 152.822 162.395 153.217L161.38 141.448C161.254 139.975 159.953 138.883 158.475 139.01L157.488 139.094C156.01 139.221 154.916 140.518 155.043 141.991L156.104 154.299C150.999 155.79 146.261 158.742 142.578 163.104C132.621 174.901 134.139 192.512 145.97 202.441C157.801 212.369 175.464 210.855 185.422 199.059C195.379 187.262 193.86 169.651 182.03 159.723Z" fill="#8B1D41"/>
<path id="Fill 11_2" fill-rule="evenodd" clip-rule="evenodd" d="M139.586 139.05C134.593 134.007 128.343 131.718 123.884 132.866L93.4327 96.7263C92.6038 95.8194 89.3776 97.4666 88.3178 98.4545C87.2585 99.4423 85.3761 102.559 86.2051 103.466L119.173 136.717C117.075 141.234 119.258 148.39 124.798 153.986C131.237 160.488 139.768 162.417 143.851 158.293C147.935 154.169 146.026 145.554 139.586 139.05Z" fill="#C41F3E"/>
<path id="Fill 14_3" fill-rule="evenodd" clip-rule="evenodd" d="M178.988 164.286C169.481 156.284 155.287 157.505 147.286 167.011C139.284 176.519 140.505 190.712 150.012 198.713C159.518 206.716 173.712 205.495 181.714 195.988C189.716 186.481 188.495 172.288 178.988 164.286Z" fill="#C41F3E"/>
</g>
</g>
</g>
</svg>
