<?xml version="1.0" encoding="UTF-8"?>
<svg width="256px" height="256px" viewBox="0 0 256 256" version="1.1" xmlns="http://www.w3.org/2000/svg" xmlns:xlink="http://www.w3.org/1999/xlink">
    <!-- Generator: Sketch 56.3 (81716) - https://sketch.com -->
    <title>Icons/Illustrative/cheques/mobile-deposit-256x256</title>
    <desc>Created with Sketch.</desc>
    <g id="Icons/Illustrative/cheques/mobile-deposit-256x256" stroke="none" stroke-width="1" fill="none" fill-rule="evenodd">
        <g id="Icons/Illustrative/Oval" fill="#F2F3F2">
            <circle id="Oval" cx="128" cy="128" r="128"></circle>
        </g>
        <g id="Group" transform="translate(45.000000, 82.498054)" fill-rule="nonzero">
            <g id="Layer_1">
                <path d="M110.183813,79.0010896 C110.200229,63.4821048 122.765101,50.8994164 138.284047,50.8610117 C142.835162,50.8552475 147.318549,51.96327 151.343035,54.0884047 L151.343035,5.65758758 C151.343035,2.90690867 149.113169,0.677042834 146.36249,0.677042834 L5.02459146,0.677042834 C2.27391255,0.677042834 0.0440467102,2.90690867 0.0440467102,5.65758758 L0.0440467102,74.0603892 C0.0440467102,76.8110681 2.27391255,79.0409339 5.02459146,79.0409339 L110.183813,79.0010896 Z" id="Path" fill="#C4203F"></path>
                <polygon id="Path" fill="#FFFFFF" points="138.323891 24.842646 128.024125 24.842646 13.1129961 24.842646 13.1129961 17.0729961 138.323891 17.0729961"></polygon>
                <polygon id="Path" fill="#FFFFFF" points="138.323891 39.1965759 128.512218 39.1965759 13.1129961 39.1965759 13.1129961 31.4368872 138.323891 31.4368872"></polygon>
                <path d="M32.3080156,69.2192997 C30.4550557,69.1971927 28.619326,68.8603616 26.8792218,68.2231907 C25.2296394,67.6918276 23.8555452,66.5324357 23.0541635,64.9957977 C20.3865627,66.309126 17.6144924,67.3986296 14.766537,68.253074 L13.9696498,65.4241246 C16.8460921,64.5365141 19.6446359,63.413765 22.336965,62.0672374 C22.3030333,61.0133368 22.4204415,59.9600175 22.6856031,58.9394553 C24.0801557,53.1819456 29.8177432,45.7210895 33.5531518,46.1992218 C34.5492607,46.3386771 36.2127627,47.0857588 36.1031907,50.5223347 C35.9039689,56.3196888 30.8437354,60.682646 25.7038133,63.6410896 C26.1544717,64.5104307 26.9436583,65.1554737 27.8852919,65.4241246 C37.7567315,68.9304281 42.7472374,59.9953308 42.9564203,59.6168094 C43.2958807,58.9970257 44.0231186,58.6998008 44.6995085,58.9044027 C45.3758984,59.1090047 45.8164654,59.7594801 45.7554864,60.463502 C45.7554864,61.021323 45.7554864,62.7844359 46.6420234,63.3920623 C47.2894942,63.8502724 48.5744747,63.690895 50.2479378,62.9438133 L57.4697277,59.686537 C57.8712097,59.5019316 58.333304,59.5019316 58.734786,59.686537 C59.1350333,59.8839152 59.4269683,60.2488339 59.5316732,60.682646 C59.9695802,62.2590115 61.0256465,63.5916665 62.4602335,64.3782102 C64.0241246,65.0555643 66.0661479,64.7268483 68.5364981,63.3821012 L69.9509728,66.0118289 C66.6239689,67.8147861 63.6954086,68.1733853 61.2350195,67.0876265 C59.4711539,66.2521165 58.0597415,64.819533 57.2505837,63.0434242 L51.4631907,65.6432685 C48.7039689,66.8884047 46.482646,66.9382102 44.8888716,65.802646 C44.2302734,65.3270684 43.7109362,64.6839157 43.3847471,63.9399222 C40.6100217,67.193205 36.5825451,69.1127757 32.3080156,69.2192997 Z M32.9953308,49.1377432 C31.3915954,49.4365759 26.5106615,54.785681 25.4747082,60.0949417 L25.4747082,60.2642802 C29.459144,57.7839689 33.0052919,54.4470039 33.1447471,50.3629573 C33.1655301,49.9490075 33.1149884,49.5345661 32.9953308,49.1377432 Z" id="Shape" fill="#FFFFFF"></path>
                <path d="M138.284047,53.8493386 C128.106178,53.8493386 118.930675,59.9808721 115.036705,69.3843824 C111.142734,78.7878928 113.29729,89.6111749 120.495554,96.80659 C127.693819,104.002005 138.517953,106.152275 147.919921,102.254581 C157.321889,98.3568876 163.449788,89.1789576 163.445761,79.0010896 C163.429282,65.113103 152.172039,53.8603161 138.284047,53.8493386 L138.284047,53.8493386 Z" id="Path" fill="#8B1D41"></path>
                <path d="M151.392841,72.596109 C151.392841,72.0459732 150.946867,71.6000001 150.396732,71.6000001 L143.961868,71.6000001 L143.672996,69.2890273 C143.607584,68.7899846 143.180181,68.4181438 142.676887,68.4223761 L133.851362,68.4223761 C133.341323,68.4193184 132.911349,68.8019948 132.855253,69.3089495 L132.586304,71.6199222 L126.15144,71.6199222 C125.601304,71.6199222 125.155331,72.0658954 125.155331,72.6160312 L125.215097,88.4840468 C125.215097,89.0341825 125.661071,89.4801557 126.211206,89.4801557 L150.446537,89.3805448 C150.996673,89.3805448 151.442646,88.9345716 151.442646,88.3844359 L151.392841,72.596109 Z" id="Path" fill="#FFFFFF"></path>
                <circle id="Oval" fill="#8B1D41" cx="138.31393" cy="80.5849028" r="5.75750973"></circle>
            </g>
        </g>
    </g>
</svg>