<?xml version="1.0" encoding="UTF-8"?>
<svg width="256px" height="256px" viewBox="0 0 256 256" version="1.1" xmlns="http://www.w3.org/2000/svg" xmlns:xlink="http://www.w3.org/1999/xlink">
    <!-- Generator: Sketch 56.3 (81716) - https://sketch.com -->
    <title>Icons/Illustrative/currency/money-jar-coins-256x256</title>
    <desc>Created with Sketch.</desc>
    <g id="Icons/Illustrative/currency/money-jar-coins-256x256" stroke="none" stroke-width="1" fill="none" fill-rule="evenodd">
        <g id="Icons/Illustrative/Oval" fill="#F2F3F2">
            <circle id="Oval" cx="128" cy="128" r="128"></circle>
        </g>
        <g id="savings" transform="translate(90.000000, 61.000000)" fill-rule="nonzero">
            <path d="M72.14,43.45 L62.34,34.38 L13.7,34.38 L4.29,43.45 C1.5123779,46.9249197 -1.22857294e-07,51.2413765 -1.22857294e-07,55.69 L-1.22857294e-07,123.05 C-1.22857294e-07,128.953924 4.78607602,133.740005 10.69,133.740005 L65.74,133.740005 C68.5759779,133.742657 71.296565,132.617245 73.3019051,130.611905 C75.3072452,128.606565 76.4326567,125.885978 76.4300047,123.05 L76.4300047,55.69 C76.4300047,51.2413765 74.9176221,46.9249197 72.14,43.45 Z" id="Path" fill="#C41F3F"></path>
            <rect id="Rectangle" fill="#C41F3F" x="11.84" y="25.76" width="52.33" height="6.25" rx="3.12"></rect>
            <circle id="Oval" fill="#FFFFFF" cx="51.21" cy="60.24" r="14.72"></circle>
            <path d="M58.0500014,14.71 C58.0513293,17.7761084 57.0932336,20.7657866 55.31,23.26 L31.31,23.26 C27.6226553,18.0849367 27.6751176,11.1271633 31.4400797,6.00829119 C35.2050417,0.889419068 41.8313182,-1.23327346 47.8698461,0.745102627 C53.9083739,2.72347872 57.9939585,8.35565074 58,14.71 L58.0500014,14.71 Z" id="Path" fill="#8B1D41"></path>
            <circle id="Oval" fill="#FFFFFF" cx="25.21" cy="91.36" r="14.72"></circle>
            <rect id="Rectangle" fill="#FFFFFF" x="32.99" y="114.71" width="30.31" height="6" rx="2.5"></rect>
            <rect id="Rectangle" fill="#FFFFFF" x="27.23" y="122.67" width="30.31" height="6" rx="2.5"></rect>
            <path d="M51.22,64.4 C52.7,64.4 53.45,63.79 53.45,62.7 C53.45,61.88 53.11,61.34 51.7,60.84 L51.16,64.4 L51.22,64.4 Z M51.22,55.23 C49.92,55.23 49.29,55.79 49.29,56.7 C49.29,57.61 49.68,57.92 50.97,58.38 L51.46,55.23 L51.22,55.23 Z M55,54.3 L54.69,56.21 C54.0400855,55.8203829 53.33067,55.5399949 52.59,55.38 L52.08,58.75 C54.39,59.53 55.48,60.5 55.48,62.49 C55.48,64.88 53.74,66.16 51.12,66.16 L51,66.16 L50.67,68.35 L49.38,68.07 C49.38,68.07 49.7,66.07 49.68,66.07 C48.7444553,65.9200508 47.8393916,65.6194886 47,65.18 L47.29,63.27 C48.1659193,63.7699376 49.1244426,64.1086384 50.12,64.27 L50.68,60.43 C48.45,59.67 47.31,58.88 47.31,56.94 C47.31,54.72 48.93,53.5 51.49,53.5 L51.67,53.5 L51.89,52.11 L53.19,52.4 L53,53.65 C53.6936616,53.7725591 54.3668223,53.9913364 55,54.3 L55,54.3 Z" id="Shape" fill="#8B1D41"></path>
            <path d="M25.22,96.22 C26.7,96.22 27.45,95.61 27.45,94.52 C27.45,93.7 27.11,93.16 25.7,92.67 L25.16,96.22 L25.22,96.22 Z M25.22,87.05 C23.92,87.05 23.29,87.61 23.29,88.52 C23.29,89.43 23.68,89.74 24.97,90.2 L25.46,87.05 L25.22,87.05 Z M29,86.12 L28.67,88 C28.0200855,87.6103829 27.31067,87.3299949 26.57,87.17 L26.06,90.54 C28.37,91.32 29.46,92.29 29.46,94.28 C29.46,96.67 27.72,97.95 25.1,97.95 L25,97.95 L24.67,100.14 L23.38,99.86 C23.38,99.86 23.7,97.86 23.68,97.86 C22.746192,97.719489 21.8412065,97.4290832 21,97 L21.29,95.09 C22.1659193,95.5899376 23.1244426,95.9286384 24.12,96.09 L24.68,92.25 C22.45,91.49 21.31,90.7 21.31,88.76 C21.31,86.54 22.93,85.32 25.49,85.32 L25.67,85.32 L25.84,84 L27.14,84.3 L27,85.47 C27.6936616,85.5925591 28.3668223,85.8113364 29,86.12 L29,86.12 Z" id="Shape" fill="#8B1D41"></path>
            <path d="M43.35,18.32 C44.83,18.32 45.57,17.7 45.57,16.61 C45.57,15.79 45.24,15.26 43.83,14.76 L43.29,18.32 L43.35,18.32 Z M43.29,9.14 C42,9.14 41.36,9.7 41.36,10.61 C41.36,11.52 41.76,11.83 43.05,12.3 L43.54,9.14 L43.29,9.14 Z M47.11,8.22 L46.8,10.12 C46.1500855,9.73038286 45.44067,9.44999486 44.7,9.29 L44.19,12.66 C46.5,13.44 47.59,14.41 47.59,16.4 C47.59,18.8 45.85,20.07 43.23,20.07 L43.14,20.07 L42.81,22.26 L41.52,22 C41.52,22 41.84,20 41.82,20 C40.8645241,19.8591866 39.9387864,19.5618694 39.08,19.12 L39.37,17.22 C40.2402339,17.7245036 41.196343,18.0635494 42.19,18.22 L42.76,14.39 C40.53,13.63 39.39,12.83 39.39,10.89 C39.39,8.67 41.01,7.45 43.57,7.45 L43.75,7.45 L44,6 L45.3,6.3 L45.12,7.52 C45.8113241,7.66446956 46.4804735,7.89984875 47.11,8.22 Z" id="Shape" fill="#FFFFFF"></path>
        </g>
    </g>
</svg>