<?xml version="1.0" encoding="UTF-8"?>
<svg width="256px" height="256px" viewBox="0 0 256 256" version="1.1" xmlns="http://www.w3.org/2000/svg" xmlns:xlink="http://www.w3.org/1999/xlink">
    <!-- Generator: Sketch 56.3 (81716) - https://sketch.com -->
    <title>Icons/Illustrative/currency/money-jar-bill-256x256</title>
    <desc>Created with Sketch.</desc>
    <g id="Icons/Illustrative/currency/money-jar-bill-256x256" stroke="none" stroke-width="1" fill="none" fill-rule="evenodd">
        <g id="Icons/Illustrative/Oval" fill="#F2F3F2">
            <circle id="Oval" cx="128" cy="128" r="128"></circle>
        </g>
        <g id="Group" transform="translate(78.000000, 47.000000)">
            <path d="M10.7104821,14.9710273 C12.8760766,20.5703138 19.2640563,23.4042556 25,21.3103809 L17.1943509,1 C11.4601544,3.10974351 8.55825271,9.36257632 10.7104821,14.9710273 L10.7104821,14.9710273 Z" id="Path" fill="#C41F3E" fill-rule="nonzero"></path>
            <path d="M17,0.753865193 L24.7371976,21 C28.4644782,19.6792847 31.1807104,16.481306 31.8445193,12.6321352 C32.5083281,8.7829644 31.0167186,4.87982944 27.9415582,2.41915122 C24.8663979,-0.0415270098 20.6848209,-0.677955707 17,0.753865193 Z" id="Path" fill="#8B1D41" fill-rule="nonzero"></path>
            <path d="M47.0202156,18.7171544 C41.4279051,20.8817376 38.5974939,27.2667346 40.6887599,33 L61,25.1712152 C58.874876,19.4431335 52.6215325,16.5561463 47.0202156,18.7171544 L47.0202156,18.7171544 Z" id="Path" fill="#C41F3E" fill-rule="nonzero"></path>
            <path d="M60.8328422,34 C62.2041578,31.20057 62.3749364,27.9356041 61.3035997,25 L41,32.92 C41.1394837,33.289 41.2964029,33.649 41.4620398,34 L60.8328422,34 Z" id="Path" fill="#8B1D41" fill-rule="nonzero"></path>
            <path d="M35.5188602,99.5397867 C35.1167426,99.7655661 34.9170682,100.23339 35.032393,100.679548 L45.0447724,137.257922 C45.1095468,137.517324 45.2793534,137.738155 45.5135499,137.867561 C45.74408,138 46.0178045,138.034674 46.2742076,137.96475 L96,124.384808 L96,83 L35.7753611,99.4514331 C35.6861188,99.4686588 35.5997636,99.4984044 35.5188602,99.5397867 Z" id="Path" fill="#C41F3E" fill-rule="nonzero"></path>
            <path d="M90.6175658,61.1150867 L78.306021,51 L17.2078807,51 L5.38243417,61.1150867 C1.95806265,64.8467024 0.0395752045,69.7223254 0,74.7939462 L0,150.058701 C0,156.654341 6.00994292,162 13.4251519,162 L82.5748481,162 C89.9900571,162 96,156.680936 96,150.058701 L96,127.674307 L47.125023,141.078348 C44.9641031,141.668879 42.7322531,140.403207 42.1226294,138.241514 L32.1266802,101.539973 C31.6194362,99.7264282 32.4251744,97.8014532 34.0710735,96.894657 C34.3508728,96.7377898 34.6473312,96.6128975 34.9548886,96.5223225 L95.9381329,79.7938663 L95.9381329,74.8382717 C95.9264229,69.7596203 94.0296529,64.8673362 90.6175658,61.1150867 Z" id="Path" fill="#C41F3E"></path>
            <rect id="Rectangle" fill="#C41F3E" fill-rule="nonzero" x="15" y="37" width="65" height="10" rx="2.44"></rect>
            <path d="M113.104854,78.0177016 L34.7450534,99.3834813 C34.6648835,99.4037144 34.5874243,99.4334276 34.5143224,99.4719891 C34.1118029,99.6986831 33.9145465,100.168659 34.0351119,100.61374 L44.0807851,137.255963 C44.1457749,137.515818 44.3161462,137.737035 44.5511214,137.866667 C44.7820956,138 45.057124,138.035076 45.3143086,137.964026 L123.682984,116.598246 C123.912574,116.533728 124.047196,116.29679 123.984709,116.067199 L113.63731,78.318628 C113.61278,78.2061715 113.537408,78.1113882 113.433202,78.0619555 C113.371537,78.0243694 113.301298,78.0030489 113.229094,78 L113.104854,78.0177016 Z" id="Path" fill="#8B1D41" fill-rule="nonzero"></path>
            <ellipse id="Oval" fill="#FFFFFF" fill-rule="nonzero" transform="translate(78.186386, 107.650424) rotate(-15.154068) translate(-78.186386, -107.650424) " cx="78.1863859" cy="107.650424" rx="20.8848927" ry="15.8875698"></ellipse>
            <path d="M81.9882832,98.0486709 L82.276431,100.915013 C81.2246335,100.604082 80.1296766,100.476524 79.036951,100.537626 L79.5957831,105.58742 C83.088484,105.794085 85.0182012,106.719581 85.7865954,109.621864 C86.6597706,113.063272 84.8086392,115.570198 81.0539857,116.62149 L80.9230095,116.62149 L81.2897431,119.892175 L79.4036846,120 C79.4036846,120 79.071878,116.971921 79.0456828,116.980906 C77.6614966,117.165272 76.2572474,117.113663 74.8893687,116.828154 L74.5750257,113.970797 C75.9958632,114.369369 77.476558,114.491266 78.9409017,114.330213 L78.2772886,108.597529 C74.8544417,108.381879 72.977115,107.698989 72.2174526,104.832647 C71.3442774,101.64283 73.1517501,99.2437289 76.7230367,98.2463497 L76.9849892,98.1744665 L76.7666954,96.089854 L78.6876809,96 L78.897243,97.7970797 C79.9339304,97.7342558 80.9740842,97.8189178 81.9882832,98.0486709 Z M77.0111845,100.879072 C75.1949801,101.382254 74.5313669,102.433545 74.880637,103.736428 C75.1862483,104.886559 75.8847885,105.344815 77.875628,105.533508 L77.3429911,100.816174 L77.0111845,100.879072 Z M80.5912029,114.033695 C82.6606281,113.449644 83.4639493,112.236615 83.0448252,110.709098 C82.7304822,109.540996 82.0581372,108.912018 79.9275897,108.723325 L80.5388124,114.051666 L80.5912029,114.033695 Z" id="Shape" fill="#8B1D41" fill-rule="nonzero"></path>
        </g>
    </g>
</svg>