<?xml version="1.0" encoding="UTF-8"?>
<svg width="256px" height="256px" viewBox="0 0 256 256" version="1.1" xmlns="http://www.w3.org/2000/svg" xmlns:xlink="http://www.w3.org/1999/xlink">
    <!-- Generator: Sketch 56.3 (81716) - https://sketch.com -->
    <title>Icons/Illustrative/mortgage/mortgage-equity-256x256</title>
    <desc>Created with Sketch.</desc>
    <g id="Icons/Illustrative/mortgage/mortgage-equity-256x256" stroke="none" stroke-width="1" fill="none" fill-rule="evenodd">
        <g id="Icons/Illustrative/Oval-White" fill="#FFFFFF">
            <circle id="Oval" cx="128" cy="128" r="128"></circle>
        </g>
        <g id="Group" transform="translate(49.000000, 51.000000)" fill-rule="nonzero">
            <g id="Layer_1">
                <polygon id="Path" fill="#C4203F" points="27.36 64.6 79.0000001 12.59 130.64 64.6 130.64 140.22 27.36 140.22"></polygon>
                <g id="Group-2" transform="translate(49.000000, 64.000000)">
                    <circle id="Oval" fill="#FFFFFF" cx="29.44" cy="29.44" r="29.44"></circle>
                    <path d="M29.46,37.76 C32.42,37.76 33.92,36.54 33.92,34.36 C33.92,32.72 33.24,31.64 30.42,30.64 L29.34,37.76 L29.46,37.76 Z M29.46,19.42 C26.86,19.42 25.6,20.54 25.6,22.36 C25.6,24.18 26.38,24.8 28.96,25.72 L29.94,19.42 L29.46,19.42 Z M37.02,17.56 L36.4,21.38 C35.1001709,20.6007657 33.68134,20.0399897 32.2,19.72 L31.18,26.46 C35.8,28.02 37.98,29.96 37.98,33.94 C37.98,38.72 34.5,41.28 29.26,41.28 L29.02,41.28 L28.36,45.66 L25.78,45.1 C25.78,45.1 26.42,41.1 26.38,41.1 C24.5089107,40.8001016 22.6987833,40.1989772 21.02,39.32 L21.6,35.5 C23.3518386,36.4998751 25.2688852,37.1772768 27.26,37.5 L28.38,29.82 C23.92,28.3 21.64,26.72 21.64,22.84 C21.64,18.4 24.88,15.96 30,15.96 L30.36,15.96 L30.8,13.18 L33.4,13.76 L33.02,16.26 C34.4073233,16.5051183 35.7536447,16.9426727 37.02,17.56 L37.02,17.56 Z" id="Shape" fill="#8B1D41"></path>
                </g>
                <path d="M145.93,90.0000696 C143.145629,90.0101713 140.473231,88.9044757 138.51,86.9300001 L79,27.44 L19.5,86.9200001 C16.847303,89.5726971 12.9809129,90.6086933 9.35726134,89.6377388 C5.7336098,88.6667843 2.90321576,85.8363903 1.93226127,82.2127387 C0.961306788,78.5890872 1.99730295,74.722697 4.65000002,72.07 L71.55,5.17000002 C73.5191628,3.20063631 76.1900413,2.09424241 78.975,2.09424241 C81.7599588,2.09424241 84.4308373,3.20063631 86.4000001,5.17000002 L153.35,72.07 C156.356233,75.0718785 157.25731,79.5894938 155.632806,83.5150125 C154.008303,87.4405312 150.178377,90.0000696 145.93,90.0000696 Z" id="Path" fill="#8B1D41"></path>
                <path d="M79,3.58997296 C81.3881739,3.58679574 83.6797043,4.53290639 85.3700001,6.22000002 L152.32,73.13 C155.708026,76.6636221 155.650301,82.2572283 152.190072,85.7201776 C148.729843,89.1831269 143.136284,89.2452477 139.6,85.8600001 L79,25.32 L18.44,85.8600001 C14.9247076,89.3752925 9.22529246,89.3752925 5.71000002,85.8600001 C2.19470759,82.3447076 2.19470759,76.6452925 5.71000002,73.13 L72.61,6.23000002 C74.3035518,4.53432507 76.6034616,3.58412757 79,3.58997296 L79,3.58997296 Z M79,0.589996305 L79,0.589996305 C75.8164445,0.58749664 72.7623653,1.85013717 70.51,4.10000002 L3.59000002,71 C-1.10442035,75.6944204 -1.10442035,83.3055797 3.59000002,88.0000001 C8.2844204,92.6944204 15.8955797,92.6944204 20.59,88.0000001 L79,29.56 L137.45,88.0000001 C140.486758,91.0367576 144.912928,92.2227464 149.061216,91.111216 C153.209504,89.9996856 156.449686,86.7595039 157.561216,82.611216 C158.672746,78.4629281 157.486758,74.0367576 154.45,71 L87.4600001,4.10000002 C85.2149913,1.85747808 82.1731593,0.595441411 79,0.589996305 Z" id="Shape" fill="#F2F3F2"></path>
            </g>
        </g>
    </g>
</svg>