<?xml version="1.0" encoding="UTF-8"?>
<svg width="256px" height="256px" viewBox="0 0 256 256" version="1.1" xmlns="http://www.w3.org/2000/svg" xmlns:xlink="http://www.w3.org/1999/xlink">
    <!-- Generator: Sketch 57.1 (83088) - https://sketch.com -->
    <title>Icons/Illustrative/objects/mug-256x256</title>
    <desc>Created with Sketch.</desc>
    <g id="Icons/Illustrative/objects/mug-256x256" stroke="none" stroke-width="1" fill="none" fill-rule="evenodd">
        <g id="Icons/Illustrative/Oval" fill="#F2F3F2">
            <circle id="Oval" cx="128" cy="128" r="128"></circle>
        </g>
        <path d="M178.559,99 L171,99 L171,108.627 L178.56,108.627 C185.076,108.627 190.255,113.804 190.255,120.313 C190.255,123.036 189.121,125.479 186.936,127.976 C184.752,130.472 181.55,132.815 178.24,134.707 C175.675,136.173 173.205,137.277 171,138.186 L171,148.509 C173.918,147.496 178.024,145.918 183.016,143.065 C186.926,140.831 190.944,138.006 194.175,134.313 C197.407,130.619 199.882,125.844 199.882,120.313 C199.882,108.599 190.278,99 178.559,99" id="Fill-4" fill="#8B1D41"></path>
        <path d="M171.526502,148.57775 L171.526502,99.06875 L171.526502,86.74875 L171.526502,84.62775 C174.185502,84.66575 176.371502,82.54075 176.409004,79.88275 C176.446502,77.22375 174.321502,75.03875 171.663502,75 C171.617502,75 171.572502,75 171.526502,75 L84.8805018,75 C82.2225018,74.96375 80.0375018,77.08775 80,79.74675 C79.9625018,82.40475 82.0875018,84.59075 84.7455018,84.62775 C84.7915018,84.62875 84.8365018,84.62875 84.8805018,84.62775 L84.8805018,166.45975 C84.8805018,174.43575 91.3455018,180.90075 99.3225018,180.90075 L157.086502,180.90075 C165.061502,180.90075 171.526502,174.43575 171.526502,166.45975 L171.526502,148.57775 Z" id="Fill-6" fill="#C41F3E"></path>
    </g>
</svg>