<?xml version="1.0" encoding="UTF-8"?>
<svg width="80px" height="80px" viewBox="0 0 80 80" version="1.1" xmlns="http://www.w3.org/2000/svg" xmlns:xlink="http://www.w3.org/1999/xlink">
    <title>Icons/Illustrative/currency/no-fee-80x80-en</title>
    <g id="Icons/Illustrative/currency/no-fee-80x80-en" stroke="none" stroke-width="1" fill="none" fill-rule="evenodd">
        <g id="Group-2">
            <g id="Group">
                <g fill="#F2F3F2" id="Icons/Illustrative/Oval">
                    <circle id="Oval" cx="40" cy="40" r="40"></circle>
                </g>
                <path d="M26.787625,26.741625 C19.4041875,34.064125 19.4041875,45.936 26.787625,53.2581875 C34.17075,60.5806875 46.1416875,60.5806875 53.5248125,53.2581875 C60.9085625,45.936 60.9085625,34.064125 53.5248125,26.741625 C46.1416875,19.4194375 34.17075,19.4194375 26.787625,26.741625 M40.156375,56.751625 C30.842625,56.751625 23.265125,49.236625 23.265125,40.000375 C23.265125,30.762875 30.842625,23.2485 40.156375,23.2485 C49.470125,23.2485 57.047625,30.762875 57.047625,40.000375 C57.047625,49.236625 49.470125,56.751625 40.156375,56.751625" id="Fill-4" fill="#8B1D41"></path>
                <path d="M40.0000625,24.0625 C31.2119375,24.0625 24.0625625,31.1421875 24.0625625,39.844375 C24.0625625,48.5459375 31.2119375,55.625 40.0000625,55.625 C48.787875,55.625 55.9375625,48.5459375 55.9375625,39.844375 C55.9375625,31.1421875 48.787875,24.0625 40.0000625,24.0625" id="Fill-6" fill="#8B1D41"></path>
                <path d="M45.0505625,34.89425 C45.0505625,34.89425 34.7830625,45.04425 34.72525,45.10175 C33.3974375,46.41425 31.4055625,48.383 28.7499375,51.008 C31.6343125,53.85925 35.6168125,55.624875 40.008375,55.624875 C48.7915,55.624875 55.9374375,48.56175 55.9374375,39.8795625 C55.9374375,35.5383125 54.150875,31.601125 51.2665,28.749875 L45.0505625,34.89425 Z" id="Fill-8" fill="#C41F3E"></path>
                <path d="M42.8673438,34.6875 C40.8857813,34.6875 39.2735938,37.0009375 39.2735938,39.844375 C39.2735938,42.6875 40.8857813,45 42.8673438,45 C44.8492188,45 46.4610938,42.6875 46.4610938,39.844375 C46.4610938,37.0009375 44.8492188,34.6875 42.8673438,34.6875 M42.9942188,33.809375 C45.5285938,33.809375 47.5898438,36.51625 47.5898438,39.844375 C47.5898438,43.1715625 45.5285938,45.8790625 42.9942188,45.8790625 C40.4604688,45.8790625 38.3995313,43.1715625 38.3995313,39.844375 C38.3995313,36.51625 40.4604688,33.809375 42.9942188,33.809375" id="Fill-10" fill="#FFFFFF"></path>
            </g>
            <path d="M34.7789375,38.1584063 C35.988625,38.1584063 36.9733125,39.1318438 36.9733125,40.3277813 C36.9733125,41.3624688 36.23425,42.2277813 35.2508125,42.4421563 L35.2508125,42.8787188 C35.2508125,43.1371563 35.039875,43.3468438 34.7789375,43.3468438 C34.518,43.3468438 34.3064375,43.1371563 34.3064375,42.8787188 L34.3064375,42.4421563 C33.323625,42.2277813 32.584875,41.3624688 32.584875,40.3277813 C32.584875,40.0687188 32.7964375,39.8599688 33.0570625,39.8599688 C33.3183125,39.8599688 33.52925,40.0687188 33.52925,40.3277813 C33.52925,41.0071563 34.0901875,41.5599688 34.7789375,41.5599688 C35.468,41.5599688 36.028,41.0071563 36.028,40.3277813 C36.028,39.6471563 35.468,39.0940313 34.7789375,39.0940313 C33.56925,39.0940313 32.584875,38.1212188 32.584875,36.9252813 C32.584875,35.8899688 33.323625,35.0243438 34.3064375,34.8102813 L34.3064375,34.2768438 C34.3064375,34.0184063 34.518,33.8093438 34.7789375,33.8093438 C35.039875,33.8093438 35.2508125,34.0184063 35.2508125,34.2768438 L35.2508125,34.8102813 C36.23425,35.0243438 36.9733125,35.8899688 36.9733125,36.9252813 C36.9733125,37.1837188 36.7614375,37.3930937 36.5005,37.3930937 C36.2395625,37.3930937 36.028,37.1837188 36.028,36.9252813 C36.028,36.2452812 35.468,35.6921563 34.7789375,35.6921563 C34.0901875,35.6921563 33.52925,36.2452812 33.52925,36.9252813 C33.52925,37.6052812 34.0901875,38.1584063 34.7789375,38.1584063" id="Fill-12" fill="#8B1D41"></path>
            <path d="M34.7789375,38.1584063 C35.988625,38.1584063 36.9733125,39.1318438 36.9733125,40.3277813 C36.9733125,41.3624688 36.23425,42.2277813 35.2508125,42.4421563 L35.2508125,42.8787188 C35.2508125,43.1371563 35.039875,43.3468438 34.7789375,43.3468438 C34.518,43.3468438 34.3064375,43.1371563 34.3064375,42.8787188 L34.3064375,42.4421563 C33.323625,42.2277813 32.584875,41.3624688 32.584875,40.3277813 C32.584875,40.0687188 32.7964375,39.8599688 33.0570625,39.8599688 C33.3183125,39.8599688 33.52925,40.0687188 33.52925,40.3277813 C33.52925,41.0071563 34.0901875,41.5599688 34.7789375,41.5599688 C35.468,41.5599688 36.028,41.0071563 36.028,40.3277813 C36.028,39.6471563 35.468,39.0940313 34.7789375,39.0940313 C33.56925,39.0940313 32.584875,38.1212188 32.584875,36.9252813 C32.584875,35.8899688 33.323625,35.0243438 34.3064375,34.8102813 L34.3064375,34.2768438 C34.3064375,34.0184063 34.518,33.8093438 34.7789375,33.8093438 C35.039875,33.8093438 35.2508125,34.0184063 35.2508125,34.2768438 L35.2508125,34.8102813 C36.23425,35.0243438 36.9733125,35.8899688 36.9733125,36.9252813 C36.9733125,37.1837188 36.7614375,37.3930937 36.5005,37.3930937 C36.2395625,37.3930937 36.028,37.1837188 36.028,36.9252813 C36.028,36.2452812 35.468,35.6921563 34.7789375,35.6921563 C34.0901875,35.6921563 33.52925,36.2452812 33.52925,36.9252813 C33.52925,37.6052812 34.0901875,38.1584063 34.7789375,38.1584063" id="Fill-14" fill="#FFFFFF"></path>
        </g>
    </g>
</svg>