<?xml version="1.0" encoding="UTF-8"?>
<svg width="256px" height="256px" viewBox="0 0 256 256" version="1.1" xmlns="http://www.w3.org/2000/svg" xmlns:xlink="http://www.w3.org/1999/xlink">
    <!-- Generator: Sketch 58 (84663) - https://sketch.com -->
    <title>Icons/Illustrative/currency/no-fee-256x256-en</title>
    <desc>Created with Sketch.</desc>
    <g id="Icons/Illustrative/currency/no-fee-256x256-en" stroke="none" stroke-width="1" fill="none" fill-rule="evenodd">
        <g id="Icons/Illustrative/Oval" fill="#F2F3F2">
            <circle id="Oval" cx="128" cy="128" r="128"></circle>
        </g>
        <path d="M85.7204,85.5732 C62.0934,109.0052 62.0934,146.9952 85.7204,170.4262 C109.3464,193.8582 147.6534,193.8582 171.2794,170.4262 C194.9074,146.9952 194.9074,109.0052 171.2794,85.5732 C147.6534,62.1422 109.3464,62.1422 85.7204,85.5732 M128.5004,181.6052 C98.6964,181.6052 74.4484,157.5572 74.4484,128.0012 C74.4484,98.4412 98.6964,74.3952 128.5004,74.3952 C158.3044,74.3952 182.5524,98.4412 182.5524,128.0012 C182.5524,157.5572 158.3044,181.6052 128.5004,181.6052" id="Fill-4" fill="#8B1D41"></path>
        <path d="M128.0002,77 C99.8782,77 77.0002,99.655 77.0002,127.502 C77.0002,155.347 99.8782,178 128.0002,178 C156.1212,178 179.0002,155.347 179.0002,127.502 C179.0002,99.655 156.1212,77 128.0002,77" id="Fill-6" fill="#8B1D41"></path>
        <path d="M144.1618,111.6616 C144.1618,111.6616 111.3058,144.1416 111.1208,144.3256 C106.8718,148.5256 100.4978,154.8256 91.9998,163.2256 C101.2298,172.3496 113.9738,177.9996 128.0268,177.9996 C156.1328,177.9996 178.9998,155.3976 178.9998,127.6146 C178.9998,113.7226 173.2828,101.1236 164.0528,91.9996 L144.1618,111.6616 Z" id="Fill-8" fill="#C41F3E"></path>
        <path d="M137.1755,111 C130.8345,111 125.6755,118.403 125.6755,127.502 C125.6755,136.6 130.8345,144 137.1755,144 C143.5175,144 148.6755,136.6 148.6755,127.502 C148.6755,118.403 143.5175,111 137.1755,111 M137.5815,108.19 C145.6915,108.19 152.2875,116.852 152.2875,127.502 C152.2875,138.149 145.6915,146.813 137.5815,146.813 C129.4735,146.813 122.8785,138.149 122.8785,127.502 C122.8785,116.852 129.4735,108.19 137.5815,108.19" id="Fill-10" fill="#FFFFFF"></path>
        <path d="M111.2926,122.1069 C115.1636,122.1069 118.3146,125.2219 118.3146,129.0489 C118.3146,132.3599 115.9496,135.1289 112.8026,135.8149 L112.8026,137.2119 C112.8026,138.0389 112.1276,138.7099 111.2926,138.7099 C110.4576,138.7099 109.7806,138.0389 109.7806,137.2119 L109.7806,135.8149 C106.6356,135.1289 104.2716,132.3599 104.2716,129.0489 C104.2716,128.2199 104.9486,127.5519 105.7826,127.5519 C106.6186,127.5519 107.2936,128.2199 107.2936,129.0489 C107.2936,131.2229 109.0886,132.9919 111.2926,132.9919 C113.4976,132.9919 115.2896,131.2229 115.2896,129.0489 C115.2896,126.8709 113.4976,125.1009 111.2926,125.1009 C107.4216,125.1009 104.2716,121.9879 104.2716,118.1609 C104.2716,114.8479 106.6356,112.0779 109.7806,111.3929 L109.7806,109.6859 C109.7806,108.8589 110.4576,108.1899 111.2926,108.1899 C112.1276,108.1899 112.8026,108.8589 112.8026,109.6859 L112.8026,111.3929 C115.9496,112.0779 118.3146,114.8479 118.3146,118.1609 C118.3146,118.9879 117.6366,119.6579 116.8016,119.6579 C115.9666,119.6579 115.2896,118.9879 115.2896,118.1609 C115.2896,115.9849 113.4976,114.2149 111.2926,114.2149 C109.0886,114.2149 107.2936,115.9849 107.2936,118.1609 C107.2936,120.3369 109.0886,122.1069 111.2926,122.1069" id="Fill-12" fill="#8B1D41"></path>
        <path d="M111.2926,122.1069 C115.1636,122.1069 118.3146,125.2219 118.3146,129.0489 C118.3146,132.3599 115.9496,135.1289 112.8026,135.8149 L112.8026,137.2119 C112.8026,138.0389 112.1276,138.7099 111.2926,138.7099 C110.4576,138.7099 109.7806,138.0389 109.7806,137.2119 L109.7806,135.8149 C106.6356,135.1289 104.2716,132.3599 104.2716,129.0489 C104.2716,128.2199 104.9486,127.5519 105.7826,127.5519 C106.6186,127.5519 107.2936,128.2199 107.2936,129.0489 C107.2936,131.2229 109.0886,132.9919 111.2926,132.9919 C113.4976,132.9919 115.2896,131.2229 115.2896,129.0489 C115.2896,126.8709 113.4976,125.1009 111.2926,125.1009 C107.4216,125.1009 104.2716,121.9879 104.2716,118.1609 C104.2716,114.8479 106.6356,112.0779 109.7806,111.3929 L109.7806,109.6859 C109.7806,108.8589 110.4576,108.1899 111.2926,108.1899 C112.1276,108.1899 112.8026,108.8589 112.8026,109.6859 L112.8026,111.3929 C115.9496,112.0779 118.3146,114.8479 118.3146,118.1609 C118.3146,118.9879 117.6366,119.6579 116.8016,119.6579 C115.9666,119.6579 115.2896,118.9879 115.2896,118.1609 C115.2896,115.9849 113.4976,114.2149 111.2926,114.2149 C109.0886,114.2149 107.2936,115.9849 107.2936,118.1609 C107.2936,120.3369 109.0886,122.1069 111.2926,122.1069" id="Fill-14" fill="#FFFFFF"></path>
    </g>
</svg>