<?xml version="1.0" encoding="UTF-8"?>
<svg width="450px" height="250px" viewBox="0 0 450 250" version="1.1" xmlns="http://www.w3.org/2000/svg" xmlns:xlink="http://www.w3.org/1999/xlink">
    <!-- Generator: Sketch 63.1 (92452) - https://sketch.com -->
    <title>Illustrations/Pink/Device/online-banking-450x250</title>
    <desc>Created with Sketch.</desc>
    <g id="Illustrations/Pink/Device/online-banking-450x250" stroke="none" stroke-width="1" fill="none" fill-rule="evenodd">
        <path d="M307,195.49747 C307,200.744607 269.840733,205 224,205 C178.159267,205 141,200.744607 141,195.49747 C141,190.250333 178.159267,186 224,186 C269.840733,186 307,190.250333 307,195.49747" id="Shadow" fill="#EFD4D8"></path>
        <g id="Art" transform="translate(133.000000, 44.000000)" fill-rule="nonzero">
            <rect id="Rectangle" fill="#8B1D41" x="70.88" y="119.645" width="41.605" height="19.41"></rect>
            <path d="M133.225,149.62 L50.14,149.62 C50.14,149.62 53.565,139.055 60.85,139.055 L122.5,139.055 C129.805,139.055 133.21,149.62 133.21,149.62" id="Path" fill="#C41F3E"></path>
            <path d="M178.545,119.645 L4.82,119.645 C3.54696085,119.645 2.32606207,119.139287 1.42588745,118.239113 C0.525712834,117.338938 0.02,116.118039 0.02,114.845 L0.02,4.965 C0.02,3.69242015 0.525871656,2.47203479 1.42619029,1.57265399 C2.32650892,0.67327319 3.54742084,0.168673014 4.82,0.169997389 L178.545,0.169997389 C181.193205,0.169997389 183.340003,2.31679462 183.340003,4.965 L183.340003,114.845 C183.340003,116.117579 182.836727,117.338491 181.937346,118.23881 C181.037965,119.139128 179.81758,119.645 178.545,119.645" id="Path" fill="#C41F3E"></path>
            <rect id="Rectangle" fill="#FFFFFF" x="8" y="9" width="167.44" height="101.43"></rect>
        </g>
        <g id="one-bank" transform="translate(191.000000, 68.000000)" fill-rule="nonzero">
            <path d="M32.1754627,0.663829787 L0.742289561,22.7914894 C-0.0243731982,23.3446809 -0.243419701,24.4510638 0.304196556,25.2255319 C0.632766309,25.6680851 1.18038257,26 1.72799882,26 L66.3467171,26 C67.3324263,26 68.0990891,25.2255319 67.9895658,24.2297872 C67.9895658,23.6765957 67.6609961,23.1234043 67.2229031,22.7914894 L35.78973,0.663829787 C34.913544,-0.221276596 33.3802184,-0.221276596 32.1754627,0.663829787 Z" id="Path" fill="#C4203F"></path>
            <rect id="Rectangle" fill="#8B1D41" x="8" y="28" width="10" height="24"></rect>
            <rect id="Rectangle" fill="#8B1D41" x="29" y="28" width="10" height="24"></rect>
            <rect id="Rectangle" fill="#8B1D41" x="51" y="28" width="10" height="24"></rect>
            <path d="M1.53054662,54 L66.4694534,54 C67.3440514,54 68,54.6545455 68,55.4181818 L68,64.5818182 C68,65.3454545 67.3440514,66 66.4694534,66 L1.53054662,66 C0.655948553,66 0,65.3454545 0,64.5818182 L0,55.4181818 C0,54.6545455 0.765273312,54 1.53054662,54 Z" id="Path" fill="#C4203F"></path>
        </g>
    </g>
</svg>