<?xml version="1.0" encoding="UTF-8"?>
<svg width="256px" height="256px" viewBox="0 0 256 256" version="1.1" xmlns="http://www.w3.org/2000/svg" xmlns:xlink="http://www.w3.org/1999/xlink">
    <!-- Generator: Sketch 56.3 (81716) - https://sketch.com -->
    <title>Icons/Illustrative/device/online-banking-256x256</title>
    <desc>Created with Sketch.</desc>
    <g id="Icons/Illustrative/device/online-banking-256x256" stroke="none" stroke-width="1" fill="none" fill-rule="evenodd">
        <g id="Icons/Illustrative/Oval" fill="#F2F3F2">
            <circle id="Oval" cx="128" cy="128" r="128"></circle>
        </g>
        <g id="Group" transform="translate(53.000000, 72.498054)" fill-rule="nonzero">
            <g id="Layer_1">
                <path d="M109.226304,122.241245 L41.6303502,122.241245 C41.6303502,122.241245 44.4194553,113.654777 50.3363425,113.654777 L100.480467,113.654777 C106.457121,113.644825 109.226304,122.241245 109.226304,122.241245 Z" id="Path" fill="#C82044"></path>
                <rect id="Rectangle" fill="#8A1740" x="58.5343191" y="97.8564981" width="33.8278599" height="15.7783658"></rect>
                <rect id="Rectangle" fill="#C82044" x="0.919377453" y="0.725914425" width="149.047782" height="97.1405448" rx="5"></rect>
                <rect id="Rectangle" fill="#FFFFFF" x="9.56560314" y="9.3821012" width="131.765292" height="79.8182101"></rect>
                <path d="M57.1126849,8.56031132 L93.7838133,8.56031132 C94.8883828,8.56031132 95.7838133,9.45574182 95.7838133,10.5603113 L95.7838133,88.0420234 C95.7838133,89.1465929 94.8883828,90.0420234 93.7838133,90.0420234 L57.1126849,90.0420234 C56.0081154,90.0420234 55.1126849,89.1465929 55.1126849,88.0420234 L55.1126849,10.5603113 C55.1126849,9.45574182 56.0081154,8.56031132 57.1126849,8.56031132 Z" id="Rectangle" fill="#C21F3D" transform="translate(75.448249, 49.301167) rotate(90.000000) translate(-75.448249, -49.301167) "></path>
                <ellipse id="Oval" fill="#FFFFFF" cx="75.4482491" cy="49.2862257" rx="20.1214008" ry="15.2703502"></ellipse>
                <path d="M80.787393,40.9388327 L80.3491051,43.638288 C79.4271993,43.0770115 78.4167547,42.6762018 77.3607783,42.4529183 L76.6336187,47.2143191 C79.9008561,48.310039 81.444825,49.644825 81.444825,52.4936965 C81.444825,55.8605448 79.0342413,57.663502 75.2490273,57.663502 L75.1195331,57.663502 L74.6414008,60.7514397 L72.8484047,60.3629573 C72.8484047,60.3629573 73.2866927,57.5041246 73.2568094,57.5041246 C71.9110934,57.3229575 70.6049331,56.9189904 69.3919067,56.3087938 L69.8102724,53.6192997 C71.0397729,54.3365374 72.3901682,54.8226798 73.7947082,55.0536965 L74.6015565,49.644825 C71.4438911,48.5690273 69.8501168,47.4533853 69.8501168,44.6642802 C69.8501168,41.526537 72.1212452,39.8032685 75.7271596,39.8032685 L75.9861479,39.8032685 L76.3049028,37.8110506 L78.1277822,38.2294164 L77.8687938,39.9526849 C78.8838974,40.1398142 79.866821,40.4719283 80.787393,40.9388327 Z M75.4084047,42.2437355 C73.5755643,42.2437355 72.6890273,43.0306615 72.6890273,44.3156421 C72.6890273,45.4412452 73.2368872,46.0389106 75.0697277,46.6963425 L75.7470818,42.2437355 L75.4084047,42.2437355 Z M75.4880934,55.1931518 C77.5799222,55.1931518 78.6258366,54.3364981 78.6258366,52.7925292 C78.6258366,51.6370428 78.1477043,50.88 76.1953308,50.1727627 L75.438288,55.1533074 L75.4880934,55.1931518 Z" id="Shape" fill="#8B1D41"></path>
            </g>
        </g>
    </g>
</svg>