<?xml version="1.0" encoding="UTF-8"?>
<svg width="256px" height="256px" viewBox="0 0 256 256" version="1.1" xmlns="http://www.w3.org/2000/svg" xmlns:xlink="http://www.w3.org/1999/xlink">
    <!-- Generator: Sketch 56.3 (81716) - https://sketch.com -->
    <title>Icons/Illustrative/device/online-support-256x256</title>
    <desc>Created with Sketch.</desc>
    <g id="Icons/Illustrative/device/online-support-256x256" stroke="none" stroke-width="1" fill="none" fill-rule="evenodd">
        <g id="Icons/Illustrative/Oval" fill="#F2F3F2">
            <circle id="Oval" cx="128" cy="128" r="128"></circle>
        </g>
        <g id="support-when-you-need-it" transform="translate(53.000000, 73.000000)" fill-rule="nonzero">
            <rect id="Rectangle" fill="#8B1D41" x="57.7626667" y="97.8373333" width="33.792" height="15.872"></rect>
            <path d="M108.450667,122.072 L40.8666667,122.072 C40.8666667,122.072 43.5973333,113.538667 49.5706667,113.538667 L99.7466667,113.538667 C105.72,113.538667 108.450667,122.072 108.450667,122.072 Z" id="Path" fill="#C4203F"></path>
            <path d="M144.290667,0.386666667 L5.02666667,0.386666667 C2.296,0.386666667 0.0773333333,2.60533333 0.0773333333,5.336 L0.0773333333,92.7173333 C0.0773333333,95.448 2.296,97.6666667 5.02666667,97.6666667 L144.290667,97.6666667 C147.021333,97.6666667 149.24,95.448 149.24,92.7173333 L149.24,5.50666667 C149.24,2.776 147.021333,0.386666667 144.290667,0.386666667 Z M140.706667,89.1333333 L8.78133333,89.1333333 L8.78133333,9.09066667 L140.706667,9.09066667 L140.706667,89.1333333 Z" id="Shape" fill="#C4203F"></path>
            <rect id="Rectangle" fill="#FFFFFF" x="8.78133333" y="9.09066667" width="131.925333" height="79.872"></rect>
            <path d="M87.4586667,45.1013333 L87.8,44.9306667 C88.312,44.76 88.4826667,44.248 88.1413333,43.736 C88.1413333,43.5653333 87.9706667,43.3946667 87.8,43.3946667 L57.2506667,29.5706667 L57.2506667,29.5706667 L56.9093333,29.4 C56.3973333,29.2293333 56.056,29.4 55.7146667,29.912 C55.544,30.0826667 55.544,30.424 55.7146667,30.5946667 L69.7093333,61.4853333 C69.88,61.9973333 70.392,62.168 70.904,61.8266667 C71.0746667,61.656 71.2453333,61.656 71.2453333,61.4853333 L71.416,61.144 L71.416,61.144 L75,53.1226667 L87.9706667,66.0933333 L88.312,65.752 L88.312,65.752 L92.408,61.8266667 L92.408,61.8266667 L92.408,61.8266667 L79.4373333,48.856 L87.4586667,45.1013333 L87.4586667,45.1013333 Z" id="Path" fill="#8B1D41"></path>
        </g>
    </g>
</svg>