<?xml version="1.0" encoding="UTF-8"?>
<svg width="256px" height="256px" viewBox="0 0 256 256" version="1.1" xmlns="http://www.w3.org/2000/svg" xmlns:xlink="http://www.w3.org/1999/xlink">
    <title>Icons/Illustrative/Pay Off Debt</title>
    <g id="Icons/Illustrative/Pay-Off-Debt" stroke="none" stroke-width="1" fill="none" fill-rule="evenodd">
        <circle id="Oval" fill="#F2F3F2" cx="128" cy="128" r="128"></circle>
        <g id="Group-16" transform="translate(61.600000, 54.400000)">
            <path d="M51.3324976,1.60741674 C43.9071472,1.60741674 38.0578994,5.92927773 35.0284683,8.75626213 C27.8446738,15.4687274 23.9288719,25.0820721 25.2993527,32.6792806 C27.6630077,45.7676891 31.9611068,54.0359444 32.0050261,54.1178281 L29.6194114,55.2152692 C20.622949,62.5368692 15.8666921,68.8489033 13.5459582,82.1579983 C9.24785908,106.805987 19.7006444,133.774679 52.4594261,139.302827 C56.1775912,139.930934 59.6971215,140.226515 63.0289967,140.226515 C90.0533196,140.226515 104.49078,120.638339 108.316747,98.6965061 C110.006641,89.0032749 108.377635,79.6855104 103.597422,70.4546224 L101.372512,68.1129487 C101.469334,68.0350593 110.606538,60.2061799 117.237349,48.7234905 C121.09925,42.037987 120.667044,31.6697146 116.178296,22.9221401 C114.011279,18.7011359 109.032432,11.3855274 100.032975,9.81575716 L54.647404,1.89500823 C53.5114921,1.69728908 52.4065233,1.60741674 51.3324976,1.60741674 M51.3334958,13.6782706 C51.7487325,13.6782706 52.1539875,13.7142196 52.574215,13.787116 L97.9587875,21.7068664 C101.810707,22.3789118 104.303125,26.213465 105.444028,28.4333118 C108.263844,33.9295047 108.342699,39.9948891 106.789554,42.6850678 C101.645011,51.5944125 94.5530481,58.0322678 93.6467141,58.8381231 L83.5712352,66.892682 L92.6255912,76.4271387 L93.5958077,77.4486877 C96.6272352,83.886543 97.5545306,90.1736125 96.4305967,96.6214536 C94.7766371,106.103984 88.2127031,128.156659 63.0289967,128.156659 C60.3219728,128.156659 57.4412683,127.902021 54.4667361,127.399734 C43.8782004,125.613272 35.9477783,121.082708 30.8950664,113.933862 C25.4710371,106.259763 23.4796976,95.4341401 25.4321086,84.2320522 C27.0710958,74.8353997 29.7212242,70.8800182 36.0885196,65.5256238 L37.0437637,65.0862479 L48.6913527,59.7318536 L42.7013637,48.5297657 C42.4108976,47.9425997 39.0720352,41.0443983 37.1745233,30.535326 C36.622538,27.4776692 38.7496279,21.7967387 43.2603361,17.5827245 C44.5180242,16.4083926 47.8219508,13.6782706 51.3334958,13.6782706" id="Fill-4" fill="#C41F3E"></path>
            <polygon id="Fill-6" fill="#8B1D41" points="97.8626642 22.7141356 54.3845872 15.1269129 56.8690202 0.878152624 100.347097 8.46437674"></polygon>
            <path d="M61.7391725,151.087353 C28.1037331,151.087353 0.739898716,123.946786 0.739898716,90.5866511 C0.739898716,57.2279207 28.1037331,30.0873532 61.7391725,30.0873532 C95.3746119,30.0873532 122.739899,57.2279207 122.739899,90.5866511 C122.739899,123.946786 95.3746119,151.087353 61.7391725,151.087353" id="Fill-8" fill="#C41F3E"></path>
            <path d="M61.2394642,127.087353 C41.1133406,127.087353 24.7398987,110.713292 24.7398987,90.5869296 C24.7398987,70.4614146 41.1133406,54.0873532 61.2394642,54.0873532 C81.3655877,54.0873532 97.7398987,70.4614146 97.7398987,90.5869296 C97.7398987,110.713292 81.3655877,127.087353 61.2394642,127.087353" id="Fill-8" fill="#FFFFFF"></path>
            <path d="M61.3033688,107.222172 C66.4738642,107.229145 69.0641028,105.100169 69.0691038,101.284589 C69.0730862,98.4386315 67.911222,96.5612982 63.0651303,94.8067904 L61.1746055,107.222172 L61.3033688,107.222172 M61.1516477,75.2076204 C56.6269651,75.2026372 54.426011,77.1388868 54.421018,80.3113804 C54.4190239,83.0924301 55.7725358,84.5773209 60.2962202,86.2050088 L61.9921028,75.2086287 C61.733578,75.2086287 61.4091743,75.2076204 61.1516477,75.2076204 M74.4741578,71.9941946 L73.3671927,78.6547336 C71.2341138,77.3605719 68.7796257,76.3170542 66.0656147,75.7318854 L64.2389725,87.5041634 C72.3151266,90.2292925 76.1271193,93.5335989 76.1181516,100.580589 C76.1061578,108.923738 70.1521028,113.379409 60.7793321,113.366427 C60.6485725,113.366427 60.5826936,113.366427 60.4539303,113.365429 L59.2790899,120.994592 L54.8222826,120.020975 C54.8222826,120.020975 55.9302459,112.96999 55.864367,112.96999 C52.2430239,112.447732 48.9490789,111.345298 46.301945,109.984231 L47.3440294,103.322694 C50.5750899,105.141111 53.7412697,106.370365 57.1669725,106.892623 L59.1872587,93.5106315 C51.3686312,90.8494116 47.4308697,88.0623705 47.4398532,81.1422003 C47.450833,73.3802258 53.0804844,69.1172811 62.0010862,69.1302627 C62.259611,69.1302627 62.453255,69.1302627 62.6459009,69.1302627 L63.4294606,64.2831478 L67.953145,65.3226712 L67.3013431,69.592606 C70.0153541,70.1138655 72.4708404,70.957667 74.4741578,71.9941946" id="Fill-12" fill="#8B1D41"></path>
        </g>
    </g>
</svg>