<?xml version="1.0" encoding="UTF-8"?>
<svg width="256px" height="256px" viewBox="0 0 256 256" version="1.1" xmlns="http://www.w3.org/2000/svg" xmlns:xlink="http://www.w3.org/1999/xlink">
    <!-- Generator: Sketch 56.3 (81716) - https://sketch.com -->
    <title>Icons/Illustrative/users/personal-settings-256x256</title>
    <desc>Created with Sketch.</desc>
    <g id="Icons/Illustrative/users/personal-settings-256x256" stroke="none" stroke-width="1" fill="none" fill-rule="evenodd">
        <g id="Icons/Illustrative/Oval-White" fill="#FFFFFF">
            <circle id="Oval" cx="128" cy="128" r="128"></circle>
        </g>
        <g id="Group" transform="translate(70.000000, 61.000000)">
            <g id="Layer_1">
                <path d="M115.49,76.7000001 C101.544498,76.7000001 90.2373846,88.0011878 90.2300317,101.946688 C90.2226858,115.892188 101.517881,127.20527 115.463376,127.22 C129.40887,127.234702 140.727917,115.945485 140.750008,102 C140.755307,95.2953266 138.096973,88.8631513 133.359804,84.1184804 C128.622635,79.3738096 122.194674,76.7053023 115.49,76.7000001 L115.49,76.7000001 Z" id="Path" fill="#8B1D41" fill-rule="nonzero"></path>
                <path d="M129.86,103.21 L129.86,100.7 C129.86,100.312784 129.706179,99.9414273 129.432376,99.6676242 C129.158573,99.393821 128.787216,99.2400001 128.4,99.2400001 L126.23,99.2400001 C125.973575,98.1852846 125.562454,97.1743305 125.01,96.2400001 L126.54,94.7100001 C127.108167,94.1369614 127.108167,93.2130387 126.54,92.6400001 L124.77,90.8700001 C124.196961,90.3018334 123.273039,90.3018334 122.7,90.8700001 L121.17,92.4000001 C120.233956,91.8486655 119.223668,91.4344474 118.17,91.1700001 L118.17,89.0100001 C118.17,88.1981415 117.511859,87.5400001 116.7,87.5400001 L114.2,87.5400001 C113.811045,87.5400001 113.438165,87.6951839 113.164072,87.9711536 C112.88998,88.2471234 112.737336,88.6210543 112.74,89.0100001 L112.74,91.1700001 C111.685721,91.4325852 110.675172,91.8469103 109.74,92.4000001 L108.2,90.8700001 C107.626961,90.3018334 106.703039,90.3018334 106.13,90.8700001 L104.36,92.6400001 C103.791833,93.2130387 103.791833,94.1369614 104.36,94.7100001 L105.9,96.2400001 C105.340128,97.1717836 104.925376,98.1833733 104.67,99.2400001 L102.5,99.2400001 C101.693664,99.2400001 101.04,99.8936643 101.04,100.7 L101.04,103.21 C101.04,104.016336 101.693664,104.67 102.5,104.67 L104.67,104.67 C104.923576,105.727209 105.338437,106.739066 105.9,107.67 L104.36,109.21 C103.791833,109.783039 103.791833,110.706961 104.36,111.28 L106.13,113.05 C106.703039,113.618167 107.626961,113.618167 108.2,113.05 L109.74,111.51 C110.673019,112.067406 111.684225,112.482 112.74,112.74 L112.74,114.91 C112.74,115.716336 113.393664,116.370034 114.2,116.370034 L116.7,116.370034 C117.088946,116.372664 117.462877,116.22002 117.738847,115.945928 C118.014816,115.671835 118.170009,115.298955 118.17,114.91 L118.17,112.7 C119.225268,112.44044 120.236248,112.025938 121.17,111.47 L122.7,113 C123.273039,113.568167 124.196961,113.568167 124.77,113 L126.54,111.23 C127.108167,110.656961 127.108167,109.733039 126.54,109.16 L125,107.63 C125.55419,106.696531 125.965419,105.68531 126.22,104.63 L128.39,104.63 C129.18485,104.635742 129.838244,104.004573 129.86,103.21 Z" id="Path" fill="#FFFFFF" fill-rule="nonzero"></path>
                <ellipse id="Oval" fill="#8B1D41" fill-rule="nonzero" cx="115.49" cy="101.96" rx="5.78" ry="5.79"></ellipse>
                <path d="M87.2400001,102 C87.215285,94.7425186 89.9955144,87.7561175 95.0000001,82.5000001 C85.800324,74.8716759 74.4648641,70.2781074 62.5500001,69.3500001 C80.7136195,66.9378195 93.8929433,50.8509705 92.6842202,32.5677904 C91.4754971,14.2846102 76.2930917,0.0727893509 57.97,0.0727893509 C39.6469084,0.0727893509 24.464503,14.2846102 23.2557799,32.5677904 C22.0470568,50.8509705 35.2263806,66.9378195 53.39,69.3500001 C24.9035182,71.595733 2.28437414,94.2318425 0.0600000274,122.72 C-0.03774209,123.874721 0.351781857,125.017713 1.1343291,125.872437 C1.91687634,126.72716 3.02115788,127.215752 4.18000003,127.22 L102.83,127.22 C93.2897424,122.429691 87.2599997,112.675354 87.2400001,102 L87.2400001,102 Z" id="Path" fill="#C41F3E"></path>
            </g>
        </g>
    </g>
</svg>