<?xml version="1.0" encoding="UTF-8"?>
<svg width="80px" height="80px" viewBox="0 0 80 80" version="1.1" xmlns="http://www.w3.org/2000/svg" xmlns:xlink="http://www.w3.org/1999/xlink">
    <title>Icons/Illustrative/device/phone-computer-80x80</title>
    <g id="Icons/Illustrative/device/phone-computer-80x80" stroke="none" stroke-width="1" fill="none" fill-rule="evenodd">
        <g id="Group">
            <g fill="#F2F3F2" id="Icons/Illustrative/Oval">
                <circle id="Oval" cx="40" cy="40" r="40"></circle>
            </g>
            <path d="M30.4427187,56.540216 C28.5936562,56.540216 27.7220937,59.2233438 27.7220937,59.2233438 L48.8461562,59.2233438 C48.8461562,59.2233438 47.9805312,56.5370938 46.1130312,56.540216 L30.4427187,56.540216 Z" id="Fill-1" fill="#C41F3E"></path>
            <path d="M17.7019375,23.9549063 L58.8785,23.9549063 L58.8785,26.1686563 L61.57725,26.1686563 L61.57725,22.8124063 C61.57725,21.9495938 60.877875,21.2499063 60.01475,21.2499063 L16.5625625,21.2499063 C15.69975,21.2499063 15.0000625,21.9495938 15.0000625,22.8124063 L15.0000625,50.0436562 C15.0000625,50.9067812 15.69975,51.6061562 16.5625625,51.6061562 L33.00475,51.6061562 L33.00475,51.6033437 L43.5756875,51.6033437 L43.5756875,51.6061562 L48.5335,51.6061562 L48.5335,48.8980312 L17.7019375,48.8980312 L17.7019375,23.9549063 Z" id="Fill-3" fill="#C41F3E"></path>
            <polygon id="Fill-6" fill="#8A1740" points="33.0046875 56.5340625 43.575625 56.5340625 43.575625 51.60625 33.0046875 51.60625"></polygon>
            <polygon id="Fill-8" fill="#8A1740" points="33.0046875 51.60625 43.575625 51.60625 43.575625 51.603125 33.0046875 51.603125"></polygon>
            <path d="M64.2397187,55.21925 C64.2397187,55.3239375 64.1550312,55.4089375 64.0500312,55.4089375 L60.4440937,55.4089375 L54.9365937,55.4089375 L50.6509687,55.4089375 C50.5459687,55.4089375 50.4609687,55.3239375 50.4609687,55.21925 L50.4609687,48.898 L50.4609687,31.103 C50.4609687,30.998 50.5459687,30.913 50.6509687,30.913 L54.9365937,30.913 L58.8784687,30.913 L60.4440937,30.913 L64.0500312,30.913 C64.1550312,30.913 64.2397187,30.998 64.2397187,31.103 L64.2397187,55.21925 Z M57.3503437,58.469875 C56.7228437,58.469875 56.2140937,57.961125 56.2140937,57.333625 C56.2140937,56.706125 56.7228437,56.197375 57.3503437,56.197375 C57.9778437,56.197375 58.4865937,56.706125 58.4865937,57.333625 C58.4865937,57.961125 57.9778437,58.469875 57.3503437,58.469875 L57.3503437,58.469875 Z M56.1115937,29.009875 C56.1115937,28.8808125 56.1728437,28.7764375 56.2484687,28.7764375 L58.4522187,28.7764375 C58.5278437,28.7764375 58.5890937,28.8808125 58.5890937,29.009875 L58.5890937,29.0133125 C58.5890937,29.142375 58.5278437,29.2470625 58.4522187,29.2470625 L56.2484687,29.2470625 C56.1728437,29.2470625 56.1115937,29.142375 56.1115937,29.0133125 L56.1115937,29.009875 Z M63.7125312,27.106125 L58.8784687,27.106125 L50.9884687,27.106125 C50.1503437,27.106125 49.4709687,27.7855 49.4709687,28.623625 L49.4709687,48.898 L49.4709687,57.706125 C49.4709687,58.5439375 50.1503437,59.2233125 50.9884687,59.2233125 L63.7125312,59.2233125 C64.5503437,59.2233125 65.2297187,58.5439375 65.2297187,57.706125 L65.2297187,28.623625 C65.2297187,27.7855 64.5503437,27.106125 63.7125312,27.106125 L63.7125312,27.106125 Z" id="Fill-9" fill="#C41F3E"></path>
            <path d="M57.350375,56.1975 C56.722875,56.1975 56.214125,56.70625 56.214125,57.33375 C56.214125,57.96125 56.722875,58.47 57.350375,58.47 C57.977875,58.47 58.486625,57.96125 58.486625,57.33375 C58.486625,56.70625 57.977875,56.1975 57.350375,56.1975" id="Fill-10" fill="#FFFFFF"></path>
            <path d="M50.988375,27.1061562 L58.878375,27.1061562 L58.878375,26.1686562 L50.988375,26.1686562 C49.6349375,26.1686562 48.5336875,27.2699062 48.5336875,28.6236562 L48.5336875,48.8980313 L49.4711875,48.8980313 L49.4711875,28.6236562 C49.4711875,27.7855313 50.15025,27.1061562 50.988375,27.1061562" id="Fill-11" fill="#FFFFFF"></path>
            <path d="M50.988375,26.1686563 L58.878375,26.1686563 L58.878375,23.9549063 L17.7018125,23.9549063 L17.7018125,48.8980313 L48.5336875,48.8980313 L48.5336875,28.6236563 C48.5336875,27.2699063 49.6349375,26.1686563 50.988375,26.1686563" id="Fill-12" fill="#FFFFFF"></path>
            <path d="M56.2484063,29.2469688 L58.4524688,29.2469688 C58.5277813,29.2469688 58.5890313,29.1422813 58.5890313,29.0132188 L58.5890313,29.0100938 C58.5890313,28.8810313 58.5277813,28.7763438 58.4524688,28.7763438 L56.2484063,28.7763438 C56.1727813,28.7763438 56.1118438,28.8810313 56.1118438,29.0100938 L56.1118438,29.0132188 C56.1118438,29.1422813 56.1727813,29.2469688 56.2484063,29.2469688" id="Fill-13" fill="#FFFFFF"></path>
            <path d="M64.0499062,30.9130938 L60.4442812,30.9130938 L58.8783437,30.9130938 L54.9367812,30.9130938 L50.6508437,30.9130938 C50.5458437,30.9130938 50.4611562,30.9980938 50.4611562,31.1027813 L50.4611562,48.8980938 L50.4611562,55.2193438 C50.4611562,55.3240313 50.5458437,55.4090313 50.6508437,55.4090313 L54.9367812,55.4090313 L60.4442812,55.4090313 L64.0499062,55.4090313 C64.1549062,55.4090313 64.2395937,55.3240313 64.2395937,55.2193438 L64.2395937,31.1027813 C64.2395937,30.9980938 64.1549062,30.9130938 64.0499062,30.9130938" id="Fill-14" fill="#FFFFFF"></path>
        </g>
    </g>
</svg>