<svg width="256" height="256" viewBox="0 0 256 256" fill="none" xmlns="http://www.w3.org/2000/svg">
<circle cx="128" cy="128" r="128" fill="#F2F3F2"/>
<path d="M88 189.333C88 184.915 91.5817 181.333 96 181.333H149.333C153.752 181.333 157.333 184.915 157.333 189.333H88Z" fill="#C41F3E"/>
<rect x="104" y="165.333" width="37.3333" height="16" fill="#8B1D41"/>
<path d="M48 74.6667C48 71.7212 50.3878 69.3333 53.3333 69.3333H192C194.946 69.3333 197.333 71.7212 197.333 74.6667V160C197.333 162.946 194.946 165.333 192 165.333H53.3333C50.3878 165.333 48 162.946 48 160V74.6667Z" fill="#C41F3E"/>
<rect x="56" y="77.3333" width="133.333" height="80" fill="white"/>
<path d="M214.195 103.264H215.549C215.798 103.264 216 103.465 216 103.713V117.161C216 117.409 215.798 117.609 215.549 117.609H214.195V103.264Z" fill="#8B1D41"/>
<path d="M214.195 121.195H215.549C215.798 121.195 216 121.396 216 121.644V127.92C216 128.167 215.798 128.368 215.549 128.368H214.195V121.195Z" fill="#8B1D41"/>
<path d="M157.333 92.5058C157.333 88.5445 160.566 85.3333 164.554 85.3333H207.877C211.865 85.3333 215.097 88.5445 215.097 92.5058V182.161C215.097 186.122 211.865 189.333 207.877 189.333H164.554C160.566 189.333 157.333 186.122 157.333 182.161V92.5058Z" fill="white"/>
<path fill-rule="evenodd" clip-rule="evenodd" d="M207.877 88.023H164.554C162.061 88.023 160.041 90.03 160.041 92.5058V182.161C160.041 184.637 162.061 186.644 164.554 186.644H207.877C210.369 186.644 212.39 184.637 212.39 182.161V92.5058C212.39 90.03 210.369 88.023 207.877 88.023ZM164.554 85.3333C160.566 85.3333 157.333 88.5445 157.333 92.5058V182.161C157.333 186.122 160.566 189.333 164.554 189.333H207.877C211.865 189.333 215.097 186.122 215.097 182.161V92.5058C215.097 88.5445 211.865 85.3333 207.877 85.3333H164.554Z" fill="#C41F3E"/>
</svg>
