<?xml version="1.0" encoding="UTF-8"?>
<svg width="450px" height="250px" viewBox="0 0 450 250" version="1.1" xmlns="http://www.w3.org/2000/svg" xmlns:xlink="http://www.w3.org/1999/xlink">
    <!-- Generator: Sketch 62 (91390) - https://sketch.com -->
    <title>Illustrations/Teal/Vehicles/plane-450x250</title>
    <desc>Created with Sketch.</desc>
    <g id="Illustrations/Teal/Vehicles/plane-450x250" stroke="none" stroke-width="1" fill="none" fill-rule="evenodd">
        <path d="M327.029529,169.921252 C340.741419,169.921252 351.944274,180.634286 352.704239,194.133209 C356.133838,190.86436 360.776678,188.852607 365.893309,188.852607 C376.445766,188.852607 385,197.392069 385,207.926304 C385,217.346782 378.157313,225.45073 369.164811,227 L369.164811,227 L297.980755,227 C290.825877,227 285.025328,221.209967 285.025328,214.066945 C285.025328,206.923923 290.825877,201.133391 297.980755,201.133391 C299.41063,201.133391 300.78397,201.368129 302.070257,201.795152 C301.577456,199.80937 301.310793,197.734687 301.310793,195.596075 C301.310793,181.416413 312.825338,169.921252 327.029529,169.921252 Z M133.54344,23 C146.898612,23 158.372132,31.0145485 163.419721,42.4857362 C166.468586,40.8151021 169.967227,39.8631653 173.690505,39.8631653 C185.495228,39.8631653 195.064583,49.4164951 195.064583,61.2003336 C195.064583,63.7345032 194.620311,66.1642893 193.807814,68.4187712 C195.344254,67.9612822 196.969749,67.71256 198.65478,67.71256 C208.009004,67.71256 215.591643,75.2821055 215.591643,84.6196763 C215.591643,93.9577465 208.009004,101.527292 198.65478,101.527292 L198.65478,101.527292 L89.8026761,101.527292 C76.1047947,101.527292 65,90.442173 65,76.7679459 C65,63.0932194 76.1047947,52.0081005 89.8026761,52.0081005 C93.8101282,52.0081005 97.5934431,52.9625345 100.943493,54.6476524 C101.432292,37.0877652 115.834604,23 133.54344,23 Z" id="Clouds" fill="#BBE3E2"></path>
        <g id="Art" transform="translate(104.000000, 57.000000)">
            <g id="Group-31" transform="translate(0.000000, 0.228500)">
                <path d="M250.85225,0.23295 C249.95225,0.21245 248.71675,0.27695 247.30325,0.63945 C245.92475,0.99345 244.83275,1.51295 244.06225,1.95295 L198.81625,30.11445 L66.82225,30.19745 L61.15125,30.20145 L45.96025,30.21095 C39.50175,30.21495 35.12225,33.42695 33.92875,34.41445 L6.01325,58.64095 C1.27225,61.77295 -0.65175,67.08895 0.94675,71.09045 C1.93825,73.57345 4.04625,74.94795 5.30875,75.59095 C5.74675,75.81395 6.22775,75.92395 6.71925,75.92345 L159.13175,75.92345 C167.67425,85.13745 177.51375,95.54445 182.47325,100.83845 C182.98225,101.33845 183.70275,101.92895 184.61225,102.32945 C185.54575,102.74095 186.36025,102.81295 186.95375,102.78845 L196.19725,102.78645 C193.18875,92.90345 190.53025,84.31745 187.91825,75.92345 L200.90825,75.92345 C203.51225,75.88995 225.88775,74.68995 239.99625,47.73595 C248.28625,31.89745 256.57675,16.05895 264.86675,0.22045 L250.85225,0.23295 Z" id="Fill-7" fill="#C41F3E"></path>
                <path d="M185.4904,49.3887 L178.8239,49.3927004 C178.1979,49.3932 177.6894,48.8862 177.6894,48.2597 L177.6844,40.2557 C177.6839,39.6297 178.1914,39.1217 178.8174,39.1212 L185.4839,39.1171996 C186.1099,39.1167 186.6184,39.6242 186.6189,40.2502 L186.6239,48.2537 C186.6244,48.8802 186.1169,49.3882 185.4904,49.3887" id="Fill-9" fill="#FFFFFF"></path>
                <path d="M167.01435,49.40045 L160.34835,49.4044504 C159.72185,49.40495 159.21385,48.89745 159.21335,48.27145 L159.20835,40.26745 C159.20835,39.64145 159.71535,39.13345 160.34135,39.13295 L167.00785,39.1289496 C167.63435,39.12845 168.14235,39.63595 168.14285,40.26195 L168.14785,48.26545 C168.14835,48.89195 167.64085,49.39995 167.01435,49.40045" id="Fill-11" fill="#FFFFFF"></path>
                <path d="M74.6347,49.45855 L67.9682,49.4625504 C67.3422,49.46305 66.8342,48.95605 66.8337,48.32955 L66.8286996,40.32555 C66.8282,39.69955 67.3357,39.19155 67.9617,39.19105 L74.6282,39.1870496 C75.2547,39.18655 75.7627,39.69405 75.7627,40.32005 L75.7682,48.32355 C75.7682,48.95005 75.2607,49.45805 74.6347,49.45855" id="Fill-13" fill="#FFFFFF"></path>
                <path d="M93.11075,49.4468 L86.44425,49.4513 C85.81825,49.4513 85.30975,48.9443 85.30925,48.3178 L85.3047496,40.3143 C85.30425,39.6878 85.81125,39.1798 86.43775,39.1793 L93.10425,39.1752996 C93.73025,39.1748 94.23825,39.6823 94.23875,40.3088 L94.2437504,48.3123 C94.24425,48.9383 93.73675,49.4468 93.11075,49.4468" id="Fill-15" fill="#FFFFFF"></path>
                <path d="M111.5866,49.43535 L104.9201,49.4393504 C104.2941,49.43985 103.7861,48.93235 103.7856,48.30635 L103.7806,40.30235 C103.7801,39.67635 104.2876,39.16835 104.9136,39.16785 L111.5801,39.1638496 C112.2066,39.16335 112.7146,39.67085 112.7146,40.29685 L112.7201,48.30035 C112.7206,48.92685 112.2126,49.43485 111.5866,49.43535" id="Fill-17" fill="#FFFFFF"></path>
                <path d="M130.06265,49.4236 L123.39615,49.4276004 C122.77015,49.4281 122.26165,48.9211 122.26165,48.2946 L122.25665,40.2906 C122.25615,39.6646 122.76315,39.1566 123.38965,39.1561 L130.05615,39.1520996 C130.68215,39.1516 131.19065,39.6591 131.19065,40.2851 L131.19615,48.2886 C131.19665,48.9151 130.68865,49.4231 130.06265,49.4236" id="Fill-19" fill="#FFFFFF"></path>
                <path d="M148.53875,49.4119 L141.87225,49.4164 C141.24575,49.4164 140.73775,48.9094 140.73725,48.2829 L140.73275,40.2794 C140.73225,39.6529 141.23925,39.1449 141.86575,39.1444 L148.53175,39.1403996 C149.15825,39.1399 149.66625,39.6474 149.66675,40.2739 L149.67175,48.2774 C149.67225,48.9034 149.16475,49.4119 148.53875,49.4119" id="Fill-21" fill="#FFFFFF"></path>
                <path d="M55.1420002,47.57155 L55.138,41.17655 C55.1375,40.10605 54.269,39.23855 53.1985,39.2395491 L28.354,39.25205 L16.51,49.53105 L53.205,49.51105 C54.2755,49.51055 55.1425,48.64205 55.1420002,47.57155" id="Fill-23" fill="#FFFFFF"></path>
                <path d="M141.2746,30.15065 L180.7291,30.12565 C184.7666,22.41215 188.8046,14.69815 192.8421,6.98415 L181.7856,6.99415 C181.0766,6.97815 180.1016,7.02915 178.9866,7.31515 L141.2746,30.15065 Z" id="Fill-25" fill="#8B1D41"></path>
                <path d="M6.0131,58.6409 C1.2726,61.7729 -0.6519,67.0889 0.9466,71.0904 C1.9386,73.5734 4.0461,74.9479 5.3086,75.5909 C5.7466,75.8139 6.2276,75.9239 6.7196,75.9234017 L159.1316,75.9234017 L143.1666,58.4979 L6.1781,58.4979 L6.0131,58.6409 Z" id="Fill-27" fill="#8B1D41"></path>
                <path d="M182.48795,58.49785 C184.53595,65.07685 187.91795,75.92335 187.91795,75.92335 L200.90845,75.92335 C203.10895,75.89535 219.42995,75.03285 232.94895,58.49785 L182.48795,58.49785 Z" id="Fill-29" fill="#8B1D41"></path>
            </g>
        </g>
    </g>
</svg>