<?xml version="1.0" encoding="UTF-8"?><svg id="Layer_1" xmlns="http://www.w3.org/2000/svg" width="450" height="250" viewBox="0 0 450 250"><defs><style>.cls-1,.cls-2{fill:none;}.cls-2{stroke:#8b1d41;stroke-linecap:round;stroke-miterlimit:10;stroke-width:6px;}.cls-3,.cls-4{fill:#c41f3e;}.cls-5,.cls-6{fill:#8b1d41;}.cls-6,.cls-7,.cls-4{fill-rule:evenodd;}.cls-7{fill:#ccddf2;}</style></defs><rect class="cls-1" x="155" y="35" width="139.7" height="180"/><path class="cls-7" d="m294.7,204.2c0,5.9-31.3,10.8-69.9,10.8s-69.9-4.9-69.9-10.8,31.3-10.8,69.9-10.8,69.9,4.8,69.9,10.8Z"/><path class="cls-3" d="m260.9,119.5h-72v5.8h72v-5.8Z"/><path class="cls-3" d="m243.2,63.9h6.1v-4.5c0-7.7-3.6-14.5-9.1-18.9h0c-4.1-3.4-9.4-5.4-15.3-5.4-6.7,0-12.8,2.7-17.2,7.1-4.4,4.4-7.1,10.5-7.1,17.2v4.5h6.1c1.8,0,3.2,1.5,3.2,3.2,0,1.8-1.4,3.2-3.2,3.2h-6.1v6.5h6.1c1.8,0,3.2,1.5,3.2,3.2,0,1.8-1.4,3.2-3.2,3.2h-6.1v6.5h6.1c1.8,0,3.2,1.5,3.2,3.2,0,1.8-1.4,3.2-3.2,3.2h-6.1v33.3c0,7.7,3.6,14.5,9.1,18.9h0c4.1,3.4,9.5,5.4,15.3,5.4,6.7,0,12.8-2.7,17.2-7.1,4.4-4.4,7.1-10.5,7.1-17.2v-33.1h-6.1c-1.8,0-3.2-1.4-3.2-3.2,0-1.7,1.4-3.2,3.2-3.2h6.1v-6.5h-6.1c-1.8,0-3.2-1.4-3.2-3.2,0-1.7,1.4-3.2,3.2-3.2h6.1v-6.5h-6.1c-1.8,0-3.2-1.4-3.2-3.2s1.3-3.4,3.2-3.4Z"/><path class="cls-6" d="m240.1,40.4l-30.5,108.2c-5.5-4.4-9.1-11.2-9.1-18.9v-33.4h6.1c1.8,0,3.2-1.4,3.2-3.2,0-1.7-1.4-3.2-3.2-3.2h-6.1v-6.5h6.1c1.8,0,3.2-1.4,3.2-3.2,0-1.7-1.4-3.2-3.2-3.2h-6.1v-6.5h6.1c1.8,0,3.2-1.4,3.2-3.2,0-1.7-1.4-3.2-3.2-3.2h-6.1v-4.5c0-6.7,2.7-12.8,7.1-17.2,4.4-4.4,10.5-7.1,17.2-7.1,5.9-.3,11.2,1.8,15.3,5.1Z"/><path class="cls-5" d="m230.3,163.6h-10.8v23.6h10.8v-23.6Z"/><path class="cls-6" d="m229.4,168.2h-9.1c-2.5,0-4.5-2.1-4.5-4.5s2.1-4.5,4.5-4.5h9.1c2.5,0,4.5,2.1,4.5,4.5.1,2.4-1.9,4.5-4.5,4.5Z"/><path class="cls-2" d="m255.7,117.5v12.1c0,20.4-13.9,30.8-30.9,30.8s-30.9-12-30.9-30.8v-12.1"/><path class="cls-4" d="m188.1,126.7c-.9,0-1.6-.8-1.6-1.6v-5.4c0-.9.8-1.6,1.6-1.6.9,0,1.6.8,1.6,1.6v5.4c.1.9-.6,1.6-1.6,1.6Z"/><path class="cls-4" d="m257.3,204.2h-64.9v-1.3c0-7.9,6.4-14.3,14.3-14.3h36.3c7.9,0,14.3,6.4,14.3,14.3v1.3Z"/></svg>