<svg width="450" height="250" viewBox="0 0 450 250" fill="none" xmlns="http://www.w3.org/2000/svg">
<path fill-rule="evenodd" clip-rule="evenodd" d="M294 203C294 209.075 263.108 214 225 214C186.892 214 156 209.075 156 203C156 196.925 186.892 192 225 192C263.108 192 294 196.925 294 203Z" fill="#CCDDF2"/>
<path d="M263.15 192.2C263.15 196 260.05 199.1 256.25 199.1H195.15C191.35 199.1 188.25 196 188.25 192.2V46.1998C188.25 42.3998 191.35 39.2998 195.15 39.2998H256.25C260.05 39.2998 263.15 42.3998 263.15 46.1998V192.2Z" fill="white"/>
<path d="M266.9 84.3C267.3 84.3 267.7 83.9 267.7 83.5V63.5C267.7 63.1 267.3 62.7 266.9 62.7H266.5V46.2C266.5 40.6 261.9 36 256.3 36H195.2C189.6 36 185 40.6 185 46.2V192.2C185 197.8 189.6 202.4 195.2 202.4H256.3C261.9 202.4 266.5 197.8 266.5 192.2V101.1H266.9C267.3 101.1 267.7 100.7 267.7 100.3V91.1C267.7 90.7 267.3 90.3 266.9 90.3H266.5V84.3H266.9ZM263.2 192.2C263.2 196 260.1 199.1 256.3 199.1H195.2C191.4 199.1 188.3 196 188.3 192.2V46.2C188.3 42.4 191.4 39.3 195.2 39.3H256.3C260.1 39.3 263.2 42.4 263.2 46.2V192.2Z" fill="#8B1D41"/>
<path fill-rule="evenodd" clip-rule="evenodd" d="M224.758 113.117H200.536C199.915 113.117 199.412 112.327 199.412 111.353C199.412 110.378 199.915 109.588 200.536 109.588H224.758C225.379 109.588 225.882 110.378 225.882 111.353C225.882 112.327 225.379 113.117 224.758 113.117Z" fill="#8B1D41"/>
<path fill-rule="evenodd" clip-rule="evenodd" d="M220.346 121.059H196.124C195.503 121.059 195 120.269 195 119.294C195 118.319 195.503 117.529 196.124 117.529H220.346C220.967 117.529 221.471 118.319 221.471 119.294C221.471 120.269 220.967 121.059 220.346 121.059Z" fill="#8B1D41"/>
<path fill-rule="evenodd" clip-rule="evenodd" d="M224.758 129H200.536C199.915 129 199.412 128.21 199.412 127.235C199.412 126.261 199.915 125.471 200.536 125.471H224.758C225.379 125.471 225.882 126.261 225.882 127.235C225.882 128.21 225.379 129 224.758 129Z" fill="#8B1D41"/>
<path fill-rule="evenodd" clip-rule="evenodd" d="M235.147 99C246.111 99 255 107.888 255 118.853C255 129.817 246.111 138.706 235.147 138.706C224.182 138.706 215.294 129.817 215.294 118.853C215.294 107.888 224.182 99 235.147 99Z" fill="#C41F3E"/>
<path d="M236.47 109.303L234.706 106.941L232.941 109.303V121.059H236.47V109.303Z" fill="white"/>
<path d="M242.206 128.431L245.153 128.494L244.378 125.65L235.114 118.412L232.941 121.193L242.206 128.431Z" fill="white"/>
</svg>
