<?xml version="1.0" encoding="UTF-8"?>
<svg width="256px" height="256px" viewBox="0 0 256 256" version="1.1" xmlns="http://www.w3.org/2000/svg" xmlns:xlink="http://www.w3.org/1999/xlink">
    <!-- Generator: Sketch 56.3 (81716) - https://sketch.com -->
    <title>Icons/Illustrative/objects/puzzle-256x256</title>
    <desc>Created with Sketch.</desc>
    <g id="Icons/Illustrative/objects/puzzle-256x256" stroke="none" stroke-width="1" fill="none" fill-rule="evenodd">
        <g id="Icons/Illustrative/Oval" fill="#F2F3F2">
            <circle id="Oval" cx="128" cy="128" r="128"></circle>
        </g>
        <g id="Group" transform="translate(54.000000, 75.000000)" fill-rule="nonzero">
            <path d="M150.82,42.2461838 C148.412803,42.2423286 146.071662,43.0332545 144.16,44.4961838 L144.16,26.2461838 C144.143538,21.3763444 140.199839,17.4326454 135.33,17.4161838 L117.33,17.4161838 C118.634232,15.5670521 119.332985,13.3589919 119.33,11.0961838 C119.336665,6.32084642 116.283041,2.07845811 111.752576,0.568896132 C107.222111,-0.940665848 102.234147,0.622245966 99.3751777,4.44718851 C96.5162083,8.27213105 96.4294939,13.4985023 99.16,17.4161838 L81.16,17.4161838 C78.1829942,17.4201934 75.4084176,18.9240289 73.78,21.4161838 C74.4502829,22.9305823 74.7911425,24.5701168 74.78,26.2261838 L74.78,39.6261838 C75.8703844,39.3622328 76.9881243,39.2279698 78.11,39.2261838 C85.8861693,39.2261838 92.19,45.5300145 92.19,53.3061838 C92.19,61.0823531 85.8861693,67.3861838 78.11,67.3861838 C76.9878245,67.3894352 75.8694827,67.2550999 74.78,66.9861838 L74.78,80.3861838 C74.7900364,82.0485924 74.4492851,83.6944214 73.78,85.2161838 C75.4116333,87.7099206 78.1899086,89.2137233 81.17,89.2161838 L99.38,89.2161838 C95.9419777,84.6421796 96.5483448,78.2033931 100.779854,74.3516603 C105.011362,70.4999275 111.478638,70.4999275 115.710146,74.3516603 C119.941655,78.2033931 120.548022,84.6421796 117.11,89.2161838 L135.33,89.2161838 C140.199839,89.1997222 144.143538,85.2560232 144.16,80.3861838 L144.16,62.1661838 C148.012082,65.0769644 153.305548,65.1582386 157.245175,62.3670893 C161.184802,59.57594 162.863477,54.5550391 161.394772,49.9556824 C159.926067,45.3563257 155.648157,42.2375311 150.82,42.2461838 L150.82,42.2461838 Z" id="Path" fill="#8B1D41"></path>
            <path d="M71.82,80.3861838 L71.82,62.3861838 C76.4292702,65.6129775 82.7244967,64.8767671 86.4648416,60.6735078 C90.2051865,56.4702484 90.2051865,50.1321192 86.4648416,45.9288598 C82.7244967,41.7256004 76.4292702,40.9893901 71.82,44.2161838 L71.82,26.2161838 C71.7979645,21.3346648 67.8315655,17.3906244 62.95,17.3961779 L44.71,17.3961779 C48.1373875,21.9674664 47.5268501,28.3953653 43.3001323,32.2396424 C39.0734145,36.0839195 32.6165855,36.0839195 28.3898677,32.2396424 C24.1631499,28.3953653 23.5526125,21.9674664 26.98,17.3961779 L8.83,17.3961779 C3.95854343,17.4181246 0.0164269352,21.3647055 -7.10542736e-14,26.2361838 L-7.10542736e-14,44.4861838 C4.57128256,41.0587963 10.9991816,41.6693337 14.8434586,45.8960515 C18.6877357,50.1227693 18.6877357,56.5795983 14.8434586,60.8063161 C10.9991816,65.0330339 4.57128256,65.6435713 -7.10542736e-14,62.2161838 L-7.10542736e-14,80.3861838 C0.01646157,85.2560232 3.96016056,89.1997222 8.83,89.2161838 L27.08,89.2161838 C23.6243873,93.7821562 24.2172214,100.229076 28.4475807,104.088276 C32.6779401,107.947476 39.1520599,107.947476 43.3824193,104.088276 C47.6127786,100.229076 48.2056127,93.7821562 44.75,89.2161838 L62.95,89.2161838 C65.2971678,89.2214941 67.5503105,88.2941751 69.2137595,86.6382276 C70.8772085,84.9822801 71.8147017,82.7333516 71.82,80.3861838 Z" id="Path" fill="#C41F3E"></path>
        </g>
    </g>
</svg>