<?xml version="1.0" encoding="UTF-8"?>
<svg width="450px" height="250px" viewBox="0 0 450 250" version="1.1" xmlns="http://www.w3.org/2000/svg" xmlns:xlink="http://www.w3.org/1999/xlink">
    <!-- Generator: Sketch 63.1 (92452) - https://sketch.com -->
    <title>Illustrations/Grey/Currency/reaching-your-savings-goals-450x250</title>
    <desc>Created with Sketch.</desc>
    <g id="Illustrations/Grey/Currency/reaching-your-savings-goals-450x250" stroke="none" stroke-width="1" fill="none" fill-rule="evenodd">
        <path d="M173.0635,70.463 C173.0635,79.501 166.5095,87.276 157.8965,88.763 L89.7175,88.763 C82.8655,88.763 77.3095,83.207 77.3095,76.355 C77.3095,69.501 82.8655,63.945 89.7175,63.945 C91.0865,63.945 92.4035,64.171 93.6345,64.58 C93.1625,62.675 92.9075,60.684 92.9075,58.633 C92.9075,45.028 103.9355,34 117.5405,34 C130.6735,34 141.4035,44.278 142.1305,57.229 C145.4165,54.093 149.8635,52.162 154.7625,52.162 C164.8705,52.162 173.0635,60.356 173.0635,70.463" id="Fill-2" fill="#D9DAD5"></path>
        <path d="M363.1611,170.1749 C367.0231,170.1749 370.1541,167.0439 370.1541,163.1819 C370.1541,159.3209 367.0231,156.1899 363.1611,156.1899 C362.3901,156.1899 361.6481,156.3169 360.9541,156.5469 C361.2211,155.4739 361.3641,154.3519 361.3641,153.1959 C361.3641,145.5289 355.1491,139.3139 347.4821,139.3139 C340.0821,139.3139 334.0351,145.1059 333.6251,152.4039 C331.7731,150.6369 329.2671,149.5489 326.5061,149.5489 C320.8101,149.5489 316.1931,154.1659 316.1931,159.8619 C313.3461,159.8619 311.0371,162.1709 311.0371,165.0189 C311.0371,167.8659 313.3461,170.1749 316.1931,170.1749 L363.1611,170.1749 Z" id="Fill-4" fill="#D9DAD5"></path>
        <path d="M233.7734,249.8156 L233.7734,224.1466 L153.4244,224.1466 L153.4244,249.9236 L233.7854,249.9236 C233.7814,249.8836 233.7734,249.8566 233.7734,249.8156" id="Fill-6" fill="#C41F3E"></path>
        <path d="M233.7734,202.9601 C233.7734,202.3591 234.2614,201.8721 234.8614,201.8721 L276.4704,201.8721 L276.4704,197.1791 L158.2924,197.1791 L158.2924,222.9671 L233.7734,222.9671 L233.7734,202.9601 Z" id="Fill-8" fill="#C41F3E"></path>
        <polygon id="Fill-10" fill="#C41F3E" points="153.154 142.0627 271.333 142.0627 271.333 116.2737 153.154 116.2737"></polygon>
        <polygon id="Fill-12" fill="#8B1D41" points="153.154 120.9217 271.333 120.9217 271.333 119.6977 153.154 119.6977"></polygon>
        <polygon id="Fill-13" fill="#8B1D41" points="153.154 126.9017 271.333 126.9017 271.333 125.6787 153.154 125.6787"></polygon>
        <polygon id="Fill-14" fill="#8B1D41" points="153.154 132.8817 271.333 132.8817 271.333 131.6577 153.154 131.6577"></polygon>
        <polygon id="Fill-15" fill="#8B1D41" points="153.154 138.8617 271.333 138.8617 271.333 137.6387 153.154 137.6387"></polygon>
        <polygon id="Fill-16" fill="#FFFFFF" points="202.246 142.1147 222.157 142.1147 222.157 116.2687 202.246 116.2687"></polygon>
        <polygon id="Fill-17" fill="#C41F3E" points="162.889 169.0307 281.068 169.0307 281.068 143.2427 162.889 143.2427"></polygon>
        <polygon id="Fill-18" fill="#8B1D41" points="162.889 147.8897 281.068 147.8897 281.068 146.6667 162.889 146.6667"></polygon>
        <polygon id="Fill-19" fill="#8B1D41" points="162.889 153.8707 281.068 153.8707 281.068 152.6467 162.889 152.6467"></polygon>
        <polygon id="Fill-20" fill="#8B1D41" points="162.889 159.8497 281.068 159.8497 281.068 158.6267 162.889 158.6267"></polygon>
        <polygon id="Fill-21" fill="#8B1D41" points="162.889 165.8307 281.068 165.8307 281.068 164.6067 162.889 164.6067"></polygon>
        <polygon id="Fill-22" fill="#FFFFFF" points="211.982 169.0827 231.892 169.0827 231.892 143.2357 211.982 143.2357"></polygon>
        <polygon id="Fill-23" fill="#C41F3E" points="148.287 195.9987 266.465 195.9987 266.465 170.2097 148.287 170.2097"></polygon>
        <polygon id="Fill-24" fill="#8B1D41" points="148.287 174.8587 266.465 174.8587 266.465 173.6347 148.287 173.6347"></polygon>
        <polygon id="Fill-25" fill="#8B1D41" points="148.287 180.8377 266.465 180.8377 266.465 179.6147 148.287 179.6147"></polygon>
        <polygon id="Fill-26" fill="#8B1D41" points="148.287 186.8187 266.465 186.8187 266.465 185.5947 148.287 185.5947"></polygon>
        <polygon id="Fill-27" fill="#8B1D41" points="148.287 192.7977 266.465 192.7977 266.465 191.5747 148.287 191.5747"></polygon>
        <polygon id="Fill-28" fill="#FFFFFF" points="197.379 196.0507 217.289 196.0507 217.289 170.2047 197.379 170.2047"></polygon>
        <polygon id="Fill-29" fill="#8B1D41" points="158.292 213.7867 233.773 213.7867 233.773 212.5637 158.292 212.5637"></polygon>
        <polygon id="Fill-30" fill="#8B1D41" points="158.292 207.8067 233.773 207.8067 233.773 206.5827 158.292 206.5827"></polygon>
        <polygon id="Fill-31" fill="#8B1D41" points="158.292 201.8267 276.471 201.8267 276.471 200.6037 158.292 200.6037"></polygon>
        <polygon id="Fill-32" fill="#8B1D41" points="158.292 219.7667 233.773 219.7667 233.773 218.5427 158.292 218.5427"></polygon>
        <polygon id="Fill-33" fill="#FFFFFF" points="207.384 223.0197 227.295 223.0197 227.295 197.1727 207.384 197.1727"></polygon>
        <path d="M327.6807,202.6876 L234.8617,202.6876 C234.7107,202.6876 234.5887,202.8086 234.5887,202.9586 L234.5887,249.6526 C234.5887,249.8016 234.7107,249.9236 234.8617,249.9236 L327.6807,249.9236 C327.8307,249.9236 327.9527,249.8016 327.9527,249.6526 L327.9527,202.9586 C327.9527,202.8086 327.8307,202.6876 327.6807,202.6876" id="Fill-34" fill="#C41F3E"></path>
        <path d="M304.183605,226.1037 C304.1916,235.6247 294.0246,243.3507 281.4736,243.361712 C268.9236,243.3727 258.7436,235.6637 258.735594,226.1417 C258.7266,216.6217 268.8946,208.8947 281.4446,208.88369 C293.9956,208.8737 304.1756,216.5827 304.183605,226.1037" id="Fill-35" fill="#8B1D41"></path>
        <polygon id="Fill-36" fill="#F2F3F2" points="270.803 249.9237 292.117 249.9237 292.117 202.6877 270.803 202.6877"></polygon>
        <polygon id="Fill-37" fill="#8B1D41" points="153.424 228.7957 233.773 228.7957 233.773 227.5717 153.424 227.5717"></polygon>
        <polygon id="Fill-38" fill="#8B1D41" points="153.424 234.7747 233.773 234.7747 233.773 233.5517 153.424 233.5517"></polygon>
        <polygon id="Fill-39" fill="#8B1D41" points="153.424 240.7557 233.773 240.7557 233.773 239.5317 153.424 239.5317"></polygon>
        <polygon id="Fill-40" fill="#8B1D41" points="153.424 246.7347 233.773 246.7347 233.773 245.5117 153.424 245.5117"></polygon>
        <polygon id="Fill-41" fill="#FFFFFF" points="202.517 249.9877 222.428 249.9877 222.428 224.1417 202.517 224.1417"></polygon>
        <path d="M245.2607,115.4249 L242.2787,115.4249 L242.2787,39.8399 C242.2787,39.4279 242.6127,39.0939 243.0237,39.0939 L244.5147,39.0939 C244.9267,39.0939 245.2607,39.4279 245.2607,39.8399 L245.2607,115.4249 Z" id="Fill-42" fill="#8B1D41"></path>
        <polygon id="Fill-43" fill="#C41F3E" points="246.5029 68.8263 246.5029 40.2973 295.7489 54.5613"></polygon>
    </g>
</svg>