<?xml version="1.0" encoding="UTF-8"?>
<svg width="256px" height="256px" viewBox="0 0 256 256" version="1.1" xmlns="http://www.w3.org/2000/svg" xmlns:xlink="http://www.w3.org/1999/xlink">
    <!-- Generator: Sketch 59.1 (86144) - https://sketch.com -->
    <title>Icons/Illustrative/cheques/reclaim-money-256x256</title>
    <desc>Created with Sketch.</desc>
    <g id="Icons/Illustrative/cheques/reclaim-money-256x256" stroke="none" stroke-width="1" fill="none" fill-rule="evenodd">
        <g id="Icons/Illustrative/Oval-White" fill="#FFFFFF">
            <circle id="Oval" cx="128" cy="128" r="128"></circle>
        </g>
        <g id="Group" transform="translate(45.000000, 83.000000)">
            <g id="Layer_1">
                <path d="M110.78,78.6300001 C110.796496,63.0465007 123.416527,50.4130539 139,50.3800001 C143.568893,50.3742133 148.069794,51.486564 152.11,53.6200001 L152.11,5.00000003 C152.11,2.23857628 149.871424,3.24218945e-08 147.11,3.24218945e-08 L5.21000002,3.24218945e-08 C2.44857627,3.24218945e-08 0.210000018,2.23857628 0.210000018,5.00000003 L0.210000018,73.6700001 C0.210000018,76.4314238 2.44857627,78.6700001 5.21000002,78.6700001 L110.78,78.6300001 Z" id="Path" fill="#C4203F" fill-rule="nonzero"></path>
                <polygon id="Path" fill="#FFFFFF" fill-rule="nonzero" points="139.03 24.26 128.69 24.26 13.33 24.26 13.33 16.46 139.03 16.46"></polygon>
                <polygon id="Path" fill="#FFFFFF" fill-rule="nonzero" points="139.03 38.67 129.18 38.67 13.33 38.67 13.33 30.88 139.03 30.88"></polygon>
                <path d="M32.6,68.8100001 C30.739802,68.7878068 28.8969015,68.4496599 27.15,67.8100001 C25.4923687,67.2794597 24.1119253,66.1147106 23.31,64.5700001 C20.6344085,65.8861502 17.8550254,66.9798424 15,67.8400001 L14.19,65.0000001 C17.077004,64.1070193 19.8863262,62.979946 22.59,61.6300001 C22.5559358,60.5719826 22.6738026,59.5145488 22.94,58.4900001 C24.34,52.7100001 30.1,45.2200001 33.85,45.7000001 C34.85,45.8400001 36.52,46.5900001 36.41,50.0400001 C36.21,55.8600001 31.13,60.2400001 25.96,63.2100001 C26.4092088,64.095506 27.2060058,64.7546744 28.16,65.0300001 C38.07,68.5500001 43.08,59.5800001 43.28,59.2000001 C43.6277938,58.5863339 44.3541068,58.2952121 45.0294643,58.4987773 C45.7048219,58.7023426 46.1492688,59.346353 46.1,60.0500001 C46.1,60.6100001 46.1,62.3800001 46.99,62.9900001 C47.64,63.4500001 48.93,63.2900001 50.61,62.5400001 L57.85,59.2700001 C58.2558736,59.0879379 58.7213746,59.0941019 59.122285,59.2868473 C59.5231954,59.4795927 59.8187206,59.8393066 59.93,60.2700001 C60.3696177,61.8525232 61.4298092,63.190384 62.87,63.9800001 C64.44,64.6600001 66.49,64.3300001 68.97,62.9800001 L70.39,65.6200001 C67.05,67.4300001 64.11,67.7900001 61.64,66.7000001 C59.8692443,65.8612263 58.4523186,64.4230468 57.64,62.6400001 L51.83,65.2500001 C49.06,66.5000001 46.83,66.5500001 45.23,65.4100001 C44.5688292,64.9325648 44.0474633,64.2868997 43.72,63.5400001 C40.9258032,66.7907195 36.885302,68.7055973 32.6,68.8100001 L32.6,68.8100001 Z M33.29,48.6500001 C31.68,48.9500001 26.78,54.3200001 25.74,59.6500001 L25.74,59.8200001 C29.74,57.3300001 33.3,53.9800001 33.44,49.8800001 C33.4608642,49.4644333 33.4101251,49.048373 33.29,48.6500001 L33.29,48.6500001 Z" id="Shape" fill="#FFFFFF" fill-rule="nonzero"></path>
                <path d="M139,53.3800001 C128.782374,53.3800001 119.571029,59.5354848 115.661848,68.9757277 C111.752666,78.4159705 113.915638,89.281531 121.142021,96.5050532 C128.368404,103.728575 139.23482,105.887245 148.673515,101.974326 C158.112209,98.0614067 164.264045,88.8476254 164.260002,78.6300001 C164.243459,64.6877636 152.942242,53.3910205 139,53.3800001 L139,53.3800001 Z" id="Path" fill="#8B1D41" fill-rule="nonzero"></path>
                <path d="M140,83.4628071 C138.6768,83.4628071 137.6,82.4592106 137.6,81.225965 C137.6,80.814386 137.2416,80.4803509 136.8,80.4803509 C136.3584,80.4803509 136,80.814386 136,81.225965 C136,83.024386 137.3712,84.5275439 139.1904,84.8764913 L139.1904,86.254386 C139.1904,86.665965 139.5488,87 139.9904,87 C140.4336,87 140.7904,86.665965 140.7904,86.254386 L140.7904,84.8794737 C142.6192,84.5364913 144,83.0303509 144,81.225965 C144,79.1695615 142.2048,77.4978948 140,77.4978948 C138.6768,77.4978948 137.6,76.4942983 137.6,75.2610527 C137.6,74.0278071 138.6768,73.0242106 140,73.0242106 C141.3232,73.0242106 142.4,74.0278071 142.4,75.2610527 C142.4,75.6726316 142.7584,76.0066667 143.2,76.0066667 C143.6416,76.0066667 144,75.6726316 144,75.2610527 C144,73.4566667 142.6192,71.9505264 140.7904,71.6075439 L140.7904,70.7456141 C140.7904,70.3325439 140.4336,70 139.9904,70 C139.5488,70 139.1904,70.3325439 139.1904,70.7456141 L139.1904,71.6105264 C137.3712,71.9594737 136,73.4626316 136,75.2610527 C136,77.3174562 137.7952,78.9891229 140,78.9891229 C141.3232,78.9891229 142.4,79.9927193 142.4,81.225965 C142.4,82.4592106 141.3232,83.4628071 140,83.4628071 M153.499775,67.8827161 L153.499775,72.7037038 C151.0019,67.3858025 145.811122,64 140.00075,64 C131.73001,64 125,70.9212963 125,79.4290124 C125,79.7114198 125.009001,79.9891976 125.022503,80.2700618 C125.045007,80.6820988 125.375056,81 125.771116,81 C125.784618,81 125.79812,81 125.811622,80.9984568 C126.225684,80.9753087 126.543732,80.6126544 126.521228,80.1851852 C126.507726,79.9351852 126.500225,79.683642 126.500225,79.4290124 C126.500225,71.771605 132.556634,65.5432099 140.00075,65.5432099 C145.184028,65.5432099 149.791219,68.5570988 152.062559,73.271605 L148.352503,73.271605 C147.936941,73.271605 147.60239,73.617284 147.60239,74.0432099 C147.60239,74.4691359 147.936941,74.8148149 148.352503,74.8148149 L154.249888,74.8148149 C154.66395,74.8148149 155,74.4691359 155,74.0432099 L155,67.8827161 C155,67.455247 154.66395,67.1111112 154.249888,67.1111112 C153.835825,67.1111112 153.499775,67.455247 153.499775,67.8827161 Z M154.978997,77.7368916 C154.992499,78.0130605 155,78.293858 155,78.5746554 C155,87.080349 148.271491,94 140.00075,94 C134.190379,94 128.9981,90.6150024 126.500225,85.2968225 L126.500225,90.1197498 C126.500225,90.5455745 126.165675,90.8911713 125.750113,90.8911713 C125.33605,90.8911713 125,90.5455745 125,90.1197498 L125,83.9607204 C125,83.5333529 125.33605,83.1892989 125.750113,83.1892989 L131.648997,83.1892989 C132.06306,83.1892989 132.39911,83.5333529 132.39911,83.9607204 C132.39911,84.3865451 132.06306,84.7321419 131.648997,84.7321419 L127.938941,84.7321419 C130.210282,89.4439846 134.818973,92.457157 140.00075,92.457157 C147.443367,92.457157 153.499775,86.2302425 153.499775,78.5746554 C153.499775,78.3200863 153.492274,78.06706 153.480272,77.8155766 C153.459269,77.3912948 153.777317,77.0287267 154.189879,77.0071269 C154.591939,76.9438703 154.957994,77.311067 154.978997,77.7368916" id="Fill-1" fill="#FFFFFF"></path>
            </g>
        </g>
    </g>
</svg>