<svg width="450" height="250" viewBox="0 0 450 250" fill="none" xmlns="http://www.w3.org/2000/svg">
<g id="Colour=Grey">
<g id="illustration">
<path id="Shadow" fill-rule="evenodd" clip-rule="evenodd" d="M365 191C365 199.836 302.32 207 225 207C147.68 207 85 199.836 85 191C85 182.163 147.68 175 225 175C302.32 175 365 182.163 365 191Z" fill="#D9D9D6"/>
<g id="desktop">
<path id="Fill 5" fill-rule="evenodd" clip-rule="evenodd" d="M227.414 192.453H144.327C144.327 192.453 147.757 181.884 155.038 181.884H216.703C224.008 181.884 227.414 192.453 227.414 192.453Z" fill="#C41F3E"/>
<path id="Fill 4" fill-rule="evenodd" clip-rule="evenodd" d="M165.067 181.884H206.673V162.474H165.067V181.884Z" fill="#8B1D41"/>
<path id="Fill 7" fill-rule="evenodd" clip-rule="evenodd" d="M272.734 162.474H99.007C96.3585 162.474 94.21 160.326 94.21 157.677V47.797C94.21 45.1475 96.3585 43 99.007 43H272.734C275.383 43 277.531 45.1475 277.531 47.797V157.677C277.531 160.326 275.383 162.474 272.734 162.474Z" fill="#C41F3E"/>
<path id="Fill 9" fill-rule="evenodd" clip-rule="evenodd" d="M102.15 153.451H269.59V52.022H102.15V153.451Z" fill="white"/>
<g id="screen lg">
<path id="Fill 11" fill-rule="evenodd" clip-rule="evenodd" d="M258.122 63.8543H173.358C171.084 63.8543 169.24 62.4568 169.24 60.7328C169.24 59.0088 171.084 57.6113 173.358 57.6113H258.122C260.397 57.6113 262.24 59.0088 262.24 60.7328C262.24 62.4568 260.397 63.8543 258.122 63.8543Z" fill="#D9D9D6"/>
<path id="Fill 12" fill-rule="evenodd" clip-rule="evenodd" d="M258.122 76.3412H173.358C171.084 76.3412 169.24 74.9437 169.24 73.2192C169.24 71.4957 171.084 70.0977 173.358 70.0977H258.122C260.397 70.0977 262.24 71.4957 262.24 73.2192C262.24 74.9437 260.397 76.3412 258.122 76.3412Z" fill="#D9D9D6"/>
<path id="Fill 13" fill-rule="evenodd" clip-rule="evenodd" d="M257.966 110.849H173.515C171.154 110.849 169.24 109.399 169.24 107.609V85.824C169.24 84.035 171.154 82.584 173.515 82.584H257.966C260.327 82.584 262.24 84.035 262.24 85.824V107.609C262.24 109.399 260.327 110.849 257.966 110.849Z" fill="#D9D9D6"/>
<path id="Fill 14" fill-rule="evenodd" clip-rule="evenodd" d="M262.239 153.452H109.003V146.007C109.003 144.217 110.453 142.767 112.243 142.767H258.999C260.789 142.767 262.239 144.217 262.239 146.007V153.452Z" fill="#D9D9D6"/>
<path id="Fill 15" fill-rule="evenodd" clip-rule="evenodd" d="M259.118 123.336H112.124C110.4 123.336 109.003 121.938 109.003 120.215C109.003 118.491 110.4 117.093 112.124 117.093H259.118C260.842 117.093 262.239 118.491 262.239 120.215C262.239 121.938 260.842 123.336 259.118 123.336Z" fill="#D9D9D6"/>
<path id="Fill 16" fill-rule="evenodd" clip-rule="evenodd" d="M259.118 135.823H112.124C110.4 135.823 109.003 134.425 109.003 132.701C109.003 130.977 110.4 129.58 112.124 129.58H259.118C260.842 129.58 262.239 130.977 262.239 132.701C262.239 134.425 260.842 135.823 259.118 135.823Z" fill="#D9D9D6"/>
<path id="Fill 31" fill-rule="evenodd" clip-rule="evenodd" d="M138.123 97.5C143.038 97.5 145.5 95.5246 145.5 91.9925C145.5 89.3543 144.392 87.6198 139.782 86L138 97.5H138.123ZM137.668 68.5C133.179 68.5 131 70.1763 131 72.9153C131 75.3182 132.345 76.5996 136.834 78L138.5 68.5H137.668ZM150.42 65.0559L149.387 71.1644C147.382 69.9786 145.074 69.0264 142.525 68.4935L140.824 79.2878C148.415 81.7763 152 84.801 152 91.2616C152 98.9128 146.412 103.005 137.604 103.005H137.301L136.206 110L132.016 109.113C132.016 109.113 133.049 102.646 132.986 102.646C129.585 102.173 126.487 101.166 124 99.921L124.97 93.8125C128.008 95.4753 130.985 96.5987 134.203 97.0724L136.085 84.801C128.736 82.3716 125.031 79.8223 125.031 73.4769C125.031 66.3602 130.316 62.4442 138.696 62.4442H139.302L140.033 58L144.284 58.9474L143.678 62.8634C146.228 63.3371 148.536 64.1069 150.42 65.0559Z" fill="#8B1D41"/>
</g>
</g>
<g id="tablet">
<g id="edge md">
<path id="Vector" d="M277.562 76.7461H269.591V77.745H277.562V76.7461Z" fill="white"/>
<path id="Vector_2" d="M232.941 82.5718H231.941V162.496H232.941V82.5718Z" fill="white"/>
</g>
<g id="tablet_2">
<path id="Vector_3" d="M237.659 77.7227L310.854 77.7626C313.426 77.7626 315.534 79.8703 315.529 82.4425L315.469 187.778C315.469 190.35 313.361 192.458 310.789 192.453L237.594 192.413C235.022 192.413 232.914 190.305 232.919 187.733L232.979 82.3976C232.979 79.8254 235.087 77.7227 237.659 77.7227Z" fill="#8B1D41"/>
<path id="Vector_4" d="M308.961 81.3438H239.492C237.812 81.3438 236.45 82.7056 236.45 84.3854V185.88C236.45 187.56 237.812 188.922 239.492 188.922H308.961C310.641 188.922 312.003 187.56 312.003 185.88V84.3854C312.003 82.7056 310.641 81.3438 308.961 81.3438Z" fill="white"/>
<path id="Vector_5" d="M309.865 79.0614V77.5731C309.865 77.4582 309.77 77.3633 309.655 77.3633H304.416C304.301 77.3633 304.206 77.4582 304.206 77.5731V79.0614H309.87H309.865Z" fill="#8B1D41"/>
<path id="Vector_6" d="M314.315 91.2582H315.804C315.919 91.2582 316.014 91.1783 316.014 91.0784V86.6632C316.014 86.5633 315.919 86.4834 315.804 86.4834H314.315V91.2582Z" fill="#8B1D41"/>
<path id="Vector_7" d="M314.315 96.9071H315.804C315.919 96.9071 316.014 96.8272 316.014 96.7273V92.3121C316.014 92.2122 315.919 92.1323 315.804 92.1323H314.315V96.9071Z" fill="#8B1D41"/>
</g>
<g id="screen md">
<path id="Fill 25" fill-rule="evenodd" clip-rule="evenodd" d="M305.51 139.132H242.942C241.38 139.132 240.115 137.866 240.115 136.305V118.593C240.115 117.031 241.38 115.764 242.942 115.764H305.51C307.072 115.764 308.338 117.031 308.338 118.593V136.305C308.338 137.866 307.072 139.132 305.51 139.132Z" fill="#D9D9D6"/>
<path id="Fill 26" fill-rule="evenodd" clip-rule="evenodd" d="M305.51 178.532H242.942C241.38 178.532 240.115 177.266 240.115 175.705V162.87C240.115 161.308 241.38 160.043 242.942 160.043H305.51C307.072 160.043 308.338 161.308 308.338 162.87V175.705C308.338 177.266 307.072 178.532 305.51 178.532Z" fill="#D9D9D6"/>
<path id="Fill 27" fill-rule="evenodd" clip-rule="evenodd" d="M305.976 147.956H242.477C241.173 147.956 240.115 146.898 240.115 145.594C240.115 144.289 241.173 143.231 242.477 143.231H305.976C307.281 143.231 308.338 144.289 308.338 145.594C308.338 146.898 307.281 147.956 305.976 147.956Z" fill="#D9D9D6"/>
<path id="Fill 28" fill-rule="evenodd" clip-rule="evenodd" d="M304.995 96.8737H274.54C272.735 96.8737 271.272 95.8161 271.272 94.5116C271.272 93.2065 272.735 92.1489 274.54 92.1489H304.995C306.799 92.1489 308.262 93.2065 308.262 94.5116C308.262 95.8161 306.799 96.8737 304.995 96.8737Z" fill="#D9D9D6"/>
<path id="Fill 29" fill-rule="evenodd" clip-rule="evenodd" d="M304.995 104.887H274.54C272.735 104.887 271.272 103.83 271.272 102.525C271.272 101.221 272.735 100.163 274.54 100.163H304.995C306.799 100.163 308.262 101.221 308.262 102.525C308.262 103.83 306.799 104.887 304.995 104.887Z" fill="#D9D9D6"/>
<path id="Fill 30" fill-rule="evenodd" clip-rule="evenodd" d="M305.976 155.943H242.477C241.173 155.943 240.115 154.886 240.115 153.581C240.115 152.276 241.173 151.219 242.477 151.219H305.976C307.281 151.219 308.338 152.276 308.338 153.581C308.338 154.886 307.281 155.943 305.976 155.943Z" fill="#D9D9D6"/>
<path id="Fill 31 Copy" fill-rule="evenodd" clip-rule="evenodd" d="M256.369 103.751C258.417 103.751 259.443 102.945 259.443 101.505C259.443 100.429 258.981 99.7221 257.06 99.0617L256.317 103.751H256.369ZM256.491 92.289C254.62 92.289 253.712 92.9325 253.712 93.9839C253.712 94.9063 254.272 95.3982 256.143 95.9358L256.838 92.289H256.491ZM261.401 90.9488L260.978 93.3968C260.157 92.9215 259.212 92.5399 258.169 92.3264L257.473 96.6522C260.58 97.6495 262.047 98.8616 262.047 101.451C262.047 104.517 259.76 106.157 256.155 106.157H256.031L255.582 108.96L253.867 108.605C253.867 108.605 254.29 106.013 254.264 106.013C252.872 105.823 251.604 105.42 250.586 104.921L250.983 102.473C252.227 103.139 253.445 103.59 254.762 103.779L255.533 98.8616C252.524 97.8881 251.008 96.8664 251.008 94.3235C251.008 91.4715 253.171 89.9021 256.602 89.9021H256.85L257.149 88.1211L258.889 88.5008L258.641 90.0701C259.685 90.26 260.63 90.5685 261.401 90.9488Z" fill="#8B1D41"/>
</g>
</g>
<g id="phone">
<path id="Vector_8" d="M336.658 115.776H306.076C303.262 115.776 300.981 118.057 300.981 120.871V187.358C300.981 190.172 303.262 192.453 306.076 192.453H336.658C339.471 192.453 341.752 190.172 341.752 187.358V120.871C341.752 118.057 339.471 115.776 336.658 115.776Z" fill="#C41F3E"/>
<path id="Vector_9" d="M339.098 139.862H341.955C342.179 139.862 342.359 139.682 342.359 139.457V129.423C342.359 129.198 342.179 129.019 341.955 129.019H339.098V139.867V139.862Z" fill="#C41F3E"/>
<path id="Vector_10" d="M339.098 148.267H341.955C342.179 148.267 342.359 148.087 342.359 147.863V143.253C342.359 143.028 342.179 142.848 341.955 142.848H339.098V148.272V148.267Z" fill="#C41F3E"/>
<path id="Vector_11" d="M336.67 117.296H306.093C304.174 117.296 302.617 118.852 302.617 120.772V187.255C302.617 189.175 304.174 190.731 306.093 190.731H336.67C338.59 190.731 340.146 189.175 340.146 187.255V120.772C340.146 118.852 338.59 117.296 336.67 117.296Z" fill="white"/>
<path id="edge sm" d="M306.146 115.776L315.523 115.776V114.777L306.146 114.777C302.785 114.777 300.053 117.509 300.053 120.87V187.358C300.053 189.485 301.152 191.363 302.81 192.452H303.324H306.001C305.502 192.427 305.182 192.382 304.917 192.302C302.725 191.648 301.047 189.745 301.047 187.358V120.87C301.047 118.058 303.334 115.776 306.141 115.776H306.146Z" fill="white"/>
<g id="screen sm">
<path id="Fill 36" fill-rule="evenodd" clip-rule="evenodd" d="M334.547 148.661H308.358C306.925 148.661 305.634 147.614 305.51 146.186C305.37 144.575 306.635 143.225 308.218 143.225H334.406C335.84 143.225 337.13 144.271 337.255 145.7C337.395 147.31 336.128 148.661 334.547 148.661Z" fill="#D9D9D6"/>
<path id="Fill 37" fill-rule="evenodd" clip-rule="evenodd" d="M334.544 156.815H308.362C306.929 156.815 305.638 155.768 305.515 154.34C305.374 152.729 306.64 151.379 308.222 151.379H334.403C335.836 151.379 337.127 152.425 337.251 153.854C337.391 155.464 336.125 156.815 334.544 156.815Z" fill="#D9D9D6"/>
<path id="Fill 39" fill-rule="evenodd" clip-rule="evenodd" d="M334.544 182.314H308.362C306.929 182.314 305.638 181.267 305.515 179.839C305.374 178.229 306.64 176.878 308.222 176.878H334.403C335.836 176.878 337.127 177.925 337.251 179.353C337.391 180.964 336.125 182.314 334.544 182.314Z" fill="#D9D9D6"/>
<path id="Fill 38" fill-rule="evenodd" clip-rule="evenodd" d="M334.01 174.161H308.758C306.961 174.161 305.503 172.704 305.503 170.905V162.789C305.503 160.99 306.961 159.533 308.758 159.533H334.01C335.808 159.533 337.266 160.99 337.266 162.789V170.905C337.266 172.704 335.808 174.161 334.01 174.161Z" fill="#D9D9D6"/>
<path id="Fill 31_2" fill-rule="evenodd" clip-rule="evenodd" d="M322.01 134.316C323.492 134.316 324.234 133.733 324.234 132.692C324.234 131.914 323.9 131.402 322.51 130.925L321.973 134.316H322.01ZM321.722 125.838C320.369 125.838 319.712 126.337 319.712 127.151C319.712 127.866 320.117 128.247 321.471 128.664L321.973 125.838H321.722ZM325.483 124.594L325.191 126.453C324.624 126.092 323.972 125.802 323.252 125.64L322.771 128.925C324.916 129.683 325.929 130.603 325.929 132.569C325.929 134.898 324.35 136.143 321.861 136.143H321.775L321.466 138.272L320.282 138.002C320.282 138.002 320.574 136.034 320.556 136.034C319.595 135.89 318.719 135.584 318.017 135.205L318.291 133.346C319.149 133.852 319.99 134.194 320.9 134.338L321.432 130.603C319.355 129.864 318.308 129.088 318.308 127.157C318.308 124.991 319.801 123.799 322.17 123.799H322.341L322.548 122.447L323.749 122.735L323.577 123.927C324.298 124.071 324.95 124.305 325.483 124.594Z" fill="#8B1D41"/>
</g>
</g>
</g>
</g>
</svg>
