<?xml version="1.0" encoding="UTF-8"?>
<svg width="450px" height="250px" viewBox="0 0 450 250" version="1.1" xmlns="http://www.w3.org/2000/svg" xmlns:xlink="http://www.w3.org/1999/xlink">
    <!-- Generator: Sketch 62 (91390) - https://sketch.com -->
    <title>Illustrations/Grey/Documents/registered-non-registered-accounts-450x250</title>
    <desc>Created with Sketch.</desc>
    <g id="Illustrations/Grey/Documents/registered-non-registered-accounts-450x250" stroke="none" stroke-width="1" fill="none" fill-rule="evenodd">
        <path d="M168.642816,37.6141213 C170.387888,37.6141213 171.80292,39.028936 171.80292,40.7748562 C171.80292,42.5202771 170.387888,43.9350918 168.642816,43.9350918 C166.897743,43.9350918 165.482712,42.5202771 165.482712,40.7748562 C165.482712,39.028936 166.897743,37.6141213 168.642816,37.6141213 M289.721889,65.3910335 C290.313066,63.7484901 292.123548,62.896505 293.765264,63.4878006 C295.40748,64.0785969 296.259295,65.8894398 295.667618,67.5319832 C295.07694,69.1740272 293.266957,70.0260123 291.624742,69.4347167 C289.983025,68.8439204 289.130711,67.0330775 289.721889,65.3910335 M338.46808,88.4935139 L315.319781,80.1584426 L316.403274,77.7992529 C316.992454,76.5152823 316.357837,75.0015854 315.028686,74.5231554 L301.866994,69.7843003 C303.665492,64.6763848 301.009687,59.0665672 295.907285,57.2292558 C290.804882,55.3919444 285.183202,58.0213123 283.314302,63.1037581 L270.348338,58.4353191 C269.019187,57.9563896 267.56521,58.7179824 267.201715,60.083356 L266.532646,62.5918679 L243.135693,54.1674031 C239.576144,52.8859295 235.652103,54.7327296 234.370885,58.2929887 L226.021499,81.4898566 L226.021499,52.8484742 C226.021499,49.0649811 222.954266,45.9976349 219.171528,45.9976349 L194.568752,45.9976349 L194.788945,43.410217 C194.908779,42.002394 193.798823,40.7938336 192.386288,40.7938336 L178.398246,40.7938336 C178.360298,35.3782846 173.961417,31 168.53896,31 C163.116004,31 158.717123,35.3782846 158.679675,40.7938336 L144.899344,40.7938336 C143.486809,40.7938336 142.376853,42.002394 142.496687,43.410217 L142.71688,45.9976349 L117.849971,45.9976349 C114.066734,45.9976349 111,49.0649811 111,52.8484742 L111,184.858724 C111,188.642716 114.066734,191.710063 117.849971,191.710063 L195.021122,191.710063 L289.122722,225.593201 C292.682271,226.874675 296.606312,225.027875 297.888029,221.467616 L342.593342,97.2605706 C343.87456,93.7003116 342.027629,89.7754868 338.46808,88.4935139" id="Shadow" fill="#D9DAD5"></path>
        <g id="Art" transform="translate(107.000000, 23.000000)">
            <g id="Group-39" transform="translate(0.000000, 0.443500)">
                <path d="M178.8022,195.08435 L82.4582,160.40085 C79.1362,159.20485 77.4132,155.54285 78.6087,152.22085 L123.6922,26.98735 C124.8882,23.66585 128.5507,21.94235 131.8727,23.13785 L228.2162,57.82135 C231.5382,59.01735 233.2612,62.67935 232.0652,66.00135 L186.9817,191.23485 C185.7862,194.55635 182.1242,196.28035 178.8022,195.08435" id="Fill-4" fill="#C41F3E"></path>
                <polygon id="Fill-6" fill="#FFFFFF" points="181.43455 188.1708 84.83655 153.3953 129.65905 28.8868 226.25755 63.6618"></polygon>
                <path d="M156.1357,72.2223 C153.2137,80.3383 144.2662,84.5493 136.1497,81.6273 C128.0337,78.7058 123.8232,69.7578 126.7447,61.6418 C129.6667,53.5253 138.6147,49.3148 146.7302,52.2363 C154.8467,55.1583 159.0577,64.1063 156.1357,72.2223" id="Fill-8" fill="#BBBCBC"></path>
                <path d="M205.6899,86.42495 L168.5584,73.05795 C166.8494,72.44245 165.9629,70.55845 166.5779,68.84945 C167.1934,67.14045 169.0774,66.25395 170.7864,66.86895 L207.9179,80.23645 C209.6269,80.85145 210.5134,82.73595 209.8984,84.44445 C209.2834,86.15345 207.3989,87.03995 205.6899,86.42495" id="Fill-10" fill="#BBBCBC"></path>
                <path d="M200.3774,101.183 L163.2454,87.816 C161.5364,87.2005 160.6499,85.3165 161.2649,83.6075 C161.8804,81.8985 163.7644,81.012 165.4734,81.627 L202.6049,94.9945 C204.3139,95.6095 205.2004,97.4935 204.5854,99.2025 C203.9704,100.9115 202.0864,101.798 200.3774,101.183" id="Fill-12" fill="#BBBCBC"></path>
                <path d="M195.0644,115.9408 L120.3724,89.0523 C118.6634,88.4368 117.7769,86.5528 118.3919,84.8438 C119.0074,83.1348 120.8914,82.2483 122.6004,82.8638 L197.2924,109.7523 C199.0014,110.3678 199.8874,112.2518 199.2724,113.9608 C198.6574,115.6693 196.7734,116.5558 195.0644,115.9408" id="Fill-14" fill="#BBBCBC"></path>
                <path d="M189.75145,130.6991 L115.05945,103.8101 C113.35045,103.1951 112.46395,101.3111 113.07895,99.6021 C113.69445,97.8931 115.57845,97.0066 117.28745,97.6216 L191.97945,124.5106 C193.68845,125.1261 194.57495,127.0096 193.95995,128.7186 C193.34495,130.4276 191.46045,131.3141 189.75145,130.6991" id="Fill-16" fill="#BBBCBC"></path>
                <path d="M184.43895,145.4569 L109.74695,118.5684 C108.03795,117.9529 107.15145,116.0689 107.76645,114.3599 C108.38195,112.6514 110.26545,111.7644 111.97445,112.3799 L186.66645,139.2684 C188.37545,139.8839 189.26195,141.7679 188.64695,143.4764 C188.03195,145.1854 186.14745,146.0719 184.43895,145.4569" id="Fill-18" fill="#BBBCBC"></path>
                <path d="M136.27975,74.2599 L137.49575,70.8824 L140.55025,71.9819 L139.33375,75.3594 L136.27975,74.2599 Z M140.72775,69.7454 L138.90525,69.5079 L139.95175,65.7294 L140.76925,65.7099 C143.27325,65.7229 144.41025,65.3224 144.87675,64.0264 C145.30175,62.8464 144.62625,61.8204 143.23825,61.3204 C141.59525,60.7289 139.82475,60.9279 138.13975,61.4704 L138.71275,58.6454 C140.45825,58.1504 142.36625,58.0794 144.47125,58.8374 C147.50225,59.9284 148.84875,62.2154 147.89075,64.8764 C146.95775,67.4679 144.81675,68.1864 141.44025,68.1999 L140.72775,69.7454 Z" id="Fill-20" fill="#FFFFFF"></path>
                <path d="M180.7436,38.537 C179.0996,37.945 178.2461,36.1325 178.8381,34.488 C179.4301,32.844 181.2431,31.9905 182.8871,32.5825 C184.5316,33.1745 185.3846,34.9875 184.7926,36.6315 C184.2006,38.276 182.3881,39.129 180.7436,38.537 M204.1801,43.631 L191.0006,38.8865 C192.8011,33.773 190.1416,28.156 185.0321,26.317 C179.9226,24.4775 174.2936,27.11 172.4216,32.1985 L159.4381,27.5245 C158.1071,27.045 156.6506,27.8075 156.2866,29.174 L152.4456,43.58 C152.1226,44.792 152.7806,46.0495 153.9611,46.4745 L196.3216,61.724 C197.5021,62.149 198.8106,61.5995 199.3341,60.46 L205.5566,46.9115 C206.1471,45.6255 205.5111,44.1105 204.1801,43.631" id="Fill-22" fill="#8B1D41"></path>
                <path d="M108.789,160.9579 L6.3925,160.9579 C2.862,160.9579 0,158.0959 0,154.5654 L0,21.4639 C0,17.9334 2.862,15.0719 6.3925,15.0719 L108.789,15.0719 C112.3195,15.0719 115.1815,17.9334 115.1815,21.4639 L115.1815,154.5654 C115.1815,158.0959 112.3195,160.9579 108.789,160.9579" id="Fill-24" fill="#C41F3E"></path>
                <polygon id="Fill-26" fill="#FFFFFF" points="6.2575 153.5615 108.9245 153.5615 108.9245 21.23 6.2575 21.23"></polygon>
                <path d="M45.84715,53.036 C45.84715,61.662 38.85465,68.6545 30.22865,68.6545 C21.60265,68.6545 14.60965,61.662 14.60965,53.036 C14.60965,44.41 21.60265,37.4175 30.22865,37.4175 C38.85465,37.4175 45.84715,44.41 45.84715,53.036" id="Fill-28" fill="#BBBCBC"></path>
                <path d="M97.2829,49.61415 L57.8184,49.61415 C56.0024,49.61415 54.5299,48.14165 54.5299,46.32565 C54.5299,44.50915 56.0024,43.03665 57.8184,43.03665 L97.2829,43.03665 C99.0994,43.03665 100.5719,44.50915 100.5719,46.32565 C100.5719,48.14165 99.0994,49.61415 97.2829,49.61415" id="Fill-29" fill="#BBBCBC"></path>
                <path d="M97.2829,65.29945 L57.8184,65.29945 C56.0024,65.29945 54.5299,63.82695 54.5299,62.01045 C54.5299,60.19445 56.0024,58.72195 57.8184,58.72195 L97.2829,58.72195 C99.0994,58.72195 100.5719,60.19445 100.5719,62.01045 C100.5719,63.82695 99.0994,65.29945 97.2829,65.29945" id="Fill-30" fill="#BBBCBC"></path>
                <path d="M97.2829,80.98475 L17.8984,80.98475 C16.0824,80.98475 14.6099,79.51225 14.6099,77.69575 C14.6099,75.87975 16.0824,74.40725 17.8984,74.40725 L97.2829,74.40725 C99.0994,74.40725 100.5719,75.87975 100.5719,77.69575 C100.5719,79.51225 99.0994,80.98475 97.2829,80.98475" id="Fill-31" fill="#BBBCBC"></path>
                <path d="M97.2829,96.6698 L17.8984,96.6698 C16.0824,96.6698 14.6099,95.1973 14.6099,93.3813 C14.6099,91.5648 16.0824,90.0923 17.8984,90.0923 L97.2829,90.0923 C99.0994,90.0923 100.5719,91.5648 100.5719,93.3813 C100.5719,95.1973 99.0994,96.6698 97.2829,96.6698" id="Fill-32" fill="#BBBCBC"></path>
                <path d="M97.2829,112.35485 L17.8984,112.35485 C16.0824,112.35485 14.6099,110.88285 14.6099,109.06635 C14.6099,107.24985 16.0824,105.77785 17.8984,105.77785 L97.2829,105.77785 C99.0994,105.77785 100.5719,107.24985 100.5719,109.06635 C100.5719,110.88285 99.0994,112.35485 97.2829,112.35485" id="Fill-33" fill="#BBBCBC"></path>
                <path d="M30.2285,52.71715 C32.993,52.71715 35.234,50.47615 35.234,47.71165 C35.234,44.94715 32.993,42.70615 30.2285,42.70615 C27.464,42.70615 25.223,44.94715 25.223,47.71165 C25.223,50.47615 27.464,52.71715 30.2285,52.71715" id="Fill-34" fill="#FFFFFF"></path>
                <path d="M30.2285,54.91565 C24.7445,54.91565 20.158,58.74515 18.9885,63.87465 C21.829,66.81965 25.8135,68.65465 30.2285,68.65465 C34.6435,68.65465 38.628,66.81965 41.4685,63.87415 C40.299,58.74515 35.7125,54.91565 30.2285,54.91565" id="Fill-35" fill="#FFFFFF"></path>
                <path d="M57.5908,13.00695 C55.8433,13.00695 54.4263,11.59045 54.4263,9.84245 C54.4263,8.09495 55.8433,6.67845 57.5908,6.67845 C59.3383,6.67845 60.7553,8.09495 60.7553,9.84245 C60.7553,11.59045 59.3383,13.00695 57.5908,13.00695 M81.3673,9.86145 L67.3598,9.86145 C67.3218,4.43995 62.9168,0.05645 57.4868,0.05645 C52.0563,0.05645 47.6513,4.43995 47.6138,9.86145 L33.8143,9.86145 C32.3998,9.86145 31.2883,11.07195 31.4083,12.48145 L32.6738,27.33695 C32.7798,28.58645 33.8253,29.54695 35.0798,29.54695 L80.1018,29.54695 C81.3563,29.54695 82.4018,28.58645 82.5078,27.33695 L83.7733,12.48145 C83.8933,11.07195 82.7818,9.86145 81.3673,9.86145" id="Fill-36" fill="#8B1D41"></path>
                <path d="M100.57175,135.99255 C100.57175,130.34855 95.99625,125.77355 90.35225,125.77355 C84.70825,125.77355 80.13325,130.34855 80.13325,135.99255 C80.13325,141.63655 84.70825,146.21155 90.35225,146.21155 C95.99625,146.21155 100.57175,141.63655 100.57175,135.99255" id="Fill-37" fill="#8B1D41"></path>
                <polygon id="Fill-38" fill="#F2F3F2" points="89.039 140.28455 85.172 136.41805 86.167 135.42205 89.039 138.29455 95.1345 132.19805 96.13 133.19305"></polygon>
            </g>
        </g>
    </g>
</svg>