<?xml version="1.0" encoding="UTF-8"?>
<svg width="256px" height="256px" viewBox="0 0 256 256" version="1.1" xmlns="http://www.w3.org/2000/svg" xmlns:xlink="http://www.w3.org/1999/xlink">
    <!-- Generator: Sketch 56.3 (81716) - https://sketch.com -->
    <title>Icons/Illustrative/currency/repay-debts-faster-256x256</title>
    <desc>Created with Sketch.</desc>
    <g id="Icons/Illustrative/currency/repay-debts-faster-256x256" stroke="none" stroke-width="1" fill="none" fill-rule="evenodd">
        <g id="Icons/Illustrative/Oval" fill="#F2F3F2">
            <circle id="Oval" cx="128" cy="128" r="128"></circle>
        </g>
        <g id="Group-16" transform="translate(36.000000, 74.000000)">
            <path d="M76.3701,26.57 L22.5001,26.57 C21.1191,26.57 20.0001,25.451 20.0001,24.07 C20.0001,22.689 21.1191,21.57 22.5001,21.57 L76.3701,21.57 C77.7511,21.57 78.8701,22.689 78.8701,24.07 C78.8701,25.451 77.7511,26.57 76.3701,26.57" id="Fill-1" fill="#8B1D41"></path>
            <path d="M66.3701,41.57 L12.5001,41.57 C11.1191,41.57 10.0001,40.451 10.0001,39.07 C10.0001,37.689 11.1191,36.57 12.5001,36.57 L66.3701,36.57 C67.7511,36.57 68.8701,37.689 68.8701,39.07 C68.8701,40.451 67.7511,41.57 66.3701,41.57" id="Fill-3" fill="#8B1D41"></path>
            <path d="M56.3701,56.57 L2.5001,56.57 C1.1191,56.57 0.0001,55.451 0.0001,54.07 C0.0001,52.689 1.1191,51.57 2.5001,51.57 L56.3701,51.57 C57.7511,51.57 58.8701,52.689 58.8701,54.07 C58.8701,55.451 57.7511,56.57 56.3701,56.57" id="Fill-5" fill="#8B1D41"></path>
            <path d="M66.3701,71.57 L12.5001,71.57 C11.1191,71.57 10.0001,70.451 10.0001,69.07 C10.0001,67.689 11.1191,66.57 12.5001,66.57 L66.3701,66.57 C67.7511,66.57 68.8701,67.689 68.8701,69.07 C68.8701,70.451 67.7511,71.57 66.3701,71.57" id="Fill-7" fill="#8B1D41"></path>
            <path d="M76.3701,86.57 L22.5001,86.57 C21.1191,86.57 20.0001,85.451 20.0001,84.07 C20.0001,82.689 21.1191,81.57 22.5001,81.57 L76.3701,81.57 C77.7511,81.57 78.8701,82.689 78.8701,84.07 C78.8701,85.451 77.7511,86.57 76.3701,86.57" id="Fill-9" fill="#8B1D41"></path>
            <g id="Group-13" transform="translate(77.000000, 0.140000)" fill="#C4203F">
                <path d="M53.1201,0.8602 C82.4301,0.8602 106.1901,24.6202 106.1901,53.9302 C106.1901,83.2392 82.4301,107.0002 53.1201,107.0002 C23.8101,107.0002 0.0501,83.2392 0.0501,53.9302 C0.0501,24.6202 23.8101,0.8602 53.1201,0.8602" id="Fill-11"></path>
            </g>
            <path d="M130.2197,67.61 C135.0397,67.61 137.4597,65.61 137.4597,62.08 C137.4597,59.42 136.3697,57.67 131.8507,56.08 L130.0897,67.65 L130.2197,67.61 Z M130.0397,37.77 C125.7497,37.77 123.7707,39.58 123.7707,42.54 C123.7707,45.13 125.0307,46.54 129.2497,48.02 L130.8697,37.78 L130.0397,37.77 Z M142.4597,34.77 L141.4597,40.98 C139.3617,39.7 137.0627,38.78 134.6597,38.26 L132.9697,49.26 C140.5097,51.79 144.0497,54.87 144.0497,61.43 C144.0497,69.21 138.5207,73.37 129.7497,73.37 L129.4497,73.37 L128.3607,80.52 L124.1997,79.62 L125.1997,73.06 C122.0907,72.629 119.0737,71.69 116.2707,70.28 L117.2707,64.06 C120.0917,65.732 123.2017,66.859 126.4407,67.38 L128.3107,54.91 C121.0207,52.44 117.3107,49.85 117.3107,43.39 C117.3107,36.15 122.5607,32.18 130.8797,32.18 L131.4807,32.18 L132.2097,27.66 L136.4297,28.66 L135.8297,32.66 C138.1297,33.041 140.3637,33.752 142.4597,34.77 L142.4597,34.77 Z" id="Fill-14" fill="#FFFFFF"></path>
        </g>
    </g>
</svg>