<?xml version="1.0" encoding="UTF-8"?>
<svg width="256px" height="256px" viewBox="0 0 256 256" version="1.1" xmlns="http://www.w3.org/2000/svg" xmlns:xlink="http://www.w3.org/1999/xlink">
    <!-- Generator: Sketch 56.3 (81716) - https://sketch.com -->
    <title>Icons/Illustrative/documents/reports-256x256</title>
    <desc>Created with Sketch.</desc>
    <g id="Icons/Illustrative/documents/reports-256x256" stroke="none" stroke-width="1" fill="none" fill-rule="evenodd">
        <g id="Icons/Illustrative/Oval" fill="#F2F3F2">
            <circle id="Oval" cx="128" cy="128" r="128"></circle>
        </g>
        <g id="daily-market-reports" transform="translate(81.000000, 64.000000)" fill-rule="nonzero">
            <g id="Group">
                <path d="M48.0462192,4.49794393 L48.0462192,42.3215633 C48.0462192,43.9571793 49.2729312,45.1838912 50.9085472,45.1838912 L88.7321665,45.1838912 L48.0462192,4.49794393 Z" id="Path" fill="#802841"></path>
                <path d="M90.3677825,48.0462192 L50.9085472,48.0462192 C47.8417672,48.0462192 45.1838912,45.5927952 45.1838912,42.5260153 C45.1838912,42.5260153 45.1838912,42.5260153 45.1838912,42.5260153 L45.1838912,2.86232795 C45.1838912,1.22671198 43.9571793,1.42108547e-13 42.3215633,1.42108547e-13 L6.39488462e-14,1.42108547e-13 L6.39488462e-14,127.98695 L84.2342226,127.98695 L93.4345624,127.98695 L93.4345624,112.65305 L93.4345624,50.9085472 C93.2301105,49.2729312 92.0033985,48.0462192 90.3677825,48.0462192 Z M82.3941546,102.225998 L77.8962107,102.225998 L10.6315038,102.225998 L10.6315038,99.5681223 L82.3941546,99.5681223 L82.3941546,102.225998 Z M82.3941546,86.2787426 L77.8962107,86.2787426 L10.6315038,86.2787426 L10.6315038,83.4164146 L82.3941546,83.4164146 L82.3941546,86.2787426 Z M82.3941546,70.3314868 L77.8962107,70.3314868 L10.6315038,70.3314868 L10.6315038,67.4691589 L82.3941546,67.4691589 L82.3941546,70.3314868 Z" id="Shape" fill="#C4203F"></path>
                <polygon id="Path" fill="#FFFFFF" points="82.3941546 70.3314868 78.1006627 70.3314868 10.6315038 70.3314868 10.6315038 67.4691589 82.3941546 67.4691589"></polygon>
                <polygon id="Path" fill="#FFFFFF" points="82.3941546 86.2787426 78.1006627 86.2787426 10.6315038 86.2787426 10.6315038 83.6208666 82.3941546 83.6208666"></polygon>
                <polygon id="Path" fill="#FFFFFF" points="82.3941546 102.225998 78.1006627 102.225998 10.6315038 102.225998 10.6315038 99.5681223 82.3941546 99.5681223"></polygon>
            </g>
        </g>
    </g>
</svg>