<?xml version="1.0" encoding="UTF-8"?>
<svg width="256px" height="256px" viewBox="0 0 256 256" version="1.1" xmlns="http://www.w3.org/2000/svg" xmlns:xlink="http://www.w3.org/1999/xlink">
    <!-- Generator: Sketch 56.3 (81716) - https://sketch.com -->
    <title>Icons/Illustrative/charts-graphs/research-256x256</title>
    <desc>Created with Sketch.</desc>
    <g id="Icons/Illustrative/charts-graphs/research-256x256" stroke="none" stroke-width="1" fill="none" fill-rule="evenodd">
        <g id="Icons/Illustrative/Oval" fill="#F2F3F2">
            <circle id="Oval" cx="128" cy="128" r="128"></circle>
        </g>
        <g id="premium-research" transform="translate(47.000000, 48.000000)" fill-rule="nonzero">
            <circle id="Oval" fill="#FFFFFF" cx="81" cy="80.1706667" r="59.0506667"></circle>
            <polygon id="Path" fill="#C41F3E" points="70.9306667 54.4 63.7626667 46.72 56.7653333 54.4 56.7653333 103.381333 70.9306667 103.381333"></polygon>
            <polygon id="Path" fill="#8B1D41" points="87.9973333 68.3946667 81 61.568 74.0026667 68.3946667 74.0026667 103.381333 87.9973333 103.381333"></polygon>
            <polygon id="Path" fill="#C41F3E" points="105.234667 82.048 98.0666667 75.2213333 91.0693333 82.048 91.0693333 103.381333 105.234667 103.381333"></polygon>
            <path d="M140.050667,80.1706667 C140.050667,94.5066667 134.930667,107.648 126.397333,117.888 L142.098667,131.882667 C154.386667,117.546667 161.042667,99.2853333 161.042667,80.3413333 C161.042667,36.6506667 125.885333,1.152 82.3653333,0.298666667 L82.3653333,21.2906667 C114.28,21.9733333 140.050667,48.0853333 140.050667,80.1706667 Z" id="Path" fill="#8B1D41"></path>
            <path d="M81,139.221333 C48.4026667,139.221333 21.9493333,112.768 21.9493333,80.1706667 C21.9493333,48.0853333 47.3786667,22.144 79.2933333,21.2906667 L79.2933333,0.298666667 C35.944,1.152 0.957333333,36.6506667 0.957333333,80.1706667 C0.957333333,124.373333 36.7973333,160.213333 81,160.213333 C104.381333,160.213333 125.544,150.144 140.221333,134.101333 L124.52,120.277333 C113.597333,131.882667 98.2373333,139.221333 81,139.221333 Z" id="Path" fill="#C41F3E"></path>
        </g>
    </g>
</svg>