<?xml version="1.0" encoding="UTF-8"?>
<svg width="256px" height="256px" viewBox="0 0 256 256" version="1.1" xmlns="http://www.w3.org/2000/svg" xmlns:xlink="http://www.w3.org/1999/xlink">
    <!-- Generator: Sketch 56.3 (81716) - https://sketch.com -->
    <title>Icons/Illustrative/currency/save-interest-256x256</title>
    <desc>Created with Sketch.</desc>
    <g id="Icons/Illustrative/currency/save-interest-256x256" stroke="none" stroke-width="1" fill="none" fill-rule="evenodd">
        <g id="Icons/Illustrative/Oval" fill="#F2F3F2">
            <circle id="Oval" cx="128" cy="128" r="128"></circle>
        </g>
        <g id="Group-10" transform="translate(68.000000, 68.000000)">
            <g id="Group-3" transform="translate(0.000000, 0.301118)" fill="#8B1D41">
                <path d="M102.256919,17.8456398 C78.7846211,-5.35609938 41.0144348,-5.35609938 17.5413913,17.8456398 C-5.65662112,40.7768199 -5.87351553,78.171354 17.0569193,101.369366 C17.217913,101.531851 17.3789068,101.692845 17.5413913,101.853093 C41.0144348,125.054832 78.7846211,125.054832 102.256919,101.853093 C125.454932,78.9226584 125.671826,41.5281242 102.740646,18.3301118 C102.581143,18.1676273 102.419404,18.0058882 102.256919,17.8456398 M59.8991553,112.921416 C30.3910807,112.921416 6.38362733,89.1159503 6.38362733,59.8530932 C6.38362733,30.5909814 30.3910807,6.77731677 59.8991553,6.77731677 C89.4072298,6.77731677 113.414683,30.583528 113.414683,59.8530932 C113.414683,89.1226584 89.4072298,112.921416 59.8991553,112.921416" id="Fill-1"></path>
            </g>
            <path d="M59.8990807,11.9157764 C86.5405714,11.9157764 108.13759,33.512795 108.13759,60.1542857 C108.13759,86.7957764 86.5405714,108.392795 59.8990807,108.392795 C33.2575901,108.392795 11.6605714,86.7957764 11.6605714,60.1542857 C11.6605714,33.512795 33.2575901,11.9157764 59.8990807,11.9157764" id="Fill-4" fill="#8B1D41"></path>
            <path d="M94.005764,26.0401491 C112.69446,45.0269814 112.452224,75.5688447 93.4653913,94.2575404 C74.692472,112.735304 44.5672547,112.736795 25.7920994,94.2612671 L94.005764,26.0401491 Z" id="Fill-6" fill="#C41F3E"></path>
            <path d="M69.5098882,61.7328447 C67.2664099,61.7328447 66.2229317,63.9770683 66.2229317,67.7335901 C66.2229317,71.4379379 67.3707578,73.6821615 69.5098882,73.6821615 C71.7011925,73.6821615 72.7975901,71.4379379 72.7975901,67.6814161 C72.7975901,63.9770683 71.649764,61.7328447 69.5098882,61.7328447 L69.5098882,61.7328447 Z M69.5098882,78.0655155 C64.6055404,78.0655155 60.7968447,74.4125963 60.7968447,67.7335901 C60.7968447,60.950236 64.6577143,57.2980621 69.5098882,57.2980621 C74.4149814,57.2980621 78.2765963,60.950236 78.2765963,67.6814161 C78.2765963,74.3604224 74.3628075,78.0655155 69.5098882,78.0655155 L69.5098882,78.0655155 Z M43.3163478,76.9169441 L54.6910062,59.5415404 L65.8577143,42.0088696 L70.5533665,43.0530932 L59.1265342,60.5328447 L47.9598261,78.0133416 L43.3163478,76.9169441 Z M44.3598261,46.340795 C42.1163478,46.340795 41.0199503,48.531354 41.0199503,52.340795 C41.0199503,55.9937143 42.1677764,58.2893665 44.3598261,58.2893665 C46.5511304,58.2893665 47.595354,56.0451429 47.595354,52.2886211 C47.595354,48.583528 46.4989565,46.340795 44.3598261,46.340795 L44.3598261,46.340795 Z M44.3598261,62.7241491 C39.4547329,62.7241491 35.5938634,59.0719752 35.5938634,52.340795 C35.5938634,45.6096149 39.5069068,41.957441 44.3598261,41.957441 C49.2127453,41.957441 53.0736149,45.6096149 53.0736149,52.2886211 C53.0736149,59.0198012 49.2127453,62.7241491 44.3598261,62.7241491 L44.3598261,62.7241491 Z" id="Fill-8" fill="#FFFFFF"></path>
        </g>
    </g>
</svg>