<?xml version="1.0" encoding="UTF-8"?>
<svg width="80px" height="80px" viewBox="0 0 80 80" version="1.1" xmlns="http://www.w3.org/2000/svg" xmlns:xlink="http://www.w3.org/1999/xlink">
    <title>Icons/Illustrative/currency/money-jar-bill-256x256 Copy</title>
    <g id="Icons/Illustrative/currency/money-jar-bill-256x256-Copy" stroke="none" stroke-width="1" fill="none" fill-rule="evenodd">
        <g id="Group">
            <g fill="#F2F3F2" id="Icons/Illustrative/Oval-White">
                <circle id="Oval" cx="40" cy="40" r="40"></circle>
            </g>
            <g id="Group-46" transform="translate(24.062500, 8.437500)">
                <path d="M21.2909428,18.9118263 L16.0246128,5.85687979 C16.0150376,5.83285095 16.0026304,5.81071203 15.9883351,5.790598 C15.9049909,5.67463863 15.75044,5.62590599 15.6124769,5.68165829 L8.25215704,8.65650893 C8.17366782,8.68836738 8.11230597,8.74870945 8.07926498,8.82660068 C8.04622398,8.9044919 8.04541481,8.99061772 8.07724206,9.06904891 L12.0476907,18.9118263 L21.2909428,18.9118263 Z" id="Fill-4" fill="#8B1D41"></path>
                <path d="M14.0154101,18.9118263 L17.52315,18.9118263 C18.6929361,17.9336637 19.045733,15.929686 18.2756755,14.0208786 C17.3710266,11.7780974 15.2596396,10.5168537 13.5599838,11.2038353 C11.8601932,11.890817 11.2158264,14.2658917 12.1204753,16.5086729 C12.5435349,17.557302 13.2302482,18.3911565 14.0154101,18.9118263" id="Fill-6" fill="#FFFFFF"></path>
                <path d="M29.8733344,25.7741508 L25.8338368,22.0298375 L5.78065017,22.0298375 L1.9008282,25.7741508 C0.756261171,27.2084562 0.132662966,28.9898297 0.132662966,30.8256056 L0.132662966,58.6223768 C0.132662966,61.0580636 2.10541265,63.0327477 4.53898307,63.0327477 L27.2351796,63.0327477 C29.66875,63.0327477 31.6414997,61.0580636 31.6414997,58.6222418 L31.6414997,30.8256056 C31.6414997,28.9898297 31.0179015,27.2084562 29.8733344,25.7741508" id="Fill-8" fill="#C41F3E"></path>
                <path d="M25.3005552,19.1818132 L6.3023877,19.1818132 C5.59112972,19.1818132 5.01473293,19.7589102 5.01473293,20.4707306 L5.01473293,20.4708656 C5.01473293,21.1826861 5.59112972,21.7597831 6.3023877,21.7597831 L25.3005552,21.7597831 C26.0116783,21.7597831 26.5883448,21.1826861 26.5883448,20.4708656 L26.5883448,20.4707306 C26.5883448,19.7589102 26.0116783,19.1818132 25.3005552,19.1818132" id="Fill-10" fill="#C41F3E"></path>
                <path d="M14.0134411,15.7527231 C14.1835011,16.1744426 14.4424346,16.3152408 14.7531548,16.1896969 C14.9851161,16.0960114 15.0994784,15.939284 15.0822162,15.486246 L14.0091256,15.7421936 C14.0091256,15.7421936 14.0112834,15.7473233 14.0134411,15.7527231 M16.614644,14.6829 C16.4657573,14.3138279 16.2354143,14.1984085 15.9770203,14.3027584 C15.7504534,14.394419 15.6742569,14.5539812 15.6909796,14.9763757 L16.6422906,14.7514767 C16.6337943,14.7304177 16.6231403,14.703959 16.614644,14.6829 M17.3160571,15.6628174 L16.7372329,15.7925461 C16.7722968,15.5758817 16.7760729,15.341398 16.7342659,15.1007047 L15.7156592,15.3407231 C15.7602983,16.0891267 15.6172106,16.5089564 15.0432413,16.7410101 C14.3635408,17.0157218 13.8042714,16.6775632 13.4958438,15.9129603 C13.4916631,15.9022958 13.4895054,15.8970311 13.4851898,15.8865016 L12.8254488,16.042554 L12.7574787,15.6471582 C12.7574787,15.6471582 13.3681303,15.5046051 13.3659725,15.4992054 C13.2888319,15.1868305 13.2699513,14.8817453 13.2934172,14.621073 L13.8700837,14.4859445 C13.8286813,14.8093889 13.8331317,15.1081294 13.903799,15.404575 L15.0598292,15.1272984 C15.018292,14.4021136 15.1151223,13.9890337 15.6788421,13.7611647 C16.3109366,13.5056221 16.8439081,13.8236667 17.1375009,14.5512814 C17.1459972,14.5723404 17.1523356,14.5882696 17.1586741,14.6039288 L17.5791714,14.5076785 L17.6439047,14.9109039 L17.2747896,14.9987847 C17.321991,15.2371831 17.3342634,15.465187 17.3160571,15.6628174" id="Fill-12" fill="#8B1D41"></path>
                <path d="M21.5422297,9.34587998 C21.188219,10.4424318 21.7892954,11.6186297 22.8849078,11.9729875 L24.1668984,8.0017502 C23.071286,7.6473924 21.8962403,8.24919319 21.5422297,9.34587998" id="Fill-14" fill="#C41F3E"></path>
                <path d="M24.1668849,8.0018042 L22.8848943,11.9730415 C23.9803719,12.3273993 25.1554175,11.7257335 25.5094282,10.6290467 C25.8635737,9.53249492 25.2623625,8.356162 24.1668849,8.0018042" id="Fill-16" fill="#8B1D41"></path>
                <path d="M6.85538607,2.95682902 C7.26091371,4.03542667 8.46320134,4.58066522 9.54074235,4.17473991 L8.07196899,0.268839454 C6.99456283,0.674764756 6.44985843,1.87823136 6.85538607,2.95682902" id="Fill-18" fill="#C41F3E"></path>
                <path d="M8.07203642,0.268825955 L9.54080978,4.17472641 C10.6182159,3.76880111 11.1629203,2.56533451 10.7573927,1.48673685 C10.3518651,0.408139194 9.14957743,-0.137099347 8.07203642,0.268825955" id="Fill-20" fill="#8B1D41"></path>
                <path d="M19.8328774,48.4539007 C19.7982181,48.4653751 19.7615358,48.4729348 19.723505,48.4759046 L2.84508589,49.8101799 C2.68905148,49.8225993 2.53733263,49.7731917 2.41825018,49.6715416 C2.29916774,49.5697565 2.22674727,49.4276084 2.21447491,49.271286 L1.58952809,41.3505454 C1.56403932,41.0279111 1.80544088,40.7448298 2.12775915,40.719046 L19.0063131,39.3847708 C19.1305202,39.3750513 19.251221,39.4141994 19.3460284,39.4951954 C19.440701,39.5760565 19.4982867,39.689181 19.5081316,39.81351 L20.151959,47.973594 C20.1690864,48.1924184 20.0322022,48.3881589 19.8328774,48.4539007" id="Fill-22" fill="#FFFFFF"></path>
                <path d="M2.07500145,41.0031668 C1.9396008,41.0478496 1.84668143,41.1808181 1.85841436,41.3293109 L2.48322631,49.2500516 C2.48996937,49.3344225 2.52907912,49.4112337 2.59340791,49.4661761 C2.65773671,49.5212534 2.73959746,49.5477121 2.82388571,49.5409624 L19.7024396,48.2066872 C19.8110029,48.1980476 19.891515,48.1032822 19.8828839,47.9948825 L19.2391914,39.8349334 C19.2351456,39.782421 19.2107357,39.7347683 19.1706819,39.70048 C19.130763,39.6663266 19.0799203,39.6498574 19.0275942,39.6540422 L2.14917511,40.9883175 C2.12328176,40.9902074 2.0984673,40.9953371 2.07500145,41.0031668" id="Fill-24" fill="#8B1D41"></path>
                <path d="M15.2275831,44.2575078 C15.3718846,46.0866691 13.5361539,47.7238696 11.127263,47.9142104 C8.71837222,48.1046861 6.64865733,46.7762156 6.50422098,44.9470544 C6.36005436,43.1178931 8.19578506,41.4808276 10.6046759,41.2903518 C13.0135667,41.0998761 15.0832816,42.4283466 15.2275831,44.2575078" id="Fill-26" fill="#FFFFFF"></path>
                <path d="M10.9752475,45.8799266 C11.4281114,45.8440183 11.6401132,45.6392333 11.6138153,45.3047195 C11.5941256,45.0552516 11.4790889,44.8989292 11.0422735,44.779325 L10.9639191,45.8807366 C10.9639191,45.8807366 10.9694485,45.8803316 10.9752475,45.8799266 M10.736678,43.0751677 C10.3403209,43.1063512 10.1612253,43.2916972 10.1830728,43.5697837 C10.2024928,43.8134469 10.331555,43.934266 10.7392404,44.0449606 L10.8104471,43.069228 C10.7877904,43.0709829 10.7593347,43.0732778 10.736678,43.0751677 M11.8812451,42.6994809 L11.8309418,43.2910222 C11.6351234,43.192747 11.4127372,43.1186356 11.1709311,43.0863722 L11.0936556,44.1309515 C11.8202878,44.3130576 12.1774003,44.5756199 12.2260851,45.1933499 C12.2839406,45.9247444 11.7937201,46.3571284 10.9724154,46.4221953 C10.9612219,46.4230052 10.9554229,46.4234102 10.9440945,46.4243552 L10.8947353,47.1012123 L10.4975691,47.047215 C10.4975691,47.047215 10.5450402,46.4215203 10.5392412,46.4220603 C10.2184064,46.4016763 9.92198149,46.3281049 9.68057993,46.2275347 L9.72494927,45.6363984 C10.0208348,45.7730118 10.3067405,45.8585976 10.6104479,45.8800616 L10.6933876,44.6929292 C9.98981667,44.5150078 9.62528684,44.2983434 9.57741111,43.6918178 C9.52373635,43.0114508 9.98684973,42.5981009 10.7683704,42.5362739 C10.7910271,42.5346539 10.8080196,42.533169 10.8248772,42.5318191 L10.8595366,42.101595 L11.2630413,42.1607221 L11.2360691,42.5396487 C11.4773357,42.5661074 11.6983733,42.6228047 11.8812451,42.6994809" id="Fill-28" fill="#8B1D41"></path>
                <path d="M23.1853111,61.3377295 C23.1487637,61.3377295 23.1116769,61.3334097 23.0747249,61.3243651 L6.62786173,57.3003454 C6.4757383,57.2630872 6.34721557,57.1687268 6.26589426,57.0348133 C6.18457296,56.9007648 6.16029794,56.7430925 6.19751963,56.5908198 L8.08220495,48.8725694 C8.15907584,48.5583046 8.47680883,48.364994 8.79103544,48.4416703 L25.2378986,52.46569 C25.3588691,52.4953886 25.4612288,52.5704449 25.5258273,52.6770898 C25.5905607,52.7835996 25.6098458,52.9090085 25.5803112,53.0302326 L23.6385796,60.9816168 C23.5865232,61.1946364 23.39529,61.3377295 23.1853111,61.3377295" id="Fill-30" fill="#FFFFFF"></path>
                <path d="M8.65198005,48.694891 C8.50943176,48.694891 8.37956042,48.7920863 8.34422678,48.9366643 L6.45954146,56.6549147 C6.43944715,56.7371257 6.45252868,56.8223066 6.49649343,56.8946631 C6.54032333,56.9670196 6.60964198,57.0179121 6.69190732,57.0380261 L23.1386357,61.0620459 C23.2447714,61.0879646 23.3507723,61.0230328 23.3765308,60.9174679 L25.3182624,52.9662187 C25.3306697,52.9150562 25.322578,52.8621388 25.295336,52.817051 C25.2679592,52.7720981 25.2249385,52.7405097 25.1738261,52.7280903 L8.72709774,48.7039356 C8.70187869,48.6977259 8.67679451,48.694891 8.65198005,48.694891" id="Fill-32" fill="#8B1D41"></path>
                <path d="M20.1247305,55.9087249 C19.6893986,57.6910435 17.4338449,58.6704209 15.0865857,58.0960238 C12.7391916,57.5217617 11.1892318,55.6113344 11.6245637,53.8290159 C12.0597608,52.0465624 14.3154493,51.0673199 16.6627086,51.641582 C19.0098329,52.2159791 20.5600625,54.1262714 20.1247305,55.9087249" id="Fill-34" fill="#FFFFFF"></path>
                <path d="M15.5786268,56.1163584 C16.0200275,56.2244881 16.2854343,56.0963793 16.3650025,55.7703702 C16.4243414,55.527247 16.3640584,55.3428459 15.9865819,55.0921631 L15.5675682,56.1136585 C15.5675682,56.1136585 15.5729626,56.1150084 15.5786268,56.1163584 M16.2297367,53.3780162 C15.8434942,53.2835208 15.615309,53.40326 15.549227,53.6741919 C15.4912367,53.9117803 15.5760644,54.0667528 15.9285916,54.2998865 L16.3014828,53.3955654 C16.2795005,53.3901657 16.251719,53.383281 16.2297367,53.3780162 M17.4340472,53.3800411 L17.2014116,53.9260897 C17.0460515,53.7712522 16.858055,53.631264 16.638501,53.5247541 L16.2383678,54.4926572 C16.8714063,54.8931827 17.1284517,55.2546952 16.981453,55.856631 C16.8073472,56.5692614 16.2065405,56.8262889 15.406409,56.6305484 C15.3953504,56.6278485 15.3896862,56.6263636 15.3787625,56.6237987 L15.1200987,57.2511133 L14.7596147,57.0753518 C14.7596147,57.0753518 15.0006117,56.4959599 14.9949475,56.49461 C14.6966345,56.3747358 14.4381056,56.2120687 14.2403991,56.040627 L14.4675053,55.4933636 C14.7056702,55.7156978 14.9505782,55.8865995 15.2321683,56.0022889 L15.682335,54.9008773 C15.0699303,54.5111513 14.7914419,54.1912168 14.9357434,53.6002155 C15.0977117,52.9372626 15.666826,52.6898196 16.4282524,52.8762456 C16.4502347,52.8816453 16.4669575,52.8856951 16.4832757,52.8897449 L16.6509082,52.4917843 L17.0155729,52.6747004 L16.8712714,53.0258183 C17.0923089,53.1267934 17.2844861,53.2499075 17.4340472,53.3800411" id="Fill-36" fill="#8B1D41"></path>
                <path d="M24.2997637,47.602146 C24.2657786,47.5890517 24.2326028,47.5715025 24.201315,47.5499036 L10.2976643,37.8787029 C10.1691416,37.7893372 10.0829653,37.6548837 10.0551839,37.5007212 C10.0274025,37.3462887 10.0613875,37.1905063 10.1508005,37.0618575 L14.6805186,30.5370841 C14.8650087,30.271417 15.2308872,30.2052702 15.4966986,30.3899413 L29.4002144,40.061142 C29.502574,40.1322835 29.5710835,40.2390633 29.5932008,40.3619074 C29.615318,40.4844814 29.5882109,40.6085404 29.517139,40.7110004 L24.8506717,47.4328642 C24.7255205,47.6129455 24.495717,47.6777424 24.2997637,47.602146" id="Fill-38" fill="#FFFFFF"></path>
                <path d="M15.2759848,30.5761647 C15.1428767,30.5248672 14.9868423,30.5688751 14.9020146,30.6910442 L10.3722965,37.2158175 C10.3240162,37.2853392 10.3056751,37.3695751 10.3206447,37.452866 C10.3356143,37.536157 10.3821414,37.6086485 10.4517298,37.6569761 L24.3552456,47.3281768 C24.4449283,47.3904088 24.5671125,47.3679999 24.6291487,47.2787692 L29.295616,40.5570404 C29.3255552,40.5138425 29.3368835,40.461465 29.327713,40.4096276 C29.3184076,40.3577901 29.2896821,40.3128373 29.2462568,40.2828687 L15.342741,30.611668 C15.321433,30.5968187 15.299046,30.5850743 15.2759848,30.5761647" id="Fill-40" fill="#8B1D41"></path>
                <path d="M23.3926198,41.4349028 C22.3466363,42.9415647 19.8900046,43.0441597 17.9056568,41.6638517 C15.921444,40.2836787 15.1608268,37.9432972 16.2069451,36.4365004 C17.2529286,34.9298385 19.7094254,34.8272435 21.6937732,36.2074165 C23.6779861,37.5877245 24.4387381,39.9281059 23.3926198,41.4349028" id="Fill-42" fill="#FFFFFF"></path>
                <path d="M19.0756048,39.9934833 C19.4489006,40.2530757 19.7423585,40.2289118 19.9335917,39.9535252 C20.0764097,39.7479302 20.0862546,39.5540796 19.8240844,39.1844675 L19.0664342,39.9870036 C19.0664342,39.9870036 19.0708846,39.9902434 19.0756048,39.9934833 M20.6662927,37.6721359 C20.3397937,37.4449419 20.083962,37.4747755 19.9249606,37.7038594 C19.7855141,37.9045946 19.80898,38.0799511 20.0542925,38.4241844 L20.7269802,37.7142539 C20.7083693,37.7014295 20.6850384,37.6850953 20.6662927,37.6721359 M21.7895516,38.1073548 L21.3763369,38.5332591 C21.2869239,38.3327938 21.1617727,38.1344885 20.9950843,37.9561621 L20.2742511,38.7153653 C20.7211812,39.3170311 20.8313628,39.7468502 20.4780264,40.2556405 C20.0598218,40.8581163 19.4068239,40.8818751 18.7302252,40.411288 C18.7210547,40.4048083 18.7163345,40.4014335 18.7070291,40.3950888 L18.2405442,40.8874099 L17.9671805,40.5937991 C17.9671805,40.5937991 18.3999501,40.1396812 18.39523,40.1364413 C18.1597623,39.9173469 17.9770254,39.6724688 17.8538971,39.441495 L18.2625266,39.0122159 C18.4048051,39.3055566 18.572033,39.5531346 18.7933403,39.7623745 L19.608846,38.8965265 C19.1771552,38.3125448 19.0321794,37.9139092 19.3790425,37.4141634 C19.768117,36.8536706 20.3879391,36.8276169 21.0317665,37.2753902 C21.0505122,37.2883495 21.0644029,37.2980691 21.0784285,37.3076536 L21.3774158,36.9967637 L21.652128,37.298474 L21.3915762,37.5744006 C21.5615013,37.7480022 21.6966322,37.9319983 21.7895516,38.1073548" id="Fill-44" fill="#8B1D41"></path>
            </g>
        </g>
    </g>
</svg>