<?xml version="1.0" encoding="UTF-8"?>
<svg width="450px" height="250px" viewBox="0 0 450 250" version="1.1" xmlns="http://www.w3.org/2000/svg" xmlns:xlink="http://www.w3.org/1999/xlink">
    <!-- Generator: Sketch 63.1 (92452) - https://sketch.com -->
    <title>Illustrations/Teal/Currency/savings-jar-clear-450x250</title>
    <desc>Created with Sketch.</desc>
    <g id="Illustrations/Teal/Currency/savings-jar-clear-450x250" stroke="none" stroke-width="1" fill="none" fill-rule="evenodd">
        <path d="M289.846,210.9582 C289.846,216.8282 260.582,221.5882 224.484,221.5882 C188.385,221.5882 159.121,216.8282 159.121,210.9582 C159.121,205.0872 188.385,200.3282 224.484,200.3282 C260.582,200.3282 289.846,205.0872 289.846,210.9582" id="Fill-2" fill="#BBE3E2"></path>
        <path d="M253.682,86.2804 L195.291,86.2804 L182.196,98.4064 C178.735,102.7394 176.849,108.1214 176.849,113.6664 L176.849,197.6344 C176.849,204.9924 182.815,210.9584 190.173,210.9584 L258.801,210.9584 C266.16,210.9584 272.124,204.9924 272.124,197.6344 L272.124,113.6664 C272.124,108.1214 270.239,102.7394 266.778,98.4064 L253.682,86.2804 Z" id="Fill-4" fill="#FFFFFF"></path>
        <path d="M225.0013,38.0402 C224.7493,37.6902 224.2813,37.5432 223.8643,37.7112 L201.6083,46.6982 C201.3713,46.7942 201.1863,46.9772 201.0863,47.2122 C200.9853,47.4472 200.9833,47.7072 201.0793,47.9442 L220.2483,95.4162 C220.3723,95.7222 220.7183,95.8672 221.0223,95.7442 L243.9503,86.4862 C244.0983,86.4272 244.2133,86.3132 244.2753,86.1672 C244.3383,86.0202 244.3393,85.8592 244.2793,85.7122 L225.1113,38.2412 C225.0823,38.1682 225.0443,38.1022 225.0013,38.0402" id="Fill-6" fill="#C41F3E"></path>
        <path d="M227.5648,78.9279 C222.4258,81.0029 216.0418,77.1929 213.3058,70.4179 C210.5708,63.6429 212.5188,56.4679 217.6588,54.3929 C222.7978,52.3179 229.1818,56.1279 231.9178,62.9029 C234.6538,69.6779 232.7048,76.8529 227.5648,78.9279" id="Fill-8" fill="#FFFFFF"></path>
        <path d="M219.0296,68.1339 C219.5446,69.4079 220.3266,69.8339 221.2656,69.4539 C221.9676,69.1709 222.3136,68.6969 222.2606,67.3289 L219.0166,68.1029 C219.0166,68.1029 219.0226,68.1179 219.0296,68.1339 M226.8946,64.9029 C226.4446,63.7869 225.7486,63.4389 224.9666,63.7539 C224.2816,64.0309 224.0506,64.5129 224.1016,65.7889 L226.9786,65.1099 C226.9526,65.0459 226.9206,64.9659 226.8946,64.9029 M229.0156,67.8629 L227.2656,68.2539 C227.3716,67.5999 227.3836,66.8919 227.2566,66.1649 L224.1756,66.8899 C224.3116,69.1509 223.8796,70.4189 222.1436,71.1189 C220.0886,71.9489 218.3966,70.9279 217.4646,68.6179 C217.4516,68.5859 217.4456,68.5709 217.4316,68.5379 L215.4376,69.0099 L215.2316,67.8159 C215.2316,67.8159 217.0786,67.3849 217.0716,67.3679 C216.8396,66.4249 216.7816,65.5029 216.8526,64.7159 L218.5956,64.3079 C218.4706,65.2839 218.4846,66.1869 218.6976,67.0819 L222.1936,66.2449 C222.0676,64.0539 222.3606,62.8059 224.0656,62.1179 C225.9766,61.3459 227.5886,62.3069 228.4756,64.5049 C228.5016,64.5689 228.5206,64.6159 228.5406,64.6639 L229.8116,64.3729 L230.0076,65.5909 L228.8906,65.8569 C229.0336,66.5769 229.0706,67.2659 229.0156,67.8629" id="Fill-10" fill="#8B1D41"></path>
        <path d="M253.2064,78.4933 L195.7614,78.4933 C193.6104,78.4933 191.8674,80.2363 191.8674,82.3873 C191.8674,84.5373 193.6104,86.2803 195.7614,86.2803 L253.2064,86.2803 C255.3564,86.2803 257.1014,84.5373 257.1014,82.3873 C257.1014,80.2363 255.3564,78.4933 253.2064,78.4933" id="Fill-12" fill="#FFFFFF"></path>
        <path d="M241.7952,48.7804 C240.7242,52.0934 242.5422,55.6464 245.8552,56.7174 L249.7312,44.7204 C246.4182,43.6494 242.8652,45.4674 241.7952,48.7804" id="Fill-14" fill="#C41F3E"></path>
        <path d="M249.7308,44.7208 L245.8548,56.7168 C249.1678,57.7868 252.7198,55.9698 253.7918,52.6568 C254.8618,49.3438 253.0438,45.7908 249.7308,44.7208" id="Fill-16" fill="#8B1D41"></path>
        <path d="M197.3851,29.4806 C198.6121,32.7386 202.2471,34.3856 205.5051,33.1596 L201.0651,21.3606 C197.8061,22.5866 196.1591,26.2226 197.3851,29.4806" id="Fill-18" fill="#C41F3E"></path>
        <path d="M201.0648,21.3605 L205.5048,33.1595 C208.7628,31.9325 210.4108,28.2975 209.1838,25.0395 C207.9588,21.7815 204.3228,20.1335 201.0648,21.3605" id="Fill-20" fill="#8B1D41"></path>
        <path d="M236.6263,166.9181 C236.5213,166.9521 236.4103,166.9751 236.2963,166.9841 L185.2593,171.0151 C184.7873,171.0521 184.3283,170.9031 183.9693,170.5961 C183.6083,170.2881 183.3893,169.8591 183.3533,169.3871 L181.4623,145.4601 C181.3863,144.4851 182.1153,143.6301 183.0903,143.5531 L234.1273,139.5221 C234.5023,139.4921 234.8673,139.6101 235.1533,139.8561 C235.4403,140.1001 235.6143,140.4411 235.6443,140.8171 L237.5913,165.4671 C237.6433,166.1281 237.2293,166.7191 236.6263,166.9181" id="Fill-22" fill="#FFFFFF"></path>
        <path d="M182.931,144.4103 C182.521,144.5463 182.241,144.9473 182.276,145.3953 L184.165,169.3223 C184.186,169.5773 184.304,169.8093 184.498,169.9753 C184.693,170.1413 184.94,170.2223 185.195,170.2013 L236.232,166.1713 C236.56,166.1443 236.803,165.8583 236.778,165.5313 L234.831,140.8813 C234.819,140.7223 234.745,140.5793 234.624,140.4753 C234.503,140.3723 234.35,140.3223 234.191,140.3353 L183.155,144.3653 C183.077,144.3713 183.001,144.3873 182.931,144.4103" id="Fill-24" fill="#8B1D41"></path>
        <path d="M222.7005,154.2414 C223.1375,159.7664 217.5865,164.7124 210.3025,165.2874 C203.0185,165.8624 196.7605,161.8494 196.3235,156.3244 C195.8875,150.7994 201.4385,145.8534 208.7215,145.2784 C216.0065,144.7024 222.2645,148.7164 222.7005,154.2414" id="Fill-26" fill="#FFFFFF"></path>
        <path d="M209.8431,159.1417 C211.2121,159.0347 211.8541,158.4147 211.7741,157.4057 C211.7141,156.6517 211.3661,156.1787 210.0451,155.8177 L209.8091,159.1447 C209.8091,159.1447 209.8251,159.1437 209.8431,159.1417 M209.1211,150.6687 C207.9231,150.7637 207.3811,151.3237 207.4471,152.1627 C207.5061,152.9007 207.8971,153.2647 209.1291,153.5997 L209.3441,150.6517 C209.2761,150.6577 209.1901,150.6637 209.1211,150.6687 M212.5821,149.5357 L212.4301,151.3227 C211.8381,151.0247 211.1651,150.8007 210.4351,150.7037 L210.2011,153.8587 C212.3981,154.4097 213.4781,155.2027 213.6251,157.0687 C213.8001,159.2777 212.3181,160.5837 209.8341,160.7807 C209.8001,160.7837 209.7821,160.7847 209.7481,160.7877 L209.6001,162.8307 L208.3981,162.6687 C208.3981,162.6687 208.5421,160.7787 208.5251,160.7797 C207.5541,160.7187 206.6581,160.4957 205.9281,160.1927 L206.0631,158.4067 C206.9571,158.8197 207.8221,159.0777 208.7391,159.1427 L208.9901,155.5567 C206.8641,155.0187 205.7611,154.3647 205.6161,152.5327 C205.4531,150.4777 206.8541,149.2287 209.2171,149.0417 C209.2851,149.0367 209.3371,149.0327 209.3881,149.0287 L209.4921,147.7287 L210.7131,147.9077 L210.6311,149.0517 C211.3621,149.1317 212.0301,149.3027 212.5821,149.5357" id="Fill-28" fill="#8B1D41"></path>
        <path d="M246.763,205.8371 C246.653,205.8371 246.54,205.8241 246.429,205.7971 L196.698,193.6411 C196.238,193.5281 195.849,193.2431 195.603,192.8391 C195.357,192.4341 195.284,191.9581 195.396,191.4981 L201.095,168.1831 C201.327,167.2331 202.288,166.6491 203.239,166.8811 L252.969,179.0361 C253.335,179.1261 253.645,179.3531 253.84,179.6751 C254.035,179.9971 254.094,180.3761 254.005,180.7421 L248.134,204.7621 C247.976,205.4051 247.398,205.8371 246.763,205.8371" id="Fill-30" fill="#FFFFFF"></path>
        <path d="M202.8177,167.6457 C202.3867,167.6457 201.9947,167.9397 201.8867,168.3757 L196.1877,191.6917 C196.1277,191.9397 196.1677,192.1977 196.2997,192.4157 C196.4327,192.6337 196.6427,192.7887 196.8907,192.8487 L246.6227,205.0037 C246.9427,205.0827 247.2627,204.8867 247.3407,204.5677 L253.2127,180.5477 C253.2507,180.3937 253.2257,180.2347 253.1427,180.0977 C253.0607,179.9617 252.9297,179.8667 252.7757,179.8297 L203.0457,167.6727 C202.9687,167.6547 202.8927,167.6457 202.8177,167.6457" id="Fill-32" fill="#C41F3E"></path>
        <path d="M237.5081,189.4367 C236.1931,194.8217 229.3721,197.7797 222.2751,196.0447 C215.1771,194.3097 210.4891,188.5397 211.8061,183.1547 C213.1221,177.7707 219.9431,174.8117 227.0401,176.5467 C234.1381,178.2817 238.8241,184.0527 237.5081,189.4367" id="Fill-34" fill="#FFFFFF"></path>
        <path d="M223.762,190.0646 C225.097,190.3906 225.9,190.0036 226.14,189.0196 C226.32,188.2856 226.137,187.7276 224.995,186.9706 L223.729,190.0566 L223.762,190.0646 Z M225.731,181.7926 C224.563,181.5066 223.873,181.8686 223.673,182.6866 C223.498,183.4046 223.755,183.8736 224.821,184.5776 L225.949,181.8446 C225.881,181.8296 225.798,181.8086 225.731,181.7926 L225.731,181.7926 Z M229.372,181.7986 L228.669,183.4486 C228.199,182.9806 227.631,182.5576 226.967,182.2356 L225.757,185.1596 C227.671,186.3706 228.449,187.4606 228.004,189.2796 C227.478,191.4326 225.661,192.2096 223.241,191.6176 C223.208,191.6096 223.191,191.6056 223.158,191.5966 L222.376,193.4926 L221.286,192.9606 C221.286,192.9606 222.015,191.2106 221.997,191.2076 C221.095,190.8446 220.314,190.3536 219.716,189.8356 L220.403,188.1816 C221.122,188.8546 221.864,189.3706 222.715,189.7196 L224.076,186.3926 C222.224,185.2156 221.382,184.2496 221.819,182.4636 C222.308,180.4606 224.029,179.7136 226.331,180.2766 C226.398,180.2936 226.449,180.3056 226.498,180.3176 L227.004,179.1156 L228.108,179.6686 L227.671,180.7286 C228.339,181.0336 228.92,181.4056 229.372,181.7986 L229.372,181.7986 Z" id="Fill-36" fill="#8B1D41"></path>
        <path d="M250.1331,164.3449 C250.0291,164.3049 249.9301,164.2529 249.8351,164.1869 L207.7941,134.9729 C207.4051,134.7019 207.1451,134.2959 207.0611,133.8299 C206.9771,133.3649 207.0791,132.8939 207.3501,132.5049 L221.0461,112.7949 C221.6051,111.9919 222.7111,111.7929 223.5151,112.3499 L265.5561,141.5649 C265.8641,141.7809 266.0721,142.1029 266.1391,142.4739 C266.2051,142.8439 266.1231,143.2189 265.9091,143.5289 L251.7991,163.8339 C251.4201,164.3769 250.7251,164.5739 250.1331,164.3449" id="Fill-38" fill="#FFFFFF"></path>
        <path d="M222.847,112.9132 C222.445,112.7582 221.973,112.8912 221.716,113.2602 L208.02,132.9702 C207.873,133.1802 207.819,133.4342 207.864,133.6852 C207.909,133.9372 208.049,134.1562 208.26,134.3022 L250.301,163.5172 C250.572,163.7052 250.942,163.6382 251.129,163.3682 L265.239,143.0622 C265.329,142.9322 265.365,142.7742 265.336,142.6172 C265.308,142.4612 265.221,142.3252 265.09,142.2342 L223.049,113.0192 C222.985,112.9752 222.917,112.9392 222.847,112.9132" id="Fill-40" fill="#C41F3E"></path>
        <path d="M247.39,145.715 C244.227,150.267 236.799,150.576 230.799,146.406 C224.799,142.237 222.499,135.167 225.662,130.615 C228.825,126.064 236.253,125.754 242.253,129.924 C248.253,134.093 250.553,141.163 247.39,145.715" id="Fill-42" fill="#FFFFFF"></path>
        <path d="M234.3363,141.3605 C235.4653,142.1445 236.3533,142.0715 236.9313,141.2395 C237.3623,140.6185 237.3933,140.0335 236.5993,138.9175 L234.3083,141.3405 C234.3083,141.3405 234.3223,141.3505 234.3363,141.3605 M239.1473,134.3485 C238.1593,133.6625 237.3853,133.7525 236.9043,134.4435 C236.4823,135.0505 236.5543,135.5805 237.2963,136.6205 L239.3293,134.4755 C239.2733,134.4365 239.2023,134.3875 239.1473,134.3485 M242.5423,135.6635 L241.2933,136.9495 C241.0233,136.3435 240.6453,135.7455 240.1413,135.2065 L237.9613,137.5005 C239.3133,139.3175 239.6453,140.6155 238.5773,142.1525 C237.3123,143.9725 235.3383,144.0445 233.2923,142.6235 C233.2643,142.6035 233.2493,142.5925 233.2223,142.5735 L231.8113,144.0605 L230.9843,143.1735 C230.9843,143.1735 232.2933,141.8015 232.2783,141.7925 C231.5673,141.1315 231.0153,140.3905 230.6433,139.6935 L231.8773,138.3965 C232.3083,139.2825 232.8143,140.0305 233.4823,140.6625 L235.9483,138.0475 C234.6443,136.2825 234.2053,135.0785 235.2543,133.5685 C236.4303,131.8765 238.3053,131.7975 240.2513,133.1495 C240.3083,133.1885 240.3503,133.2185 240.3923,133.2475 L241.2973,132.3075 L242.1273,133.2195 L241.3393,134.0525 C241.8533,134.5775 242.2623,135.1325 242.5423,135.6635" id="Fill-44" fill="#8B1D41"></path>
    </g>
</svg>