<svg width="256" height="256" viewBox="0 0 256 256" fill="none" xmlns="http://www.w3.org/2000/svg">
<circle cx="128" cy="128" r="128" fill="#F2F3F2"/>
<path fill-rule="evenodd" clip-rule="evenodd" d="M162.707 80.0465C145.952 80.0465 131.078 60.5005 130.938 60.3018C130.356 59.5071 130.322 59.0435 129 57C127.678 59.0435 127.228 59.5071 126.647 60.3018C126.506 60.5005 112.048 80.0465 95.2926 80.0465H79.5V139.555C79.5 154.484 119.278 191.107 127.144 198.297C127.707 198.808 129 200 129 200C129 200 129.85 198.808 130.375 198.297C138.242 191.107 177.5 154.484 177.5 139.555V80.0465H162.707Z" fill="#C41F3E"/>
<path fill-rule="evenodd" clip-rule="evenodd" d="M162.707 80.045C146.008 80.045 131.494 60.4908 131.353 60.3016C130.772 59.5069 129 57 129 57V200C129 200 130.35 198.808 130.875 198.297C138.742 191.107 178 154.487 178 139.559V80.045H162.707Z" fill="#8B1D41"/>
<path d="M129 156C125.686 156 123 153.314 123 150C123 146.686 125.686 144 129 144C132.314 144 135 146.686 135 150C135 153.314 132.314 156 129 156Z" fill="white"/>
<path d="M134 137H124L122 91H136L134 137Z" fill="white"/>
</svg>
