<?xml version="1.0" encoding="utf-8"?>
<!-- Generator: Adobe Illustrator 25.2.0, SVG Export Plug-In . SVG Version: 6.00 Build 0)  -->
<svg version="1.1" id="Layer_1" xmlns="http://www.w3.org/2000/svg" xmlns:xlink="http://www.w3.org/1999/xlink" x="0px" y="0px"
	 viewBox="0 0 450 250" style="enable-background:new 0 0 450 250;" xml:space="preserve">
<style type="text/css">
	.st0{fill-rule:evenodd;clip-rule:evenodd;fill:#EFD4D8;}
	.st1{fill-rule:evenodd;clip-rule:evenodd;fill:#C41F3E;}
	.st2{fill-rule:evenodd;clip-rule:evenodd;fill:#8B1D41;}
	.st3{fill:#FFFFFF;}
</style>
<desc>Created with Sketch.</desc>
<path id="Shadow" class="st0" d="M280,193c0,5-24.8,9-55.5,9s-55.5-4-55.5-9s24.8-9,55.5-9S280,188,280,193"/>
<g>
	<path class="st1" d="M258.5,72c-16.8,0-31.6-19.5-31.8-19.7c-0.6-0.8-0.6-1.3-1.9-3.3c-1.3,2-1.8,2.5-2.4,3.3
		c-0.1,0.2-14.6,19.7-31.4,19.7h-15.8v59.5c0,14.9,39.8,51.6,47.6,58.7c0.6,0.5,1.9,1.7,1.9,1.7s0.9-1.2,1.4-1.7
		c7.9-7.2,47.1-43.8,47.1-58.7V72H258.5z"/>
	<path class="st2" d="M258.5,72c-16.7,0-31.2-19.6-31.4-19.7c-0.6-0.8-2.4-3.3-2.4-3.3v143c0,0,1.4-1.2,1.9-1.7
		c7.9-7.2,47.1-43.8,47.1-58.7V72H258.5z"/>
	<path class="st3" d="M224.8,148c-3.3,0-6-2.7-6-6s2.7-6,6-6c3.3,0,6,2.7,6,6S228.1,148,224.8,148z"/>
	<path class="st3" d="M229.8,129h-10l-2-46h14L229.8,129z"/>
</g>
</svg>
