<?xml version="1.0" encoding="UTF-8"?>
<svg width="256px" height="256px" viewBox="0 0 256 256" version="1.1" xmlns="http://www.w3.org/2000/svg" xmlns:xlink="http://www.w3.org/1999/xlink">
    <!-- Generator: Sketch 56.3 (81716) - https://sketch.com -->
    <title>Icons/Illustrative/objects/shield-256x256</title>
    <desc>Created with Sketch.</desc>
    <g id="Icons/Illustrative/objects/shield-256x256" stroke="none" stroke-width="1" fill="none" fill-rule="evenodd">
        <g id="Icons/Illustrative/Oval" fill="#F2F3F2">
            <circle id="Oval" cx="128" cy="128" r="128"></circle>
        </g>
        <g id="Group" transform="translate(79.000000, 57.000000)">
            <path d="M83.6366245,23.04651 C66.7103903,23.04651 52.1047646,3.50049615 51.9626865,3.30181933 C51.3754305,2.50711209 50.9207807,2.04353286 49.5852468,-4.9999926e-08 C48.2497129,2.04353286 47.7950631,2.50711209 47.2078071,3.30181933 C47.065729,3.50049615 32.4601033,23.04651 15.5338691,23.04651 L-4.9999926e-08,23.04651 L-4.9999926e-08,82.5549454 C-4.9999926e-08,97.4840886 39.6587256,134.106847 47.6056257,141.297056 C48.173938,141.807939 49.5,143 49.5,143 C49.5,143 50.8639494,141.807939 51.3943742,141.297056 C59.3412743,134.106847 99,97.4840886 99,82.5549454 L99,23.04651 L83.6366245,23.04651 Z" id="Path" fill="#C41F3E" fill-rule="nonzero"></path>
            <path d="M83.7074244,23.0449854 C67.0084194,23.0449854 52.4940681,3.4908044 52.3534251,3.3016009 C51.772101,2.50694623 50,-4.9999926e-08 50,-4.9999926e-08 L50,143 C50,143 51.3501722,141.808018 51.8752391,141.297169 C59.7418675,134.107436 99,97.4870997 99,82.5589441 L99,23.0449854 L83.7074244,23.0449854 Z" id="Path" fill="#8B1D41" fill-rule="nonzero"></path>
            <path d="M29,40 C31.9299086,40 36.189041,38.9288732 40.8319634,35.4225352 C44.093841,33.0041408 47.0119481,30.1717409 49.5093607,27 C51.9400196,30.1113029 54.7717009,32.902268 57.9340182,35.3035211 C62.3990867,38.7732394 67.1356164,40 70,39.9450704" id="Path" stroke="#FFFFFF" stroke-width="3"></path>
        </g>
    </g>
</svg>