<?xml version="1.0" encoding="UTF-8"?>
<svg width="256px" height="256px" viewBox="0 0 256 256" version="1.1" xmlns="http://www.w3.org/2000/svg" xmlns:xlink="http://www.w3.org/1999/xlink">
    <!-- Generator: Sketch 56.3 (81716) - https://sketch.com -->
    <title>Icons/Illustrative/documents/specialized-accounts-256x256</title>
    <desc>Created with Sketch.</desc>
    <g id="Icons/Illustrative/documents/specialized-accounts-256x256" stroke="none" stroke-width="1" fill="none" fill-rule="evenodd">
        <g id="Icons/Illustrative/Oval" fill="#F2F3F2">
            <circle id="Oval" cx="128" cy="128" r="128"></circle>
        </g>
        <g id="specialized-accounts" transform="translate(75.000000, 60.000000)" fill-rule="nonzero">
            <path d="M89.2837333,0.791466667 L5.21333333,0.791466667 C3.86653308,0.75928131 2.56371935,1.27187865 1.59993811,2.21317167 C0.636156863,3.15446468 0.0933331293,4.44481528 0.0933331293,5.792 L0.0933331293,118.0736 C0.0933331293,119.420785 0.636156863,120.711135 1.59993811,121.652428 C2.56371935,122.593721 3.86653308,123.106319 5.21333333,123.074133 L81.7573333,123.074133 C84.5190516,123.074133 86.7578667,120.835318 86.7578667,118.0736 L86.7578667,30.3168 L90.6832,29.1562667 C92.8119881,28.5333997 94.2728957,26.5785661 94.2672166,24.3605333 L94.2672166,5.792 C94.2672166,3.03693294 92.0387843,0.800869626 89.2837333,0.791466667 Z" id="Path" fill="#C41F3E"></path>
            <path d="M104.336533,15.4686821 L97.3733333,15.4686821 L97.3733333,24.5653333 C97.3500005,28.0968747 95.0006011,31.1900188 91.6048,32.16 L89.7957333,32.6890667 L89.7957333,118.244267 C89.7957333,122.636624 86.2350241,126.197333 81.8426667,126.197333 L15.1802372,126.197333 L15.1802372,132.853333 C15.1757301,134.168933 15.6951728,135.432204 16.623845,136.364078 C17.5525172,137.295953 18.8139928,137.819733 20.1296,137.819733 L96.7589333,137.819733 C98.0851572,137.819733 99.3570625,137.292893 100.294844,136.355111 C101.232626,135.417329 101.759467,134.145424 101.759467,132.8192 L101.759467,44.9941333 L105.736,43.8336 C107.85267,43.2142928 109.310554,41.2773896 109.32,39.072 L109.32,20.4181333 C109.32,19.0995531 108.793902,17.8354702 107.858327,16.9063027 C106.922751,15.9771352 105.655082,15.4597063 104.336533,15.4686821 L104.336533,15.4686821 Z" id="Path" fill="#8B1D41"></path>
            <circle id="Oval" fill="#FFFFFF" cx="43.6816" cy="61.9242667" r="20.0874667"></circle>
            <path d="M53.4096,73.4101354 C53.6179567,73.4106182 53.8171486,73.3245134 53.959545,73.1724081 C54.1019415,73.0203028 54.1747401,72.8158724 54.1605333,72.608 C53.7757607,67.1089773 49.2026011,62.8446253 43.6901333,62.8446253 C38.1776656,62.8446253 33.6045059,67.1089773 33.2197333,72.608 C33.2055266,72.8158724 33.2783252,73.0203028 33.4207216,73.1724081 C33.5631181,73.3245134 33.76231,73.4106182 33.9706667,73.4101354 L53.4096,73.4101354 Z" id="Path" fill="#C41F3E"></path>
            <path d="M49.9792233,56.7189333 C49.986107,59.2676165 48.456133,61.5691827 46.1034363,62.5493112 C43.7507397,63.5294396 41.0392351,62.9948645 39.2345937,61.1951137 C37.4299523,59.3953629 36.8880209,56.6853191 37.8617613,54.3299713 C38.8355017,51.9746235 41.1329075,50.4384 43.6816,50.4384 C47.1530144,50.4384 49.9697924,53.2475317 49.9792233,56.7189333" id="Path" fill="#C41F3E"></path>
        </g>
    </g>
</svg>