<?xml version="1.0" encoding="UTF-8"?>
<svg width="450px" height="250px" viewBox="0 0 450 250" version="1.1" xmlns="http://www.w3.org/2000/svg" xmlns:xlink="http://www.w3.org/1999/xlink">
    <!-- Generator: Sketch 62 (91390) - https://sketch.com -->
    <title>Illustrations/Pink/Currency/standalone-currency-450x250</title>
    <desc>Created with Sketch.</desc>
    <g id="Illustrations/Pink/Currency/standalone-currency-450x250" stroke="none" stroke-width="1" fill="none" fill-rule="evenodd">
        <path d="M256.211091,139.35152 L359.912303,187.410823 L335.618253,240 L231.916173,191.940262 L256.211091,139.35152 Z M195.313961,124.094854 L211.557639,179.905854 L93.2436775,214.451688 L77,158.640688 L195.313961,124.094854 Z M268.972646,49.1166148 L380,67.2870208 L380,67.2891965 L369.57188,131.21176 L258.543657,113.041354 L268.972646,49.1166148 Z M229.593035,14 L251.786949,74.5549656 L103.368595,129.124928 L81.1751147,68.5699628 L229.593035,14 Z" id="Shadow" fill="#EFD4D8"></path>
        <g id="Art" transform="translate(69.000000, 10.000000)">
            <polygon id="Fill-5" fill="#8B1D41" points="151.032087 -0.0001305 2.426517 54.5519145 24.648057 115.086514 173.254062 60.5349045"></polygon>
            <g id="Group-106" transform="translate(0.000000, 8.389845)">
                <path d="M128.378896,40.744623 C125.249942,41.893458 121.781686,40.287873 120.633286,37.158483 C119.484451,34.029528 121.090036,30.561708 124.218992,29.412873 C127.348381,28.264473 130.816201,29.869623 131.964601,32.999013 C133.113437,36.127968 131.507851,39.595788 128.378896,40.744623 M95.6764665,65.277753 C86.7924615,68.539383 76.8444465,63.703053 73.4575365,54.476268 C70.0706265,45.249483 74.5267665,35.126163 83.4107715,31.864533 C92.2952115,28.603338 102.242792,33.439668 105.630137,42.666018 C109.017047,51.892803 104.560907,62.016558 95.6764665,65.277753 M53.4166515,68.219223 C50.2876965,69.368058 46.8198765,67.762473 45.6710415,64.633518 C44.5226415,61.504128 46.1277915,58.036308 49.2571815,56.887473 C52.3861365,55.739073 55.8539565,57.344658 57.0027915,60.473613 C58.1516265,63.602568 56.5460415,67.070823 53.4166515,68.219223 M130.672652,8.759508 L29.0462115,46.065543 C30.3320715,53.628888 26.1082215,61.268793 18.6610215,64.030173 L25.7993715,83.475108 C32.9420715,80.879463 40.7268315,83.597778 44.8132215,89.618613 L146.829421,52.169898 C146.049466,44.934978 150.226336,37.825338 157.352071,35.183148 L150.214156,15.738213 C142.749556,18.450873 134.585476,15.358458 130.672652,8.759508" id="Fill-6" fill="#C41F3E"></path>
                <path d="M90.4689075,53.21964 C92.1210375,52.61325 92.6965425,51.628845 92.2493625,50.41041 C91.9157175,49.50213 91.3245525,49.039725 89.5715025,49.0506 L90.4275825,53.234865 C90.4275825,53.234865 90.4484625,53.22747 90.4689075,53.21964 M86.6543925,43.02063 C85.2093225,43.55133 84.7347375,44.42916 85.1062275,45.44097 C85.4320425,46.32837 86.0393025,46.643745 87.6744675,46.629825 L86.9232225,42.92232 C86.8401375,42.95277 86.7370425,42.990615 86.6543925,43.02063 M90.5298075,40.426725 L90.9595875,42.682635 C90.1261275,42.519945 89.2200225,42.477315 88.2847725,42.60999 L89.0864775,46.58067 C91.9853175,46.500195 93.5904675,47.10615 94.4165325,49.35684 C95.3944125,52.02078 94.0180725,54.143145 91.0235325,55.241955 C90.9826425,55.25718 90.9617625,55.26501 90.9204375,55.280235 L91.4433075,57.85326 L89.9047125,58.06641 C89.9047125,58.06641 89.4296925,55.686525 89.4088125,55.69392 C88.1921175,55.953615 87.0097875,55.989285 86.0040675,55.866615 L85.5538425,53.618535 C86.7983775,53.817765 87.9546075,53.838645 89.1095325,53.60157 L88.1803725,49.09236 C85.3707075,49.16283 83.7855675,48.7374 82.9742925,46.528035 C82.0647075,44.049405 83.3610075,42.027525 86.2106925,40.98135 C86.2933425,40.9509 86.3555475,40.92828 86.4173175,40.90566 L86.0962875,39.26571 L87.6631575,39.066045 L87.9567825,40.504155 C88.8846375,40.351035 89.7681225,40.331895 90.5298075,40.426725" id="Fill-8" fill="#FFFFFF"></path>
                <polygon id="Fill-10" fill="#FFFFFF" points="29.4076965 98.488524 27.3397065 92.854839 26.1299715 93.912759 25.6088415 92.934444 27.0243315 91.522869 28.1779515 91.099614 30.7144365 98.008719"></polygon>
                <path d="M32.5610115,90.5442495 C31.6322865,90.8852895 31.4417565,91.9740945 32.0411865,93.6070845 C32.6406165,95.2400745 33.4910415,95.9473845 34.4193315,95.6067795 C35.3484915,95.2657395 35.5190115,94.1834595 34.9195815,92.5504695 C34.3201515,90.9174795 33.4901715,90.2032095 32.5610115,90.5442495 M34.8051765,96.6581745 C33.1517415,97.2649995 31.5774765,96.3832545 30.7348815,94.0868895 C29.8914165,91.7905245 30.5221665,90.1001145 32.1751665,89.4928545 C33.8190315,88.8895095 35.3932965,89.7712545 36.2358915,92.0671845 C37.0793565,94.3639845 36.4490415,96.0548295 34.8051765,96.6581745" id="Fill-12" fill="#FFFFFF"></path>
                <polygon id="Fill-14" fill="#FFFFFF" points="156.284321 51.9133785 154.21633 46.2796935 153.006596 47.3371785 152.485466 46.3592985 153.900956 44.9477235 155.054575 44.5244685 157.591061 51.4335735"></polygon>
                <path d="M159.437636,43.969104 C158.508911,44.309709 158.318381,45.398949 158.917811,47.031939 C159.517241,48.664929 160.367666,49.372239 161.295956,49.031634 C162.225116,48.690594 162.395636,47.608314 161.796206,45.975324 C161.196776,44.342334 160.366796,43.628064 159.437636,43.969104 M161.682236,50.083029 C160.0288,50.689854 158.4541,49.808109 157.611071,47.511744 C156.768041,45.215379 157.39879,43.524534 159.051791,42.917709 C160.695221,42.314364 162.269486,43.196109 163.112081,45.492039 C163.955546,47.788404 163.325666,49.479249 161.682236,50.083029" id="Fill-16" fill="#FFFFFF"></path>
                <polygon id="Fill-18" fill="#FFFFFF" points="14.8929645 57.8606115 12.4104195 51.0985365 10.9575195 52.3687365 10.3324245 51.1946715 12.0319695 49.4999115 13.4161395 48.9913965 16.4607045 57.2851065"></polygon>
                <path d="M18.676725,48.325455 C17.56182,48.73479 17.33301,50.041965 18.0525,52.002075 C18.77199,53.962185 19.792065,54.81087 20.907405,54.401535 C22.021875,53.9922 22.226325,52.69416 21.506835,50.73405 C20.787345,48.77394 19.79163,47.916555 18.676725,48.325455 M21.370245,55.663035 C19.385775,56.39166 17.496135,55.334175 16.484325,52.57758 C15.472515,49.820985 16.22898,47.792145 18.213885,47.063955 C20.18574,46.340115 22.07538,47.3976 23.087625,50.154195 C24.099435,52.91079 23.342535,54.939195 21.370245,55.663035" id="Fill-20" fill="#FFFFFF"></path>
                <polygon id="Fill-22" fill="#FFFFFF" points="141.769154 11.285466 139.286608 4.523391 137.833709 5.793591 137.208614 4.619526 138.908159 2.924766 140.292329 2.416251 143.336894 10.709961"></polygon>
                <path d="M145.552914,1.7503095 C144.438009,2.1596445 144.209199,3.4668195 144.928689,5.4269295 C145.648179,7.3870395 146.668254,8.2357245 147.783594,7.8263895 C148.898064,7.4170545 149.102514,6.1190145 148.383024,4.1589045 C147.663534,2.1987945 146.667819,1.3414095 145.552914,1.7503095 M148.246434,9.0878895 C146.261964,9.8165145 144.372324,8.7590295 143.360514,6.0024345 C142.348704,3.2458395 143.105169,1.2169995 145.090074,0.4888095 C147.061929,-0.2350305 148.951569,0.8224545 149.963814,3.5790495 C150.975624,6.3356445 150.218724,8.3640495 148.246434,9.0878895" id="Fill-24" fill="#FFFFFF"></path>
                <polygon id="Fill-26" fill="#C41F3E" points="294.703539 105.644361 183.535374 87.479631 193.977114 23.576391 305.145279 41.741121"></polygon>
                <polygon id="Fill-28" fill="#8B1D41" points="210.789734 91.9329435 183.535678 87.4798485 193.977418 23.5761735 221.231473 28.0297035"></polygon>
                <polygon id="Fill-30" fill="#8B1D41" points="276.444588 102.660957 251.582598 98.598492 262.024338 34.694817 286.886328 38.757282"></polygon>
                <path d="M257.002524,80.140572 C255.587904,80.799597 253.308939,81.320727 250.592799,80.884422 C247.259829,80.348937 244.501929,78.597627 242.827179,75.880182 C241.541319,73.900062 240.895779,71.347917 241.001049,68.325537 L238.449774,67.915767 L238.773849,65.899107 L241.119369,66.275817 C241.152429,66.070062 241.185489,65.865177 241.218549,65.658987 C241.324254,64.999962 241.464324,64.389657 241.598739,63.820242 L239.170134,63.430482 L239.500734,61.372497 L242.217309,61.808802 C243.173874,59.007402 244.791639,56.818917 246.708249,55.396467 C249.157299,53.551632 252.030909,52.747317 255.405204,53.289327 C257.833374,53.679522 259.613829,54.682632 260.666964,55.485642 L259.407639,58.069107 C258.478479,57.286977 256.835484,56.474397 254.983689,56.176857 C252.761709,55.820157 250.825089,56.311272 249.187749,57.567117 C247.761819,58.562832 246.641694,60.282387 245.880009,62.396922 L257.360964,64.241322 L257.030364,66.299307 L245.178354,64.395312 C245.050899,64.923837 244.911264,65.534142 244.818609,66.110082 C244.779024,66.356727 244.745964,66.562917 244.699854,66.850887 L256.634079,68.767932 L256.310004,70.784592 L244.663749,68.914092 C244.609809,71.353572 245.148339,73.255827 246.061839,74.668272 C247.325949,76.518762 249.258219,77.630187 251.481069,77.986887 C253.661289,78.337062 255.686649,77.818542 256.719774,77.435307 L257.002524,80.140572 Z" id="Fill-32" fill="#FFFFFF"></path>
                <path d="M281.995927,57.464718 C280.590442,57.235038 279.505553,56.696943 278.639903,56.032263 L279.295883,54.119568 C280.102808,54.809913 281.146373,55.377588 282.323918,55.570293 C283.728968,55.799538 284.924348,55.327128 285.157073,53.904678 C285.349342,52.727133 284.693798,51.881058 283.288747,51.650943 C282.497483,51.521748 281.912843,51.570468 281.386493,51.700968 L279.930113,51.120243 L281.373443,44.934543 L287.997188,46.016823 L287.985878,47.963013 L282.838088,47.121723 L282.173843,49.863093 C282.633203,49.812198 283.215233,49.780878 284.006062,49.910508 C286.359848,50.295048 287.685293,51.900633 287.317718,54.149583 C286.881413,56.820048 284.666828,57.901023 281.995927,57.464718" id="Fill-34" fill="#F2F3F2"></path>
                <path d="M294.574822,48.715215 C292.975762,48.45378 291.827362,49.85361 291.368002,52.66458 C290.908642,55.47555 291.552008,57.168135 293.151068,57.429135 C294.749257,57.69057 295.862858,56.285085 296.322218,53.474115 C296.781142,50.66358 296.173447,48.976215 294.574822,48.715215 M292.855268,59.23917 C290.009063,58.774155 288.473077,56.250285 289.119053,52.297005 C289.764592,48.34416 292.024417,46.4406 294.870622,46.90605 C297.698993,47.367585 299.234542,49.89189 298.589002,53.844735 C297.942592,57.79758 295.683637,59.701575 292.855268,59.23917" id="Fill-36" fill="#F2F3F2"></path>
                <path d="M193.175192,82.774584 C191.896726,82.566219 190.910582,82.076844 190.123232,81.472194 L190.719181,79.732629 C191.453462,80.360769 192.402632,80.877114 193.473167,81.051549 C194.751197,81.260784 195.838262,80.831874 196.049672,79.537314 C196.224977,78.466779 195.629027,77.697264 194.350561,77.488029 C193.631942,77.370144 193.099502,77.414949 192.621002,77.533269 L191.296426,77.005179 L192.609257,71.380194 L198.632701,72.364599 L198.622262,74.134179 L193.941227,73.369449 L193.336577,75.862434 C193.754612,75.815454 194.284442,75.788049 195.003062,75.905499 C197.143697,76.255239 198.349082,77.715099 198.014567,79.760034 C197.617847,82.188639 195.603797,83.171739 193.175192,82.774584" id="Fill-38" fill="#FFFFFF"></path>
                <path d="M204.610515,74.8173465 C203.15718,74.5798365 202.11231,75.8530815 201.69471,78.4095765 C201.27711,80.9660715 201.862185,82.5046665 203.31552,82.7421765 C204.769725,82.9796865 205.782405,81.7020915 206.200005,79.1455965 C206.617605,76.5891015 206.06472,75.0552915 204.610515,74.8173465 M203.04669,84.3877815 C200.458875,83.9649615 199.062525,81.6699015 199.649775,78.0750615 C200.23746,74.4802215 202.291965,72.7493565 204.87978,73.1721765 C207.45237,73.5928215 208.84872,75.8870115 208.26147,79.4822865 C207.67422,83.0766915 205.61928,84.8084265 203.04669,84.3877815" id="Fill-40" fill="#FFFFFF"></path>
                <path d="M197.164141,36.3737865 C196.525126,36.2698215 196.031836,36.0249165 195.639031,35.7225915 L195.937006,34.8534615 C196.303276,35.1675315 196.777861,35.4250515 197.313346,35.5124865 C197.952361,35.6168865 198.495241,35.4024315 198.600946,34.7555865 C198.688381,34.2205365 198.390406,33.8355615 197.751826,33.7315965 C197.392081,33.6724365 197.125861,33.6946215 196.886611,33.7542165 L196.225411,33.4901715 L196.881391,30.6783315 L199.892026,31.1703165 L199.886371,32.0546715 L197.546941,31.6723065 L197.245051,32.9190165 C197.453851,32.8955265 197.717896,32.8811715 198.077641,32.9394615 C199.147741,33.1147665 199.750216,33.8446965 199.583176,34.8665115 C199.384816,36.0801615 198.377791,36.5721465 197.164141,36.3737865" id="Fill-42" fill="#FFFFFF"></path>
                <path d="M202.881999,32.3971905 C202.154679,32.2784355 201.632679,32.9144055 201.423879,34.1920005 C201.215514,35.4695955 201.507399,36.2386755 202.234719,36.3574305 C202.961169,36.4761855 203.467509,35.8376055 203.675874,34.5600105 C203.884674,33.2824155 203.608449,32.5155105 202.881999,32.3971905 M202.100304,37.1804505 C200.806614,36.9690405 200.108439,35.8219455 200.402064,34.0249605 C200.695689,32.2279755 201.722289,31.3631955 203.016414,31.5746055 C204.301839,31.7847105 204.999579,32.9318055 204.705954,34.7279205 C204.412764,36.5249055 203.385729,37.3905555 202.100304,37.1804505" id="Fill-44" fill="#FFFFFF"></path>
                <path d="M284.794543,100.008066 C284.155528,99.903666 283.662239,99.659196 283.268999,99.356871 L283.567408,98.487306 C283.933678,98.801811 284.407828,99.059331 284.942879,99.147201 C285.581893,99.251601 286.125643,99.036711 286.231348,98.389431 C286.318349,97.854816 286.020374,97.470276 285.381794,97.365441 C285.022048,97.307151 284.756263,97.328901 284.517013,97.388496 L283.855378,97.124886 L284.511794,94.313046 L287.522428,94.805031 L287.516773,95.689386 L285.176908,95.307456 L284.875018,96.553296 C285.083818,96.529806 285.348298,96.515886 285.708043,96.574611 C286.778143,96.749481 287.380183,97.479411 287.213578,98.501226 C287.014784,99.714876 286.008193,100.206426 284.794543,100.008066" id="Fill-46" fill="#FFFFFF"></path>
                <path d="M290.511966,96.0316875 C289.784646,95.9129325 289.263081,96.5484675 289.054281,97.8260625 C288.845481,99.1036575 289.137801,99.8731725 289.865121,99.9914925 C290.591571,100.110247 291.097476,99.4716675 291.306276,98.1936375 C291.515076,96.9164775 291.238416,96.1500075 290.511966,96.0316875 M289.730706,100.814947 C288.436581,100.603103 287.738841,99.4560075 288.032466,97.6590225 C288.326091,95.8624725 289.352691,94.9976925 290.646816,95.2091025 C291.931806,95.4192075 292.629546,96.5663025 292.335921,98.3624175 C292.042731,100.159402 291.015696,101.024617 289.730706,100.814947" id="Fill-48" fill="#FFFFFF"></path>
                <path d="M266.475258,83.093613 C266.443503,83.088393 266.412618,83.073168 266.389563,83.048808 C266.347368,83.006613 266.333448,82.944408 266.352588,82.887858 L266.967243,81.105663 L265.850598,79.578813 C265.815798,79.531398 265.811013,79.467018 265.838418,79.414383 C265.865823,79.361313 265.920633,79.328688 265.980228,79.329993 L267.851598,79.362183 L268.968678,77.822718 C269.003478,77.774868 269.062203,77.750508 269.120493,77.760078 L269.120928,77.760078 C269.179218,77.770083 269.227503,77.811843 269.244903,77.868393 L269.807793,79.681908 L271.597818,80.247843 C271.654803,80.265678 271.696563,80.314398 271.705263,80.373558 C271.714833,80.432283 271.689603,80.491008 271.640883,80.524938 L270.091413,81.616353 L270.106638,83.501208 C270.107508,83.560803 270.073578,83.615613 270.020508,83.642148 C269.990058,83.657373 269.956998,83.662593 269.925243,83.656938 C269.900013,83.653023 269.876088,83.643453 269.855643,83.627358 L268.347933,82.489833 L266.550078,83.087523 C266.525283,83.095788 266.500053,83.097528 266.475258,83.093613" id="Fill-50" fill="#FFFFFF"></path>
                <path d="M271.140024,72.9787755 C271.108269,72.9735555 271.076949,72.9583305 271.053894,72.9339705 C271.012134,72.8917755 270.997779,72.8295705 271.017354,72.7730205 L271.631574,70.9908255 L270.515364,69.4639755 C270.480564,69.4165605 270.475779,69.3521805 270.503184,69.2995455 C270.530589,69.2464755 270.585399,69.2138505 270.644559,69.2151555 L272.515929,69.2473455 L273.633009,67.7078805 C273.667809,67.6600305 273.726969,67.6356705 273.785259,67.6452405 L273.785694,67.6452405 C273.843984,67.6552455 273.891834,67.6970055 273.909669,67.7535555 L274.472124,69.5670705 L276.262584,70.1330055 C276.319569,70.1508405 276.361329,70.1991255 276.369594,70.2587205 C276.379164,70.3174455 276.353934,70.3761705 276.305649,70.4101005 L274.756179,71.5015155 L274.771404,73.3863705 C274.771839,73.4459655 274.737909,73.5007755 274.685274,73.5273105 C274.654824,73.5425355 274.621329,73.5477555 274.589574,73.5421005 C274.564779,73.5381855 274.540854,73.5286155 274.520409,73.5125205 L273.012264,72.3749955 L271.214409,72.9726855 C271.189614,72.9809505 271.164819,72.9826905 271.140024,72.9787755" id="Fill-52" fill="#FFFFFF"></path>
                <path d="M270.085671,61.9294275 C270.053916,61.9242075 270.023031,61.9089825 269.999976,61.8846225 C269.957781,61.8428625 269.943861,61.7802225 269.963001,61.7241075 L270.577656,59.9414775 L269.461011,58.4150625 C269.426211,58.3672125 269.421426,58.3032675 269.448831,58.2501975 C269.476236,58.1975625 269.531046,58.1645025 269.590641,58.1658075 L271.462011,58.1979975 L272.579091,56.6585325 C272.613891,56.6106825 272.672616,56.5863225 272.730906,56.5958925 L272.731341,56.5958925 C272.789631,56.6058975 272.837916,56.6476575 272.855316,56.7042075 L273.418206,58.5177225 L275.208231,59.0836575 C275.265216,59.1019275 275.306976,59.1502125 275.315676,59.2093725 C275.325246,59.2680975 275.300016,59.3268225 275.251296,59.3611875 L273.701826,60.4521675 L273.717051,62.3370225 C273.717921,62.3970525 273.683991,62.4514275 273.630921,62.4783975 C273.600471,62.4936225 273.567411,62.4984075 273.535656,62.4931875 C273.510426,62.4892725 273.486501,62.4792675 273.466056,62.4636075 L271.958346,61.3260825 L270.160491,61.9237725 C270.135696,61.9316025 270.110466,61.9333425 270.085671,61.9294275" id="Fill-54" fill="#FFFFFF"></path>
                <path d="M263.791352,52.559919 C263.759597,52.554699 263.728712,52.539474 263.705657,52.515114 C263.663462,52.472919 263.649542,52.410714 263.669117,52.354164 L264.283337,50.571969 L263.166692,49.045119 C263.132327,48.997704 263.127542,48.933324 263.154947,48.880689 C263.181917,48.827619 263.237162,48.794994 263.296322,48.796299 L265.167692,48.828489 L266.284772,47.289024 C266.319572,47.241174 266.378297,47.216814 266.437022,47.226384 L266.437457,47.226384 C266.495747,47.236389 266.543597,47.278149 266.560997,47.334699 L267.123887,49.148214 L268.914347,49.714149 C268.971332,49.731984 269.012657,49.780704 269.021357,49.839864 C269.030927,49.898589 269.005697,49.957314 268.957412,49.991244 L267.407942,51.082659 L267.423167,52.967514 C267.423602,53.027109 267.389672,53.081919 267.336602,53.108454 C267.306587,53.123679 267.273092,53.128899 267.241337,53.123679 C267.216542,53.119764 267.192617,53.109759 267.171737,53.093664 L265.664027,51.956139 L263.866172,52.553829 C263.841377,52.562094 263.816582,52.563834 263.791352,52.559919" id="Fill-56" fill="#FFFFFF"></path>
                <path d="M253.04124,47.50983 C253.009485,47.50461 252.9786,47.489385 252.95511,47.465025 C252.91335,47.42283 252.898995,47.360625 252.91857,47.304075 L253.53279,45.52188 L252.41658,43.99503 C252.38178,43.947615 252.376995,43.883235 252.4044,43.8306 C252.431805,43.77753 252.486615,43.744905 252.545775,43.74621 L254.417145,43.7784 L255.534225,42.238935 C255.56946,42.191085 255.628185,42.166725 255.686475,42.176295 L255.68691,42.176295 C255.7452,42.1863 255.79305,42.22806 255.810885,42.28461 L256.37334,44.098125 L258.1638,44.66406 C258.220785,44.681895 258.262545,44.730615 258.27081,44.789775 C258.28038,44.8485 258.25515,44.907225 258.206865,44.941155 L256.657395,46.03257 L256.67262,47.917425 C256.673055,47.97702 256.639125,48.03183 256.58649,48.058365 C256.55604,48.07359 256.522545,48.07881 256.49079,48.073155 C256.465995,48.06924 256.44207,48.05967 256.421625,48.043575 L254.91348,46.90605 L253.115625,47.50374 C253.09083,47.512005 253.066035,47.513745 253.04124,47.50983" id="Fill-58" fill="#FFFFFF"></path>
                <path d="M245.77239,91.4316495 C245.740635,91.4264295 245.70975,91.4112045 245.68626,91.3868445 C245.6445,91.3446495 245.630145,91.2824445 245.64972,91.2258945 L246.264375,89.4436995 L245.14773,87.9168495 C245.11293,87.8694345 245.108145,87.8050545 245.13555,87.7524195 C245.162955,87.6993495 245.217765,87.6667245 245.276925,87.6680295 L247.14873,87.7002195 L248.26581,86.1607545 C248.30061,86.1129045 248.359335,86.0885445 248.417625,86.0981145 L248.41806,86.0981145 C248.47635,86.1081195 248.524635,86.1498795 248.542035,86.2064295 L249.104925,88.0199445 L250.89495,88.5858795 C250.951935,88.6037145 250.993695,88.6524345 251.002395,88.7115945 C251.011965,88.7703195 250.986735,88.8290445 250.938015,88.8629745 L249.388545,89.9543895 L249.40377,91.8392445 C249.404205,91.8988395 249.37071,91.9536495 249.31764,91.9801845 C249.28719,91.9954095 249.253695,92.0006295 249.22194,91.9949745 C249.197145,91.9910595 249.17322,91.9814895 249.152775,91.9653945 L247.645065,90.8278695 L245.846775,91.4255595 C245.822415,91.4338245 245.797185,91.4355645 245.77239,91.4316495" id="Fill-60" fill="#FFFFFF"></path>
                <path d="M257.805838,89.18022 C257.774084,89.175 257.743199,89.159775 257.719708,89.135415 C257.677949,89.093655 257.663593,89.031015 257.683168,88.9749 L258.297823,87.19227 L257.181178,85.665855 C257.146379,85.618005 257.141593,85.55406 257.168998,85.50099 C257.196404,85.448355 257.251214,85.415295 257.310373,85.4166 L259.182178,85.44879 L260.299258,83.909325 C260.334058,83.861475 260.392784,83.837115 260.451074,83.846685 L260.451508,83.846685 C260.509798,83.85669 260.558084,83.89845 260.575483,83.955 L261.138373,85.768515 L262.928398,86.33445 C262.985384,86.35272 263.027144,86.401005 263.035843,86.460165 C263.045413,86.51889 263.020183,86.577615 262.971463,86.61198 L261.421993,87.70296 L261.437218,89.587815 C261.437654,89.647845 261.404158,89.702655 261.351088,89.72919 C261.320639,89.744415 261.287144,89.7492 261.255388,89.74398 C261.230593,89.740065 261.206668,89.73006 261.186223,89.7144 L259.678513,88.576875 L257.880223,89.174565 C257.855863,89.182395 257.830633,89.184135 257.805838,89.18022" id="Fill-62" fill="#FFFFFF"></path>
                <path d="M232.434811,77.531442 C232.466566,77.536662 232.500496,77.531877 232.530946,77.516652 C232.584016,77.489682 232.617511,77.435307 232.616642,77.375712 L232.601417,75.490422 L234.145667,74.398572 C234.193951,74.364207 234.219181,74.305047 234.209612,74.246322 C234.200911,74.187597 234.159152,74.138877 234.102166,74.121042 L232.317796,73.555977 L231.748817,71.740722 C231.731417,71.685042 231.683132,71.642847 231.624842,71.633277 L231.624406,71.633277 C231.566117,71.624142 231.506956,71.648502 231.472591,71.696352 L230.361602,73.236252 L228.484577,73.203192 C228.424546,73.201887 228.369736,73.234947 228.342766,73.288017 C228.314927,73.340652 228.320147,73.404597 228.355381,73.452447 L229.476812,74.979732 L228.862592,76.762362 C228.843017,76.818477 228.857371,76.881117 228.899131,76.923312 C228.923492,76.947237 228.953506,76.962462 228.985262,76.967682 C229.010056,76.971597 229.036157,76.969857 229.060517,76.961592 L230.851846,76.363032 L232.366082,77.502297 C232.386961,77.517522 232.410016,77.527527 232.434811,77.531442" id="Fill-64" fill="#FFFFFF"></path>
                <path d="M230.908049,66.404925 C230.939804,66.410145 230.973733,66.40536 231.003749,66.390135 C231.056819,66.363165 231.090314,66.308355 231.089879,66.249195 L231.074654,64.363905 L232.618904,63.272055 C232.666754,63.23769 232.692419,63.17853 232.682849,63.119805 C232.674149,63.06108 232.632389,63.01236 232.575403,62.994525 L230.790599,62.42946 L230.222054,60.614205 C230.204654,60.558525 230.155934,60.51633 230.098079,60.50676 L230.097643,60.50676 C230.039354,60.497625 229.979759,60.521985 229.945394,60.569835 L228.834403,62.109735 L226.957379,62.076675 C226.897784,62.07537 226.842973,62.10843 226.816003,62.1615 C226.788164,62.214135 226.793384,62.27808 226.828619,62.32593 L227.949613,63.853215 L227.335829,65.63541 C227.316254,65.69196 227.330608,65.7546 227.372368,65.796795 C227.396294,65.82072 227.426743,65.835945 227.458499,65.841165 C227.483294,65.84508 227.508959,65.84334 227.533319,65.835075 L229.325084,65.236515 L230.839319,66.37578 C230.860198,66.391005 230.883253,66.40101 230.908049,66.404925" id="Fill-66" fill="#FFFFFF"></path>
                <path d="M235.748685,56.3187975 C235.78044,56.3240175 235.81437,56.3192325 235.84482,56.3040075 C235.89789,56.2774725 235.93095,56.2226625 235.930515,56.1630675 L235.91529,54.2777775 L237.45954,53.1859275 C237.507825,53.1515625 237.533055,53.0924025 237.523485,53.0336775 C237.514785,52.9749525 237.473025,52.9262325 237.41604,52.9083975 L235.63167,52.3437675 L235.06269,50.5285125 C235.04529,50.4723975 234.99657,50.4302025 234.938715,50.4206325 L234.93828,50.4206325 C234.87999,50.4114975 234.82083,50.4358575 234.786465,50.4837075 L233.675475,52.0240425 L231.79845,51.9905475 C231.73842,51.9892425 231.68361,52.0223025 231.65664,52.0753725 C231.6288,52.1280075 231.63402,52.1919525 231.669255,52.2398025 L232.790685,53.7670875 L232.176465,55.5497175 C232.15689,55.6058325 232.171245,55.6684725 232.213005,55.7106675 C232.237365,55.7345925 232.26738,55.7498175 232.299135,55.7554725 C232.32393,55.7593875 232.35003,55.7572125 232.37439,55.7489475 L234.16572,55.1508225 L235.679955,56.2896525 C235.700835,56.3048775 235.72389,56.3148825 235.748685,56.3187975" id="Fill-68" fill="#FFFFFF"></path>
                <path d="M244.589755,49.4223075 C244.62151,49.4275275 244.65544,49.4227425 244.68589,49.4075175 C244.738526,49.3809825 244.77202,49.3261725 244.771586,49.2665775 L244.756361,47.3812875 L246.300611,46.2894375 C246.348895,46.2550725 246.374125,46.1959125 246.364556,46.1371875 C246.355855,46.0784625 246.314096,46.0297425 246.25711,46.0119075 L244.47274,45.4468425 L243.903761,43.6320225 C243.886361,43.5759075 243.83764,43.5337125 243.779786,43.5241425 L243.77935,43.5241425 C243.721061,43.5150075 243.6619,43.5393675 243.627101,43.5872175 L242.516546,45.1275525 L240.639085,45.0940575 C240.57949,45.0927525 240.52468,45.1258125 240.49771,45.1788825 C240.469871,45.2315175 240.475091,45.2954625 240.510325,45.3433125 L241.631756,46.8705975 L241.017536,48.6532275 C240.997961,48.7093425 241.012315,48.7719825 241.054075,48.8141775 C241.078436,48.8381025 241.10845,48.8533275 241.140206,48.8589825 C241.165,48.8628975 241.190666,48.8607225 241.215025,48.8524575 L243.00679,48.2538975 L244.521026,49.3931625 C244.541905,49.4083875 244.56496,49.4183925 244.589755,49.4223075" id="Fill-70" fill="#FFFFFF"></path>
                <path d="M238.60807,86.043435 C238.639826,86.048655 238.673755,86.04387 238.703771,86.028645 C238.756841,86.001675 238.790335,85.946865 238.789901,85.887705 L238.774676,84.002415 L240.318926,82.910565 C240.366776,82.8762 240.39244,82.81704 240.382871,82.758315 C240.37417,82.69959 240.332411,82.65087 240.275425,82.633035 L238.490621,82.06797 L237.922076,80.252715 C237.904676,80.1966 237.855955,80.15484 237.798101,80.14527 L237.797665,80.14527 C237.739376,80.136135 237.67978,80.160495 237.645416,80.208345 L236.534425,81.748245 L234.6574,81.715185 C234.597805,81.71388 234.542995,81.74694 234.516025,81.80001 C234.488186,81.852645 234.493406,81.91659 234.52864,81.96444 L235.649635,83.491725 L235.035851,85.27392 C235.016276,85.33047 235.03063,85.39311 235.07239,85.435305 C235.096316,85.45923 235.126765,85.474455 235.158521,85.479675 C235.183315,85.48359 235.208981,85.48185 235.23334,85.473585 L237.025105,84.875025 L238.539341,86.01429 C238.56022,86.029515 238.583275,86.03952 238.60807,86.043435" id="Fill-72" fill="#FFFFFF"></path>
                <polygon id="Fill-74" fill="#C41F3E" points="264.002022 213.866314 160.169262 165.823174 184.494462 113.25125 288.326787 161.294825"></polygon>
                <polygon id="Fill-76" fill="#8B1D41" points="195.145046 182.006393 160.169306 165.823088 184.494506 113.251163 219.46981 129.434902"></polygon>
                <path d="M261.477848,183.63512 C257.657243,191.943185 247.824938,195.580655 239.516873,191.76005 C231.208808,187.939445 227.571338,178.10714 231.391943,169.79864 C235.212548,161.491009 245.044853,157.853105 253.352918,161.674144 C261.660983,165.49475 265.298453,175.326619 261.477848,183.63512" id="Fill-78" fill="#8B1D41"></path>
                <path d="M262.207255,158.282319 C261.838376,158.110059 261.400765,158.269704 261.228505,158.638149 C261.156731,158.791704 261.145855,158.957004 261.180221,159.110124 L258.439721,159.326319 L257.503166,155.560089 C257.74807,155.531379 257.973401,155.382174 258.085195,155.142054 C258.257021,154.773609 258.09781,154.335564 257.729366,154.163304 C257.360485,153.991479 256.92244,154.150689 256.75018,154.519134 C256.636211,154.764039 256.670141,155.037654 256.81282,155.246019 L253.539881,156.938169 L252.06262,154.675734 C252.133091,154.611789 252.192685,154.533054 252.235316,154.441269 C252.407575,154.072389 252.24793,153.633909 251.87992,153.462084 C251.51104,153.289824 251.072561,153.449469 250.900735,153.817914 C250.728475,154.186794 250.888121,154.624839 251.256565,154.796664 C251.37184,154.850604 251.493205,154.868439 251.612395,154.861479 L251.54932,158.247519 C253.92616,159.356769 256.302566,160.466019 258.67897,161.574834 C259.547231,160.834899 260.415055,160.094529 261.28288,159.354594 C261.355525,159.464214 261.45601,159.557739 261.583901,159.616899 C261.95278,159.789159 262.39126,159.629949 262.563085,159.261504 C262.735345,158.892624 262.576135,158.454579 262.207255,158.282319" id="Fill-80" fill="#FFFFFF"></path>
                <path d="M246.044265,170.332776 C248.645565,167.497446 250.97412,166.861911 254.06175,168.287841 C254.886945,168.669336 255.58338,169.119996 256.14801,169.574571 L254.820825,171.609936 C254.26794,171.128391 253.71897,170.777781 252.840705,170.371926 C251.11071,169.572831 249.707835,170.023056 247.893015,171.994041 C247.893015,171.994041 245.532705,174.585771 245.50617,174.573591 L250.13718,176.713356 L249.49773,178.936641 L243.881445,176.342301 C243.90798,176.354481 239.44053,181.202121 239.44053,181.202121 L248.54334,185.407266 L247.90563,187.696671 L235.980975,182.188266 L236.82966,180.351261 L241.512435,175.247841 L239.59626,174.363051 L240.555435,172.286796 L243.136725,173.479131 L246.044265,170.332776 Z" id="Fill-82" fill="#FFFFFF"></path>
                <path d="M187.261062,122.594484 C188.524737,121.212489 189.657042,120.901464 191.159967,121.592679 C191.561907,121.777554 191.901207,121.996359 192.176562,122.216904 L191.531892,123.208269 C191.262627,122.974239 190.995537,122.804154 190.567932,122.607534 C189.725772,122.220819 189.043692,122.440494 188.161512,123.400974 C188.161512,123.400974 187.016157,124.663779 187.003107,124.657689 L189.257712,125.695164 L188.948427,126.777009 L186.214017,125.519859 C186.227067,125.525514 184.057722,127.887999 184.057722,127.887999 L188.489937,129.925974 L188.181087,131.040444 L182.375577,128.369979 L182.786652,127.476054 L185.060832,124.989159 L184.127757,124.560249 L184.592337,123.549309 L185.849487,124.126989 L187.261062,122.594484 Z" id="Fill-84" fill="#FFFFFF"></path>
                <path d="M190.25595,131.994573 L190.81623,130.776573 L195.425055,129.017868 C196.426425,128.614623 196.989315,128.277498 197.281635,127.642398 C197.651385,126.838953 197.34993,126.197328 196.48167,125.798433 C195.626025,125.404758 194.65119,125.443038 193.675485,125.685768 L194.14746,124.112808 C195.07923,123.897483 196.17108,123.913143 197.3247,124.443408 C199.086885,125.253813 199.708065,126.701493 199.00554,128.230953 C198.480495,129.371523 197.609625,129.865248 196.0458,130.432923 L192.948165,131.568708 L196.6287,133.261293 L196.20501,134.730288 L190.25595,131.994573 Z" id="Fill-86" fill="#FFFFFF"></path>
                <path d="M204.312322,129.258423 C203.133037,128.715978 201.947227,129.552048 200.993272,131.625693 C200.039752,133.699338 200.176342,135.143538 201.356062,135.685983 C202.534912,136.228428 203.694187,135.379743 204.647707,133.306533 C205.601662,131.232888 205.491607,129.800433 204.312322,129.258423 M200.741842,137.021433 C198.642532,136.055733 197.993512,133.778943 199.334618,130.862703 C200.675722,127.946898 202.825928,126.958143 204.925672,127.923843 C207.012367,128.883018 207.660517,131.159373 206.319847,134.075613 C204.978742,136.990983 202.828537,137.980608 200.741842,137.021433" id="Fill-88" fill="#FFFFFF"></path>
                <polygon id="Fill-90" fill="#C41F3E" points="134.727809 157.972207 16.2642585 192.505987 4.35e-05 136.714192 118.463594 102.179977"></polygon>
                <polygon id="Fill-92" fill="#8B1D41" points="117.289137 163.055878 98.575437 168.511213 82.311222 112.718983 101.024922 107.263648"></polygon>
                <path d="M117.488193,132.730767 C120.594528,143.386092 127.179123,150.838947 132.195978,149.376477 C132.203808,149.373867 132.211638,149.370387 132.219468,149.367777 L120.971673,110.784147 C120.963408,110.786322 120.955143,110.787627 120.947313,110.789802 C115.930458,112.252272 114.381858,122.075442 117.488193,132.730767" id="Fill-94" fill="#8B1D41"></path>
                <path d="M17.239572,161.955198 C14.133237,151.299873 7.548642,143.847453 2.532222,145.309488 C2.523957,145.312098 2.516127,145.315578 2.508297,145.318188 L13.756092,183.902253 C13.764357,183.899643 13.772622,183.898773 13.780887,183.896163 C18.797307,182.434128 20.345907,172.610523 17.239572,161.955198" id="Fill-96" fill="#8B1D41"></path>
                <path d="M80.9995665,143.368736 C83.4320865,151.713776 78.6392565,160.450316 70.2946515,162.882836 C61.9500465,165.315356 53.2130715,160.522961 50.7801165,152.177921 C48.3475965,143.832881 53.1404265,135.095906 61.4850315,132.663821 C69.8300715,130.230866 78.5670465,135.023696 80.9995665,143.368736" id="Fill-98" fill="#8B1D41"></path>
                <path d="M30.387708,180.857731 C28.443258,181.424536 26.780253,181.407137 25.334313,181.100027 L25.018503,178.379101 C26.408328,178.752331 28.015218,178.836722 29.682138,178.350392 C31.487823,177.824041 32.590548,176.522956 32.057238,174.694217 C31.605273,173.143441 30.309843,172.490941 28.457613,173.030777 C27.416223,173.334407 26.728923,173.735477 26.162118,174.202666 L24.042798,174.342737 L22.195788,165.939406 L30.923628,163.394656 L32.046363,165.780631 L25.262538,167.758141 L26.051193,171.496532 C26.582763,171.166367 27.276588,170.787916 28.317978,170.484286 C31.420398,169.579921 33.977328,170.768777 34.841238,173.731997 C35.853483,177.205037 33.860313,179.845486 30.387708,180.857731" id="Fill-100" fill="#FFFFFF"></path>
                <path d="M30.144108,152.424696 C31.281198,152.849256 32.413938,153.294261 33.551463,153.718821 L33.464463,152.592606 C33.469248,152.571726 33.458373,152.524746 33.468378,152.482986 C33.478383,152.441226 33.508833,152.404251 33.534933,152.388156 C34.986963,151.671276 36.412893,150.970056 37.864923,150.253611 L37.158918,149.688111 C37.142823,149.662011 37.022328,149.611551 37.057128,149.464956 C37.071918,149.402316 37.127598,149.260941 37.153263,149.244411 C37.541283,148.540581 37.862748,147.931581 38.250333,147.227751 L36.251508,147.174246 C36.209748,147.164241 36.006603,147.182076 35.958318,147.105081 C35.910468,147.027216 35.856528,146.881491 35.856528,146.881491 C35.831298,146.522181 35.827818,146.255526 35.807808,145.874901 L33.738948,147.329976 C33.630198,147.414801 33.478818,147.401316 33.363108,147.329541 C33.231303,147.232101 33.208248,147.049836 33.284808,146.913246 C33.807678,145.732656 34.351428,144.557721 34.879518,143.356251 L33.657168,143.663361 C33.614973,143.653791 33.516663,143.696856 33.400953,143.625081 C33.264363,143.548521 33.268278,143.438901 33.252618,143.412801 C33.022068,142.518441 32.787168,141.644961 32.557053,140.750166 C31.949793,141.446601 31.347753,142.121286 30.740928,142.817721 C30.710043,142.854696 30.663933,142.954311 30.512553,142.940391 C30.356388,142.947786 30.308103,142.869921 30.266343,142.859916 L29.311953,142.036896 C29.249748,143.326236 29.207988,144.620796 29.140563,145.931016 C29.147958,146.087616 29.045298,146.239866 28.884348,146.268141 C28.743408,146.301201 28.628133,146.229861 28.548093,146.100231 L27.289203,143.856501 C27.105198,144.166656 26.982963,144.403296 26.793738,144.733896 C26.793738,144.733896 26.680638,144.839601 26.602773,144.887451 C26.525343,144.935301 26.351778,144.827856 26.310018,144.818286 L24.499113,143.969166 C24.529998,144.772176 24.543483,145.460781 24.574368,146.263791 C24.590463,146.289456 24.576543,146.441271 24.561753,146.503911 C24.526953,146.650506 24.396453,146.641371 24.370788,146.657466 L23.485998,146.845821 C24.461703,148.138206 25.421748,149.404926 26.397888,150.696876 C26.413548,150.722976 26.403543,150.764736 26.414853,150.811281 C26.404848,150.853476 26.394843,150.895236 26.369178,150.911331 L25.781058,151.899216 C26.988183,152.030586 28.199658,152.141076 29.406783,152.272011" id="Fill-102" fill="#FFFFFF"></path>
                <path d="M67.6723845,151.986303 C69.3240795,151.379913 69.8995845,150.395508 69.4524045,149.177073 C69.1187595,148.268793 68.5275945,147.806388 66.7745445,147.816828 L67.6306245,152.001528 L67.6723845,151.986303 Z M63.8574345,141.787728 C62.4123645,142.317993 61.9373445,143.195823 62.3092695,144.207633 C62.6350845,145.095468 63.2427795,145.411278 64.8783795,145.396923 L64.1262645,141.688983 C64.0436145,141.718998 63.9405195,141.757278 63.8574345,141.787728 L63.8574345,141.787728 Z M67.7324145,139.193823 L68.1626295,141.449298 C67.3296045,141.286608 66.4230645,141.244413 65.4878145,141.376653 L66.2895195,145.347333 C69.1883595,145.267293 70.7939445,145.872813 71.6200095,148.123503 C72.5978895,150.787443 71.2211145,152.909808 68.2265745,154.008618 C68.1861195,154.024278 68.1652395,154.031673 68.1234795,154.046463 L68.6463495,156.619923 L67.1077545,156.833508 C67.1077545,156.833508 66.6327345,154.453188 66.6118545,154.460583 C65.3951595,154.720713 64.2132645,154.756383 63.2071095,154.632843 L62.7568845,152.385198 C64.0018545,152.583993 65.1576495,152.605308 66.3125745,152.368233 L65.3838495,147.859023 C62.5737495,147.929493 60.9890445,147.504063 60.1777695,145.294698 C59.2681845,142.816503 60.5640495,140.794188 63.4137345,139.748448 C63.4968195,139.717998 63.5581545,139.695378 63.6203595,139.672323 L63.2993295,138.032373 L64.8661995,137.832708 L65.1598245,139.271253 C66.0876795,139.117698 66.9711645,139.098558 67.7324145,139.193823 L67.7324145,139.193823 Z" id="Fill-104" fill="#FFFFFF"></path>
            </g>
        </g>
    </g>
</svg>