<svg width="450" height="250" viewBox="0 0 450 250" fill="none" xmlns="http://www.w3.org/2000/svg">
<g id="Colour=Pink">
<g id="Group 40569">
<path id="Shadow" fill-rule="evenodd" clip-rule="evenodd" d="M294 203C294 209.075 263.108 214 225 214C186.892 214 156 209.075 156 203C156 196.925 186.892 192 225 192C263.108 192 294 196.925 294 203Z" fill="#EFD4D8"/>
<g id="phone">
<path id="Vector" d="M263.15 192.2C263.15 196 260.05 199.1 256.25 199.1H195.15C191.35 199.1 188.25 196 188.25 192.2V46.1998C188.25 42.3998 191.35 39.2998 195.15 39.2998H256.25C260.05 39.2998 263.15 42.3998 263.15 46.1998V192.2Z" fill="white"/>
<path id="Vector_2" d="M266.9 84.3C267.3 84.3 267.7 83.9 267.7 83.5V63.5C267.7 63.1 267.3 62.7 266.9 62.7H266.5V46.2C266.5 40.6 261.9 36 256.3 36H195.2C189.6 36 185 40.6 185 46.2V192.2C185 197.8 189.6 202.4 195.2 202.4H256.3C261.9 202.4 266.5 197.8 266.5 192.2V101.1H266.9C267.3 101.1 267.7 100.7 267.7 100.3V91.1C267.7 90.7 267.3 90.3 266.9 90.3H266.5V84.3H266.9ZM263.2 192.2C263.2 196 260.1 199.1 256.3 199.1H195.2C191.4 199.1 188.3 196 188.3 192.2V46.2C188.3 42.4 191.4 39.3 195.2 39.3H256.3C260.1 39.3 263.2 42.4 263.2 46.2V192.2Z" fill="#8B1D41"/>
</g>
<g id="content">
<g id="thumbprint">
<path id="Fill 1" fill-rule="evenodd" clip-rule="evenodd" d="M221.954 133.8C221.545 133.8 221.157 133.562 220.985 133.165C220.757 132.633 221.002 132.018 221.534 131.789C221.742 131.698 226.633 129.484 227.604 122.603C227.685 122.03 228.217 121.63 228.793 121.711C229.369 121.791 229.77 122.322 229.69 122.896C228.548 130.988 222.62 133.607 222.368 133.715C222.233 133.773 222.092 133.8 221.954 133.8Z" fill="#8B1D41"/>
<path id="Fill 3" fill-rule="evenodd" clip-rule="evenodd" d="M228.563 132.7C228.186 132.7 227.82 132.505 227.628 132.163C227.35 131.667 227.54 131.049 228.052 130.779C228.152 130.725 230.171 129.603 230.91 126.865C231.058 126.318 231.638 125.991 232.205 126.133C232.772 126.275 233.113 126.834 232.966 127.381C231.982 131.022 229.186 132.515 229.067 132.576C228.907 132.66 228.734 132.7 228.563 132.7Z" fill="#8B1D41"/>
<path id="Fill 5" fill-rule="evenodd" clip-rule="evenodd" d="M215.31 131.6C214.93 131.6 214.565 131.375 214.394 130.993C214.159 130.468 214.378 129.844 214.884 129.6L215.241 129.428C217.927 128.141 221.606 126.377 223.321 120.256C223.477 119.7 224.037 119.38 224.573 119.542C225.108 119.704 225.415 120.286 225.259 120.843C223.287 127.882 218.954 129.959 216.086 131.333L215.735 131.502C215.597 131.569 215.452 131.6 215.31 131.6Z" fill="#8B1D41"/>
<path id="Fill 7" fill-rule="evenodd" clip-rule="evenodd" d="M235.665 128.3C235.581 128.3 235.496 128.29 235.411 128.27C234.826 128.132 234.466 127.551 234.606 126.973C235.385 123.75 235.993 116.497 232.712 112.114C231.04 109.882 228.52 108.65 225.223 108.451C224.622 108.415 224.166 107.905 224.202 107.311C224.239 106.718 224.756 106.266 225.355 106.302C229.325 106.541 232.388 108.065 234.46 110.833C236.164 113.109 237.138 116.139 237.355 119.84C237.575 123.586 236.926 126.63 236.722 127.474C236.603 127.968 236.157 128.3 235.665 128.3Z" fill="#8B1D41"/>
<path id="Fill 9" fill-rule="evenodd" clip-rule="evenodd" d="M212.028 127.2C211.46 127.2 211 126.741 211 126.176C211 125.611 211.46 125.153 212.028 125.153C213.969 125.153 217.248 123.494 219.037 121.024C219.37 120.566 220.012 120.463 220.473 120.793C220.934 121.124 221.038 121.763 220.706 122.222C218.448 125.337 214.521 127.2 212.028 127.2Z" fill="#8B1D41"/>
<path id="Fill 11" fill-rule="evenodd" clip-rule="evenodd" d="M232.824 126.1C232.792 126.1 232.759 126.099 232.726 126.096C232.07 126.048 231.582 125.525 231.635 124.928C231.945 121.463 231.443 116.733 229.009 114.803C228.513 114.409 228.461 113.724 228.894 113.272C229.326 112.821 230.079 112.774 230.575 113.167C234.477 116.262 234.192 123.086 234.011 125.103C233.961 125.671 233.439 126.1 232.824 126.1Z" fill="#8B1D41"/>
<path id="Fill 13" fill-rule="evenodd" clip-rule="evenodd" d="M212.101 122.8C211.493 122.8 211 122.29 211 121.66C211 121.031 211.493 120.521 212.101 120.521C215.613 120.521 217.842 117.551 218.757 114.772C218.953 114.176 219.579 113.858 220.154 114.061C220.73 114.265 221.037 114.912 220.841 115.508C220.228 117.37 219.189 119.086 217.917 120.34C216.283 121.949 214.272 122.8 212.101 122.8Z" fill="#8B1D41"/>
<path id="Fill 15" fill-rule="evenodd" clip-rule="evenodd" d="M228.638 119.5C228.2 119.5 227.789 119.192 227.637 118.7C227.421 118.005 226.757 116.387 225.265 116.387C224.147 116.387 223.655 117.088 222.911 118.763C222.649 119.352 222.011 119.591 221.487 119.297C220.963 119.002 220.75 118.285 221.012 117.695C221.666 116.224 222.655 114 225.265 114C227.244 114 228.879 115.462 229.64 117.912C229.834 118.534 229.542 119.215 228.988 119.433C228.873 119.478 228.755 119.5 228.638 119.5Z" fill="#8B1D41"/>
<path id="Fill 17" fill-rule="evenodd" clip-rule="evenodd" d="M212.163 118.4C211.62 118.4 211.134 118.068 211.023 117.589C210.897 117.043 211.305 116.511 211.935 116.402C212.556 116.294 212.995 116.045 213.172 115.7C213.433 115.19 214.12 114.96 214.708 115.187C215.295 115.413 215.56 116.008 215.3 116.517C214.808 117.478 213.776 118.139 212.393 118.38C212.316 118.393 212.239 118.4 212.163 118.4Z" fill="#8B1D41"/>
<path id="Fill 19" fill-rule="evenodd" clip-rule="evenodd" d="M238.667 118.4C238.198 118.4 237.794 117.988 237.742 117.431C237.353 113.224 235.491 108.819 233.41 107.184C232.984 106.849 232.872 106.175 233.16 105.678C233.447 105.182 234.026 105.051 234.453 105.386C237.024 107.406 239.139 112.264 239.595 117.2C239.649 117.795 239.279 118.33 238.768 118.394C238.734 118.398 238.701 118.4 238.667 118.4Z" fill="#8B1D41"/>
<path id="Fill 22" fill-rule="evenodd" clip-rule="evenodd" d="M216.388 112.9C216.2 112.9 216.009 112.846 215.841 112.735C215.386 112.433 215.263 111.822 215.566 111.369C216.712 109.656 218.723 107.395 221.791 106.353C222.308 106.177 222.87 106.452 223.047 106.967C223.223 107.481 222.947 108.041 222.43 108.216C219.887 109.08 218.189 111.002 217.212 112.461C217.021 112.746 216.708 112.9 216.388 112.9Z" fill="#8B1D41"/>
<path id="Fill 24" fill-rule="evenodd" clip-rule="evenodd" d="M220.824 114C220.523 114 220.226 113.872 220.024 113.625C219.671 113.194 219.743 112.565 220.184 112.221C221.223 111.41 222.76 110.509 225.464 110.736C226.027 110.783 226.444 111.267 226.396 111.817C226.348 112.366 225.854 112.775 225.289 112.726C223.324 112.562 222.289 113.136 221.462 113.781C221.274 113.929 221.048 114 220.824 114Z" fill="#8B1D41"/>
<path id="Fill 26" fill-rule="evenodd" clip-rule="evenodd" d="M211.984 111.8C211.813 111.8 211.64 111.758 211.483 111.671C211.015 111.411 210.86 110.845 211.138 110.406C212.484 108.277 214.189 106.53 216.069 105.355C216.522 105.073 217.133 105.187 217.435 105.611C217.736 106.035 217.614 106.608 217.161 106.891C215.526 107.914 214.029 109.455 212.832 111.348C212.648 111.638 212.32 111.8 211.984 111.8Z" fill="#8B1D41"/>
<path id="Fill 28" fill-rule="evenodd" clip-rule="evenodd" d="M230.85 106.3C230.707 106.3 230.562 106.271 230.423 106.209C227.557 104.939 223.932 104.718 221.188 105.648C220.639 105.834 220.043 105.543 219.856 104.998C219.669 104.453 219.962 103.86 220.51 103.675C223.728 102.584 227.954 102.831 231.278 104.305C231.807 104.539 232.045 105.156 231.809 105.682C231.634 106.07 231.251 106.3 230.85 106.3Z" fill="#8B1D41"/>
</g>
<g id="card">
<path id="Fill 1_2" fill-rule="evenodd" clip-rule="evenodd" d="M254.903 89.4C256.061 89.4 257 88.4575 257 87.2953V50.1043C257 48.942 256.062 48 254.904 48H196.097C194.939 48 194 48.9425 194 50.1052V85.701C194 87.7435 195.65 89.4 197.684 89.4H254.903Z" fill="#C41F3E"/>
<path id="Path" d="M200.489 73.4422C199.781 73.4216 199.118 73.7972 198.76 74.4232C198.401 75.0493 198.402 75.8272 198.762 76.455C199.122 77.0828 199.786 77.4618 200.494 77.4447L207.311 77.4575C208.02 77.4781 208.682 77.1025 209.041 76.4765C209.4 75.8505 209.399 75.0726 209.038 74.4447C208.678 73.8169 208.015 73.438 207.307 73.455L200.489 73.4422Z" fill="white"/>
<path id="Path_2" d="M200.401 81.119C199.717 81.0986 199.077 81.4636 198.731 82.0723C198.385 82.681 198.386 83.4376 198.734 84.0484C199.083 84.6592 199.723 85.0281 200.407 85.0119L220.899 85.0806C221.584 85.101 222.223 84.736 222.569 84.1273C222.915 83.5186 222.914 82.762 222.566 82.1512C222.217 81.5403 221.577 81.1715 220.893 81.1877L200.401 81.119Z" fill="white"/>
<path id="Path_3" d="M213.991 73.4424C213.282 73.4206 212.618 73.7966 212.259 74.4241C211.9 75.0517 211.902 75.8315 212.264 76.4602C212.626 77.0889 213.291 77.4672 214 77.4477L220.813 77.4574C221.521 77.4781 222.182 77.1023 222.541 76.4758C222.9 75.8493 222.899 75.0709 222.538 74.4425C222.178 73.8142 221.515 73.4349 220.807 73.4519L213.991 73.4424Z" fill="white"/>
<path id="Path_4" d="M227.508 73.4409C226.794 73.4206 226.125 73.7972 225.763 74.4244C225.4 75.0517 225.401 75.8309 225.764 76.4595C226.128 77.0882 226.796 77.4674 227.511 77.45L234.394 77.459C235.46 77.433 236.31 76.5455 236.309 75.4583C236.308 74.3711 235.458 73.4802 234.391 73.4499L227.508 73.4409Z" fill="white"/>
<path id="Path_5" d="M241.889 73.4422C241.181 73.4216 240.518 73.7972 240.159 74.4232C239.801 75.0493 239.802 75.8272 240.162 76.455C240.522 77.0828 241.185 77.4618 241.894 77.4447L248.711 77.4575C249.42 77.4781 250.082 77.1025 250.441 76.4765C250.8 75.8505 250.799 75.0726 250.438 74.4447C250.078 73.8169 249.415 73.438 248.706 73.455L241.889 73.4422Z" fill="white"/>
<path id="Path_6" d="M200.513 57.232C200.012 57.2308 199.531 57.4318 199.177 57.7905C198.823 58.1493 198.625 58.6363 198.626 59.144L198.626 62.975C198.625 63.483 198.824 63.9709 199.179 64.3304C199.534 64.69 200.016 64.8914 200.517 64.89L207.284 64.8685C208.327 64.871 209.173 64.0168 209.175 62.96L209.174 59.1252C209.172 58.0686 208.326 57.2115 207.283 57.2102L200.513 57.232Z" fill="#D9D9D6"/>
</g>
<path id="Path_7" d="M260 149.927C260.002 148.488 259.38 147.108 258.273 146.091C257.166 145.074 255.663 144.503 254.097 144.505L196.919 144.528C194.234 144.518 191.88 146.176 191.195 148.562C190.511 150.947 191.669 153.455 194.011 154.661L257.052 154.649C258.889 153.678 260.016 151.874 260 149.927Z" fill="#D9D9D6"/>
<path id="Path Copy 7" d="M260 165.483C260.002 164.045 259.38 162.665 258.273 161.648C257.166 160.631 255.663 160.06 254.097 160.062L196.919 160.085C194.234 160.074 191.88 161.733 191.195 164.118C190.511 166.504 191.669 169.012 194.011 170.218L257.052 170.206C258.889 169.235 260.016 167.43 260 165.483Z" fill="#D9D9D6"/>
</g>
</g>
</g>
</svg>
