<?xml version="1.0" encoding="UTF-8"?>
<svg width="80px" height="80px" viewBox="0 0 80 80" version="1.1" xmlns="http://www.w3.org/2000/svg" xmlns:xlink="http://www.w3.org/1999/xlink">
    <title>Icons/Illustrative/currency/transaction-80x80</title>
    <g id="Icons/Illustrative/currency/transaction-80x80" stroke="none" stroke-width="1" fill="none" fill-rule="evenodd">
        <g id="Group-2">
            <g id="Group">
                <g fill="#F2F3F2" id="Icons/Illustrative/Oval">
                    <circle id="Oval" cx="40" cy="40" r="40"></circle>
                </g>
                <path d="M17.8192812,39.6300625 L23.3302187,40.9238125 C23.6617812,48.2569375 28.7980312,54.780375 36.2999062,56.541 C45.3524062,58.666 54.4136562,53.0519375 56.5392812,44.002875 C58.6649062,34.9538125 53.0489687,25.8956875 43.9967812,23.771 C38.0945937,22.385375 32.2002187,24.301625 28.2164687,28.302875 L29.7580312,30.960375 L19.7952187,30.9313125 L23.7705312,21.1381875 L25.2477187,23.5138125 C30.4980312,18.820375 37.8777187,16.676625 45.2561562,18.4088125 C57.2708437,21.2281875 64.7245937,33.251 61.9033437,45.2619375 C59.0824062,57.2725625 47.0552187,64.7235 35.0402187,61.9035 C24.5580312,59.4435 17.5636562,49.9806875 17.8192812,39.6300625" id="Fill-4" fill="#8B1D41"></path>
                <path d="M43.6838437,25.1018438 C47.7069687,26.0462188 51.1216562,28.4996563 53.2985312,32.0102813 C55.4757187,35.5212188 56.1541562,39.6690313 55.2094687,43.6899688 C54.2650937,47.7115313 51.8104062,51.1240313 48.2972812,53.2999688 C44.7844687,55.4755938 40.6341562,56.1537188 36.6110312,55.2099688 C29.9044687,53.6359063 25.0035312,47.7359063 24.6929062,40.8621563 C24.6929062,40.8621563 24.4894687,36.2909063 26.6122812,32.3268438 L32.1550937,32.3430938 L29.9510312,28.5446563 C33.7150937,25.2349688 38.7722812,23.9490313 43.6838437,25.1018438" id="Fill-6" fill="#C41F3E"></path>
            </g>
            <path d="M40.015625,44.439 C41.521875,44.439 42.278125,43.814 42.278125,42.710875 C42.278125,41.879625 41.9375,41.33275 40.5253125,40.835875 L39.975,44.4515 L40.015625,44.439 Z M39.959375,35.114 C38.61875,35.114 38.0003125,35.679625 38.0003125,36.604625 C38.0003125,37.414 38.3940625,37.854625 39.7125,38.317125 L40.21875,35.117125 L39.959375,35.114 Z M43.840625,34.1765 L43.528125,36.117125 C42.8725,35.717125 42.1540625,35.429625 41.403125,35.267125 L40.875,38.704625 C43.23125,39.49525 44.3375,40.45775 44.3375,42.50775 C44.3375,44.939 42.6096875,46.239 39.86875,46.239 L39.775,46.239 L39.4346875,48.473375 L38.134375,48.192125 L38.446875,46.142125 C37.4753125,46.0074375 36.5325,45.714 35.6565625,45.273375 L35.9690625,43.329625 C36.850625,43.852125 37.8225,44.2043125 38.8346875,44.367125 L39.4190625,40.47025 C37.1409375,39.698375 35.9815625,38.889 35.9815625,36.87025 C35.9815625,34.60775 37.6221875,33.367125 40.221875,33.367125 L40.4096875,33.367125 L40.6375,31.954625 L41.95625,32.267125 L41.76875,33.517125 C42.4875,33.6361875 43.185625,33.858375 43.840625,34.1765 L43.840625,34.1765 Z" id="Fill-8" fill="#FFFFFF"></path>
        </g>
    </g>
</svg>