<?xml version="1.0" encoding="UTF-8"?>
<svg width="256px" height="256px" viewBox="0 0 256 256" version="1.1" xmlns="http://www.w3.org/2000/svg" xmlns:xlink="http://www.w3.org/1999/xlink">
    <!-- Generator: Sketch 59.1 (86144) - https://sketch.com -->
    <title>Icons/Illustrative/currency/transaction-256x256</title>
    <desc>Created with Sketch.</desc>
    <g id="Icons/Illustrative/currency/transaction-256x256" stroke="none" stroke-width="1" fill="none" fill-rule="evenodd">
        <g id="Icons/Illustrative/Oval" fill="#F2F3F2">
            <circle id="Oval" cx="128" cy="128" r="128"></circle>
        </g>
        <path d="M57.0217,126.8162 L74.6567,130.9562 C75.7177,154.4222 92.1537,175.2972 116.1597,180.9312 C145.1277,187.7312 174.1237,169.7662 180.9257,140.8092 C187.7277,111.8522 169.7567,82.8662 140.7897,76.0672 C121.9027,71.6332 103.0407,77.7652 90.2927,90.5692 L95.2257,99.0732 L63.3447,98.9802 L76.0657,67.6422 L80.7927,75.2442 C97.5937,60.2252 121.2087,53.3652 144.8197,58.9082 C183.2667,67.9302 207.1187,106.4032 198.0907,144.8382 C189.0637,183.2722 150.5767,207.1152 112.1287,198.0912 C78.5857,190.2192 56.2037,159.9382 57.0217,126.8162" id="Fill-4" fill="#8B1D41"></path>
        <path d="M139.7883,80.3259 C152.6623,83.3479 163.5893,91.1989 170.5553,102.4329 C177.5223,113.6679 179.6933,126.9409 176.6703,139.8079 C173.6483,152.6769 165.7933,163.5969 154.5513,170.5599 C143.3103,177.5219 130.0293,179.6919 117.1553,176.6719 C95.6943,171.6349 80.0113,152.7549 79.0173,130.7589 C79.0173,130.7589 78.3663,116.1309 85.1593,103.4459 L102.8963,103.4979 L95.8433,91.3429 C107.8883,80.7519 124.0713,76.6369 139.7883,80.3259" id="Fill-6" fill="#C41F3E"></path>
        <path d="M128.05,142.2048 C132.87,142.2048 135.29,140.2048 135.29,136.6748 C135.29,134.0148 134.2,132.2648 129.681,130.6748 L127.92,142.2448 L128.05,142.2048 Z M127.87,112.3648 C123.58,112.3648 121.601,114.1748 121.601,117.1348 C121.601,119.7248 122.861,121.1348 127.08,122.6148 L128.7,112.3748 L127.87,112.3648 Z M140.29,109.3648 L139.29,115.5748 C137.192,114.2948 134.893,113.3748 132.49,112.8548 L130.8,123.8548 C138.34,126.3848 141.88,129.4648 141.88,136.0248 C141.88,143.8048 136.351,147.9648 127.58,147.9648 L127.28,147.9648 L126.191,155.1148 L122.03,154.2148 L123.03,147.6548 C119.921,147.2238 116.904,146.2848 114.101,144.8748 L115.101,138.6548 C117.922,140.3268 121.032,141.4538 124.271,141.9748 L126.141,129.5048 C118.851,127.0348 115.141,124.4448 115.141,117.9848 C115.141,110.7448 120.391,106.7748 128.71,106.7748 L129.311,106.7748 L130.04,102.2548 L134.26,103.2548 L133.66,107.2548 C135.96,107.6358 138.194,108.3468 140.29,109.3648 L140.29,109.3648 Z" id="Fill-8" fill="#FFFFFF"></path>
    </g>
</svg>