<?xml version="1.0" encoding="UTF-8"?>
<svg width="256px" height="256px" viewBox="0 0 256 256" version="1.1" xmlns="http://www.w3.org/2000/svg" xmlns:xlink="http://www.w3.org/1999/xlink">
    <!-- Generator: Sketch 60.1 (88133) - https://sketch.com -->
    <title>Group 2</title>
    <desc>Created with Sketch.</desc>
    <g id="Page-1" stroke="none" stroke-width="1" fill="none" fill-rule="evenodd">
        <g id="Group-2">
            <g id="Icons/Illustrative/Oval" fill="#F2F3F2">
                <circle id="Oval" cx="128" cy="128" r="128"></circle>
            </g>
            <g id="foreign-currency-services" transform="translate(51.200000, 84.114286)" fill-rule="nonzero">
                <path d="M151.121066,18.6773414 L140.948098,18.6773414 L140.948098,66.8197989 C140.948098,69.718007 138.525962,71.9721689 135.780875,71.9721689 L18.2265691,71.9721689 L18.2265691,82.1158974 C18.2265691,85.0141055 20.6487045,87.2682674 23.3937914,87.2682674 L151.121066,87.2682674 C154.027629,87.2682674 156.288289,84.853094 156.288289,82.1158974 L156.288289,23.8297114 C156.449764,20.9315033 154.027629,18.6773414 151.121066,18.6773414 Z" id="Path" fill="#8B1D41"></path>
                <path d="M5.30851349,0.483034691 L133.035789,0.483034691 C135.942351,0.483034691 138.203011,2.89820814 138.203011,5.63540472 L138.203011,63.9215907 C138.203011,66.8197989 135.780875,69.0739608 133.035789,69.0739608 L5.30851349,69.0739608 C2.40195097,69.0739608 0.141291233,66.6587873 0.141291233,63.9215907 L0.141291233,5.63540472 C-0.0201844619,2.73719658 2.40195097,0.483034691 5.30851349,0.483034691 Z" id="Path" fill="#C41F3E"></path>
                <ellipse id="Oval" fill="#FFFFFF" cx="69.0914132" cy="34.7784977" rx="34.0713717" ry="25.7618502"></ellipse>
                <path d="M77.1724868,22.4719379 L76.5222854,26.483356 C75.1777383,25.6464091 73.7039243,25.0471298 72.1631892,24.7108689 L71.0276264,31.8661195 C75.8537686,33.5173311 78.1340521,35.5230402 78.1340521,39.8143248 C78.1340521,44.8892352 74.5808392,47.6039391 68.976287,47.6039391 L68.7839739,47.6039391 L68.0879838,52.2683788 L65.4230741,51.6806594 C65.4230741,51.6806594 66.0824332,47.3893749 66.0366444,47.3893749 C64.0491976,47.1140534 62.1208821,46.5023629 60.3313567,45.5795723 L60.9540847,41.5028519 C62.7642692,42.5841906 64.7539614,43.3177847 66.8242122,43.667152 L68.0147216,35.5230402 C63.3442614,33.918473 60.9907158,32.2206169 60.9907158,28.0132923 C60.9907158,23.2928793 64.3516156,20.6994508 69.6814349,20.6994508 L70.1118499,20.6994508 L70.5788959,17.7515249 L73.3262254,18.3765598 L72.9415993,20.9699883 C74.4132533,21.2690627 75.8371019,21.7745238 77.1724868,22.4719379 Z M69.6700481,24.6548957 C66.6608027,24.6548957 65.2765499,25.8776685 65.2765499,27.8610637 C65.2765499,29.6133837 66.1592618,30.5376844 69.1183531,31.5582665 L70.221743,24.6548957 L69.6700481,24.6548957 Z M69.3191253,44.3788122 C72.555106,44.3788122 74.1778976,43.0232501 74.1778976,40.5949409 C74.1778976,38.7907755 73.4481215,37.6010016 70.4041871,36.4892456 L69.2327044,44.3788122 L69.3191253,44.3788122 Z" id="Shape" fill="#8B1D41"></path>
            </g>
        </g>
    </g>
</svg>