<svg width="450" height="250" viewBox="0 0 450 250" fill="none" xmlns="http://www.w3.org/2000/svg">
<g id="Colour=Blue">
<g id="illustration">
<g id="shadow">
<path id="Fill 4" fill-rule="evenodd" clip-rule="evenodd" d="M349.698 79.8009C351.591 72.0389 350.253 64.2469 346.548 57.8359L347.424 57.3029C348.405 56.7059 348.717 55.4279 348.12 54.4469L347.721 53.7919C347.126 52.8119 345.847 52.4999 344.867 53.0959L343.734 53.7839C341.927 51.5899 339.803 49.6409 337.404 48.0239C339.276 46.2949 325.39 41.0119 325.671 43.3569C310.402 40.7799 295.512 50.4009 291.787 65.6819C287.887 81.6729 297.69 97.7979 313.682 101.697C329.674 105.596 345.799 95.7929 349.698 79.8009Z" fill="#CCDDF2"/>
<path id="Fill 6" fill-rule="evenodd" clip-rule="evenodd" d="M319.086 192.522L280.941 181.131C278.184 180.308 276.613 177.417 277.451 174.705L288.879 137.699C289.716 134.988 292.657 133.444 295.414 134.267L333.558 145.658C336.315 146.481 337.887 149.373 337.05 152.084L325.621 189.09C324.784 191.801 321.843 193.345 319.086 192.522Z" fill="#CCDDF2"/>
<path id="Vector" d="M107.202 101.409L132.914 203.88C133.536 206.357 135.981 207.879 138.375 207.278L283.022 170.983C285.416 170.382 286.853 167.887 286.231 165.409L260.519 62.9377C259.897 60.4598 257.453 58.938 255.058 59.5388L110.411 95.8341C108.017 96.4349 106.58 98.9306 107.202 101.409Z" fill="#CCDDF2"/>
</g>
<g id="letter">
<path id="Fill 14" fill-rule="evenodd" clip-rule="evenodd" d="M317 189.683L278.854 178.291C276.097 177.468 274.527 174.577 275.365 171.866L286.794 134.86C287.63 132.149 290.571 130.604 293.328 131.427L331.473 142.819C334.23 143.642 335.801 146.534 334.964 149.245L323.535 186.25C322.698 188.961 319.758 190.506 317 189.683Z" fill="white"/>
<path id="Fill 16" fill-rule="evenodd" clip-rule="evenodd" d="M324.321 151.823L291.818 142.117C290.7 141.783 290.064 140.611 290.402 139.512C290.742 138.414 291.934 137.788 293.052 138.121L325.555 147.828C326.672 148.161 327.309 149.333 326.969 150.431C326.631 151.531 325.439 152.156 324.321 151.823Z" fill="#C41F3E"/>
<path id="Fill 18" fill-rule="evenodd" clip-rule="evenodd" d="M322.022 159.268L289.519 149.562C288.401 149.228 287.764 148.056 288.104 146.957C288.444 145.859 289.636 145.233 290.753 145.567L323.257 155.273C324.374 155.607 325.01 156.779 324.67 157.877C324.331 158.976 323.14 159.602 322.022 159.268Z" fill="#C41F3E"/>
<path id="Fill 20" fill-rule="evenodd" clip-rule="evenodd" d="M311.045 164.321L287.164 157.189C286.045 156.856 285.41 155.684 285.748 154.585C286.088 153.486 287.28 152.86 288.396 153.194L312.278 160.326C313.396 160.66 314.032 161.832 313.693 162.93C313.354 164.029 312.162 164.655 311.045 164.321Z" fill="#C41F3E"/>
</g>
<g id="device">
<path id="Vector_2" d="M127.002 200.888L102.291 102.181C101.421 98.7129 103.55 95.1579 107.02 94.2943L249.07 58.7366C252.538 57.8663 256.093 59.9952 256.957 63.4651L281.667 162.172C282.538 165.64 280.407 169.189 276.939 170.059L134.889 205.617C131.42 206.487 127.872 204.357 127.002 200.888Z" fill="#8B1D41"/>
<path id="Vector_3" d="M107.76 103.522L131.264 197.192C131.832 199.457 134.129 200.832 136.394 200.264L273.245 165.925C275.51 165.356 276.886 163.059 276.318 160.794L252.814 67.1247C252.245 64.8596 249.948 63.4842 247.683 64.0525L110.832 98.3916C108.567 98.96 107.192 101.257 107.76 103.522Z" fill="white"/>
<path id="Vector_4" d="M104.377 103.075L102.363 103.58C102.208 103.619 102.113 103.779 102.152 103.934L103.924 110.998C103.963 111.153 104.123 111.249 104.278 111.21L106.285 110.707L104.369 103.07L104.377 103.075Z" fill="#8B1D41"/>
<path id="Vector_5" d="M119.316 92.948L118.813 90.9411C118.774 90.7862 118.634 90.6853 118.499 90.7191L112.546 92.2129C112.411 92.2467 112.335 92.4017 112.374 92.5566L112.878 94.5635L119.316 92.948Z" fill="#8B1D41"/>
<path id="Vector_6" d="M126.933 91.0369L126.43 89.03C126.391 88.8751 126.251 88.7742 126.116 88.808L120.163 90.3018C120.028 90.3356 119.953 90.4906 119.992 90.6455L120.495 92.6523L126.933 91.0369Z" fill="#8B1D41"/>
</g>
<g id="cup">
<path id="Fill 8" fill-rule="evenodd" clip-rule="evenodd" d="M347.418 77.8711C351.317 61.8791 341.515 45.7551 325.523 41.8551C309.531 37.9561 293.407 47.7601 289.508 63.7511C285.608 79.7421 295.411 95.8671 311.403 99.7671C327.395 103.665 343.52 93.8621 347.418 77.8711Z" fill="#C41F3E"/>
<path id="Fill 10" fill-rule="evenodd" clip-rule="evenodd" d="M339.515 75.9442C340.88 70.3452 339.93 64.7272 337.286 60.0872L345.12 55.3242C346.101 54.7272 346.412 53.4492 345.817 52.4682L345.418 51.8132C344.822 50.8332 343.543 50.5212 342.563 51.1172L334.37 56.0982C331.578 53.0732 327.895 50.8062 323.595 49.7572C311.968 46.9232 300.245 54.0502 297.41 65.6772C294.575 77.3042 301.703 89.0282 313.329 91.8632C324.956 94.6982 336.68 87.5712 339.515 75.9442Z" fill="white"/>
<path id="Fill 12" fill-rule="evenodd" clip-rule="evenodd" d="M335.515 75.0457C337.806 65.6497 332.046 56.1737 322.649 53.8827C313.251 51.5907 303.776 57.3517 301.485 66.7487C299.194 76.1467 304.954 85.6217 314.351 87.9127C323.748 90.2037 333.224 84.4427 335.515 75.0457Z" fill="#8B1D41"/>
</g>
<g id="screen">
<path id="Fill 28" fill-rule="evenodd" clip-rule="evenodd" d="M251.112 133.516L140.488 161.594C137.837 162.255 135.152 160.642 134.492 157.991L123.035 112.056C122.375 109.406 123.987 106.721 126.639 106.06L237.261 77.9807C239.912 77.3194 242.597 78.9328 243.259 81.5833L254.714 127.518C255.376 130.169 253.762 132.855 251.112 133.516Z" fill="#D9D9D6"/>
<path id="Fill 36" fill-rule="evenodd" clip-rule="evenodd" d="M206.84 115.132C209.234 124.669 203.442 134.339 193.906 136.732C184.369 139.125 174.699 133.333 172.306 123.797C169.913 114.26 175.704 104.59 185.241 102.198C194.777 99.8041 204.447 105.595 206.84 115.132Z" fill="#C41F3E"/>
<path id="Fill 38" fill-rule="evenodd" clip-rule="evenodd" d="M199.611 120.116L198.136 114.235C197.986 113.639 197.226 113.456 196.823 113.922L194.728 116.331L195.619 119.878L198.602 121.013C199.178 121.232 199.761 120.714 199.611 120.116ZM193.723 115.677L195.041 120.929C195.167 121.429 195.089 121.951 194.821 122.397C194.554 122.844 194.132 123.159 193.631 123.284L183.39 125.854C182.353 126.116 181.296 125.482 181.036 124.444L179.717 119.19C179.457 118.152 180.09 117.096 181.128 116.835L191.369 114.267C191.52 114.228 191.671 114.209 191.823 114.208C192.175 114.205 192.525 114.299 192.836 114.486C193.283 114.753 193.598 115.176 193.723 115.677Z" fill="white"/>
<rect id="Rectangle 16" x="136.617" y="167.966" width="39.7748" height="21" rx="2" transform="rotate(-14.21 136.617 167.966)" fill="#8B1D41"/>
<rect id="Rectangle 17" x="177.804" y="157.536" width="39.7748" height="21" rx="2" transform="rotate(-14.21 177.804 157.536)" fill="#C41F3E"/>
<rect id="Rectangle 18" x="218.991" y="147.106" width="39.7748" height="21" rx="2" transform="rotate(-14.21 218.991 147.106)" fill="#8B1D41"/>
</g>
</g>
</g>
</svg>
