<?xml version="1.0" encoding="UTF-8"?>
<svg width="256px" height="256px" viewBox="0 0 256 256" version="1.1" xmlns="http://www.w3.org/2000/svg" xmlns:xlink="http://www.w3.org/1999/xlink">
    <!-- Generator: Sketch 56.3 (81716) - https://sketch.com -->
    <title>Icons/Illustrative/currency/wire-payment-256x256</title>
    <desc>Created with Sketch.</desc>
    <g id="Icons/Illustrative/currency/wire-payment-256x256" stroke="none" stroke-width="1" fill="none" fill-rule="evenodd">
        <g id="Icons/Illustrative/Oval" fill="#F2F3F2">
            <circle id="Oval" cx="128" cy="128" r="128"></circle>
        </g>
        <g id="Group" transform="translate(48.000000, 68.000000)" fill-rule="nonzero">
            <g id="Layer_1">
                <path d="M90.8100001,76.8900001 C91.987923,71.7975032 92.6314052,66.596022 92.7300001,61.3700001 L62,61.3700001 L62,77.7200001 C62.9072845,77.1788656 63.9435972,76.8921524 65,76.8900001 L90.8100001,76.8900001 Z" id="Path" fill="#8B1D41"></path>
                <path d="M87.4200001,32 C79.2059052,34.6759289 70.6378186,36.1084374 62,36.25 L62,58.37 L92.7300001,58.37 C92.5949512,49.3284386 90.7948936,40.3891696 87.4200001,32 L87.4200001,32 Z" id="Path" fill="#8B1D41"></path>
                <path d="M59,117.19 L59,86.4900001 C50.7736395,86.6222504 42.6120436,87.9701605 34.78,90.4900001 C40.13,102.07 48.5,111.52 59,117.19 Z" id="Path" fill="#8B1D41"></path>
                <path d="M34.79,29.28 C42.6195679,31.7958781 50.7772755,33.1437026 59,33.28 L59,2.56000003 C48.5,8.22000003 40.13,17.67 34.79,29.28 Z" id="Path" fill="#8B1D41"></path>
                <path d="M28.28,58.37 L59,58.37 L59,36.25 C50.3653774,36.1092406 41.800469,34.6766998 33.59,32 C30.2151065,40.3891696 28.4150489,49.3284386 28.28,58.37 L28.28,58.37 Z" id="Path" fill="#8B1D41"></path>
                <path d="M62,2.56000003 L62,33.25 C70.2260709,33.1145381 78.3871982,31.7667054 86.2200001,29.25 C80.8800001,17.67 72.5,8.22000003 62,2.56000003 Z" id="Path" fill="#8B1D41"></path>
                <path d="M33.59,87.7100001 C41.800878,85.038787 50.3664632,83.6162459 59,83.4900001 L59,61.3700001 L28.28,61.3700001 C28.4198612,70.4013271 30.2198106,79.3298895 33.59,87.7100001 L33.59,87.7100001 Z" id="Path" fill="#8B1D41"></path>
                <path d="M31.94,91.4400001 C26.2660864,93.4900443 20.8629733,96.2235024 15.85,99.5800001 C26.3788641,111.450911 41.2080218,118.631535 57.05,119.53 C46.14,113.48 37.46,103.56 31.94,91.4400001 Z" id="Path" fill="#8B1D41"></path>
                <path d="M120.23,61.3700001 L95.7300001,61.3700001 C95.6311565,66.5914342 95.0148079,71.7902009 93.8900001,76.8900001 L117.78,76.8900001 C119.280757,71.8480814 120.104639,66.6290398 120.23,61.3700001 L120.23,61.3700001 Z" id="Path" fill="#8B1D41"></path>
                <path d="M95.7300001,58.37 L120.23,58.37 C119.926994,45.2807501 115.311516,32.6576118 107.1,22.46 C101.854679,26.002442 96.1960611,28.8905202 90.2500001,31.06 C93.7312374,39.7516607 95.5886388,49.0081628 95.7300001,58.37 L95.7300001,58.37 Z" id="Path" fill="#8B1D41"></path>
                <path d="M89.0700001,28.3 C94.7407041,26.2467791 100.143053,23.5170651 105.16,20.17 C94.6363187,8.28503157 79.808021,1.08682879 63.96,0.170000027 C74.86,6.26000003 83.5500001,16.18 89.0700001,28.3 Z" id="Path" fill="#8B1D41"></path>
                <path d="M57.05,0.210000027 C41.2019791,1.12682879 26.3736813,8.32503157 15.85,20.21 C20.8675478,23.5455147 26.2701129,26.261907 31.94,28.3 C37.46,16.18 46.14,6.26000003 57.05,0.210000027 Z" id="Path" fill="#8B1D41"></path>
                <path d="M25.28,61.3700001 L0.780000019,61.3700001 C1.08300637,74.45925 5.69848411,87.0823883 13.91,97.2800001 C19.1521285,93.7408136 24.8074482,90.8560633 30.75,88.6900001 C27.2720758,79.9942384 25.418087,70.7344626 25.28,61.3700001 L25.28,61.3700001 Z" id="Path" fill="#8B1D41"></path>
                <path d="M30.75,31.06 C24.807086,28.8905117 19.1517787,26.0024094 13.91,22.46 C5.69848411,32.6576118 1.08300637,45.2807501 0.780000019,58.37 L25.28,58.37 C25.418178,49.0087873 27.2721856,39.7523072 30.75,31.06 Z" id="Path" fill="#8B1D41"></path>
                <path d="M145.62,21.4899991 C139.656067,21.4974274 133.86968,23.5201962 129.2,27.23 L126.09,24.23 L126.35,34.53 L136.65,34.28 L133.6,31.37 C138.046455,28.1285225 143.612925,26.8187365 149.038256,27.7373907 C154.463587,28.6560448 159.288554,31.7253804 162.42,36.25 L167.35,32.82 C162.394042,25.718487 154.27985,21.4877553 145.62,21.4899991 L145.62,21.4899991 Z" id="Path" fill="#7B143D"></path>
                <path d="M165.15,63 L164.89,52.7 L154.58,52.95 L157.64,55.86 C153.194418,59.1039656 147.6281,60.4172125 142.201349,59.5024011 C136.774597,58.5875897 131.946423,55.5220976 128.81,51 L123.89,54.43 C128.052626,60.4231176 134.509332,64.4269316 141.728172,65.4914785 C148.947012,66.5560253 156.284605,64.5864271 162,60.0500001 L165.15,63 Z" id="Path" fill="#7B143D"></path>
                <path d="M85.11,59.8 L119.11,59.8 C120.766854,59.8 122.11,61.1431458 122.11,62.8 L122.11,136.96 C122.11,138.616854 120.766854,139.96 119.11,139.96 L85.11,139.96 C83.4531458,139.96 82.11,138.616854 82.11,136.96 L82.11,62.8 C82.11,61.1431458 83.4531458,59.8 85.11,59.8 Z" id="Rectangle" fill="#C4203F" transform="translate(102.110000, 99.880000) rotate(90.000000) translate(-102.110000, -99.880000) "></path>
                <ellipse id="Oval" fill="#FFFFFF" cx="102.11" cy="99.8900001" rx="19.8" ry="15.02"></ellipse>
                <path d="M107.36,91.6800001 L106.93,94.3300001 C106.032658,93.7813951 105.048671,93.3891529 104.02,93.1700001 L103.3,97.8500001 C106.51,98.9300001 108.03,100.24 108.03,103.04 C108.03,106.36 105.67,108.13 101.94,108.13 L101.81,108.13 L101.35,111.13 L99.5700001,110.75 C99.5700001,110.75 100.01,107.95 99.9800001,107.95 C98.6571069,107.762361 97.3736249,107.360429 96.1800001,106.76 L96.5900001,104.12 C97.7971571,104.822979 99.1220132,105.300741 100.5,105.53 L101.3,100.21 C98.1900001,99.1600001 96.6200001,98.0500001 96.6200001,95.3000001 C96.6200001,92.2100001 98.8500001,90.5200001 102.4,90.5200001 L102.66,90.5200001 L102.97,88.5900001 L104.77,89.0000001 L104.51,90.7000001 C105.502653,90.8861402 106.462791,91.2162927 107.36,91.6800001 Z M102.07,93.0000001 C100.27,93.0000001 99.3900001,93.7700001 99.3900001,95.0000001 C99.3900001,96.1100001 99.9300001,96.7000001 101.73,97.3400001 L102.4,92.9700001 L102.07,93.0000001 Z M102.14,105.73 C104.2,105.73 105.23,104.88 105.23,103.36 C105.23,102.23 104.77,101.49 102.84,100.79 L102.09,105.73 L102.14,105.73 Z" id="Shape" fill="#8B1D41"></path>
            </g>
        </g>
    </g>
</svg>