<?xml version="1.0" encoding="UTF-8"?>
<svg width="256px" height="256px" viewBox="0 0 256 256" version="1.1" xmlns="http://www.w3.org/2000/svg" xmlns:xlink="http://www.w3.org/1999/xlink">
    <!-- Generator: Sketch 56.3 (81716) - https://sketch.com -->
    <title>Icons/Illustrative/misc/wishlist-256x256</title>
    <desc>Created with Sketch.</desc>
    <g id="Icons/Illustrative/misc/wishlist-256x256" stroke="none" stroke-width="1" fill="none" fill-rule="evenodd">
        <g id="Icons/Illustrative/Oval" fill="#F2F3F2">
            <circle id="Oval" cx="128" cy="128" r="128"></circle>
        </g>
        <g id="wish-list" transform="translate(68.000000, 76.000000)">
            <g id="Group">
                <rect id="Rectangle" fill="#8B1D41" fill-rule="nonzero" x="44.275" y="9.6" width="74.8" height="15"></rect>
                <rect id="Rectangle" fill="#8B1D41" fill-rule="nonzero" x="44.275" y="47" width="74.8" height="15"></rect>
                <rect id="Rectangle" fill="#8B1D41" fill-rule="nonzero" x="44.275" y="84.4" width="74.8" height="15"></rect>
                <path d="M29.075,13 C29.675,12.4 29.875,11.6 29.675,10.8 C29.475,10 28.675,9.4 27.875,9.4 L21.275,8.4 C20.475,8.2 19.875,7.8 19.675,7.2 L16.675,1.2 C16.275,0.4 15.675,8.8817842e-14 14.875,8.8817842e-14 C14.875,8.8817842e-14 14.875,8.8817842e-14 14.675,8.8817842e-14 L14.675,25.2 C15.075,25.2 15.275,25.2 15.675,25.4 L21.475,28.4 C21.875,28.6 22.475,28.6 22.875,28.6 C24.075,28.4 24.875,27.2 24.675,26 L23.475,19.4 C23.275,18.8 23.675,18 24.075,17.6 L29.075,13 Z" id="Path" fill="#8B1D41"></path>
                <path d="M14.875,-2.25597319e-13 C14.075,-2.25597319e-13 13.475,0.4 13.075,1.2 L10.075,7.2 C9.675,7.8 9.075,8.2 8.475,8.4 L1.875,9.4 C1.075,9.6 0.275,10 0.075,10.8 C-0.125,11.6 0.075,12.4 0.675,13 L5.275,17.6 C5.875,18.2 6.075,18.8 5.875,19.6 L4.675,26 C4.675,26.4 4.675,27 4.875,27.4 C5.475,28.4 6.675,29 7.875,28.4 L13.675,25.4 C14.075,25.2 14.275,25.2 14.675,25.2 L14.675,-2.25597319e-13 L14.875,-2.25597319e-13 Z" id="Path" fill="#C41F3E"></path>
                <path d="M29.075,50.4 C29.675,49.8 29.875,49 29.675,48.2 C29.475,47.4 28.675,46.8 27.875,46.8 L21.275,45.6 C20.475,45.4 19.875,45 19.675,44.4 L16.675,38.4 C16.275,37.6 15.675,37.2 14.875,37.2 C14.875,37.2 14.875,37.2 14.675,37.2 L14.675,62.4 C15.075,62.4 15.275,62.4 15.675,62.6 L21.475,65.6 C21.875,65.8 22.475,65.8 22.875,65.8 C24.075,65.6 24.875,64.4 24.675,63.2 L23.475,56.6 C23.275,56 23.675,55.2 24.075,54.8 L29.075,50.4 Z" id="Path" fill="#8B1D41"></path>
                <path d="M14.875,37.2 C14.075,37.2 13.475,37.6 13.075,38.4 L10.075,44.4 C9.675,45 9.075,45.4 8.475,45.6 L1.875,46.6 C1.075,46.8 0.275,47.2 0.075,48 C-0.125,48.8 0.075,49.6 0.675,50.2 L5.475,54.8 C6.075,55.4 6.275,56 6.075,56.8 L4.875,63.2 C4.875,63.6 4.875,64.2 5.075,64.6 C5.675,65.6 6.875,66.2 8.075,65.6 L13.875,62.6 C14.275,62.4 14.475,62.4 14.875,62.4 L14.875,37.2 Z" id="Path" fill="#C41F3E"></path>
                <path d="M29.075,87.8 C29.675,87.2 29.875,86.4 29.675,85.6 C29.475,84.8 28.675,84.2 27.875,84.2 L21.275,83 C20.475,82.8 19.875,82.4 19.675,81.8 L16.675,75.8 C16.275,75 15.675,74.6 14.875,74.6 C14.875,74.6 14.875,74.6 14.675,74.6 L14.675,99.8 C15.075,99.8 15.275,99.8 15.675,100 L21.475,103 C21.875,103.2 22.475,103.2 22.875,103.2 C24.075,103 24.875,101.8 24.675,100.6 L23.475,94 C23.275,93.4 23.675,92.6 24.075,92.2 L29.075,87.8 Z" id="Path" fill="#8B1D41"></path>
                <path d="M14.875,74.6 C14.075,74.6 13.475,75 13.075,75.8 L10.075,81.8 C9.675,82.4 9.075,82.8 8.475,83 L1.875,84 C1.075,84.2 0.275,84.6 0.075,85.4 C-0.125,86.2 0.075,87 0.675,87.6 L5.475,92.2 C6.075,92.8 6.275,93.4 6.075,94.2 L4.875,100.6 C4.875,101 4.875,101.6 5.075,102 C5.675,103 6.875,103.6 8.075,103 L13.875,100 C14.275,99.8 14.475,99.8 14.875,99.8 L14.875,74.6 Z" id="Path" fill="#C41F3E"></path>
            </g>
        </g>
    </g>
</svg>