<svg id="Layer_1" data-name="Layer 1" xmlns="http://www.w3.org/2000/svg" viewBox="0 0 200 84"><defs><style>.cls-1{fill:#664b9f;}</style></defs><path class="cls-1" d="M117.69,69.15A18.86,18.86,0,0,1,115.43,62a1.32,1.32,0,0,0-.56-1,1.42,1.42,0,0,0-.8-.27,2.48,2.48,0,0,0-.27,0,7.66,7.66,0,0,1-1.51.15c-1.59,0-2.81-.26-2.81-3.63V54.12h0V8.9a1.25,1.25,0,0,0-1.26-1.25H99.07A1.25,1.25,0,0,0,97.82,8.9h0V58.43c0,3.71.34,6.51,2,9,2.09,2.87,6.23,4.53,10,4.53h.6a20.34,20.34,0,0,0,6.44-.85,1.42,1.42,0,0,0,.84-.82A1.37,1.37,0,0,0,117.69,69.15Z"/><path class="cls-1" d="M142.5,67.53c-1.69-2.46-2.22-2.88-3.35-5.53a1.93,1.93,0,0,0-.56-.94,1.32,1.32,0,0,0-.81-.27l-.26,0A8.6,8.6,0,0,1,136,61c-1.59,0-2.81-.27-2.81-3.63V54.12h0V8.9a1.25,1.25,0,0,0-1.26-1.25h-9.15a1.25,1.25,0,0,0-1.25,1.25V58.43c0,3.71.34,6.51,2,9,2.09,2.87,6.23,4.53,10,4.53h.6a20.34,20.34,0,0,0,6.44-.85A9.34,9.34,0,0,0,142.72,70C143.62,69.06,142.73,67.87,142.5,67.53Z"/><path class="cls-1" d="M70,23.84c-6.93,0-12.81,2.47-17,7.06a25.41,25.41,0,0,0-6.16,17.21c0,6.85,2.17,12.73,6.26,17C57.33,69.6,63.5,72,70.87,72a26.29,26.29,0,0,0,19.85-8.29,1.21,1.21,0,0,0,0-1.77,25.83,25.83,0,0,1-6-5.73,1.4,1.4,0,0,0-.87-.35h0a1.25,1.25,0,0,0-.88.4C79.77,59.6,75.76,61,71.12,61,64.26,61,60,57.74,59.2,51.45H91a1.27,1.27,0,0,0,1.25-1.13A30.09,30.09,0,0,0,92.47,47a24,24,0,0,0-6-16.53C82.37,26.14,76.66,23.84,70,23.84ZM59.42,42.28c.95-5.22,5-8.53,10.62-8.53s9.52,3.16,10.52,8.53Z"/><path class="cls-1" d="M164.88,23.84c-6.93,0-12.81,2.47-17,7.06-4,4.35-6.16,10.46-6.16,17.21s2.17,12.73,6.26,17C152.25,69.6,158.43,72,165.8,72a26.29,26.29,0,0,0,19.85-8.29,1.2,1.2,0,0,0,0-1.77,25.83,25.83,0,0,1-6-5.73,1.4,1.4,0,0,0-.87-.35h0a1.23,1.23,0,0,0-.88.4C174.7,59.6,170.69,61,166.05,61c-6.87,0-11.09-3.24-11.92-9.53H186a1.26,1.26,0,0,0,1.23-1.13,30.08,30.08,0,0,0,.17-3.29,24,24,0,0,0-6-16.53C177.31,26.14,171.6,23.84,164.88,23.84ZM154.35,42.28c1-5.22,5-8.53,10.62-8.53s9.52,3.16,10.52,8.53Z"/><path class="cls-1" d="M49,68.83l-.13-.13-.11-.11a26.4,26.4,0,0,1-5.16-7.85A1.26,1.26,0,0,0,42.44,60h-24L47.78,22.47a1.31,1.31,0,0,0,.26-.78V14.38a1.26,1.26,0,0,0-1.24-1.26H31V2.63A.63.63,0,0,0,30.35,2H20.63a.63.63,0,0,0-.63.63V13.12H4.5a1.26,1.26,0,0,0-1.25,1.26v8.48A1.25,1.25,0,0,0,4.5,24.11H31.41L2.27,61.29a1.25,1.25,0,0,0-.27.78v7.64A1.25,1.25,0,0,0,3.26,71H20V81.46a.63.63,0,0,0,.63.63h9.72a.63.63,0,0,0,.63-.62h0V71H48.1a1.26,1.26,0,0,0,1.26-1.26A1.23,1.23,0,0,0,49,68.83Z"/><path class="cls-1" d="M187.22,18.5a5.25,5.25,0,0,1,.43-2.14,5.35,5.35,0,0,1,1.16-1.7,5.44,5.44,0,0,1,5.87-1.13,5.35,5.35,0,0,1,2.89,2.8,5.14,5.14,0,0,1,.43,2.11,5.25,5.25,0,0,1-.43,2.14,5.43,5.43,0,0,1-8.76,1.7,5.16,5.16,0,0,1-1.16-1.68A5.06,5.06,0,0,1,187.22,18.5Zm.86,0a4.5,4.5,0,0,0,1.32,3.23,4.72,4.72,0,0,0,1.44,1,4.62,4.62,0,0,0,3.54,0,4.39,4.39,0,0,0,1.43-1,4.48,4.48,0,0,0,1-1.48,4.54,4.54,0,0,0,.35-1.82,4.4,4.4,0,0,0-1.34-3.24,4.61,4.61,0,0,0-5-.95,4.72,4.72,0,0,0-1.44,1,4.45,4.45,0,0,0-1,1.48,4.59,4.59,0,0,0-.32,1.8Zm2.53-3.09h2.27a2.64,2.64,0,0,1,1.66.42,1.63,1.63,0,0,1,.56,1.36,1.5,1.5,0,0,1-.49,1.21,2.23,2.23,0,0,1-1.16.46l1.78,2.73h-.94l-1.69-2.66h-1.11v2.66h-.86Zm.86,2.76h1.68a1.64,1.64,0,0,0,.54-.13.8.8,0,0,0,.38-.3,1,1,0,0,0,.14-.57,1,1,0,0,0-.13-.5.81.81,0,0,0-.32-.29,1.22,1.22,0,0,0-.46-.13,3.91,3.91,0,0,0-.49,0h-1.34Z"/></svg>