<?xml version="1.0" encoding="UTF-8"?>
<svg width="256px" height="256px" viewBox="0 0 256 256" version="1.1" xmlns="http://www.w3.org/2000/svg" xmlns:xlink="http://www.w3.org/1999/xlink">
    <!-- Generator: Sketch 56.3 (81716) - https://sketch.com -->
    <title>Icons/Illustrative/cheques/chequing-256x256</title>
    <desc>Created with Sketch.</desc>
    <g id="Icons/Illustrative/cheques/chequing-256x256" stroke="none" stroke-width="1" fill="none" fill-rule="evenodd">
        <g id="Icons/Illustrative/Oval" fill="#F2F3F2">
            <circle id="Oval" cx="128" cy="128" r="128"></circle>
        </g>
        <g id="chequing" transform="translate(57.000000, 91.000000)" fill-rule="nonzero">
            <rect id="Rectangle" fill="#C42040" x="0.31" y="0.28" width="141.39" height="73.21" rx="5.05"></rect>
            <polygon id="Path" fill="#FFFFFF" points="129.49 19.63 12.51 19.63 12.51 15.63 123.2 15.63 129.49 15.63"></polygon>
            <polygon id="Path" fill="#FFFFFF" points="129.49 33.05 12.51 33.05 12.51 29.05 123.61 29.05 129.49 29.05"></polygon>
            <path d="M86.71,53.78 C90.22,51.47 93.07,48.53 93.18,45.14 L93.18,44.37 C91.54,45.13 87.75,49.57 86.71,53.78 Z M128,60 C124.81,61.68 122,62.06 119.61,61 C117.987722,60.2270242 116.676086,58.9259656 115.89,57.31 L110.64,59.64 C107.96,60.85 105.81,60.88 104.22,59.76 C103.721391,59.3943454 103.305649,58.9274871 103,58.39 C99.123882,62.6898166 93.015869,64.1880833 87.59,62.17 C86.0682058,61.6805737 84.7796858,60.648334 83.97,59.27 C81.5447347,60.4198286 79.0379282,61.3891271 76.47,62.17 L75.55,58.93 C78.1623339,58.152353 80.7019387,57.1485567 83.14,55.93 C83.1377877,54.9796449 83.251971,54.0325955 83.48,53.11 C84.84,47.51 90.19,40.5 93.95,41 C94.78,41.12 96.71,41.8 96.58,45.33 C96.39,50.76 91.73,54.87 86.95,57.67 C87.3254759,58.2904647 87.9053716,58.760746 88.59,59 C97.53,62.18 102.12,54 102.33,53.7 C102.704978,53.0216627 103.497401,52.690483 104.243552,52.9002635 C104.989703,53.1100441 105.493448,53.8056416 105.46,54.58 C105.46,55.17 105.46,56.58 106.18,57.07 C106.9,57.56 107.86,57.27 109.27,56.63 L115.98,53.63 C116.428796,53.4144582 116.951204,53.4144582 117.4,53.63 C117.842415,53.8499189 118.167271,54.2514261 118.29,54.73 C118.656664,56.1574787 119.592885,57.3720356 120.88,58.09 C122.734564,58.6219694 124.730195,58.2875266 126.31,57.18 L128,60 Z" id="Shape" fill="#FFFFFF"></path>
        </g>
    </g>
</svg>