<svg width="135" height="40" viewBox="0 0 135 40" fill="none" xmlns="http://www.w3.org/2000/svg">
<path d="M130 0H5C2.23858 0 0 2.23858 0 5V35C0 37.7614 2.23858 40 5 40H130C132.761 40 135 37.7614 135 35V5C135 2.23858 132.761 0 130 0Z" fill="black"/>
<path d="M130 0.8C132.32 0.8 134.2 2.68 134.2 5V35C134.2 37.32 132.32 39.2 130 39.2H5C2.68 39.2 0.8 37.32 0.8 35V5C0.8 2.68 2.68 0.8 5 0.8H130ZM130 0H5C2.25 0 0 2.25 0 5V35C0 37.75 2.25 40 5 40H130C132.75 40 135 37.75 135 35V5C135 2.25 132.75 0 130 0Z" fill="#A6A6A6"/>
<path d="M47.4201 10.2401C47.4201 11.0801 47.1701 11.7501 46.6701 12.2401C46.1101 12.8301 45.3701 13.1301 44.4701 13.1301C43.5701 13.1301 42.8701 12.8301 42.2601 12.2301C41.6501 11.6301 41.3501 10.8801 41.3501 10.0001C41.3501 9.12012 41.6501 8.37012 42.2601 7.77012C42.8701 7.17012 43.6001 6.87012 44.4701 6.87012C44.9001 6.87012 45.3101 6.95012 45.7001 7.12012C46.0901 7.29012 46.4001 7.51012 46.6401 7.79012L46.1101 8.32012C45.7101 7.85012 45.1701 7.61012 44.4701 7.61012C43.8401 7.61012 43.2901 7.83012 42.8301 8.28012C42.3701 8.72012 42.1401 9.30012 42.1401 10.0101C42.1401 10.7201 42.3701 11.3001 42.8301 11.7401C43.2901 12.1801 43.8401 12.4101 44.4701 12.4101C45.1401 12.4101 45.7001 12.1901 46.1501 11.7401C46.4401 11.4501 46.6101 11.0401 46.6501 10.5201H44.4701V9.80012H47.3801C47.4101 9.96012 47.4201 10.1101 47.4201 10.2501V10.2401Z" fill="white" stroke="white" stroke-width="0.2" stroke-miterlimit="10"/>
<path d="M52.0303 7.74H49.3003V9.64H51.7603V10.36H49.3003V12.26H52.0303V13H48.5303V7H52.0303V7.74Z" fill="white" stroke="white" stroke-width="0.2" stroke-miterlimit="10"/>
<path d="M55.2801 13H54.5101V7.74H52.8301V7H56.9501V7.74H55.2701V13H55.2801Z" fill="white" stroke="white" stroke-width="0.2" stroke-miterlimit="10"/>
<path d="M59.9399 13V7H60.7099V13H59.9399Z" fill="white" stroke="white" stroke-width="0.2" stroke-miterlimit="10"/>
<path d="M64.1302 13H63.3602V7.74H61.6802V7H65.8002V7.74H64.1202V13H64.1302Z" fill="white" stroke="white" stroke-width="0.2" stroke-miterlimit="10"/>
<path d="M73.6101 12.2201C73.0201 12.8301 72.2901 13.1301 71.4101 13.1301C70.5301 13.1301 69.8001 12.8301 69.2101 12.2201C68.6201 11.6101 68.3301 10.8701 68.3301 10.0001C68.3301 9.13012 68.6201 8.38012 69.2101 7.78012C69.8001 7.17012 70.5301 6.87012 71.4101 6.87012C72.2901 6.87012 73.0101 7.17012 73.6101 7.78012C74.2001 8.39012 74.5001 9.13012 74.5001 10.0001C74.5001 10.8701 74.2001 11.6201 73.6201 12.2201H73.6101ZM69.7801 11.7201C70.2201 12.1701 70.7701 12.3901 71.4101 12.3901C72.0501 12.3901 72.6001 12.1701 73.0401 11.7201C73.4801 11.2701 73.7101 10.7001 73.7101 10.0001C73.7101 9.30012 73.4901 8.73012 73.0401 8.28012C72.6001 7.83012 72.0501 7.61012 71.4101 7.61012C70.7701 7.61012 70.2201 7.83012 69.7801 8.28012C69.3401 8.73012 69.1101 9.30012 69.1101 10.0001C69.1101 10.7001 69.3301 11.2701 69.7801 11.7201Z" fill="white" stroke="white" stroke-width="0.2" stroke-miterlimit="10"/>
<path d="M75.5801 13V7H76.5201L79.4401 11.67H79.4701L79.4401 10.51V7H80.2101V13H79.4101L76.3601 8.11H76.3301L76.3601 9.27V13.01H75.5901L75.5801 13Z" fill="white" stroke="white" stroke-width="0.2" stroke-miterlimit="10"/>
<path d="M68.14 21.75C65.79 21.75 63.87 23.54 63.87 26C63.87 28.46 65.79 30.25 68.14 30.25C70.49 30.25 72.41 28.45 72.41 26C72.41 23.55 70.49 21.75 68.14 21.75ZM68.14 28.5801C66.85 28.5801 65.74 27.52 65.74 26C65.74 24.48 66.85 23.42 68.14 23.42C69.43 23.42 70.54 24.47 70.54 26C70.54 27.53 69.43 28.5801 68.14 28.5801ZM58.82 21.75C56.47 21.75 54.55 23.54 54.55 26C54.55 28.46 56.47 30.25 58.82 30.25C61.17 30.25 63.09 28.45 63.09 26C63.09 23.55 61.17 21.75 58.82 21.75ZM58.82 28.5801C57.53 28.5801 56.42 27.52 56.42 26C56.42 24.48 57.53 23.42 58.82 23.42C60.11 23.42 61.22 24.47 61.22 26C61.22 27.53 60.11 28.5801 58.82 28.5801ZM47.74 23.0601V24.8601H52.06C51.93 25.8801 51.59 26.6201 51.08 27.1301C50.45 27.7601 49.47 28.4501 47.75 28.4501C45.09 28.4501 43.01 26.3101 43.01 23.6501C43.01 20.9901 45.09 18.85 47.75 18.85C49.18 18.85 50.23 19.41 51 20.14L52.27 18.8701C51.19 17.8401 49.76 17.05 47.74 17.05C44.1 17.05 41.04 20.01 41.04 23.66C41.04 27.31 44.1 30.2701 47.74 30.2701C49.71 30.2701 51.19 29.63 52.35 28.42C53.54 27.23 53.91 25.5501 53.91 24.2001C53.91 23.7801 53.88 23.39 53.81 23.07H47.74V23.0601ZM93.05 24.46C92.7 23.51 91.62 21.75 89.41 21.75C87.2 21.75 85.4 23.47 85.4 26C85.4 28.38 87.2 30.25 89.62 30.25C91.57 30.25 92.7 29.06 93.16 28.37L91.71 27.4001C91.23 28.1101 90.57 28.5801 89.62 28.5801C88.67 28.5801 87.99 28.1401 87.56 27.2901L93.25 24.94L93.06 24.46H93.05ZM87.25 25.8801C87.2 24.2401 88.52 23.4001 89.47 23.4001C90.21 23.4001 90.84 23.77 91.05 24.3L87.25 25.8801ZM82.63 30H84.5V17.5H82.63V30ZM79.57 22.7001H79.51C79.09 22.2001 78.29 21.75 77.27 21.75C75.14 21.75 73.19 23.62 73.19 26.0201C73.19 28.4201 75.14 30.26 77.27 30.26C78.28 30.26 79.09 29.8101 79.51 29.2901H79.57V29.9001C79.57 31.5301 78.7 32.4001 77.3 32.4001C76.16 32.4001 75.45 31.58 75.16 30.89L73.53 31.57C74 32.7 75.24 34.0801 77.3 34.0801C79.49 34.0801 81.34 32.7901 81.34 29.6501V22.01H79.57V22.7001ZM77.42 28.5801C76.13 28.5801 75.05 27.5001 75.05 26.0201C75.05 24.5401 76.13 23.43 77.42 23.43C78.71 23.43 79.69 24.5301 79.69 26.0201C79.69 27.5101 78.69 28.5801 77.42 28.5801ZM101.81 17.5H97.34V30H99.21V25.26H101.82C103.89 25.26 105.92 23.76 105.92 21.38C105.92 19 103.89 17.5 101.82 17.5H101.81ZM101.85 23.5201H99.2V19.23H101.85C103.25 19.23 104.04 20.3901 104.04 21.3701C104.04 22.3501 103.25 23.51 101.85 23.51V23.5201ZM113.39 21.73C112.04 21.73 110.64 22.33 110.06 23.64L111.72 24.3301C112.07 23.6401 112.73 23.41 113.42 23.41C114.38 23.41 115.37 23.9901 115.38 25.0201V25.1501C115.04 24.9601 114.32 24.67 113.43 24.67C111.64 24.67 109.83 25.65 109.83 27.48C109.83 29.15 111.29 30.23 112.93 30.23C114.18 30.23 114.88 29.67 115.31 29.01H115.37V29.98H117.17V25.19C117.17 22.97 115.51 21.73 113.37 21.73H113.39ZM113.16 28.5801C112.55 28.5801 111.7 28.2701 111.7 27.5201C111.7 26.5601 112.76 26.19 113.68 26.19C114.5 26.19 114.89 26.3701 115.38 26.6101C115.24 27.7701 114.24 28.59 113.16 28.59V28.5801ZM123.74 22L121.6 27.42H121.54L119.32 22H117.31L120.64 29.5801L118.74 33.7901H120.69L125.82 22H123.75H123.74ZM106.94 30H108.81V17.5H106.94V30Z" fill="white"/>
<path d="M20.7203 19.4199L10.0703 30.7199C10.4003 31.9499 11.5203 32.8499 12.8503 32.8499C13.3803 32.8499 13.8803 32.7099 14.3103 32.4499L14.3403 32.4299L26.3203 25.5199L20.7103 19.4099L20.7203 19.4199Z" fill="#EA4335"/>
<path d="M31.49 17.5H31.48L26.31 14.49L20.48 19.68L26.33 25.53L31.48 22.56C32.38 22.07 32.99 21.12 32.99 20.03C32.99 18.94 32.39 17.99 31.49 17.51V17.5Z" fill="#FBBC04"/>
<path d="M10.0702 9.27979C10.0102 9.51979 9.97021 9.75978 9.97021 10.0198V29.9898C9.97021 30.2498 10.0002 30.4898 10.0702 30.7298L21.0802 19.7198L10.0702 9.27979Z" fill="#4285F4"/>
<path d="M20.8003 19.9999L26.3103 14.4899L14.3403 7.54989C13.9103 7.28989 13.4003 7.13989 12.8503 7.13989C11.5203 7.13989 10.4003 8.04989 10.0703 9.26989L20.8003 19.9899V19.9999Z" fill="#34A853"/>
</svg>
